<?xml version="1.0" encoding="UTF-8"?>
<svg id="Layer_2" data-name="Layer 2" xmlns="http://www.w3.org/2000/svg" viewBox="0 0 320.29 94.04">
  <defs>
    <style>
      .cls-1 {
        fill: #fdb82f;
      }

      .cls-2 {
        fill: #a6bdac;
      }
    </style>
  </defs>
  <g id="Layer_2-2" data-name="Layer 2">
    <g>
      <g>
        <polygon class="cls-2" points=".04 .88 .04 75.87 20.04 75.87 20.04 44.12 31.29 44.12 31.29 29.62 19.17 29.62 19.17 16.12 33.29 16.12 33.29 .88 .04 .88"/>
        <rect class="cls-2" x="38.29" y=".88" width="18.75" height="75"/>
        <path class="cls-2" d="m268.2,13.12c0-6-8.7-12.23-16.32-12.23s-28.92-.02-28.92-.02v75h31.92c5.75,0,13.32-7,13.32-14V13.12Zm-26.7,48.75l.2-48.75h3.26c2.5,0,3.49,2.38,3.49,4s.01,38.33.01,40.75-1.85,4-3.38,4-3.58,0-3.58,0Z"/>
        <path class="cls-2" d="m195.79,61.88V.88h18.75v61c0,6.08-2.5,15-22.12,15s-22.13-10.33-22.13-15V.88h18.75v61c0,1.17,2.02,2.08,3.5,2.08s3.25-.75,3.25-2.08Z"/>
        <polygon class="cls-2" points="96.28 75.87 66.03 75.87 66.03 .88 84.78 .88 84.78 60.61 96.29 60.61 96.28 75.87"/>
        <path class="cls-2" d="m301.54,75.87h18.75L309.79.88h-27.88l-10.5,75h18.75l1.21-14h8.86l1.31,14Zm-9.05-26.87l3.15-32.87,3.39,32.87h-6.54Z"/>
        <polygon class="cls-1" points="149.04 0 144.67 0 136.67 0 132.1 34.22 127.54 0 119.79 0 115.17 0 101.04 0 101.04 76.88 119.79 76.88 119.79 34.69 125.42 76.88 126.42 76.88 137.79 76.88 138.79 76.88 144.67 32.81 144.67 76.88 163.42 76.88 163.42 0 149.04 0"/>
      </g>
      <g>
        <path class="cls-2" d="m0,93.91v-11.18h7.69v1.32H1.4v3.42h5.59v1.32H1.4v5.11H0Z"/>
        <path class="cls-2" d="m8.79,93.91v-11.18h1.4v11.18h-1.4Z"/>
        <path class="cls-2" d="m12.1,93.91v-11.18h1.4v9.93h5.87v1.25h-7.26Z"/>
        <path class="cls-2" d="m20.43,93.91v-11.18h1.75l3.49,8.81,3.49-8.81h1.75v11.18h-1.4v-8.39l-3.37,8.39h-.98l-3.35-8.39v8.39h-1.4Z"/>
        <path class="cls-2" d="m37.61,93.91v-11.18h4.6c1.07,0,1.92.3,2.56.9.64.59.96,1.38.96,2.37s-.32,1.81-.96,2.41c-.64.6-1.49.9-2.56.9h-3.2v4.6h-1.4Zm1.4-5.85h3.2c.64,0,1.15-.19,1.55-.56.38-.38.57-.88.57-1.5s-.19-1.1-.57-1.47c-.39-.37-.91-.56-1.55-.56h-3.2v4.08Z"/>
        <path class="cls-2" d="m46.97,93.91v-11.18h4.82c1.1,0,1.99.3,2.65.9.66.59.99,1.38.99,2.38,0,.61-.16,1.17-.48,1.68-.34.5-.79.86-1.34,1.07.4.28.72.62.96,1.03.25.43.37.88.37,1.34l.07,2.17c0,.12.07.29.2.5l.07.13h-1.4l-.04-.07c-.16-.27-.24-.48-.24-.63l-.07-2.1c0-.54-.24-.98-.72-1.32-.44-.32-.97-.48-1.58-.48h-2.87v4.6h-1.4Zm1.4-5.85h3.42c.67,0,1.22-.19,1.64-.56.4-.38.61-.88.61-1.5s-.2-1.1-.61-1.47c-.42-.37-.96-.56-1.64-.56h-3.42v4.08Z"/>
        <path class="cls-2" d="m56.29,88.32c0-1.75.46-3.16,1.38-4.23.92-1.05,2.14-1.58,3.66-1.58s2.73.53,3.64,1.58c.92,1.07,1.38,2.48,1.38,4.23s-.46,3.11-1.38,4.16c-.91,1.04-2.12,1.56-3.64,1.56s-2.74-.52-3.66-1.56c-.92-1.04-1.38-2.43-1.38-4.16Zm1.4,0c0,1.35.33,2.43.99,3.25.66.81,1.54,1.21,2.65,1.21s1.97-.4,2.63-1.21c.66-.82.99-1.91.99-3.25s-.33-2.49-.99-3.31c-.66-.83-1.54-1.25-2.63-1.25s-1.99.42-2.65,1.25c-.66.82-.99,1.92-.99,3.31Z"/>
        <path class="cls-2" d="m67.75,93.91v-11.18h3.49c1.52,0,2.73.51,3.64,1.53.92,1.02,1.38,2.37,1.38,4.06s-.46,3.05-1.38,4.06c-.91,1.02-2.12,1.53-3.64,1.53h-3.49Zm1.4-1.25h2.1c1.09,0,1.97-.39,2.63-1.18.66-.8.99-1.85.99-3.17s-.33-2.37-.99-3.15c-.66-.79-1.54-1.18-2.63-1.18h-2.1v8.68Z"/>
        <path class="cls-2" d="m77.48,90.56v-7.83h1.4v7.83c0,.66.29,1.21.86,1.64.54.39,1.18.59,1.93.59s1.39-.2,1.93-.59c.58-.43.86-.98.86-1.64v-7.83h1.4v7.83c0,1.02-.43,1.86-1.29,2.52-.81.64-1.78.96-2.91.96s-2.1-.32-2.91-.96c-.86-.66-1.29-1.5-1.29-2.52Z"/>
        <path class="cls-2" d="m87.1,88.32c0-1.75.42-3.16,1.25-4.23.85-1.05,1.96-1.58,3.35-1.58,1.09,0,2.04.35,2.83,1.05.81.71,1.26,1.6,1.36,2.67h-1.4c-.06-.7-.36-1.29-.9-1.77-.54-.47-1.17-.7-1.89-.7-1.01,0-1.81.48-2.41,1.43-.53.86-.79,1.9-.79,3.13s.27,2.23.81,3.07c.6.93,1.4,1.4,2.39,1.4.82,0,1.48-.25,1.99-.74.52-.49.78-1.15.81-1.97h1.4c0,1.2-.38,2.16-1.14,2.87-.77.72-1.79,1.08-3.05,1.08-1.39,0-2.5-.52-3.35-1.56-.83-1.04-1.25-2.43-1.25-4.16Z"/>
        <path class="cls-2" d="m97.14,93.91v-11.18h1.4v11.18h-1.4Z"/>
        <path class="cls-2" d="m100.45,93.91v-11.18h1.4l5.59,8.81v-8.81h1.4v11.18h-1.4l-5.59-8.79v8.79h-1.4Z"/>
        <path class="cls-2" d="m110.24,88.32c0-1.75.43-3.16,1.29-4.23.87-1.05,2.02-1.58,3.46-1.58,1.07,0,2.01.33,2.83.99.82.67,1.32,1.53,1.51,2.57l-1.4.15c-.12-.71-.47-1.3-1.03-1.77-.55-.47-1.19-.7-1.91-.7-1.02,0-1.83.42-2.43,1.25-.61.82-.92,1.92-.92,3.31s.31,2.43.92,3.25c.6.81,1.41,1.21,2.43,1.21.93,0,1.68-.32,2.24-.96.56-.62.85-1.46.85-2.52h-3.09v-1.38h4.49v5.7h-.99l-.2-1.2c-.36.52-.83.91-1.43,1.2-.58.27-1.2.4-1.86.4-1.43,0-2.59-.52-3.46-1.56-.86-1.04-1.29-2.43-1.29-4.16Z"/>
        <path class="cls-2" d="m125.26,88.32c0-1.75.43-3.16,1.29-4.23.87-1.05,2.02-1.58,3.46-1.58,1.07,0,2.01.33,2.83.99.82.67,1.32,1.53,1.51,2.57l-1.4.15c-.12-.71-.47-1.3-1.03-1.77-.55-.47-1.19-.7-1.91-.7-1.02,0-1.83.42-2.43,1.25-.61.82-.92,1.92-.92,3.31s.31,2.43.92,3.25c.6.81,1.41,1.21,2.43,1.21.93,0,1.68-.32,2.24-.96.56-.62.85-1.46.85-2.52h-3.09v-1.38h4.49v5.7h-.99l-.2-1.2c-.36.52-.83.91-1.43,1.2-.58.27-1.2.4-1.86.4-1.43,0-2.59-.52-3.46-1.56-.86-1.04-1.29-2.43-1.29-4.16Z"/>
        <path class="cls-2" d="m136.02,93.91v-11.18h4.82c1.1,0,1.99.3,2.65.9.66.59.99,1.38.99,2.38,0,.61-.16,1.17-.48,1.68-.34.5-.79.86-1.34,1.07.4.28.72.62.96,1.03.25.43.37.88.37,1.34l.07,2.17c0,.12.07.29.2.5l.07.13h-1.4l-.04-.07c-.16-.27-.24-.48-.24-.63l-.07-2.1c0-.54-.24-.98-.72-1.32-.44-.32-.97-.48-1.58-.48h-2.87v4.6h-1.4Zm1.4-5.85h3.42c.67,0,1.22-.19,1.64-.56.4-.38.61-.88.61-1.5s-.2-1.1-.61-1.47c-.42-.37-.96-.56-1.64-.56h-3.42v4.08Z"/>
        <path class="cls-2" d="m145.35,88.32c0-1.75.46-3.16,1.38-4.23.92-1.05,2.14-1.58,3.66-1.58s2.73.53,3.64,1.58c.92,1.07,1.38,2.48,1.38,4.23s-.46,3.11-1.38,4.16c-.91,1.04-2.12,1.56-3.64,1.56s-2.74-.52-3.66-1.56c-.92-1.04-1.38-2.43-1.38-4.16Zm1.4,0c0,1.35.33,2.43.99,3.25.66.81,1.54,1.21,2.65,1.21s1.97-.4,2.63-1.21c.66-.82.99-1.91.99-3.25s-.33-2.49-.99-3.31c-.66-.83-1.54-1.25-2.63-1.25s-1.99.42-2.65,1.25c-.66.82-.99,1.92-.99,3.31Z"/>
        <path class="cls-2" d="m156.64,90.56v-7.83h1.4v7.83c0,.66.29,1.21.86,1.64.54.39,1.18.59,1.93.59s1.39-.2,1.93-.59c.58-.43.86-.98.86-1.64v-7.83h1.4v7.83c0,1.02-.43,1.86-1.29,2.52-.81.64-1.78.96-2.91.96s-2.1-.32-2.91-.96c-.86-.66-1.29-1.5-1.29-2.52Z"/>
        <path class="cls-2" d="m166.77,93.91v-11.18h4.6c1.07,0,1.92.3,2.56.9.64.59.96,1.38.96,2.37s-.32,1.81-.96,2.41-1.49.9-2.56.9h-3.2v4.6h-1.4Zm1.4-5.85h3.2c.64,0,1.15-.19,1.54-.56.38-.38.57-.88.57-1.5s-.19-1.1-.57-1.47c-.39-.37-.91-.56-1.54-.56h-3.2v4.08Z"/>
      </g>
    </g>
  </g>
</svg>