<?xml version="1.0" encoding="UTF-8"?>
<svg id="Layer_2" data-name="Layer 2" xmlns="http://www.w3.org/2000/svg" viewBox="0 0 1329.38 324.44">
  <defs>
    <style>
      .cls-1 {
        fill: #231916;
      }

      .cls-2 {
        fill: #ed1c24;
      }

      .cls-2, .cls-3 {
        fill-rule: evenodd;
      }

      .cls-3 {
        fill: #028848;
      }
    </style>
  </defs>
  <g id="Layer_1-2" data-name="Layer 1">
    <g>
      <g>
        <path class="cls-3" d="m126.99,324.44h22.64s1.28-76.38,58.24-130.1l-6.47-5.82s-32.34,29.41-54.49,71.46l-2.83-71.51h-11.58l-2.82,71.51c-22.13-42.05-54.46-71.46-54.46-71.46l-6.49,5.82c56.95,53.71,58.26,130.1,58.26,130.1h0Z"/>
        <path class="cls-2" d="m207.55,69.25c0,38.25-31.01,69.26-69.27,69.26s-69.25-31.01-69.25-69.26S100.04,0,138.29,0s69.27,31,69.27,69.25Z"/>
        <g>
          <path class="cls-2" d="m138.5,188.3c0,38.25-31,69.26-69.25,69.26S0,226.55,0,188.3s31-69.25,69.26-69.25,69.25,31,69.25,69.25Z"/>
          <path class="cls-2" d="m276.59,188.3c0,38.25-31.01,69.26-69.26,69.26s-69.26-31.01-69.26-69.26,31.01-69.25,69.26-69.25,69.26,31,69.26,69.25Z"/>
        </g>
      </g>
      <g>
        <g>
          <rect class="cls-1" x="949.43" y="280.34" width="70.26" height="5.1"/>
          <polyline class="cls-1" points="1012.26 249.29 957.29 249.29 957.29 253.92 1002.91 253.92"/>
          <path class="cls-1" d="m999.74,280.34c1.75-2.95,3.12-9.86,3.12-14.53v-16.52h9.4v13.54c0,7.12-.58,13.52-2.89,17.51h-9.63Z"/>
        </g>
        <polygon class="cls-1" points="693.88 298.99 693.88 248.82 703.19 248.82 703.19 264.57 711.4 264.57 711.4 269.21 703.19 269.21 703.19 298.98 693.88 298.99"/>
        <polygon class="cls-1" points="928.67 248.82 928.67 298.99 937.98 298.98 937.98 248.82 928.67 248.82"/>
        <path class="cls-1" d="m666.2,249.6h-10.02c-1.76,17.05-8.76,31.68-20.03,41.34l3.05,3.22c8.5-6.29,15.45-14.85,20.08-24.92l1.91-4.15,1.9,4.15c4.65,10.06,11.59,18.63,20.11,24.92l3.01-3.22c-11.27-9.67-18.26-24.29-20.01-41.34Z"/>
        <polygon class="cls-1" points="777.41 248.82 777.41 294.25 721.23 294.25 721.23 298.87 786.7 298.87 786.7 248.82 777.41 248.82"/>
        <polygon class="cls-1" points="1105.81 293.96 1105.81 299.05 1176.08 299.05 1176.08 293.96 1145.58 293.96 1145.58 281.04 1136.32 281.04 1136.32 293.96 1105.81 293.96"/>
        <path class="cls-1" d="m1162.57,249.7h-50.62v32.28h57.99v-25.36c0-4.02-1.79-6.92-7.37-6.92Zm-1.97,27.84h-39.32v-23.18h36.76c1.9,0,2.57.73,2.57,2.38v20.8Z"/>
        <polygon class="cls-1" points="796.79 280.27 796.79 285.35 867.04 285.35 867.04 280.27 836.55 280.27 836.55 270.26 827.29 270.26 827.29 280.27 796.79 280.27"/>
        <path class="cls-1" d="m1191.28,285.91v16.6c0,3.99,1.78,6.87,7.32,6.87h47.9v-23.47h-55.23Zm11.61,18.92c-1.87,0-2.53-.73-2.53-2.38v-11.99h37.07v14.38h-34.54Z"/>
        <rect class="cls-1" x="721.36" y="250.25" width="50.85" height="4.63"/>
        <rect class="cls-1" x="741.56" y="246.16" width="10.47" height="8.52"/>
        <rect class="cls-1" x="741.56" y="284.65" width="10.47" height="11.17"/>
        <path class="cls-1" d="m721.84,270.06c0,9.39,11.18,17.04,24.94,17.04s24.99-7.64,24.99-17.04-11.22-17.03-24.99-17.03-24.94,7.64-24.94,17.03Zm9.2,0c0-7.21,7.07-13.05,15.74-13.05s15.78,5.85,15.78,13.05-7.08,13.04-15.78,13.04-15.74-5.85-15.74-13.04Z"/>
        <polygon class="cls-1" points="1320.03 248.82 1320.03 294.25 1263.84 294.25 1263.84 298.87 1329.32 298.87 1329.32 248.82 1320.03 248.82"/>
        <rect class="cls-1" x="1263.98" y="250.25" width="50.85" height="4.63"/>
        <rect class="cls-1" x="1284.19" y="246.16" width="10.45" height="8.52"/>
        <rect class="cls-1" x="1284.19" y="284.65" width="10.45" height="11.17"/>
        <path class="cls-1" d="m1264.45,270.06c0,9.39,11.19,17.04,24.95,17.04s24.98-7.64,24.98-17.04-11.22-17.03-24.98-17.03-24.95,7.64-24.95,17.03Zm9.21,0c0-7.21,7.05-13.05,15.73-13.05s15.76,5.85,15.76,13.05-7.05,13.04-15.76,13.04-15.73-5.85-15.73-13.04Z"/>
        <polygon class="cls-1" points="803.03 294.09 851.84 294.09 851.84 309.16 860.9 309.16 860.9 289.73 803.03 289.73 803.03 294.09"/>
        <path class="cls-1" d="m860.93,248.51v25.12h-50.71c-5.54,0-7.32-2.86-7.32-6.85v-18.27h9.35v9.93h39.32v-9.93h9.36Zm-9.36,14.34h-39.32v3.76c0,1.65.65,2.38,2.54,2.38l36.78-.02v-6.13Z"/>
        <path class="cls-1" d="m956.98,306.57c0,9.81,12.42,17.8,27.7,17.8s27.72-8,27.72-17.8-12.46-17.78-27.72-17.78-27.7,7.97-27.7,17.78Zm9.42,0c0-7.38,8.22-13.38,18.28-13.38s18.33,6.01,18.33,13.38-8.23,13.37-18.33,13.37-18.28-6.01-18.28-13.37Z"/>
        <path class="cls-1" d="m1043.99,266.39v-12.24h48.65v-4.44h-58v16.81c0,4.01,1.79,6.91,7.38,6.91h50.62v-4.66h-46.09c-1.91,0-2.57-.72-2.57-2.38Z"/>
        <path class="cls-1" d="m1035.94,306.57c0,9.81,12.42,17.8,27.69,17.8s27.73-8,27.73-17.8-12.45-17.78-27.73-17.78-27.69,7.97-27.69,17.78Zm9.41,0c0-7.38,8.22-13.38,18.28-13.38s18.33,6.01,18.33,13.38-8.23,13.37-18.33,13.37-18.28-6.01-18.28-13.37Z"/>
        <polygon class="cls-1" points="1028.52 280.35 1028.52 285.43 1098.77 285.43 1098.77 280.35 1068.28 280.35 1068.28 269.11 1059.02 269.11 1059.02 280.35 1028.52 280.35"/>
        <polyline class="cls-1" points="976.65 281.5 976.65 267.75 985.9 267.75 985.9 281.65"/>
        <rect class="cls-1" x="1183.56" y="276.25" width="70.26" height="5.1"/>
        <polyline class="cls-1" points="1246.39 249.74 1191.43 249.74 1191.43 254.38 1237.04 254.38"/>
        <path class="cls-1" d="m1234.55,277.11c1.06-3.81,2.44-6.62,2.44-11.28v-16.09h9.39v13.11c0,7.12-.58,9.41-2.21,14.26h-9.62Z"/>
        <rect class="cls-1" x="876.09" y="249.69" width="45.86" height="4.63"/>
        <path d="m904.09,251.26h-10.15c-1.64,15.73-8.98,29.74-19.86,40.05l3.02,3.15c9.92-7.44,17.59-17.66,21.92-29.5,4.33,11.83,11.99,22.06,21.92,29.5l3.02-3.15c-10.87-10.3-18.22-24.32-19.87-40.05Z"/>
      </g>
      <g>
        <g>
          <polygon class="cls-1" points="476.98 156.76 476.98 30.55 500.43 30.55 500.43 70.21 521.09 70.21 521.09 81.87 500.43 81.87 500.43 156.74 476.98 156.76"/>
          <polygon class="cls-1" points="1121.87 30.55 1098.45 30.55 1098.45 50.4 1054.92 50.4 1054.92 62.11 1098.45 62.11 1098.45 88.53 1054.92 88.53 1054.92 100.2 1098.45 100.2 1098.45 129.86 1121.87 129.83 1121.87 30.55"/>
          <polygon class="cls-1" points="1293.46 82.6 1306.01 82.6 1306.01 171.75 1329.38 171.75 1329.38 30.57 1306.01 30.57 1306.01 70.81 1293.46 70.81 1293.46 30.57 1270.08 30.57 1270.08 171.75 1293.46 171.75 1293.46 82.6"/>
          <polygon class="cls-1" points="681.83 30.55 705.25 30.55 705.25 63.1 727.27 63.1 727.27 74.75 705.25 74.75 705.25 116.17 681.83 116.17 681.83 30.55"/>
          <path class="cls-1" d="m568.77,170.53c0,27.85,31.15,50.53,69.43,50.53s69.59-22.68,69.59-50.53-31.21-50.54-69.59-50.54-69.43,22.67-69.43,50.54Zm23.61,0c0-21.87,20.57-39.62,45.83-39.62s45.98,17.75,45.98,39.62-20.64,39.6-45.98,39.6-45.83-17.76-45.83-39.6Z"/>
          <path class="cls-1" d="m1217.41,33.23h-61.93v96.54h100.07v-58.39c0-20.97-17.16-38.15-38.15-38.15Zm14.63,84.8h-53.13V45.01h28.85c13.34,0,24.28,10.92,24.28,24.29v48.73Z"/>
          <path class="cls-1" d="m407.34,33.43h-25.17c-4.42,42.91-22.03,79.71-50.4,104.05l7.64,8.07c21.41-15.78,38.87-37.36,50.55-62.69l4.8-10.43,4.82,10.43c11.66,25.33,29.12,46.91,50.54,62.69l7.62-8.07c-28.36-24.34-45.96-61.14-50.4-104.05Z"/>
          <path class="cls-1" d="m750.85,73.5c0,26.13,28.06,47.37,62.56,47.37s62.69-21.24,62.69-47.37-28.13-47.36-62.69-47.36-62.56,21.25-62.56,47.36Zm23.11,0c0-20.64,17.7-37.42,39.47-37.42s39.57,16.78,39.57,37.42-17.77,37.42-39.57,37.42-39.47-16.79-39.47-37.42Z"/>
          <path class="cls-1" d="m577.54,93.97c-4.74,0-6.41-1.83-6.41-5.98v-15.73h93.71v-39.33h-117.12v11.63h93.7v16.61h-93.7v27.18c0,10.07,4.48,17.32,18.49,17.32h101.09v-11.69h-89.75Z"/>
          <path class="cls-1" d="m946.6,73.5c0,26.13,28.08,47.37,62.58,47.37s62.69-21.24,62.69-47.37-28.13-47.36-62.69-47.36-62.58,21.25-62.58,47.36Zm23.12,0c0-20.64,17.71-37.42,39.48-37.42s39.58,16.78,39.58,37.42-17.75,37.42-39.58,37.42-39.48-16.79-39.48-37.42Z"/>
          <polygon class="cls-1" points="892.06 30.55 892.06 145.24 755.99 145.24 755.99 156.89 915.47 156.89 915.47 30.55 892.06 30.55"/>
        </g>
        <path class="cls-1" d="m1010.05,199.01c-4.76,0-6.41-1.83-6.41-6v-10.11h118.45v-37.16h-141.87v11.64h118.46v14.42h-118.46v21.56c0,10.07,4.47,17.34,18.48,17.34h125.85v-11.7h-114.5Z"/>
      </g>
      <rect class="cls-1" x="337.93" y="265.61" width="277.62" height="4.08"/>
    </g>
  </g>
</svg>