<?xml version="1.0" encoding="UTF-8"?>
<svg id="Layer_2" data-name="Layer 2" xmlns="http://www.w3.org/2000/svg" viewBox="0 0 1329.38 301">
  <defs>
    <style>
      .cls-1 {
        fill: #008acf;
      }

      .cls-2 {
        fill: #bc1339;
      }

      .cls-3 {
        fill: #e07d1c;
      }

      .cls-4 {
        fill: #575954;
      }

      .cls-5 {
        fill: #631f22;
      }
    </style>
  </defs>
  <g id="Layer_1-2" data-name="Layer 1">
    <g>
      <g>
        <path class="cls-2" d="m168.72,81.17c0,10.3-8.32,18.66-18.63,18.66s-18.63-8.35-18.63-18.66,8.31-18.62,18.63-18.62,18.63,8.34,18.63,18.62Z"/>
        <path class="cls-1" d="m40.9,19.97c-.59,10.44-9.53,18.41-19.94,17.83-10.41-.59-18.39-9.52-17.82-19.94C3.71,7.42,12.64-.56,23.08.03c10.41.58,18.41,9.5,17.82,19.94Z"/>
        <path class="cls-3" d="m204.25,220.06c-1.59,10.16-11.11,17.11-21.28,15.53-10.17-1.58-17.13-11.11-15.55-21.29,1.59-10.16,11.13-17.12,21.29-15.54,10.16,1.58,17.13,11.13,15.54,21.3Z"/>
        <path class="cls-1" d="m57.6,85.99c-.37-9.68,1.74-15.72,5.98-18.43,6.78-4.31,14.64-2.72,22.19,1.31,1.27-.8,2.68-1.62,4.23-2.41,3.91-1.96,8.04-3.51,12.05-5,10.29-3.86,20.43-6.22,22.27-16.38.84-4.6-.17-8.48-2.89-11.58-3.68-4.17-11.75-8.77-29.4-6.93-16.74,1.76-41.94,8.53-59.75,19.49-16.18,9.94-26.06,22.25-28.01,33.79-2.51,14.64,3.58,22.91,14.21,31.52l7.36,5.27c10.73,7.34,21.95,14.01,21.36,27.32-.63,14.16-23.7,25.76-32.97,29.14-8.35,3.05-18.22,12.99-12.54,24.4,3.77,7.58,13.61,10.08,32.72,5.95,25.6-5.53,52.72-17.67,68.6-34.71-25.95-25.3-44.55-61.61-45.4-82.73Z"/>
        <path class="cls-2" d="m124.83,170.61c27.52-26.2,48.71-27.43,56.44-20.86,1.25,1.07,3.95,5.8,2.7,12.28-1.28,6.72-6.72,15.92-16.68,26.15-2.72,2.82-5.48,5.71-8.14,8.66,34.49-.17,65.94-60.57,77.4-104.07,6.27-23.71,5.64-37.96-1.84-42.33-12.9-7.54-28.16,8.46-33.88,14.81-5.76,6.37-16.77,23.45-24.89,36.25-4.76,7.47-10.36,15.27-11.73,16.89-5.46,6.55-11.91,7.56-19.39,3.86-7.41-3.64-28.77-27.45-39.75-38.3-5.33-5.25-12.16-11.24-19.3-15.07-10.6,6.77-11.49,13.82-11.68,16.8-.38,6.5,5.18,13.34,19.61,21.32,16.28,9.03,26.32,18.94,22.42,37.89-1.75,8.73-6.47,16.71-13.12,23.83,4.13,4.01,8.44,7.75,12.88,11.12,2.79-3.13,5.76-6.2,8.94-9.22Z"/>
        <path class="cls-5" d="m93.7,107c-14.43-7.98-19.99-14.82-19.61-21.32.19-2.98,1.07-10.03,11.68-16.8-7.55-4.03-15.4-5.62-22.19-1.31-4.24,2.71-6.35,8.75-5.98,18.43.85,21.12,19.45,57.43,45.4,82.73,6.65-7.13,11.37-15.11,13.12-23.83,3.89-18.95-6.15-28.86-22.42-37.89Z"/>
        <path class="cls-3" d="m242.86,242.03c-7.61-4.66-15.48-4.29-31.12-.35-17.69,4.42-56.95,19.3-68.22-.71-7.86-13.96,2.6-29.68,15.62-44.14-.43,0-.87,0-1.31-.02-14.52-.57-28.84-7.12-41.94-16.97-23.91,26.71-32.6,55.57-26.32,79.34,2.84,10.68,9.24,20.62,18.05,27.96,2.58,2.16,5.35,4.08,8.23,5.72,5.58,3.19,11.64,5.39,17.9,6.48,45.72,7.89,89.92-14.25,106.19-27.26,9.37-7.51,12.65-24.09,2.91-30.06Z"/>
        <path class="cls-5" d="m159.14,196.84c2.66-2.95,5.42-5.83,8.14-8.66,9.96-10.23,15.4-19.42,16.68-26.15,1.25-6.48-1.45-11.21-2.7-12.28-7.73-6.57-28.91-5.34-56.44,20.86-3.19,3.03-6.15,6.1-8.94,9.22,13.1,9.85,27.42,16.4,41.94,16.97.44.02.88.02,1.31.02Z"/>
      </g>
      <g>
        <path class="cls-4" d="m368.64,107.96l-9.62,10.04-26.82-26.15c-3.51,6.24-7.74,11.55-12.61,15.91-4.9,4.36-9.76,7.92-14.59,10.64l-9.39-10.71c5.29-2.63,9.79-5.71,13.54-9.23,3.75-3.53,6.81-7.22,9.18-11.11,2.36-3.87,4.12-7.83,5.22-11.89,1.1-4.04,1.65-8,1.65-11.88v-18.49h14.78v15.84c0,3.09-.19,6.03-.6,8.85-.38,2.82-.9,5.55-1.5,8.18l30.76,29.99Zm30.64,49.84h-13.99v-75.2h-29.19v-13.47h29.19v-35.92h13.99v124.58Z"/>
        <path class="cls-4" d="m523.78,100.75h-50.05v6.6h24.83v31.03h-47.93v5.94h49.75v13.48h-64.29v-32.22h47.81v-5.28h-48.47v-12.94h24.17v-6.6h-48.99v-13.22h113.18v13.22Zm-26.41-42.53c0,3.79-.81,7.24-2.44,10.37-1.64,3.13-3.81,5.83-6.54,8.12-2.82,2.2-6.14,3.92-9.96,5.15-3.83,1.24-7.99,1.86-12.49,1.86-4.23,0-8.22-.57-11.94-1.72-3.75-1.14-7.08-2.81-9.98-5.01-2.82-2.2-5.04-4.87-6.66-8-1.65-3.12-2.44-6.66-2.44-10.63s.79-7.55,2.36-10.76c1.58-3.22,3.79-5.96,6.62-8.26,2.72-2.29,5.97-4.05,9.76-5.28,3.78-1.23,7.89-1.84,12.29-1.84s8.38.62,12.22,1.84c3.83,1.23,7.15,3,9.97,5.28,2.82,2.2,5.06,4.91,6.74,8.13,1.67,3.21,2.51,6.8,2.51,10.76Zm-14.52-.13c0-4.14-1.67-7.4-5.02-9.77-3.36-2.38-7.31-3.58-11.89-3.58s-8.74,1.17-11.94,3.5c-3.22,2.34-4.82,5.61-4.82,9.84s1.6,7.22,4.82,9.5c3.2,2.29,7.19,3.44,11.94,3.44s8.54-1.06,11.89-3.16c3.34-2.12,5.02-5.39,5.02-9.78Z"/>
        <path class="cls-4" d="m598.73,108.36l-9.64,10.04-26.69-26.29c-3.43,6.35-7.58,11.69-12.48,16.04-4.88,4.37-9.84,7.91-14.85,10.63l-9.39-10.7c5.37-2.9,9.94-6.11,13.67-9.62,3.74-3.53,6.79-7.19,9.18-10.97,2.29-3.88,3.98-7.79,5.09-11.76,1.1-3.96,1.65-7.87,1.65-11.75v-18.89h14.8v16.24c0,3.07-.2,6.01-.61,8.78-.38,2.78-.88,5.45-1.51,7.99l30.77,30.24Zm28.91,49.44h-14.13V33.22h14.13v124.58Z"/>
        <path class="cls-4" d="m699.47,117.6l-23.11-23.11c-4.23,5.02-8.79,9.53-13.68,13.54-4.87,4-9.96,7.33-15.24,9.97l-10.04-10.17c5.03-2.47,9.77-5.45,14.26-8.98,4.5-3.52,8.59-7.31,12.29-11.36,3.61-3.96,6.76-8.04,9.45-12.22,2.69-4.18,4.68-8.21,6.01-12.09h-34.99v-13.34h53.08c-.7,5.64-2.16,11.3-4.36,16.97-2.2,5.68-5.01,11.17-8.45,16.44,1.42,1.42,2.7,2.73,3.83,3.96,1.15,1.15,2.45,2.45,3.9,3.9,1.43,1.45,2.96,2.93,4.56,4.42,1.48,1.59,2.97,3.1,4.47,4.55,1.51,1.46,2.84,2.76,3.96,3.9,1.15,1.24,2.44,2.51,3.85,3.83l-9.78,9.77Zm55.86-30.25h-21.52v70.44h-14.13V33.22h14.13v40.93h21.52v13.21Z"/>
        <path class="cls-4" d="m842.09,98.05c-2.72.45-5.33.84-7.79,1.2-2.46.35-5.06.7-7.79,1.04-2.83.36-5.92.69-9.31,1-3.39.3-7.33.51-11.82.59v15.86h-14.01v-15.59h-30.37v-12.94h29.97c11.18,0,20.68-.35,28.53-1.06,7.83-.71,15.36-1.85,22.58-3.43v13.33Zm-15.98-36.04c0,3.52-.72,6.78-2.19,9.77-1.44,3-3.45,5.55-6.01,7.65-2.54,2.2-5.59,3.9-9.12,5.09-3.51,1.18-7.33,1.78-11.48,1.78s-7.95-.6-11.43-1.78c-3.49-1.19-6.53-2.9-9.17-5.09-2.56-2.2-4.56-4.79-6.02-7.79-1.46-2.99-2.17-6.3-2.17-9.91s.69-6.65,2.13-9.64c1.4-2.99,3.33-5.58,5.8-7.79,2.54-2.2,5.56-3.94,9.03-5.21,3.49-1.28,7.29-1.92,11.44-1.92s8.12.6,11.68,1.78c3.57,1.19,6.64,2.88,9.18,5.09,2.64,2.2,4.69,4.83,6.14,7.85,1.47,3.05,2.19,6.42,2.19,10.11Zm-14.14-.14c0-3.96-1.41-7.02-4.29-9.17-2.87-2.17-6.4-3.24-10.63-3.24s-7.59,1.11-10.37,3.3c-2.78,2.21-4.17,5.2-4.17,8.99s1.46,6.98,4.36,9.04c2.9,2.08,6.38,3.1,10.44,3.1s7.61-1.07,10.44-3.22c2.81-2.16,4.22-5.09,4.22-8.79Zm50.33,95.93h-65.78v-36.89h14.14v23.42h51.65v13.48Zm-1.06-31.75h-13.86v-9.37h-26.95v-12.95h26.95V33.22h13.86v92.84Z"/>
        <path class="cls-4" d="m985.64,106.7h-113.05v-13.2h48.21v-7h-24.31v-49.26h13.99v13.47h34.75v-13.47h14v49.26h-24.04v7h50.45v13.2Zm-26.15,28.93c0,3.7-.81,7.04-2.45,10.03-1.63,3-3.84,5.55-6.65,7.67-2.75,2.2-6.02,3.88-9.85,5.02-3.83,1.13-7.91,1.71-12.22,1.71-4.06,0-7.93-.56-11.63-1.65-3.7-1.11-7-2.7-9.89-4.81-2.82-2.13-5.06-4.67-6.73-7.67-1.7-2.99-2.51-6.38-2.51-10.17s.81-7.19,2.44-10.23c1.62-3.04,3.8-5.61,6.53-7.73,2.83-2.11,6.1-3.77,9.84-4.96,3.74-1.19,7.73-1.79,11.95-1.79s8.36.58,12.16,1.72c3.77,1.15,7.09,2.78,9.91,4.88,2.81,2.12,5.02,4.69,6.65,7.73,1.64,3.04,2.45,6.45,2.45,10.24Zm-14.26-62.21v-9.64h-34.75v9.64h34.75Zm-.26,61.95c0-4.15-1.61-7.22-4.82-9.26-3.21-2.02-7.14-3.03-11.82-3.03s-8.59.99-11.75,2.97c-3.18,1.98-4.75,5.09-4.75,9.32s1.62,7.17,4.87,9.1c3.27,1.93,7.14,2.91,11.63,2.91,4.75,0,8.72-.91,11.88-2.71,3.18-1.81,4.76-4.91,4.76-9.3Z"/>
        <path class="cls-4" d="m1061.4,107.96l-9.65,10.04-26.8-26.15c-3.52,6.24-7.74,11.55-12.62,15.91-4.88,4.36-9.76,7.92-14.58,10.64l-9.38-10.71c5.28-2.63,9.79-5.71,13.54-9.23,3.73-3.53,6.8-7.22,9.17-11.11,2.38-3.87,4.11-7.83,5.21-11.89,1.11-4.04,1.66-8,1.66-11.88v-18.49h14.8v15.84c0,3.09-.2,6.03-.6,8.85-.38,2.82-.91,5.55-1.52,8.18l30.77,29.99Zm48.75-23.38h-21.54v73.22h-14.26V33.22h14.26v38.03h21.54v13.33Z"/>
        <path class="cls-4" d="m1165.96,104.79l-22.19-22.71c-2.89,4.94-6.45,9.43-10.63,13.48-4.18,4.05-8.92,7.36-14.2,9.91l-9.64-10.44c3.42-1.41,6.84-3.43,10.25-6.07,3.38-2.64,6.44-5.81,9.17-9.51,2.65-3.61,4.79-7.72,6.47-12.34,1.67-4.63,2.51-9.67,2.51-15.12v-12.16h14.52v12.16c0,2.73-.24,5.5-.73,8.32-.48,2.81-1.11,5.63-1.92,8.46,1.5,1.59,2.88,2.95,4.11,4.1,1.23,1.23,2.62,2.63,4.17,4.22,1.53,1.58,3.09,3.17,4.68,4.76,1.67,1.67,3.28,3.3,4.81,4.88,1.55,1.58,2.94,3,4.18,4.22,1.22,1.15,2.58,2.47,4.08,3.96l-9.65,9.91Zm55.34,53.01h-68.14v-44.02h14.14v30.55h54v13.48Zm-24.29-44.02h-14.14v-40.02h-22.04v-13.21h22.04v-24.56h14.14v77.79Zm22.97,5.01h-14V33.22h14v85.57Z"/>
        <path class="cls-4" d="m1294.71,118.66h-60.38V48.93h55.6v13.33h-41.6v13.99h40.15v13.4h-40.15v15.66h46.38v13.34Zm34.58,39.14h-14.14v-68.14h-21.1v-13.4h21.1v-43.04h14.14v124.58Z"/>
      </g>
      <g>
        <path class="cls-4" d="m349.08,247.25c0,7.16-2.46,12.46-7.38,15.9-4.9,3.45-11.55,5.17-19.97,5.17-1.66,0-3.3-.1-4.92-.29-1.62-.2-3.22-.44-4.82-.7-1.58-.34-3.15-.67-4.67-1.04-1.52-.37-2.95-.75-4.26-1.15v-10.63c.79.32,1.77.74,2.97,1.25,1.18.5,2.62.97,4.26,1.43,1.67.47,3.51.87,5.56,1.19,2.07.34,4.35.5,6.88.5,1.85,0,3.65-.17,5.4-.5,1.77-.33,3.34-.92,4.73-1.79,1.33-.79,2.4-1.87,3.24-3.22.82-1.36,1.24-3.03,1.24-5.02s-.38-3.56-1.15-4.92c-.75-1.36-1.73-2.5-2.93-3.43-1.19-.99-2.53-1.85-3.99-2.53-1.46-.69-2.87-1.41-4.26-2.13-2.33-1.06-4.79-2.25-7.41-3.58-2.6-1.33-5.09-2.85-7.4-4.57-2.25-1.66-4.12-3.59-5.61-5.77-1.48-2.19-2.23-4.73-2.23-7.65,0-6.5,2.23-11.3,6.71-14.42,4.48-3.11,10.21-4.67,17.25-4.67,1.65,0,3.32.13,5.01.36,4.63.61,10.39,2.09,13.16,2.92v10.74c-1.79-.93-4.32-1.9-7.65-2.79-3.88-1.03-8.23-1.73-11.22-1.68s-6.17.73-8.35,2.19c-2.2,1.46-3.3,3.64-3.3,6.56,0,1.39.31,2.59.91,3.58.6,1,1.39,1.88,2.39,2.68,1.43,1.15,5.71,3.35,7.45,4.28,1.74.93,10.41,5.18,12.32,6.18,1.93,1,4.13,2.45,5.85,3.86,1.67,1.46,3.08,3.28,4.23,5.46,1.17,2.19,1.81,4.94,1.96,8.25Z"/>
        <path class="cls-4" d="m401.17,238.62c0,4.31-.35,6.47-.35,6.47h-34.87c.32,2.06.94,3.98,1.85,5.77.88,1.8,2.17,3.39,3.82,4.78,1.66,1.32,3.75,2.38,6.27,3.18,2.52.8,5.58,1.2,9.16,1.2.32,0,.93-.05,1.83-.15.9-.1,1.95-.28,3.14-.55,1.19-.2,2.46-.53,3.77-1,1.34-.46,2.59-1.06,3.8-1.79v8.06c-2.6,1.52-5.49,2.57-8.72,3.14-3.22.56-6.45.73-9.7.54-3.19-.2-6.23-.78-9.16-1.74-2.93-.97-5.36-2.2-7.36-3.73-2.85-2.12-5.22-5.09-7.07-8.9-1.86-3.82-2.78-8.11-2.78-12.88,0-7.36,2.09-13.37,6.27-18,4.18-4.65,10.35-6.97,18.5-6.97,6.3,0,11.43,2.03,15.38,6.11,3.94,4.08,6.21,10,6.21,16.47Zm-10.64-1.99c0-1.4-.23-2.82-.71-4.27-.45-1.46-1.12-2.75-1.98-3.89-.93-1.12-2.1-2.05-3.53-2.78-1.42-.73-3.1-1.09-5.03-1.09-3.77,0-6.87,1.05-9.3,3.14-2.42,2.09-3.86,5.06-4.32,8.9h24.87Z"/>
        <path class="cls-4" d="m902.94,238.62c0,4.31-.35,6.47-.35,6.47h-34.88c.33,2.06.95,3.98,1.85,5.77.9,1.8,2.16,3.39,3.83,4.78,1.65,1.32,3.74,2.38,6.26,3.18,2.52.8,5.56,1.2,9.15,1.2.33,0,.95-.05,1.84-.15.9-.1,1.95-.28,3.13-.55,1.21-.2,2.47-.53,3.8-1,1.31-.46,2.58-1.06,3.77-1.79v8.06c-2.58,1.52-5.48,2.57-8.69,3.14-3.22.56-6.45.73-9.7.54-3.2-.2-6.25-.78-9.17-1.74-2.91-.97-5.37-2.2-7.36-3.73-2.84-2.12-5.21-5.09-7.07-8.9-1.86-3.82-2.77-8.11-2.77-12.88,0-7.36,2.08-13.37,6.26-18,4.18-4.65,10.34-6.97,18.51-6.97,6.29,0,11.42,2.03,15.37,6.11,3.95,4.08,6.22,10,6.22,16.47Zm-10.65-1.99c0-1.4-.24-2.82-.69-4.27-.48-1.46-1.12-2.75-1.99-3.89-.92-1.12-2.11-2.05-3.53-2.78-1.42-.73-3.09-1.09-5.03-1.09-3.77,0-6.87,1.05-9.29,3.14-2.44,2.09-3.87,5.06-4.32,8.9h24.86Z"/>
        <path class="cls-4" d="m958.24,238.62c0,4.31-.35,6.47-.35,6.47h-34.87c.33,2.06.93,3.98,1.84,5.77.88,1.8,2.17,3.39,3.82,4.78,1.67,1.32,3.75,2.38,6.28,3.18,2.51.8,5.56,1.2,9.15,1.2.34,0,.94-.05,1.84-.15.9-.1,1.93-.28,3.14-.55,1.18-.2,2.45-.53,3.77-1,1.33-.46,2.59-1.06,3.79-1.79v8.06c-2.59,1.52-5.49,2.57-8.72,3.14-3.21.56-6.45.73-9.7.54-3.18-.2-6.23-.78-9.15-1.74-2.91-.97-5.37-2.2-7.36-3.73-2.86-2.12-5.21-5.09-7.07-8.9-1.86-3.82-2.78-8.11-2.78-12.88,0-7.36,2.09-13.37,6.27-18,4.18-4.65,10.34-6.97,18.51-6.97,6.3,0,11.41,2.03,15.36,6.11,3.95,4.08,6.22,10,6.22,16.47Zm-10.64-1.99c0-1.4-.24-2.82-.7-4.27-.47-1.46-1.11-2.75-1.98-3.89-.94-1.12-2.11-2.05-3.53-2.78-1.42-.73-3.1-1.09-5.03-1.09-3.77,0-6.88,1.05-9.29,3.14-2.44,2.09-3.87,5.06-4.33,8.9h24.87Z"/>
        <path class="cls-4" d="m1145.74,238.62c0,4.31-.35,6.47-.35,6.47h-34.87c.33,2.06.95,3.98,1.84,5.77.9,1.8,2.17,3.39,3.83,4.78,1.66,1.32,3.74,2.38,6.27,3.18,2.51.8,5.56,1.2,9.15,1.2.34,0,.94-.05,1.84-.15.89-.1,1.93-.28,3.13-.55,1.19-.2,2.46-.53,3.78-1,1.33-.46,2.59-1.06,3.79-1.79v8.06c-2.59,1.52-5.49,2.57-8.72,3.14-3.2.56-6.45.73-9.7.54-3.18-.2-6.23-.78-9.15-1.74-2.91-.97-5.37-2.2-7.36-3.73-2.86-2.12-5.21-5.09-7.07-8.9-1.86-3.82-2.78-8.11-2.78-12.88,0-7.36,2.09-13.37,6.27-18,4.18-4.65,10.34-6.97,18.51-6.97,6.31,0,11.42,2.03,15.36,6.11,3.94,4.08,6.22,10,6.22,16.47Zm-10.64-1.99c0-1.4-.24-2.82-.69-4.27-.48-1.46-1.12-2.75-1.99-3.89-.93-1.12-2.11-2.05-3.53-2.78-1.42-.73-3.1-1.09-5.03-1.09-3.77,0-6.88,1.05-9.29,3.14-2.44,2.09-3.87,5.06-4.33,8.9h24.87Z"/>
        <path class="cls-4" d="m1288.57,238.62c0,4.31-.35,6.47-.35,6.47h-34.86c.32,2.06.94,3.98,1.84,5.77.88,1.8,2.17,3.39,3.82,4.78,1.66,1.32,3.75,2.38,6.27,3.18,2.52.8,5.58,1.2,9.16,1.2.32,0,.93-.05,1.84-.15.88-.1,1.93-.28,3.13-.55,1.19-.2,2.45-.53,3.77-1,1.33-.46,2.59-1.06,3.8-1.79v8.06c-2.6,1.52-5.49,2.57-8.72,3.14-3.22.56-6.45.73-9.7.54-3.19-.2-6.23-.78-9.16-1.74-2.93-.97-5.37-2.2-7.36-3.73-2.85-2.12-5.21-5.09-7.07-8.9-1.85-3.82-2.78-8.11-2.78-12.88,0-7.36,2.09-13.37,6.27-18,4.18-4.65,10.35-6.97,18.5-6.97,6.3,0,11.43,2.03,15.38,6.11,3.94,4.08,6.21,10,6.21,16.47Zm-10.65-1.99c0-1.4-.22-2.82-.68-4.27-.47-1.46-1.13-2.75-1.99-3.89-.93-1.12-2.1-2.05-3.54-2.78-1.42-.73-3.1-1.09-5.01-1.09-3.8,0-6.88,1.05-9.31,3.14-2.41,2.09-3.86,5.06-4.32,8.9h24.86Z"/>
        <path class="cls-4" d="m457,242.34c0,7.88-2.17,14.17-6.5,18.87-4.35,4.71-10.42,7.06-18.22,7.06-7.37,0-13.33-2.21-17.89-6.65-4.57-4.44-6.85-10.83-6.85-19.18,0-3.58.49-6.96,1.48-10.14,1-3.18,2.48-5.95,4.48-8.33,2.05-2.39,4.61-4.28,7.7-5.67,3.08-1.39,6.7-2.08,10.88-2.08,7.81,0,13.91,2.38,18.32,7.11,4.41,4.73,6.6,11.08,6.6,19.03Zm-10.91,0c0-2.26-.25-4.42-.74-6.51-.5-2.08-1.31-3.96-2.45-5.61-1.12-1.65-2.59-2.98-4.37-3.97-1.78-.99-3.98-1.49-6.56-1.49s-4.54.48-6.3,1.44c-1.76.97-3.2,2.24-4.32,3.83-1.12,1.66-1.93,3.55-2.44,5.67-.5,2.11-.74,4.36-.74,6.75s.26,4.52.79,6.6c.55,2.09,1.36,3.93,2.5,5.52,1.12,1.59,2.59,2.85,4.41,3.77,1.84.93,3.99,1.39,6.52,1.39s4.54-.48,6.3-1.44c1.76-.96,3.15-2.23,4.22-3.83,1.13-1.59,1.95-3.43,2.45-5.51.49-2.09.74-4.29.74-6.6Z"/>
        <path class="cls-4" d="m509.65,267.07h-9.83v-10.34h-.5c-.93,2.98-2.63,5.63-5.11,7.95-2.48,2.32-6.28,3.48-11.38,3.48-2.26,0-4.36-.41-6.32-1.24-1.95-.83-3.65-1.97-5.11-3.43-1.46-1.45-2.6-3.18-3.42-5.17-.84-1.99-1.24-4.13-1.24-6.46v-34.67h10.03v31.11c0,1.25.06,2.52.19,3.82.14,1.3.5,2.44,1.1,3.43.6,1.06,1.46,1.93,2.58,2.58,1.12.67,2.65.99,4.56.99,3.85,0,6.85-1.4,9.05-4.21,2.19-2.82,3.7-6.08,4.56-9.79.2-1.19.37-2.36.5-3.54.12-1.15.24-2.29.3-3.43v-20.96h10.03v49.88Z"/>
        <path class="cls-4" d="m533.14,267.32h-10.53v-71.42h10.53v71.42Z"/>
        <path class="cls-4" d="m632.79,195.9l-24.93,71.42h-11.92l-25.04-71.42h11.73l18.98,57.81.79-.1,18.98-57.71h11.43Z"/>
        <path class="cls-4" d="m681.62,242.34c0,7.88-2.17,14.17-6.5,18.87-4.35,4.71-10.41,7.06-18.25,7.06-7.33,0-13.3-2.21-17.86-6.65-4.57-4.44-6.85-10.83-6.85-19.18,0-3.58.49-6.96,1.48-10.14,1-3.18,2.48-5.95,4.47-8.33,2.07-2.39,4.63-4.28,7.71-5.67,3.07-1.39,6.7-2.08,10.87-2.08,7.83,0,13.92,2.38,18.34,7.11,4.39,4.73,6.59,11.08,6.59,19.03Zm-10.91,0c0-2.26-.26-4.42-.75-6.51-.5-2.08-1.3-3.96-2.44-5.61-1.13-1.65-2.59-2.98-4.36-3.97-1.79-.99-3.99-1.49-6.57-1.49s-4.55.48-6.31,1.44c-1.77.97-3.2,2.24-4.32,3.83-1.13,1.66-1.93,3.55-2.44,5.67-.5,2.11-.74,4.36-.74,6.75s.26,4.52.79,6.6c.53,2.09,1.36,3.93,2.48,5.52,1.12,1.59,2.6,2.85,4.42,3.77,1.81.93,3.99,1.39,6.52,1.39s4.54-.48,6.3-1.44c1.74-.96,3.16-2.23,4.21-3.83,1.13-1.59,1.93-3.43,2.44-5.51.49-2.09.75-4.29.75-6.6Z"/>
        <path class="cls-4" d="m701.64,267.32h-10.53v-71.42h10.53v71.42Z"/>
        <path class="cls-4" d="m755.92,267.07h-9.84v-10.34h-.5c-.91,2.98-2.63,5.63-5.11,7.95-2.48,2.32-6.28,3.48-11.37,3.48-2.24,0-4.36-.41-6.3-1.24-1.96-.83-3.68-1.97-5.12-3.43-1.47-1.45-2.59-3.18-3.43-5.17-.84-1.99-1.24-4.13-1.24-6.46v-34.67h10.03v31.11c0,1.25.07,2.52.22,3.82.12,1.3.48,2.44,1.07,3.43.6,1.06,1.46,1.93,2.58,2.58,1.13.67,2.65.99,4.59.99,3.83,0,6.85-1.4,9.03-4.21,2.19-2.82,3.73-6.08,4.59-9.79.19-1.19.36-2.36.48-3.54.14-1.15.24-2.29.31-3.43v-20.96h10.03v49.88Z"/>
        <path class="cls-4" d="m809.61,267.07h-9.94v-27.12c0-1.52-.02-3.08-.05-4.66-.05-1.59-.31-3.08-.86-4.48-.45-1.33-1.24-2.43-2.38-3.32-1.12-.9-2.78-1.44-4.97-1.64-3.04-.2-5.76,1.06-8.16,3.79-2.38,2.71-4.13,6.15-5.25,10.32-.26,1.19-.45,2.37-.6,3.53-.13,1.16-.19,2.23-.19,3.22v20.37h-9.94v-49.96h9.94v11.12h.49c.28-.66.67-1.67,1.19-3.02.53-1.36,1.4-2.74,2.59-4.13,1.12-1.33,2.59-2.49,4.41-3.52,1.83-1.03,4.19-1.55,7.11-1.55,4.78,0,8.73,1.43,11.87,4.28,3.15,2.84,4.73,6.82,4.73,11.92v34.87Z"/>
        <path class="cls-4" d="m850.13,226.06h-14.21v23.94c0,1.27.05,2.47.14,3.63.11,1.16.36,2.17.75,3.03.47.93,1.17,1.65,2.09,2.18.93.54,2.22.8,3.87.8,1,0,2.03-.07,3.08-.19,1.06-.14,2.39-.47,3.98-1v9.43c-1.92.28-3.55.44-4.86.5-1.34.07-2.56.1-3.68.1-5.37,0-9.36-1.21-11.96-3.63-2.63-2.42-3.94-6.07-3.94-10.98v-27.81h-8.54v-8.65h8.54v-10.63l10.53-6.36v16.99h14.21v8.65Z"/>
        <path class="cls-4" d="m999.54,226.54c-4.97,0-9.29.91-12.92,2.74-3.65,1.82-5.97,4.85-6.95,9.09-.33,1.19-.58,2.5-.74,3.92-.18,1.43-.29,2.94-.36,4.53v20.46h-10.43v-49.97h10.43v10.13h.49c.39-.93,1.04-2.13,1.9-3.62.86-1.49,2.01-2.73,3.46-3.73,1.99-1.33,3.98-2.3,5.97-2.92,1.98-.63,5.04-.94,9.15-.94v10.33Z"/>
        <path class="cls-4" d="m1093.98,217.76h-11.21c0-2.45-.29-4.47-.85-6.06-.57-1.59-1.34-2.98-2.33-4.17-1.13-1.25-2.69-2.19-4.67-2.78-1.99-.6-3.92-.93-5.77-1-3.04,0-5.89.61-8.49,1.84-2.63,1.22-4.9,3-6.81,5.31-1.98,2.32-3.53,5.14-4.63,8.44-1.07,3.31-1.62,7.09-1.62,11.33,0,2.32.28,5.09.84,8.34.57,3.26,1.72,6.37,3.44,9.34,1.72,2.98,4.16,5.55,7.3,7.7,3.14,2.15,7.3,3.26,12.47,3.33,4.37.06,8.23-.57,11.57-1.89,3.34-1.33,6.21-2.81,8.6-4.48v10.63c-.86.41-1.91.88-3.13,1.44-1.23.56-2.7,1.08-4.42,1.54-1.73.53-3.77.96-6.16,1.3-2.39.33-5.17.5-8.35.5-5.84,0-10.83-1.11-15.01-3.33-4.17-2.22-7.62-5.11-10.33-8.69-2.71-3.64-4.72-7.73-6.01-12.26-1.29-4.54-1.93-9.15-1.93-13.86s.67-9.1,2.03-13.41c1.36-4.3,3.39-8.08,6.11-11.33,2.72-3.31,6.13-5.94,10.23-7.89,4.1-1.95,8.91-2.93,14.4-2.93,5.17,0,9.78,1.13,13.82,3.42,4.04,2.29,7.06,5.45,9.04,9.49.66,1.19,1.13,2.7,1.38,4.52.28,1.81.43,3.7.49,5.61Z"/>
        <path class="cls-4" d="m1197.5,267.07h-9.95v-27.12c0-1.52,0-3.08-.04-4.66-.04-1.59-.32-3.08-.85-4.48-.47-1.33-1.27-2.43-2.39-3.32-1.12-.9-2.77-1.44-4.97-1.64-3.04-.2-5.76,1.06-8.14,3.79-2.39,2.71-4.13,6.15-5.25,10.32-.28,1.19-.48,2.37-.61,3.53s-.2,2.23-.2,3.22v20.37h-9.92v-49.96h9.92v11.12h.5c.26-.66.67-1.67,1.19-3.02.52-1.36,1.38-2.74,2.58-4.13,1.12-1.33,2.6-2.49,4.43-3.52,1.83-1.03,4.19-1.55,7.09-1.55,4.78,0,8.73,1.43,11.88,4.28,3.13,2.84,4.72,6.82,4.72,11.92v34.87Z"/>
        <path class="cls-4" d="m1238.57,226.06h-14.21v23.94c0,1.27.06,2.47.16,3.63.1,1.16.35,2.17.74,3.03.45.93,1.17,1.65,2.08,2.18.93.54,2.22.8,3.89.8.98,0,2.01-.07,3.08-.19,1.05-.14,2.38-.47,3.97-1v9.43c-1.92.28-3.54.44-4.87.5-1.31.07-2.54.1-3.67.1-5.37,0-9.36-1.21-11.98-3.63-2.6-2.42-3.92-6.07-3.92-10.98v-27.81h-8.55v-8.65h8.55v-10.63l10.52-6.36v16.99h14.21v8.65Z"/>
        <path class="cls-4" d="m1329.38,226.54c-4.97,0-9.28.91-12.92,2.74-3.64,1.82-5.96,4.85-6.95,9.09-.35,1.19-.59,2.5-.75,3.92-.17,1.43-.29,2.94-.33,4.53v20.46h-10.44v-49.97h10.44v10.13h.49c.39-.93,1.01-2.13,1.89-3.62.86-1.49,2.02-2.73,3.48-3.73,1.98-1.33,3.96-2.3,5.95-2.92,1.99-.63,5.04-.94,9.16-.94v10.33Z"/>
      </g>
    </g>
  </g>
</svg>