<?xml version="1.0" encoding="UTF-8"?>
<svg id="Layer_2" data-name="Layer 2" xmlns="http://www.w3.org/2000/svg" viewBox="0 0 1005.65 372.98">
  <defs>
    <style>
      .cls-1 {
        fill: #fe1100;
      }
    </style>
  </defs>
  <g id="Layer_1-2" data-name="Layer 1">
    <g>
      <path class="cls-1" d="m913.28,200.66c17.78-1.78,29.35-15.63,30.27-29.72,1.56-23.78-16.33-36.38-31.67-37.01-.27,0-.53-.02-.8-.02-13.51-.61-27.02-.27-40.53-.26-.52-.28-1.03-.28-1.54.03-.64.03-1.29.05-1.93.08-.92-.31-1.86-.78-2.56.37-.63,2.72-.21,5.47-.22,8.2-.03,19.56-.02,39.13.01,58.69.01,7.16-.76,14.27-.45,21.47.57,13.3.36,26.64.42,39.96.04,8.5.09,17-.03,25.5-.07,5.32-.9,10.67-.58,15.96,1.25,20.68.24,41.37.63,62.06.06,3.1-.72,4.17-4,4.15-18.15-.11-36.3-.03-54.45.09-2.26.02-3.22-.31-3.22-2.91.08-54.23.07-108.46.08-162.69,0-.23.07-.45.11-.68.17-.12.34-.25.51-.37-.17-.05-.34-.1-.51-.15-.05-22.26-.1-44.52-.15-66.77-.04-21.23-.07-42.47-.1-63.7.09-.26.17-.53.25-.79,1.05-1.03,2.38-.67,3.6-.67,33.44,0,66.87-.18,100.31.09,18.56.15,36.22,4.3,52.33,13.96,19.23,11.53,32.71,27.76,40.81,48.61,4.76,12.26,6.12,24.95,5.68,37.9-.48,14.03-4.07,27.34-10.4,39.89-5.95,11.8-14.61,21.41-24.8,29.68-10.02,8.13-21.47,13.46-33.74,17.48-6.86,2.24-13.72,3.14-20.78,3.26-10.29.19-20.59,0-30.87.66-4.84.31-5.38-.38-5.51-5.32-.09-3.31.1-6.63.1-9.94.01-14.53.07-29.06-.05-43.59-.02-2.38.62-3.23,3.01-3.18,7.81.14,15.62.17,23.44.16,2.17,0,4.35-.25,6.52-.38.27-.03.54-.07.81-.1Z"/>
      <path class="cls-1" d="m280.31.72c.05.45.11.91.16,1.36-.3.73-.28,1.47.02,2.2-.08,2.03-.15,4.07-.23,6.1-.17.08-.35.16-.52.24.17.16.34.32.52.48.05,19.66.1,39.32.15,58.98-.1.46-.58,1.18.55.8,1.08.86,2.35.64,3.58.64,19.18-.01,38.35-.12,57.53.02,7.23.05,14.42,1.03,21.61,1.94,26.28,3.3,45.4,22.4,52.67,41.2,3.18,8.23,4.75,16.78,5.4,25.67,1.45,19.98.72,111.7.77,117.86,0,.28,0,.56,0,.84-.03.64-.06,1.28-.09,1.93-.04.25-.07.5-.11.75-.56.75-1.37,1.34-2.24,1.27-18.55-1.36-37.12-.39-55.67-.44-3.3,0-4.32-.7-4.25-4.09.23-10.4.1-81.56.04-106.73,0-3.89-.73-7.65-2.79-11.07-1.87-3.09-4.65-4.73-8.17-5.33-21.71-3.71-43.58-.89-65.37-1.62-.31-.07-.63-.15-.94-.22-2.3-.15-2.66,1-2.64,3.11.11,12.18.08,92.79.11,119.89,0,1.03.02,2.06.03,3.09-.01.5-.03.99-.04,1.49-1.5,2.43-4.1,1.62-6.14,1.66-1.23.02-2.67-.31-4-.32-14.58-.03-29.17-.02-43.75-.02-.92,0-1.86-.12-2.75.05-4.88.9-4.87.92-4.87-4.05-.02-83.26-.04-166.52-.07-249.77,0-1.37.11-2.76-.07-4.11-.58-4.41-.63-4.46,3.62-4.45,19.06,0,38.12.05,57.19.07.25.2.5.4.75.6Z"/>
      <path class="cls-1" d="m578.9,201.06c1.63,2.84,1.25,5.97,1.26,9.03,0,16.13.02,32.26.01,48.38,0,4.22-.34,4.22-4.69,4.04-6.42-.27-12.86-.12-19.29-.13-11.14-.01-22.28.22-33.41-.11-5.19-.15-10.2-1.91-15.25-3.31-14.11-3.89-26.38-11.2-37.39-20.37-7.63-6.35-13.72-14.38-18.79-23.02-4.52-7.71-8.11-15.84-10.54-24.44-1.49-5.26-1.94-10.69-2.6-16.08-.66-5.41-.79-10.75-.1-16.21,1.11-8.83,3.26-17.33,6.05-25.76,2.8-8.48,7.79-15.71,12.68-22.95,2.7-3.99,6.55-7.21,9.84-10.81,8.39-9.15,19.16-14.83,30.17-19.97,7.87-3.67,16.29-5.66,25.05-6.58,19.42-2.04,38.87-1.14,58.31-1.27,24.23-.16,48.47-.04,72.7-.01,1.32,0,2.78-.47,3.94.64.16.96.32,1.91.48,2.87-.02,44.39-.05,88.77-.07,133.16,0,16.93.03,33.86.05,50.78-.8.83-.51,1.83-.45,2.8-1.28,1.43-2.98,1.39-4.69,1.32-16.12-.62-32.25-.83-48.38-.69-.92,0-1.86-.11-2.75.04-5.63.96-5.68.98-5.68-4.67-.02-40.1,0-80.21,0-120.31,0-.91-.03-1.83-.05-2.74.12-.43.04-.76-.47-.84,0,0-.06-.01-.06-.01-.74-.67-1.51-.56-2.28-.06-.37,0-.74,0-1.11,0-.28-.3-.58-.34-.9-.06-19.25-.15-38.5-.37-57.75.14-.29.01-.57.03-.86.04-14.29,1.52-24.94,8.56-30.11,21.91-7.17,18.51,3.88,37.93,22.91,43.88,2.89.91,6.1.8,9.17,1.17.28.32.59.37.94.11,14.42-.02,28.85-.04,43.27-.06.29.05.57.1.86.15Z"/>
      <path class="cls-1" d="m.06,259.55c.06-11.61.13-23.21.17-34.82.03-7.17,0-14.34,0-21.51,0-1-.28-2.08.7-2.84.3-.1.6-.21.9-.31,32.57.04,65.15.09,97.72.12,2.29,0,4.59-.12,6.88-.19.27-.01.54-.02.81-.04,12.92.03,23.19-5.14,29.75-16.24,5.06-8.56,6.05-18.07,1.52-27.11-2.91-5.81-7.27-10.94-12.26-15.31-8.66-7.57-17.07-15.47-26.2-22.43-12.78-9.75-24.21-20.89-33.96-33.44-9.55-12.3-16.22-26.25-19.11-41.97-1.28-6.97-1.22-13.81-.97-20.63.26-7.13,1.66-14.26,3.85-21.17.48-1.53,1.39-1.57,2.53-1.58C55.16.02,57.92,0,60.68,0c17.81.03,35.62.06,53.43.1.69,0,1.38.03,2.07,0,1.49-.07,3.37-.09,3.9,1.23.46,1.14-1.03,2.34-1.98,3.3-7.87,7.95-11.22,17.67-10.03,28.56.62,5.7,3.73,10.85,7.39,15.38,6.97,8.62,15.41,15.64,23.96,22.7,15.95,13.16,32.54,25.76,45.23,42.39,7.65,10.02,13.18,21.12,16.37,33.34.89,3.4,2,6.74,2.12,10.29.02.26.05.52.07.79.91,9.55.3,19.12-1.73,28.38-4.1,18.66-12.43,35.2-26.78,48.41-12.15,11.19-26.2,18.97-41.96,23.68-6.92,2.07-14.04,3.43-21.35,3.23-.26.01-.52.02-.77.04-35.59,0-71.18.01-106.77.02-.27,0-.54.01-.81.02-.66-.01-1.31-.02-1.97-.03-.11-.25-.29-.34-.55-.27-.17-.37-.35-.75-.52-1.12.02-.29.04-.58.06-.87Z"/>
      <path class="cls-1" d="m733.99,261.72c-.7.74-1.44,1.32-2.57,1.24-16.29-1.23-32.61-.42-48.91-.39-2.54,0-5.17.38-7.76.54-1.64.1-2.31-.49-2.3-2.04.25-1.43.27-2.84-.16-4.24.04-34.41.07-68.82.11-103.23,0-4.69.05-9.37.07-14.06.01-.26.02-.52.03-.78.5-12.97,4.77-24.87,11.4-35.78,4.02-6.63,9.67-12.06,16.04-16.84,10.18-7.64,21.61-11.54,34-13.23,16.72-2.28,33.54-1.14,50.31-1.43,2.52-.04,2.77,1.4,2.77,3.31-.02,6.64-.12,43.71-.06,55.61.01,2.91-1.17,3.97-3.95,3.49-.15-.41-.37-.67-.85-.44-10.79.14-21.59-.04-32.36.5-10.35.51-15.4,6.15-15.53,17.97-.23,21.04-.12,99.44-.1,106.29,0,.28,0,.56,0,.84-.02.64-.05,1.28-.07,1.92l-.11.77Z"/>
      <path class="cls-1" d="m364.45,367.05c.03,2.52-.74,3.86-3.47,3.85-7.91-.03-15.82,0-23.73.07-2.16.02-3.32-.42-3.31-3.03.1-27.86.07-55.72.08-83.58.24-.28.47-.56.71-.84,8.45-.07,16.89-.14,25.34-.22.29.31.61.34.95.08,2.97-.34,4.63.91,6.15,3.61,6.3,11.21,23.79,39.41,23.79,39.41,0,0-.16-41.3-.17-41.88.19-.25.38-.5.57-.75,9.17-.75,18.35-.14,27.52-.32,2.68-.05,2.02,1.91,2.02,3.38.05,20.23.08,40.45.09,60.68,0,7.2-.13,14.4.07,21.59.04,1.3-.29,1.38-1.19,1.78-1.74.79-3.6.93-5.33.61-6.14-1.11-12.34-.66-18.46-.39-4.7.2-7.71-1.34-9.36-5.52-2.34-5.91-6.39-10.83-9.33-16.39-2.74-5.17-13.25-22.29-13.25-22.29,0,0,.2,31.83.3,40.17Z"/>
      <path class="cls-1" d="m267.87,340.67s-.17,17.69-.13,25.48c.02,4.61.09,4.65-4.53,4.68-8.17.06-16.34-.02-24.5.13-2.62.05-3.21-.86-3.2-3.39.1-27.01.05-54.01.06-81.02,0-.98-.39-2.08.58-2.88.71-.07,1.42-.14,2.13-.21,7.53-.02,15.07-.04,22.6-.06.51.28,1.03.28,1.54,0,.41,0,.82-.02,1.22-.02.73.34,1.46.35,2.21.07,1.53.97,1.55,1.57,1.55,4.03s.39,23.27.46,24.37c-.08.05-.2.08-.22.15-.02.05.06.2.12.21.08.02.17-.06.26-.1,5.37.09,10.75.21,16.12.25,2.3.02,2.35-1.64,2.35-3.35-.03-7.31.12-14.63-.08-21.94-.08-2.92.96-3.71,3.73-3.69,8.6.08,17.21-.06,25.82-.11.31.07.63.14.94.2,1.58.62,1.26,2.03,1.26,3.23.01,27.2,0,54.41.04,81.61,0,1.92-.58,2.61-2.52,2.6-8.72-.05-17.44-.04-26.17.06-2.34.03-3.16-.7-3.12-3.17.14-8.8.02-17.6,0-26.4.1-.44.04-.79-.51-.82-2.33-.24-18.01.1-18.01.1Z"/>
      <path class="cls-1" d="m752.65,283.45c1.53.25,3.66-.85,4.49.65.91,1.63-.86,3.12-1.72,4.56-5.97,9.97-20.8,33.9-22.5,35.63-1.5,1.52-1.15,2.41-.06,4,8.69,12.63,17.24,25.36,25.84,38.06.13.19.25.38.37.58,2.26,3.82,2.23,3.9-2.1,3.93-8.96.05-17.92.03-26.88.14-4.22.05-7.15-1.11-9.42-5.28-5.09-9.39-10.61-18.55-15.58-28.02-.31-.6-.44-1.59-1.2-1.44-1.12.23-.92,1.35-.92,2.25.02,9.38-.14,18.77.14,28.14.1,3.33-.76,4.37-4.12,4.29-7.92-.19-15.85-.08-23.78.06-2.45.04-3.37-.56-3.37-3.24.1-27.12.13-54.24-.04-81.35-.02-3.33,1.89-3.12,3.82-3.13,7.92-.04,15.85.05,23.78.09.95.09,1.9.17,2.85.26,1.39,1.18.78,2.76.78,4.17,0,9.03-.07,18.06-.09,27.1,0,1.1-.36,2.69.95,2.99,1.37.31,1.4-1.4,1.88-2.31,5.14-9.72,10.3-19.44,15.33-29.21,1.02-1.97,2.28-2.88,4.52-2.87,8.72.04,17.45-.03,26.17-.06.28.01.57.02.85.03Z"/>
      <path class="cls-1" d="m590.12,372.96c-9.07-.38-17.83-2.08-26.01-6.18-2.41-1.21-5.88-1.28-7-3.78-1.12-2.51,1.52-4.87,2.28-7.36,1.54-5.06,4.15-9.68,5.92-14.64.78-2.19,1.89-1.71,3.35-.67,5.25,3.75,11.05,6.2,17.42,7.36,2.67.48,5.03-.58,7.18-1.64,2.43-1.2,1.68-4.16-1.41-5.79-3.11-1.64-6.62-2.07-9.97-2.98-10.56-2.87-18.14-9.04-20.76-19.81-1.48-6.07.06-12.22,3.02-17.73,4.9-9.12,12.9-14.53,22.83-16.61,12.69-2.66,24.91-.32,36.65,5,2.33,1.05,3,2.35,2.09,4.6-2.48,6.11-4.94,12.23-7.46,18.32-.69,1.68-1.27,2.29-3.22.67-5.3-4.41-11.71-5.76-18.53-5.39-1.8.1-3.06,1.39-3.7,2.67-.74,1.46.99,2.36,2.01,3.16,3.6,2.82,8.16,3.28,12.35,4.33,6.51,1.63,11.98,4.57,16.23,9.7,2.77,3.34,4.05,7.37,4.39,11.56,1.59,19.63-12.09,30.99-27.57,33.88-3.34.62-6.63,1.48-10.08,1.32Z"/>
      <path class="cls-1" d="m87.98,283.46c.91-.01,36.62-.06,52.58-.02,4.43,0,4.45.04,4.48,4.55.04,5.72-.04,11.43.09,17.15.06,2.85-1.23,3.57-3.82,3.16-7.39-1.17-14.84,0-22.25-.54-1.28-.09-1.51.71-1.5,1.74.01,1.14.1,2.3-.02,3.43-.23,2.06.78,2.49,2.62,2.47,5.51-.04,19.18.11,19.98.12.49.17.97.34,1.46.51.76,1.99.47,7.08.59,7.61.02,4.27.05,8.54.07,12.8-.44.14-.63.4-.43.85-.03.22-.07.44-.13.66-1.19.17-2.38.33-3.57.5-4.98,0-18.67-.11-19.02-.11-.36-.38-.69-.45-.98.07,0,0-.13.03-.13.03-.46.16-.53.47-.38.89-.16,7.55-.16,7.45,7.31,7.59,6.27.12,12.56-.45,18.83.51,1.61.25,2.18.44,2.15,2.09-.09,6.19-.09,12.39-.08,18.59,0,1.26-.06,1.95-1.72,2.2-1.55.24-3.08.59-4.68.59-16.43,0-32.86-.03-49.29.1-2.81.02-3.69-.73-3.68-3.64.1-27.01.04-54.01.06-81.02,0-.93-.55-2.09.65-2.79.27-.03.54-.07.81-.1Z"/>
      <path class="cls-1" d="m222.36,362.98c-.14,5.95-.3,6.38-5.88,7.73-5.5,1.33-11.15,2.28-16.79,2.14-12.93-.32-23.9-5.03-32.85-14.72-6.81-7.37-9.82-16.04-11.35-25.59-1.78-11.19,1.21-21.37,7.01-30.67,3.57-5.73,8.95-9.93,14.69-13.72,6.19-4.09,13.12-4.76,20.08-5.91,8.22-1.35,15.73,1.12,23.35,3.43,1.48.45,1.72,1.24,1.72,2.46,0,9.38,0,18.76-.02,28.15,0,.62.29,1.45-.61,1.74-.76.24-1.25-.28-1.74-.79-5.9-6.09-13.47-6.7-21.25-6.06-3.13.26-5.89,2.24-7.6,4.73-6.07,8.81-5.85,19.84,4.13,25.71,6.11,3.59,12.77,2.45,18.88-.6,2.3-1.15,4.61-2.44,6.85-3.76.64.04,1.28.08,1.92.12.03.4.06.81.1,1.21-.31,1.4-.52,19.27-.65,24.4Z"/>
      <path class="cls-1" d="m550.54,302.66c0,4.01.04,8.01-.03,12.02-.02,1.05.64,2.47-.54,3.11-1.37.74-1.96-.81-2.71-1.53-5.58-5.35-17.63-6.62-23.38-3.93-6.77,3.16-9.59,11.56-8.24,18.6,1.46,7.6,7.86,12.33,15.39,12.53,6.61.18,12.1-2.53,17.45-5.88.74-.46,1.49-1.42,2.43-.78.71.48.46,1.51.34,2.26-1.49,9.26.02,18.66-1.32,27.94-.23,1.61-1.14,2.18-2.27,2.53-9.28,2.85-18.58,4.44-28.37,2.19-12.22-2.81-21.57-9.33-28.71-19.51-6.5-9.27-7.89-19.36-7.09-30.41.52-7.24,3.39-13.45,6.75-19.26,3.4-5.87,8.91-10.34,14.82-14,7.33-4.55,15.55-6.46,23.97-6.73,6.34-.2,12.79.61,18.77,3.22,1.78.78,2.79,2.17,2.76,4.26-.05,4.46-.02,8.93-.01,13.39Z"/>
      <path class="cls-1" d="m10.28,311.58c.35.32.71.63,1.06.95,3.33,0,6.66.03,9.98.02,6.01-.01,6.23-.02,6.26,5.77.07,17.03-.05,34.06-.1,51.09.1.27.2.55.3.82.62.62,1.42.66,2.22.69,9.37.3,18.77-.53,28.13.51-.03-.88.57-1.42,1.1-2-.01-.64-.03-1.28-.04-1.93,0-.28-.02-.57-.03-.85-.03-2.47-.05-4.94-.08-7.41,0-.27.01-.54.02-.81,0-6.14-.01-12.28-.02-18.41,0-.27.01-.54.02-.81,0-7.05,0-14.11-.01-21.16-.02-.49-.05-.98-.07-1.47-.64-3.18.85-4.24,3.88-4.13,3.55.14,7.12-.06,10.67.09,2.16.1,2.71-.71,2.68-2.76-.11-7.54-.26-15.09.04-22.62.12-3.03-.49-3.84-3.59-3.82-18.59.13-37.18.03-55.76.04-2.06,0-4.11.23-6.17.36-.19.25-.38.5-.57.76.01.58.02,1.16.04,1.74l.05,25.33Z"/>
      <path class="cls-1" d="m437.51,285.02c0-1.72,1.43-1.49,2.43-1.51,8.95-.1,17.91-.08,26.87-.23,2.89-.05,3.04,1.61,3.03,3.76-.04,17.04-.05,34.08-.06,51.12,0,9.61-.14,19.21.08,28.82.07,3.27-1.01,4.03-4.14,3.98-8.94-.15-17.89.05-26.84.12-.44-.77-.89-1.54-1.33-2.32.04-.86.07-1.71.11-2.57,0,0-.14-79.46-.14-81.18Z"/>
    </g>
  </g>
</svg>