<?xml version="1.0" encoding="UTF-8"?>
<svg id="Layer_2" data-name="Layer 2" xmlns="http://www.w3.org/2000/svg" viewBox="0 0 1945.43 350">
  <defs>
    <style>
      .cls-1 {
        fill: #d01252;
      }

      .cls-2 {
        fill: #545861;
      }
    </style>
  </defs>
  <g id="Layer_1-2" data-name="Layer 1">
    <g>
      <path class="cls-2" d="m718.14,94.47c0,25.68,20.12,46.82,45.37,46.82s45.59-21.14,45.59-46.82c0-15.14-8.22-28.5-19.46-36.76h20.32c4.99,0,9.5-3.86,9.5-9.15s-3.84-9.19-9.5-9.19h-34.79v-23.19h-22.7v23.19h-45.38v18.34h30.07c-10.83,8.26-19.02,21.62-19.02,36.76m45.37-29.63c13.18,0,25.27,13.32,25.27,28.69s-12.09,28.25-25.27,28.25-25.25-13.12-25.25-28.25,12.08-28.69,25.25-28.69"/>
      <path class="cls-2" d="m885.62,92.16v-2.23c0-4.95-3.39-8.35-9.08-8.35h-18.38V21.67h-20.77v140.82c0,6.01,4.86,9.09,9.21,9.09h2.21s9.34,0,9.34-9.09v-61.62h18.38c9.08,0,9.08-8.71,9.08-8.71"/>
      <path class="cls-2" d="m861.17,217.18v-1.62c0-5.67-2.9-8.87-9.58-8.87h-60.5c-14.92,0-16.35-3.21-16.35-17.27v-26.8h-20.96v41.71c0,8.82,3.8,21.43,21.98,21.43h75.83c9.22,0,9.58-8.59,9.58-8.59"/>
      <path class="cls-2" d="m1181.57,193.63h2.14s8.74,0,8.74-8.5c0-.57.02-.95.08-1.27V25.37h-19.51v51.63h-22.49v-43.62h-68.87v95.5c0,9.54,3.99,15.16,15.19,15.16h38.47c11.21,0,15.18-5.62,15.18-15.16l.03.02v-32.4h22.49v89.07c.23,5.29,4.66,8.05,8.54,8.05m-50.85-77.04c-.43,6.29-2.9,8.64-11.26,8.64h-6.63c-9.44,0-11.32-2.93-11.32-11.04v-62.19h29.22v64.6Z"/>
      <path class="cls-2" d="m1221.51,198.85h2.22s9.15,0,9.15-8.88c0-.18.02-.29.02-.44V22.13h-20.33v167.83c0,5.88,4.77,8.88,8.95,8.88"/>
      <path class="cls-2" d="m1399.82,198.9h2.21s9.18,0,9.18-8.88V22.13h-20.36v167.9-.02c0,5.86,4.82,8.88,8.98,8.88"/>
      <path class="cls-2" d="m1359.33,193.63h3.17c2.03-.18,8.22-1.3,8.22-8.46,0-.54,0-.9.03-1.2V25.36h-19.48v44.99h-27.26v18.59h27.26v96.6c.2,5.12,4.27,7.87,8.06,8.09"/>
      <path class="cls-2" d="m1334.41,143.83l.02-.03c4.54-5.83.39-11.77-2.58-14.96-7.52-8.05-12.97-16.48-16.74-25.43-5.34-12.61-7.35-26.65-7.35-42.93v-30.09h-21.95v30.54c0,16.75-2.28,30.33-7.15,42.71-4.15,9.72-10.13,18.54-18.48,27.61-3.56,3.69-7.42,10.26-1.43,16.03h.02c5.96,5.7,13.45.54,16.57-2.91,3.2-3.42,6.32-7.29,9.35-11.35,5.58-7.56,10.36-15.62,12.72-22.03,1.88,6.41,6.73,14.47,12.35,22.03,2.86,3.75,5.89,7.32,9.07,10.51v-.02c2.67,2.56,10.81,6.31,15.58.31"/>
      <path class="cls-2" d="m1603.61,91.07c0-6.66-2.13-9.49-8.82-9.49h-18.59V22.13h-20.55v92.2c-3.45.9-8.26,2.08-13.39,3.32-19.83,3.44-36.72,5.51-55.74,5.74l-8.68.1c-8.65,0-12.88.12-12.88-11.59V30.84h-20.96v95.43c0,12.43,5.98,16.08,16.29,16.08h.02l23.86-.12c12.97,0,40.96-3.11,58.1-6.24,4.2-.75,9.52-2.03,13.39-3.05v64.37h20.55v-97.12h18.59c4.86,0,8.82-2.46,8.82-9.12"/>
      <path class="cls-2" d="m1717.16,85.03c0-11.26-4.97-21.77-12.53-29.35h13.45c4.85,0,9.19-3.75,9.43-8.85v-.98c-.23-5.02-3.96-8.56-9.43-8.56h-34.85V14.79h-22.66v22.51h-45.4v18.38h23.33c-7.33,7.59-12.32,18.09-12.32,29.35,0,24.8,20.13,45.03,45.38,45.03s45.6-20.23,45.6-45.03m-70.86-.92c0-14.93,12.07-27.53,25.25-27.53s25.27,12.6,25.27,27.53-12.08,27.34-25.27,27.34-25.25-12.61-25.25-27.34"/>
      <path class="cls-2" d="m1768.54,210.57l.05.02v-66.79h-20.98v22.06h-60.25v-22.06h-20.95v67.97c.31,8.78,4.43,13.96,15.08,13.96.2,0,.28.05.43.05h71c.17,0,.3-.05.48-.05,11.14,0,15.14-5.64,15.14-15.15m-20.94-10.13c-.03,4.2-1.27,6.97-6.68,6.97h-46.89c-5.51,0-6.68-2.87-6.68-7.21v-16.43h60.25v16.67Z"/>
      <path class="cls-2" d="m1723.2,78.63h26.59v16.63h-27.03v17.43h27.03v10.07c0,6.95,2.19,11.21,10.47,11.21s10.27-4.66,10.27-11.21V21.67h-20.73v39.47h-26.59v17.48Z"/>
      <path class="cls-2" d="m1924.91,22.13v119.64c-1.91.28-5,.71-9.72,1.34-12.07,1.67-31.78,3-51.83,4.12v-17.19c17.44-5.54,29.81-22.29,29.81-42.03,0-12.6-5.64-23.86-14.26-31.66h13.3c4.99,0,9.52-4.04,9.52-9.37s-3.56-8.71-8.78-9.02h-30.46V15.49h-21.62v22.49h-41.5v18.39h23.56c-8.22,7.8-13.81,19.07-13.81,31.66,0,20.88,13.59,38.35,32.17,42.94v17.19c-6.07.24-12.08.24-17.47.24h-30.91v18.14l38.46-.23c28.07-.21,66.96-3,83.82-5.5,3.53-.47,7.33-1.28,9.72-1.81v27.39c0,4.61,2.5,10.22,10.79,10.22,9.58,0,9.72-9.31,9.72-12.44V22.13h-20.52Zm-97.45,65.21c0-14.03,11.28-25.74,23.53-25.74s23.56,11.71,23.56,25.74-11.2,25.46-23.56,25.46-23.53-11.71-23.53-25.46"/>
      <path class="cls-2" d="m1057.44,105.93h-35.06c4.02-16.72,7.19-42.22,7.91-63.3.45-12.55-6.62-13.95-11.87-14.05h-96.1v19.29h75.99c6.04,0,10.51-.2,9.85,10.65-.75,15.12-3.29,35.42-6.76,47.4h-111.9v18.36h76.94v33.54h-46.04v18.58h82.96c5.11,0,7.6,1.62,7.6,8.38v33.11c0,6.27,1.06,11.31,10.62,11.31s10.3-6.88,10.3-11.31v-46.57c0-11.16-6.62-13.5-13.81-13.5h-29.34v-33.54h66.91c.99,0,9.23,0,9.23-9.12,0-7.67-4.15-8.99-7.42-9.23"/>
      <path class="cls-2" d="m761.23,331.57c0,.24-.04.5-.15.71-.15.21-.37.38-.71.5-.33.14-.83.24-1.38.31-.59.08-1.32.12-2.25.12-1.17,0-2.15-.05-2.91-.14-.74-.1-1.3-.28-1.68-.54-.38-.26-.7-.54-.93-.87l-24.3-31.39v31.39c0,.22-.08.43-.21.66-.13.21-.36.37-.71.48-.34.11-.78.21-1.34.28-.57.08-1.29.12-2.1.12s-1.53-.05-2.1-.12c-.58-.07-1.06-.17-1.4-.28-.34-.12-.55-.27-.71-.48-.1-.23-.2-.44-.2-.66v-60.24c0-.26.1-.5.2-.69.16-.19.37-.33.71-.47.34-.1.82-.18,1.4-.27.57-.09,1.26-.12,2.1-.12s1.53.04,2.1.12c.55.09.99.17,1.34.27.36.13.58.27.71.47.13.19.21.43.21.69v27.9l23.39-27.9c.18-.3.43-.55.71-.74.26-.19.62-.33,1.01-.46.39-.1.85-.19,1.42-.26.55-.08,1.28-.1,2.17-.1s1.59.04,2.13.12c.54.09.98.18,1.32.32.33.12.56.28.67.47.12.19.19.41.19.64,0,.43-.12.83-.34,1.26-.23.42-.65,1.01-1.27,1.75l-21.88,24.89,23.61,29.77c.57.82.9,1.41,1.05,1.72.11.31.15.57.15.76"/>
      <path class="cls-2" d="m815.58,309.4c0,3.55-.5,6.83-1.5,9.82-.98,2.97-2.43,5.59-4.41,7.74-1.94,2.17-4.39,3.84-7.32,5.08-2.95,1.2-6.37,1.79-10.25,1.79s-7.07-.51-9.89-1.57c-2.8-1.09-5.12-2.65-7.01-4.68-1.89-2.05-3.27-4.5-4.2-7.41-.89-2.92-1.38-6.23-1.38-9.92s.52-6.82,1.5-9.8c.94-2.99,2.39-5.58,4.36-7.74,1.97-2.17,4.37-3.85,7.33-5.02,2.92-1.22,6.31-1.81,10.27-1.81s7.06.52,9.88,1.61c2.8,1.05,5.13,2.6,7.04,4.64,1.86,2.03,3.26,4.52,4.18,7.42.94,2.89,1.41,6.19,1.41,9.84m-8.74.54c0-2.35-.23-4.59-.7-6.68-.45-2.11-1.23-3.94-2.3-5.55-1.04-1.58-2.49-2.83-4.3-3.75-1.84-.92-4.1-1.39-6.83-1.39-2.51,0-4.66.43-6.44,1.27-1.8.83-3.29,2.02-4.47,3.56-1.17,1.55-2.02,3.36-2.6,5.46-.57,2.1-.85,4.4-.85,6.87s.23,4.64.68,6.74c.47,2.12,1.23,3.95,2.31,5.49,1.1,1.59,2.54,2.85,4.36,3.76,1.81.92,4.06,1.39,6.79,1.39,2.46,0,4.61-.42,6.45-1.27,1.83-.83,3.32-2,4.45-3.56,1.2-1.48,2.05-3.31,2.59-5.41.56-2.1.83-4.41.83-6.94"/>
      <path class="cls-2" d="m855.4,290.92c0,.72,0,1.31-.04,1.8-.03.49-.12.86-.19,1.16-.12.26-.26.46-.39.61-.18.15-.37.21-.65.21s-.62-.06-1.01-.21c-.4-.16-.85-.3-1.34-.43-.52-.15-1.05-.28-1.65-.4-.57-.13-1.26-.19-1.97-.19-.88,0-1.69.16-2.51.47-.83.31-1.7.85-2.59,1.6-.88.73-1.83,1.75-2.83,2.95-.96,1.25-2.05,2.75-3.26,4.53v28.7c0,.26-.09.5-.23.68-.12.16-.36.32-.65.44-.31.12-.73.23-1.27.3-.54.07-1.2.1-2.08.1-.82,0-1.5-.03-2.04-.1-.55-.07-1.01-.17-1.3-.3-.34-.12-.55-.28-.67-.44-.14-.18-.18-.41-.18-.68v-43.65c0-.25.04-.47.16-.65.09-.18.3-.33.62-.48.3-.16.68-.25,1.16-.3.49-.04,1.11-.06,1.9-.06.73,0,1.37.02,1.86.06.47.05.86.15,1.14.3.27.16.47.3.58.48.12.18.18.4.18.65v6.36c1.26-1.76,2.45-3.18,3.56-4.26,1.12-1.11,2.15-1.97,3.13-2.6,1.01-.63,1.97-1.08,2.94-1.3.98-.25,1.96-.37,2.94-.37.46,0,.96.03,1.51.06.56.05,1.13.14,1.75.26.62.12,1.19.28,1.65.43.54.17.89.33,1.09.5.19.16.33.33.4.47.08.13.12.32.18.55.06.21.09.56.11.99.02.45.02,1.03.02,1.76"/>
      <path class="cls-2" d="m906.01,308c0,1.27-.3,2.14-.96,2.69-.65.54-1.39.79-2.27.79h-30.22c0,2.43.23,4.61.75,6.55.5,1.94,1.37,3.6,2.55,4.99,1.2,1.39,2.76,2.45,4.68,3.21,1.89.75,4.25,1.1,7.01,1.1,2.18,0,4.14-.16,5.88-.49,1.7-.34,3.18-.75,4.4-1.17,1.24-.39,2.28-.78,3.1-1.13.78-.34,1.41-.51,1.83-.51.24,0,.45.07.65.17.19.12.34.29.43.52.09.23.18.54.2.92.06.4.11.91.11,1.49,0,.42-.03.79-.06,1.11-.05.3-.07.57-.13.81-.03.23-.13.46-.26.64-.1.2-.25.39-.46.58-.19.16-.72.47-1.68.86-.9.41-2.1.81-3.57,1.19-1.44.39-3.15.74-5.09,1.04-1.9.3-3.96.46-6.13.46-3.81,0-7.07-.5-9.96-1.5-2.83-1-5.23-2.49-7.15-4.45-1.96-1.98-3.42-4.46-4.38-7.42-1.01-2.97-1.5-6.45-1.5-10.39s.5-7.11,1.55-10.1c.99-2.98,2.48-5.55,4.42-7.63,1.92-2.07,4.23-3.68,6.92-4.79,2.77-1.12,5.79-1.67,9.16-1.67,3.61,0,6.69.54,9.23,1.65,2.49,1.09,4.6,2.59,6.26,4.43,1.63,1.87,2.82,4.05,3.6,6.55.75,2.52,1.08,5.2,1.08,8.04v1.46Zm-8.45-2.38c.13-4.19-.85-7.51-2.91-9.89-2.07-2.39-5.16-3.59-9.23-3.59-2.1,0-3.93.36-5.49,1.12-1.56.72-2.9,1.71-3.99,2.95-1.06,1.24-1.86,2.65-2.45,4.29-.57,1.63-.91,3.35-.94,5.12h25.01Z"/>
      <path class="cls-2" d="m954.76,331.77c0,.4-.16.68-.43.88-.26.19-.67.33-1.12.44-.48.09-1.17.13-2.07.13s-1.6-.05-2.1-.13c-.56-.11-.93-.26-1.18-.44-.25-.19-.37-.48-.37-.88v-4.37c-2.02,2.04-4.23,3.62-6.68,4.77-2.5,1.11-5.09,1.68-7.84,1.68-2.46,0-4.61-.3-6.57-.89-1.96-.59-3.65-1.45-5-2.59-1.37-1.13-2.45-2.53-3.21-4.18-.78-1.63-1.14-3.53-1.14-5.61,0-2.47.52-4.6,1.58-6.42,1.03-1.8,2.55-3.32,4.51-4.5,2-1.2,4.4-2.09,7.24-2.68,2.89-.62,6.07-.91,9.68-.91h6.31v-3.41c0-1.66-.17-3.15-.57-4.45-.36-1.3-.96-2.36-1.77-3.24-.82-.86-1.9-1.49-3.23-1.93-1.34-.44-3-.66-4.91-.66-2.07,0-3.95.23-5.61.71-1.65.47-3.06.98-4.32,1.55-1.23.56-2.28,1.09-3.13,1.54-.85.48-1.44.71-1.87.71-.24,0-.5-.05-.71-.19-.18-.14-.37-.33-.49-.58-.18-.25-.28-.58-.34-.99-.05-.4-.1-.85-.1-1.34,0-.79.07-1.44.18-1.9.1-.47.38-.93.85-1.36.46-.4,1.23-.89,2.37-1.47,1.13-.57,2.45-1.08,3.91-1.54,1.45-.47,3.01-.89,4.76-1.17,1.77-.31,3.51-.46,5.28-.46,3.28,0,6.12.34,8.4,1.05,2.31.74,4.22,1.76,5.65,3.15,1.4,1.37,2.42,3.08,3.09,5.12.64,2.03.98,4.42.98,7.11v29.46Zm-8.4-19.94h-7.19c-2.31,0-4.3.19-6,.55-1.72.4-3.14.94-4.25,1.65-1.13.73-1.92,1.6-2.46,2.63-.54,1.01-.78,2.19-.78,3.53,0,2.24.75,4.05,2.24,5.4,1.5,1.34,3.63,2.01,6.36,2.01,2.19,0,4.26-.53,6.15-1.61,1.93-1.06,3.87-2.69,5.92-4.88v-9.28Z"/>
      <path class="cls-2" d="m1079.37,331.67c0,.26-.06.48-.2.67-.14.21-.39.36-.71.47-.37.11-.81.2-1.34.28-.53.08-1.23.13-2.1.13s-1.49-.05-2.13-.13c-.57-.08-1.06-.17-1.4-.28-.31-.12-.53-.26-.65-.47-.14-.19-.23-.4-.23-.67v-54.68h-.11l-23.27,54.93c-.11.21-.26.41-.43.57-.19.17-.45.31-.79.41-.34.12-.79.19-1.27.25-.47.05-1.05.08-1.75.08-.75,0-1.38-.03-1.9-.1-.53-.07-.95-.16-1.27-.26-.34-.12-.61-.24-.79-.41-.19-.16-.3-.34-.39-.53l-22.26-54.93h-.06v54.68c0,.26-.06.48-.2.67-.14.21-.39.36-.73.47-.34.11-.78.2-1.35.28-.54.08-1.24.13-2.14.13-.82,0-1.55-.05-2.13-.13-.56-.08-1.01-.17-1.35-.28-.34-.12-.56-.26-.68-.47-.11-.19-.16-.4-.16-.67v-57.71c0-1.37.34-2.34,1.1-2.93.78-.58,1.63-.86,2.58-.86h5.37c1.1,0,2.1.1,2.93.28.85.19,1.56.5,2.17.93.61.43,1.14.96,1.54,1.59.4.65.76,1.41,1.07,2.28l18.95,45.45h.26l19.6-45.31c.39-.97.78-1.79,1.23-2.49.47-.66.98-1.2,1.54-1.61.54-.41,1.16-.71,1.79-.89.67-.18,1.41-.26,2.25-.26h5.69c.53,0,1.01.07,1.46.21.47.14.85.37,1.18.66.33.32.57.72.78,1.19.2.47.31,1.04.31,1.73v57.71Z"/>
      <path class="cls-2" d="m1138.46,308c0,1.27-.33,2.14-.98,2.69-.67.54-1.44.79-2.36.79h-30.21c0,2.43.26,4.61.81,6.55.5,1.94,1.35,3.6,2.52,4.99,1.17,1.39,2.7,2.45,4.71,3.21,1.9.75,4.22,1.1,6.97,1.1,2.25,0,4.15-.16,5.84-.49,1.69-.34,3.28-.75,4.49-1.17,1.23-.39,2.25-.78,3.03-1.13.81-.34,1.4-.51,1.8-.51.25,0,.5.07.68.17.22.12.36.29.47.52.11.23.19.54.23.92.05.4.09.91.09,1.49,0,.42-.05.79-.06,1.11-.03.3-.08.57-.12.81s-.14.46-.3.64c-.09.2-.26.39-.47.58-.2.16-.78.47-1.68.86-.9.41-2.07.81-3.53,1.19-1.44.39-3.23.74-5.13,1.04-1.88.3-3.91.46-6.18.46-3.71,0-7.05-.5-9.89-1.5-2.78-1-5.23-2.49-7.19-4.45-1.9-1.98-3.34-4.46-4.32-7.42-1.04-2.97-1.55-6.45-1.55-10.39s.54-7.11,1.62-10.1c1.01-2.98,2.45-5.55,4.35-7.63,1.93-2.07,4.3-3.68,6.96-4.79,2.72-1.12,5.82-1.67,9.13-1.67,3.67,0,6.71.54,9.21,1.65,2.61,1.09,4.66,2.59,6.27,4.43,1.62,1.87,2.9,4.05,3.65,6.55.78,2.52,1.13,5.2,1.13,8.04v1.46Zm-8.45-2.38c.09-4.19-.87-7.51-3.03-9.89-2.05-2.39-5.09-3.59-9.21-3.59-2.05,0-3.87.36-5.45,1.12-1.63.72-2.92,1.71-3.99,2.95-1.03,1.24-1.83,2.65-2.41,4.29-.59,1.63-.93,3.35-1.01,5.12h25.1Z"/>
      <path class="cls-2" d="m1187.51,325.07c0,.54,0,1.03-.05,1.44-.03.4-.08.75-.19,1.02-.08.27-.16.51-.28.74-.12.22-.39.51-.79.9-.44.4-1.15.9-2.17,1.51-1.05.61-2.24,1.14-3.49,1.61-1.26.47-2.62.85-4.12,1.13-1.55.28-3.14.43-4.69.43-3.23,0-6.27-.52-8.78-1.53-2.52-1.05-4.72-2.57-6.41-4.55-1.69-1.99-3.01-4.43-3.87-7.32-.95-2.9-1.45-6.24-1.45-10.02,0-4.3.63-7.99,1.75-11.07,1.09-3.09,2.58-5.61,4.47-7.6,1.94-1.96,4.24-3.46,6.82-4.38,2.56-.96,5.44-1.43,8.45-1.43,1.41,0,2.94.12,4.3.37,1.35.26,2.59.61,3.76,1.04,1.13.42,2.21.89,3.14,1.44.9.57,1.54,1.03,1.93,1.41.42.38.68.7.83.93.16.24.3.49.4.8.11.3.16.64.2,1.06,0,.38.03.85.03,1.44,0,1.27-.12,2.14-.43,2.65-.31.5-.67.75-1.1.75-.5,0-1.08-.27-1.74-.79-.66-.55-1.6-1.13-2.61-1.78-.99-.66-2.21-1.24-3.65-1.77-1.41-.54-3.22-.81-5.19-.81-3.96,0-7.14,1.48-9.27,4.44-2.14,2.96-3.2,7.25-3.2,12.88,0,2.81.28,5.29.84,7.41.54,2.12,1.37,3.88,2.42,5.31,1.09,1.42,2.41,2.49,4.04,3.16,1.6.71,3.36,1.05,5.39,1.05s3.7-.29,5.14-.89c1.44-.57,2.69-1.2,3.74-1.9,1.13-.71,2.07-1.32,2.8-1.89.71-.59,1.29-.85,1.69-.85.22,0,.42.05.57.19.2.13.33.35.45.67.11.3.2.7.26,1.15.05.49.05,1.03.05,1.69"/>
      <path class="cls-2" d="m1241.18,308c0,1.27-.33,2.14-.98,2.69-.67.54-1.41.79-2.28.79h-30.24c0,2.43.25,4.61.75,6.55.51,1.94,1.35,3.6,2.53,4.99,1.17,1.39,2.71,2.45,4.7,3.21,1.9.75,4.2,1.1,7.06,1.1,2.14,0,4.07-.16,5.75-.49,1.82-.34,3.26-.75,4.49-1.17,1.23-.39,2.27-.78,3.04-1.13.78-.34,1.41-.51,1.86-.51.27,0,.5.07.69.17.17.12.33.29.42.52.11.23.19.54.23.92.06.4.06.91.06,1.49,0,.42,0,.79-.05,1.11-.02.3-.06.57-.12.81-.03.23-.14.46-.25.64-.12.2-.26.39-.45.58-.19.16-.79.47-1.74.86-.92.41-2.1.81-3.51,1.19-1.48.39-3.17.74-5.16,1.04-1.88.3-3.9.46-6.13.46-3.76,0-7.02-.5-9.93-1.5-2.81-1-5.16-2.49-7.2-4.45-1.87-1.98-3.33-4.46-4.31-7.42-.96-2.97-1.44-6.45-1.44-10.39s.48-7.11,1.51-10.1c.98-2.98,2.44-5.55,4.35-7.63,2.02-2.07,4.29-3.68,6.97-4.79,2.78-1.12,5.81-1.67,9.1-1.67,3.68,0,6.71.54,9.3,1.65,2.53,1.09,4.58,2.59,6.2,4.43,1.71,1.87,2.89,4.05,3.67,6.55.73,2.52,1.12,5.2,1.12,8.04v1.46Zm-8.47-2.38c.11-4.19-.87-7.51-2.98-9.89-2.11-2.39-5.11-3.59-9.26-3.59-2.03,0-3.85.36-5.39,1.12-1.68.72-2.98,1.71-4.04,2.95-1.03,1.24-1.83,2.65-2.41,4.29-.57,1.63-.92,3.35-.96,5.12h25.04Z"/>
      <path class="cls-2" d="m1296.79,331.71c0,.26-.08.5-.2.68-.16.16-.36.32-.65.44-.33.12-.73.23-1.27.3-.53.07-1.2.09-2.07.09s-1.58-.02-2.13-.09c-.54-.06-.96-.18-1.26-.3-.31-.12-.51-.29-.65-.44-.12-.18-.19-.42-.19-.68v-25.56c0-2.49-.2-4.48-.62-6.01-.39-1.51-.98-2.81-1.76-3.92-.78-1.1-1.88-1.95-3.11-2.52-1.21-.59-2.64-.88-4.24-.88-2.19,0-4.3.71-6.35,2.14-2.1,1.41-4.4,3.5-6.65,6.26v30.5c0,.26-.08.5-.2.68-.14.16-.36.32-.67.44-.3.12-.7.23-1.24.3-.53.07-1.24.09-2.13.09s-1.56-.02-2.08-.09c-.53-.06-.96-.18-1.27-.3-.33-.12-.56-.29-.67-.44-.12-.18-.16-.42-.16-.68v-43.64c0-.26.03-.48.16-.65.08-.19.3-.33.59-.49s.68-.25,1.17-.3c.43-.05,1.07-.07,1.89-.07s1.43.02,1.91.07c.5.05.85.15,1.13.3.26.16.47.3.57.49.12.17.16.4.16.65v5.77c2.57-2.74,5.23-4.76,7.74-6.03,2.52-1.3,5.2-1.93,7.8-1.93,3,0,5.66.49,7.74,1.48,2.07.99,3.73,2.31,5.13,3.95,1.26,1.67,2.17,3.56,2.74,5.79.55,2.22.83,4.88.83,7.99v26.61Z"/>
      <path class="cls-2" d="m1349.32,331.77c0,.4-.11.68-.39.88-.26.19-.64.33-1.17.44-.47.09-1.23.13-2.13.13s-1.55-.05-2.08-.13c-.51-.11-.89-.26-1.13-.44-.25-.19-.34-.48-.34-.88v-4.37c-2.05,2.04-4.32,3.62-6.74,4.77-2.44,1.11-5.14,1.68-7.83,1.68-2.38,0-4.66-.3-6.59-.89-1.94-.59-3.57-1.45-4.99-2.59-1.43-1.13-2.49-2.53-3.23-4.18-.75-1.63-1.13-3.53-1.13-5.61,0-2.47.51-4.6,1.55-6.42,1.04-1.8,2.55-3.32,4.6-4.5,1.96-1.2,4.32-2.09,7.25-2.68,2.81-.62,6-.91,9.61-.91h6.38v-3.41c0-1.66-.2-3.15-.56-4.45-.43-1.3-1.03-2.36-1.91-3.24-.82-.86-1.89-1.49-3.2-1.93-1.31-.44-2.92-.66-4.97-.66s-3.85.23-5.48.71c-1.74.47-3.15.98-4.38,1.55-1.23.56-2.24,1.09-3.08,1.54-.85.48-1.48.71-1.94.71-.28,0-.53-.05-.71-.19-.2-.14-.36-.33-.53-.58-.16-.25-.25-.58-.34-.99-.03-.4-.11-.85-.11-1.34,0-.79.09-1.44.2-1.9.12-.47.42-.93.85-1.36.43-.4,1.29-.89,2.45-1.47,1.1-.57,2.38-1.08,3.82-1.54,1.44-.47,3.08-.89,4.85-1.17,1.71-.31,3.43-.46,5.17-.46,3.36,0,6.14.34,8.48,1.05,2.35.74,4.18,1.76,5.58,3.15,1.43,1.37,2.5,3.08,3.17,5.12.67,2.03.98,4.42.98,7.11v29.46Zm-8.34-19.94h-7.24c-2.31,0-4.36.19-6.03.55-1.69.4-3.08.94-4.27,1.65-1.13.73-1.94,1.6-2.47,2.63-.51,1.01-.78,2.19-.78,3.53,0,2.24.73,4.05,2.24,5.4,1.57,1.34,3.7,2.01,6.37,2.01,2.21,0,4.32-.53,6.18-1.61,1.86-1.06,3.81-2.69,6-4.88v-9.28Z"/>
      <path class="cls-2" d="m1390.89,328.52c0,.93-.06,1.67-.19,2.23-.14.55-.33.97-.61,1.2-.28.26-.68.52-1.21.75-.56.23-1.13.4-1.88.55-.68.13-1.46.25-2.25.35-.78.09-1.54.14-2.3.14-2.36,0-4.46-.29-6.15-.89-1.66-.59-3.06-1.51-4.12-2.72-1.13-1.21-1.97-2.73-2.47-4.61-.48-1.86-.73-4.05-.73-6.56v-25.52h-6.42c-.51,0-.93-.26-1.23-.78-.3-.52-.47-1.35-.47-2.52,0-.62.05-1.14.12-1.55.09-.41.19-.77.34-1.04.11-.26.3-.47.53-.59.22-.11.45-.17.78-.17h6.34v-10.38c0-.23.06-.41.19-.63.12-.19.34-.35.67-.5.31-.14.81-.26,1.34-.33.57-.06,1.26-.09,2.05-.09.85,0,1.54.02,2.08.09.51.06.95.19,1.24.33.31.16.51.32.65.5.16.22.19.4.19.63v10.38h11.85c.26,0,.51.06.71.17.19.12.36.33.51.59.14.27.25.63.33,1.04.06.41.09.93.09,1.55,0,1.16-.17,2-.43,2.52-.31.53-.7.78-1.21.78h-11.85v24.34c0,3.02.48,5.29,1.46,6.83.98,1.52,2.63,2.3,5,2.3.76,0,1.46-.06,2.08-.22.64-.14,1.18-.3,1.71-.47.47-.16.84-.33,1.21-.46.33-.15.62-.23.9-.23.16,0,.31.05.47.12.18.09.28.24.34.47.09.24.16.53.23.93.06.4.09.89.09,1.46"/>
      <path class="cls-2" d="m1489.06,329.96c.28.71.45,1.29.47,1.72,0,.45-.16.78-.4,1.01-.28.22-.71.36-1.37.43s-1.51.09-2.53.09-1.86-.02-2.5-.07c-.62-.05-1.1-.13-1.44-.25-.31-.1-.58-.26-.7-.45-.16-.19-.31-.43-.45-.72l-5.62-15.28h-27.55l-5.37,15.07c-.09.29-.23.55-.38.76-.2.22-.43.4-.79.54-.33.14-.79.24-1.38.31-.59.07-1.35.09-2.28.09-.98,0-1.78-.04-2.42-.12-.62-.08-1.1-.22-1.36-.45-.27-.22-.38-.56-.38-1,.05-.43.17-1,.47-1.72l22.15-58.31c.12-.35.3-.65.51-.87.23-.23.56-.39.99-.54.46-.12.99-.21,1.66-.25.68-.05,1.51-.08,2.5-.08,1.09,0,1.97.02,2.69.08.73.04,1.34.13,1.76.25.45.15.84.3,1.06.55.25.25.45.55.56.92l22.13,58.29Zm-28.42-51.46h-.06l-11.37,31.29h22.96l-11.52-31.29Z"/>
      <path class="cls-2" d="m1531.2,319.81c0,2.23-.4,4.23-1.27,5.96-.87,1.76-2.13,3.24-3.74,4.42-1.6,1.21-3.48,2.13-5.7,2.73-2.24.6-4.63.89-7.3.89-1.65,0-3.22-.12-4.68-.35-1.46-.24-2.8-.54-3.98-.91-1.2-.39-2.21-.77-3.01-1.18-.81-.39-1.38-.75-1.76-1.09-.37-.33-.64-.78-.82-1.35-.16-.58-.25-1.38-.25-2.37,0-.64.05-1.14.11-1.55.08-.42.14-.76.28-1.03.06-.27.23-.45.4-.56.16-.12.39-.18.62-.18.36,0,.92.22,1.63.65.73.46,1.66.92,2.75,1.44,1.09.5,2.35.98,3.82,1.42,1.43.43,3.11.65,5.05.65,1.43,0,2.7-.15,3.85-.43,1.15-.29,2.17-.73,3.03-1.29.85-.55,1.52-1.28,2-2.16.43-.87.67-1.92.67-3.1s-.33-2.27-.98-3.11c-.71-.85-1.58-1.58-2.67-2.22-1.12-.66-2.33-1.23-3.67-1.72-1.35-.5-2.79-1.05-4.22-1.59-1.48-.55-2.86-1.18-4.21-1.88-1.37-.68-2.63-1.52-3.73-2.53-1.1-1.03-1.97-2.2-2.64-3.6-.64-1.4-.99-3.04-.99-4.99,0-1.71.36-3.36,1.06-4.92.67-1.58,1.71-2.94,3.15-4.12,1.41-1.19,3.15-2.11,5.19-2.85,2.14-.7,4.6-1.05,7.35-1.05,1.23,0,2.47.09,3.7.28,1.24.19,2.35.43,3.31.72.98.29,1.82.61,2.5.95.71.34,1.29.63,1.6.9.36.26.62.5.73.7.12.18.2.4.26.63.05.25.08.54.16.9.06.36.06.81.06,1.32,0,.54,0,1.03-.06,1.42-.08.4-.14.74-.26.99-.12.26-.26.43-.43.57-.17.11-.36.16-.56.16-.31,0-.76-.18-1.35-.54-.57-.36-1.34-.73-2.22-1.14-.93-.39-1.97-.77-3.23-1.15-1.24-.33-2.72-.52-4.29-.52-1.4,0-2.66.15-3.77.46-1.09.32-1.99.76-2.7,1.31-.7.55-1.23,1.23-1.55,2.02-.37.76-.54,1.62-.54,2.5,0,1.27.34,2.33,1.01,3.19.67.85,1.55,1.62,2.66,2.25,1.12.66,2.35,1.23,3.74,1.75,1.38.52,2.8,1.06,4.27,1.61,1.43.54,2.89,1.17,4.27,1.86,1.4.67,2.64,1.48,3.77,2.46,1.09.97,1.96,2.12,2.63,3.49.67,1.36.98,2.96.98,4.85"/>
      <path class="cls-2" d="m1575.31,319.81c0,2.23-.42,4.23-1.27,5.96-.89,1.76-2.13,3.24-3.71,4.42-1.58,1.21-3.49,2.13-5.73,2.73-2.17.6-4.63.89-7.3.89-1.63,0-3.17-.12-4.64-.35-1.48-.24-2.83-.54-4.01-.91-1.15-.39-2.14-.77-2.94-1.18-.84-.39-1.46-.75-1.82-1.09-.37-.33-.64-.78-.81-1.35-.16-.58-.28-1.38-.28-2.37,0-.64.05-1.14.12-1.55.08-.42.16-.76.25-1.03.09-.27.23-.45.43-.56.19-.12.4-.18.62-.18.37,0,.96.22,1.68.65.73.46,1.63.92,2.69,1.44,1.06.5,2.35.98,3.81,1.42,1.49.43,3.14.65,5.05.65,1.44,0,2.73-.15,3.91-.43,1.13-.29,2.13-.73,2.98-1.29.84-.55,1.52-1.28,1.99-2.16.45-.87.68-1.92.68-3.1s-.33-2.27-.99-3.11c-.65-.85-1.57-1.58-2.64-2.22-1.09-.66-2.3-1.23-3.7-1.72-1.34-.5-2.78-1.05-4.19-1.59-1.43-.55-2.84-1.18-4.23-1.88-1.4-.68-2.64-1.52-3.73-2.53-1.07-1.03-1.93-2.2-2.61-3.6-.67-1.4-1.01-3.04-1.01-4.99,0-1.71.36-3.36,1.09-4.92.7-1.58,1.72-2.94,3.09-4.12,1.41-1.19,3.17-2.11,5.3-2.85,2.05-.7,4.49-1.05,7.3-1.05,1.23,0,2.42.09,3.65.28,1.24.19,2.36.43,3.34.72.98.29,1.82.61,2.53.95.7.34,1.18.63,1.54.9.37.26.62.5.71.7.12.18.2.4.28.63.05.25.09.54.14.9.08.36.08.81.08,1.32,0,.54,0,1.03-.08,1.42-.05.4-.14.74-.25.99-.14.26-.26.43-.43.57-.17.11-.34.16-.57.16-.3,0-.71-.18-1.3-.54-.56-.36-1.3-.73-2.24-1.14-.92-.39-1.99-.77-3.25-1.15-1.26-.33-2.66-.52-4.24-.52-1.44,0-2.72.15-3.84.46-1.09.32-1.97.76-2.64,1.31-.68.55-1.21,1.23-1.58,2.02-.36.76-.54,1.62-.54,2.5,0,1.27.33,2.33,1.03,3.19.7.85,1.55,1.62,2.64,2.25,1.09.66,2.35,1.23,3.74,1.75,1.4.52,2.81,1.06,4.26,1.61,1.43.54,2.87,1.17,4.3,1.86,1.43.67,2.64,1.48,3.73,2.46,1.1.97,1.97,2.12,2.64,3.49.65,1.36.98,2.96.98,4.85"/>
      <path class="cls-2" d="m1633.34,309.39c0,3.56-.47,6.82-1.46,9.82-.99,2.98-2.45,5.58-4.44,7.74-1.95,2.16-4.4,3.85-7.37,5.06-2.92,1.22-6.34,1.8-10.22,1.8s-7.08-.51-9.85-1.58c-2.83-1.08-5.17-2.63-7.04-4.67-1.88-2.03-3.26-4.5-4.19-7.41-.92-2.91-1.38-6.22-1.38-9.92s.47-6.81,1.44-9.82c.99-2.97,2.44-5.55,4.43-7.72,1.93-2.17,4.38-3.85,7.34-5.04,2.87-1.21,6.33-1.8,10.2-1.8s7.1.53,9.92,1.61c2.8,1.05,5.13,2.6,7.01,4.64,1.86,2.04,3.29,4.51,4.22,7.44.93,2.87,1.38,6.17,1.38,9.83m-8.71.54c0-2.36-.22-4.6-.68-6.68-.48-2.1-1.24-3.96-2.31-5.54-1.07-1.59-2.52-2.85-4.32-3.75-1.82-.92-4.11-1.39-6.82-1.39-2.49,0-4.64.43-6.48,1.27-1.79.82-3.26,2.03-4.43,3.55-1.17,1.53-2.03,3.36-2.63,5.46-.57,2.1-.83,4.4-.83,6.9s.23,4.63.7,6.74c.45,2.09,1.26,3.94,2.31,5.49,1.1,1.58,2.55,2.83,4.33,3.74,1.86.92,4.09,1.4,6.83,1.4,2.45,0,4.6-.43,6.45-1.28,1.79-.82,3.29-2.02,4.47-3.56,1.15-1.48,2.02-3.3,2.57-5.4.57-2.11.83-4.42.83-6.94"/>
      <path class="cls-2" d="m1682.01,325.06c0,.53,0,1.01-.06,1.43-.02.4-.1.74-.17,1.02-.08.26-.17.51-.3.72-.14.23-.4.52-.82.92-.42.4-1.15.89-2.17,1.49-1.01.61-2.16,1.15-3.43,1.62-1.29.47-2.67.85-4.16,1.13-1.51.29-3.06.43-4.66.43-3.29,0-6.2-.51-8.78-1.54-2.55-1.05-4.68-2.56-6.42-4.54-1.7-2-3.01-4.43-3.91-7.31-.92-2.91-1.35-6.27-1.35-10.05,0-4.3.53-7.98,1.66-11.07,1.1-3.09,2.58-5.61,4.52-7.59,1.91-1.97,4.23-3.44,6.8-4.38,2.59-.96,5.42-1.44,8.45-1.44,1.46,0,2.89.12,4.27.38,1.34.25,2.63.59,3.79,1.03,1.16.43,2.21.89,3.09,1.45.9.55,1.57,1.02,1.96,1.4.42.39.7.69.84.92.16.23.3.51.39.8.11.31.17.65.2,1.05s.05.88.05,1.45c0,1.27-.14,2.14-.45,2.65-.3.51-.67.75-1.14.75s-1.1-.27-1.75-.8c-.65-.54-1.49-1.12-2.5-1.77-1.04-.64-2.28-1.24-3.72-1.76-1.45-.54-3.16-.82-5.13-.82-4.04,0-7.14,1.48-9.32,4.45-2.14,2.95-3.25,7.25-3.25,12.88,0,2.82.3,5.28.85,7.4.59,2.12,1.38,3.89,2.47,5.3,1.09,1.44,2.44,2.49,4.01,3.18,1.6.7,3.4,1.04,5.45,1.04,1.93,0,3.63-.29,5.09-.89,1.46-.57,2.72-1.19,3.8-1.9,1.1-.7,1.98-1.32,2.73-1.91.73-.56,1.27-.84,1.71-.84.21,0,.43.07.61.19.16.12.3.34.4.64.12.32.23.72.28,1.18.05.47.08,1.03.08,1.68"/>
      <path class="cls-2" d="m1705.82,273.3c0,1.86-.36,3.15-1.14,3.83-.71.69-2.1,1.03-4.11,1.03s-3.34-.32-4.07-.99c-.71-.68-1.1-1.93-1.1-3.76s.39-3.17,1.13-3.84c.75-.69,2.13-1.03,4.13-1.03s3.34.33,4.05.99c.75.67,1.1,1.92,1.1,3.76m-.98,58.41c0,.24-.06.46-.2.64-.12.19-.36.34-.65.46-.3.13-.73.23-1.3.3-.52.07-1.22.09-2.07.09-.81,0-1.48-.02-2.03-.09-.54-.06-.98-.16-1.32-.3-.33-.12-.54-.27-.67-.46-.11-.19-.17-.4-.17-.64v-43.67c0-.22.06-.41.17-.62.12-.22.34-.36.67-.5.34-.12.78-.22,1.32-.3.56-.07,1.23-.09,2.03-.09.85,0,1.55.02,2.07.09.57.08.99.17,1.3.3.3.14.53.28.65.5.14.21.2.4.2.62v43.67Z"/>
      <path class="cls-2" d="m1758.27,331.75c0,.38-.14.68-.42.88-.26.19-.65.34-1.12.43-.5.09-1.17.14-2.1.14-.85,0-1.58-.05-2.08-.14-.56-.09-.93-.25-1.17-.43-.24-.19-.38-.5-.38-.88v-4.36c-1.99,2.03-4.21,3.63-6.68,4.75-2.47,1.14-5.09,1.69-7.84,1.69-2.42,0-4.61-.29-6.55-.88-1.99-.59-3.65-1.46-5.02-2.59-1.38-1.13-2.44-2.53-3.22-4.19-.75-1.63-1.17-3.52-1.17-5.62,0-2.47.54-4.58,1.6-6.41,1.06-1.81,2.58-3.31,4.55-4.5,1.97-1.19,4.41-2.09,7.24-2.7,2.84-.6,6.07-.89,9.63-.89h6.35v-3.42c0-1.66-.2-3.13-.54-4.43-.4-1.3-1.01-2.38-1.83-3.25-.84-.84-1.91-1.48-3.23-1.92-1.32-.44-2.97-.67-4.91-.67-2.05,0-3.93.23-5.59.7-1.68.49-3.09.99-4.33,1.55-1.25.57-2.3,1.1-3.12,1.57-.84.45-1.46.7-1.88.7-.26,0-.51-.06-.68-.2-.23-.12-.4-.33-.54-.58-.16-.26-.26-.57-.34-.99-.07-.4-.09-.85-.09-1.33,0-.8.05-1.45.17-1.9.12-.48.39-.93.85-1.35.45-.42,1.24-.91,2.37-1.48,1.13-.57,2.45-1.09,3.88-1.55,1.48-.47,3.06-.86,4.8-1.17,1.76-.3,3.51-.45,5.26-.45,3.31,0,6.11.35,8.43,1.05,2.33.73,4.19,1.75,5.64,3.13,1.41,1.38,2.45,3.1,3.09,5.13.65,2.03.98,4.41.98,7.11v29.45Zm-8.37-19.93h-7.19c-2.31,0-4.32.19-6.03.57-1.71.37-3.11.92-4.24,1.64-1.13.72-1.94,1.61-2.45,2.64-.54.99-.82,2.17-.82,3.5,0,2.25.78,4.07,2.3,5.41,1.51,1.34,3.63,2,6.34,2,2.19,0,4.26-.52,6.14-1.6,1.91-1.06,3.87-2.69,5.96-4.88v-9.27Z"/>
      <path class="cls-2" d="m1799.91,328.51c0,.92-.06,1.66-.22,2.22-.12.56-.34.94-.59,1.21-.3.26-.68.5-1.26.74-.54.22-1.16.4-1.86.55-.68.15-1.43.25-2.21.36-.78.09-1.57.14-2.35.14-2.39,0-4.44-.3-6.12-.87-1.72-.61-3.09-1.54-4.19-2.74-1.12-1.19-1.89-2.75-2.38-4.61-.5-1.86-.75-4.05-.75-6.55v-25.52h-6.45c-.5,0-.9-.26-1.21-.79-.31-.5-.45-1.35-.45-2.51,0-.61.03-1.14.11-1.55.09-.42.22-.75.34-1.04.14-.27.31-.46.53-.6.23-.11.47-.16.75-.16h6.38v-10.38c0-.22.06-.42.19-.62.12-.2.33-.37.65-.51.31-.16.75-.27,1.29-.33.54-.06,1.24-.09,2.07-.09s1.55.03,2.1.09c.54.05.96.16,1.27.33.31.15.53.31.67.51s.19.4.19.62v10.38h11.8c.28,0,.53.05.71.16.22.14.37.33.54.6.14.29.25.62.33,1.04.06.41.11.94.11,1.55,0,1.16-.17,2-.47,2.51-.3.54-.7.79-1.23.79h-11.8v24.34c0,3.02.48,5.28,1.4,6.83.95,1.51,2.63,2.29,5.05,2.29.78,0,1.48-.06,2.08-.22.62-.13,1.15-.3,1.63-.45.5-.17.9-.34,1.24-.48.34-.14.65-.2.93-.2.16,0,.33.04.47.11.17.09.28.23.36.45.08.25.16.56.23.94.06.39.11.89.11,1.47"/>
      <path class="cls-2" d="m1825.25,273.3c0,1.86-.36,3.15-1.13,3.83-.73.69-2.1,1.03-4.12,1.03s-3.32-.32-4.05-.99c-.73-.68-1.12-1.93-1.12-3.76s.39-3.17,1.15-3.84c.75-.69,2.11-1.03,4.1-1.03s3.35.33,4.1.99c.73.67,1.07,1.92,1.07,3.76m-.96,58.41c0,.24-.06.46-.19.64-.16.19-.36.34-.67.46-.31.13-.75.23-1.29.3-.53.07-1.26.09-2.11.09s-1.48-.02-2.05-.09c-.5-.06-.95-.16-1.27-.3-.31-.12-.56-.27-.67-.46-.12-.19-.19-.4-.19-.64v-43.67c0-.22.06-.41.19-.62.11-.22.36-.36.67-.5.33-.12.78-.22,1.27-.3.57-.07,1.23-.09,2.05-.09s1.58.02,2.11.09c.54.08.98.17,1.29.3.31.14.51.28.67.5.12.21.19.4.19.62v43.67Z"/>
      <path class="cls-2" d="m1885.82,309.39c0,3.56-.5,6.82-1.49,9.82-.98,2.98-2.47,5.58-4.38,7.74-1.99,2.16-4.43,3.85-7.38,5.06-2.94,1.22-6.38,1.8-10.24,1.8s-7.07-.51-9.88-1.58c-2.83-1.08-5.14-2.63-7.04-4.67-1.88-2.03-3.26-4.5-4.18-7.41-.89-2.91-1.35-6.22-1.35-9.92s.47-6.81,1.43-9.82c.95-2.97,2.42-5.55,4.4-7.72,1.96-2.17,4.38-3.85,7.33-5.04,2.92-1.21,6.32-1.8,10.27-1.8s7.07.53,9.85,1.61c2.83,1.05,5.17,2.6,7.05,4.64,1.83,2.04,3.26,4.51,4.21,7.44.93,2.87,1.4,6.17,1.4,9.83m-8.73.54c0-2.36-.22-4.6-.7-6.68-.47-2.1-1.23-3.96-2.31-5.54-1.06-1.59-2.49-2.85-4.27-3.75-1.86-.92-4.13-1.39-6.83-1.39-2.52,0-4.68.43-6.46,1.27-1.8.82-3.29,2.03-4.46,3.55-1.2,1.53-2.05,3.36-2.61,5.46-.57,2.1-.84,4.4-.84,6.9s.23,4.63.7,6.74c.44,2.09,1.21,3.94,2.28,5.49,1.09,1.58,2.56,2.83,4.38,3.74,1.8.92,4.07,1.4,6.8,1.4,2.47,0,4.61-.43,6.45-1.28,1.82-.82,3.31-2.02,4.46-3.56,1.18-1.48,2-3.3,2.58-5.4.56-2.11.84-4.42.84-6.94"/>
      <path class="cls-2" d="m1941.04,331.71c0,.24-.09.46-.2.64-.14.19-.36.34-.67.46-.31.13-.73.23-1.3.3-.54.07-1.21.09-2.03.09-.87,0-1.54-.02-2.08-.09-.54-.06-.98-.16-1.27-.3-.31-.12-.54-.27-.65-.46-.14-.19-.2-.4-.2-.64v-25.58c0-2.47-.2-4.47-.64-6.01-.42-1.52-1.01-2.81-1.79-3.93-.79-1.09-1.82-1.94-3.03-2.51-1.24-.57-2.67-.88-4.3-.88-2.14,0-4.23.71-6.35,2.13-2.13,1.41-4.32,3.5-6.62,6.26v30.52c0,.24-.08.46-.2.64-.12.19-.37.34-.64.46-.34.13-.76.23-1.34.3-.56.07-1.23.09-2.1.09-.82,0-1.48-.02-2.02-.09-.54-.06-.98-.16-1.3-.3-.31-.12-.54-.27-.67-.46-.11-.19-.17-.4-.17-.64v-43.67c0-.23.06-.47.16-.64.09-.19.3-.33.61-.49.3-.15.71-.25,1.16-.3.5-.05,1.12-.07,1.88-.07s1.38.02,1.89.07c.45.05.87.16,1.13.3.28.16.48.3.59.49.14.17.2.41.2.64v5.79c2.56-2.75,5.16-4.75,7.74-6.03,2.56-1.3,5.14-1.93,7.77-1.93,3.06,0,5.62.49,7.72,1.49,2.11.97,3.79,2.3,5.08,3.95,1.31,1.64,2.24,3.57,2.78,5.79.59,2.22.87,4.88.87,7.98v26.64Z"/>
      <path class="cls-1" d="m135.9,350l.05-189.29S17.86,22.02,15.67,19.51c-4.66-5.39-15.67-3.14-15.67,3.92v294.32c0,22.92,8.96,32.25,31.28,32.25h104.62Z"/>
      <path class="cls-1" d="m429.7,350l-.02-189.29s118.09-138.7,120.29-141.21c4.63-5.39,15.66-3.14,15.66,3.92v294.32c0,22.92-8.95,32.25-31.3,32.25h-104.63Z"/>
      <path class="cls-1" d="m417.34,0H148.3c-7.67,0-12.35,3.46-12.35,11.61v149.1l136.62,159.88c5.81,6.31,14.42,6.38,20.5,0l136.62-159.88V11.61c0-8.15-4.66-11.61-12.35-11.61"/>
    </g>
  </g>
</svg>