<?xml version="1.0" encoding="UTF-8"?>
<svg id="Layer_2" data-name="Layer 2" xmlns="http://www.w3.org/2000/svg" viewBox="0 0 800 677.78">
  <defs>
    <style>
      .cls-1 {
        fill: #006ecd;
      }

      .cls-2 {
        fill: #ef151e;
      }

      .cls-3 {
        fill: #ff9700;
      }
    </style>
  </defs>
  <g id="Layer_1-2" data-name="Layer 1">
    <g>
      <g>
        <path class="cls-3" d="m711.14,230.98c-82.12-32.37-165.07-28.92-186.1,8.99-21.24,38.21,9.68,128.67,68.06,203.78,58.37,75.06,140.88,72.61,186.41-9.37,44.79-81.75,13.53-171.12-68.37-203.39"/>
        <path class="cls-1" d="m293.52,257.16c72.86,49.77,154.48,64.81,183.39,32.53,29.18-32.53,19.11-127.56-21.13-213.72-40.24-86.11-121.21-102.03-183.77-32.22-61.8,69.74-51.15,163.79,21.52,213.41"/>
        <path class="cls-2" d="m554.66,519.1c-11.67-87.49-55.04-158.29-98.39-158.23-43.72.03-107.71,71.05-144.93,158.6-37.18,87.52,5.1,158.41,98.87,158.31,93.21-.63,156.09-71.43,144.44-158.68"/>
      </g>
      <g>
        <path d="m222.04,291.65c-14.86,0-24.86,9.16-24.86,22.8v13.73h35.3s1.18,116.47-.16,128.67-4.44,32.07-26.26,42.48c-18.83,8.98-19.21,17.49-20.42,25.05-1.56,9.8.28,11.05,7.42,9.3,28.05-6.87,57.9-18.12,73-45.86,8.2-15.05,11.48-31.36,11.48-56.1v-103.55c14.95-.17,25.74-9.71,25.74-22.8v-13.71h-81.24Z"/>
        <path d="m182.81,448.69s-28.32,40.61-83.31,40.61S0,445.86,0,388.26s42.76-102.4,99.5-102.4,82.59,40.6,82.59,40.6c0,0-15.12,16.19-29.63,16.19-7.08,0-12.38-3.27-18.5-7.05-8.19-5.07-17.49-10.8-34.45-10.8-32.26,0-58.5,28.46-58.5,63.46s26.24,62.14,58.5,62.14c19.15,0,28.14-5.49,36.08-10.33,5.64-3.45,10.98-6.7,18.69-6.7,16.34,0,28.54,15.33,28.54,15.33Z"/>
      </g>
    </g>
  </g>
</svg>