<?xml version="1.0" encoding="UTF-8"?>
<svg id="Layer_2" data-name="Layer 2" xmlns="http://www.w3.org/2000/svg" viewBox="0 0 800.13 350">
  <defs>
    <style>
      .cls-1 {
        fill: #ec1c24;
      }

      .cls-2 {
        fill: #f6921e;
      }
    </style>
  </defs>
  <g id="Layer_1-2" data-name="Layer 1">
    <g>
      <path class="cls-1" d="m662.49,84.53c-16.9-8.53-37.5-1.76-46.01,15.12l-71.2,140.95-73.83-142.32c-8.71-16.79-29.39-23.33-46.17-14.61-16.78,8.7-23.34,29.36-14.62,46.15l23.98,46.23h-64.05c-18.92,0-34.24,15.34-34.24,34.25s15.33,34.25,34.24,34.25l33.54-.02c-11.98,21.11-34.62,35.37-60.63,35.4-38.47-.05-69.57-31.18-69.65-69.64.07-38.46,31.18-69.58,69.65-69.66,18.91,0,34.23-15.33,34.23-34.23s-15.33-34.25-34.23-34.25c-76.31.02-138.11,61.85-138.13,138.15,0,5.18.31,10.3.87,15.33-.2.63-.42,1.25-.59,1.9-7.64,30.03-34.98,52.48-67.51,52.4-38.47-.05-69.58-31.18-69.66-69.64.07-38.46,31.19-69.58,69.66-69.66,18.91,0,34.24-15.33,34.24-34.24s-15.34-34.25-34.24-34.25C61.84,72.18.02,134.01,0,210.31c.02,76.3,61.84,138.1,138.15,138.11,40.77-.03,77.4-17.66,102.69-45.73,25.28,28.07,61.9,45.72,102.67,45.73,61.26-.02,113.14-39.86,131.26-95.04l40.54,78.15c5.92,11.4,17.59,18.48,30.42,18.48h.16c12.89-.08,24.57-7.3,30.39-18.81l101.34-200.66c8.51-16.89,1.76-37.48-15.12-45.99Z"/>
      <path class="cls-1" d="m752.52,102.96c0,5.91-4.8,10.7-10.71,10.7h0c-5.92,0-10.71-4.79-10.71-10.7v-13.4c0-5.91,4.79-10.7,10.71-10.7h0c5.91,0,10.71,4.79,10.71,10.7v13.4Z"/>
      <path class="cls-1" d="m700.44,80.15c-4.53,3.79-5.13,10.55-1.33,15.08h0c3.79,4.54,10.55,5.14,15.07,1.34l12.61-10.29c4.53-3.8,5.12-10.55,1.33-15.09h0c-3.79-4.52-10.54-5.12-15.08-1.33l-12.6,10.29Z"/>
      <path class="cls-2" d="m699.13,36.16c-5.45-2.26-11.73.31-13.99,5.77h0c-2.27,5.48.32,11.74,5.76,14l19.41,8.02c5.47,2.26,11.71-.33,13.99-5.79h0c2.28-5.45-.3-11.72-5.76-13.99l-19.41-8.02Z"/>
      <path class="cls-1" d="m728.81,6.21c-2.49-5.37-8.85-7.71-14.21-5.22h0c-5.38,2.5-7.7,8.86-5.22,14.21l10.76,24.72c2.5,5.36,8.86,7.69,14.23,5.21h0c5.35-2.49,7.7-8.84,5.2-14.21l-10.76-24.71Z"/>
      <path class="cls-2" d="m784.01,80.15c4.53,3.79,5.14,10.55,1.34,15.08h0c-3.8,4.54-10.56,5.14-15.07,1.34l-12.61-10.29c-4.54-3.8-5.13-10.55-1.34-15.09h0c3.79-4.52,10.54-5.12,15.08-1.33l12.6,10.29Z"/>
      <path class="cls-1" d="m785.31,36.16c5.45-2.26,11.73.31,13.99,5.77h0c2.27,5.48-.32,11.74-5.76,14l-19.41,8.02c-5.46,2.26-11.71-.33-13.99-5.79h0c-2.27-5.45.32-11.72,5.76-13.99l19.41-8.02Z"/>
      <path class="cls-2" d="m755.64,6.21c2.47-5.37,8.85-7.71,14.21-5.22h0c5.37,2.5,7.7,8.86,5.23,14.21l-10.78,24.72c-2.5,5.36-8.86,7.69-14.22,5.21h0c-5.36-2.49-7.7-8.84-5.21-14.21l10.78-24.71Z"/>
    </g>
  </g>
</svg>