<?xml version="1.0" encoding="UTF-8"?>
<svg id="Layer_2" data-name="Layer 2" xmlns="http://www.w3.org/2000/svg" xmlns:xlink="http://www.w3.org/1999/xlink" viewBox="0 0 706.99 677">
  <defs>
    <style>
      .cls-1, .cls-2 {
        fill: none;
      }

      .cls-2 {
        clip-path: url(#clippath-1);
      }

      .cls-3 {
        fill: #f8fdff;
      }

      .cls-4 {
        fill: #0286cc;
      }

      .cls-5 {
        fill: #0184ca;
      }

      .cls-6 {
        fill: #0067ac;
      }

      .cls-7 {
        fill: #048ace;
      }

      .cls-8 {
        fill: #0388cd;
      }

      .cls-9 {
        fill: #0082c9;
      }

      .cls-10 {
        fill: #67d6f7;
      }

      .cls-11 {
        fill: #e9f9fe;
      }

      .cls-12 {
        fill: #fff;
      }

      .cls-13 {
        fill: #f1fbfe;
      }

      .cls-14 {
        fill: #e2f7fd;
      }

      .cls-15 {
        fill: #7ddcf8;
      }

      .cls-16 {
        fill: #84def8;
      }

      .cls-17 {
        fill: #b7ecfb;
      }

      .cls-18 {
        fill: #8be0f9;
      }

      .cls-19 {
        fill: #ccf1fc;
      }

      .cls-20 {
        fill: #a8e8fa;
      }

      .cls-21 {
        fill: #beeefc;
      }

      .cls-22 {
        fill: #b0eafb;
      }

      .cls-23 {
        fill: #d4f3fd;
      }

      .cls-24 {
        fill: #dbf5fd;
      }

      .cls-25 {
        fill: #c5f0fc;
      }

      .cls-26 {
        fill: #11a6e0;
      }

      .cls-27 {
        fill: #10a4df;
      }

      .cls-28 {
        fill: #0fa1dd;
      }

      .cls-29 {
        fill: #0e9fdc;
      }

      .cls-30 {
        fill: #15aee5;
      }

      .cls-31 {
        fill: #14ace4;
      }

      .cls-32 {
        fill: #1ec1f2;
      }

      .cls-33 {
        fill: #1dbff0;
      }

      .cls-34 {
        fill: #1cbdef;
      }

      .cls-35 {
        fill: #1fc3f3;
      }

      .cls-36 {
        fill: #0995d5;
      }

      .cls-37 {
        fill: #0893d4;
      }

      .cls-38 {
        fill: #058cd0;
      }

      .cls-39 {
        fill: #0791d2;
      }

      .cls-40 {
        fill: #068fd1;
      }

      .cls-41 {
        fill: #13aae3;
      }

      .cls-42 {
        fill: #12a8e1;
      }

      .cls-43 {
        fill: #0d9ddb;
      }

      .cls-44 {
        fill: #0c9bd9;
      }

      .cls-45 {
        fill: #1bbbee;
      }

      .cls-46 {
        fill: #35c9f4;
      }

      .cls-47 {
        fill: #19b6eb;
      }

      .cls-48 {
        fill: #17b2e8;
      }

      .cls-49 {
        fill: #18b4ea;
      }

      .cls-50 {
        fill: #16b0e7;
      }

      .cls-51 {
        fill: #3ccbf5;
      }

      .cls-52 {
        fill: #0b99d8;
      }

      .cls-53 {
        fill: #0a97d7;
      }

      .cls-54 {
        fill: #1ab9ec;
      }

      .cls-55 {
        fill: #9ae4fa;
      }

      .cls-56 {
        fill: #93e2f9;
      }

      .cls-57 {
        fill: #a1e6fa;
      }

      .cls-58 {
        fill: #52d1f6;
      }

      .cls-59 {
        fill: #59d2f6;
      }

      .cls-60 {
        fill: #26c5f3;
      }

      .cls-61 {
        fill: #2dc7f4;
      }

      .cls-62 {
        fill: #4acff5;
      }

      .cls-63 {
        fill: #60d4f6;
      }

      .cls-64 {
        fill: #43cdf5;
      }

      .cls-65 {
        fill: #6ed8f7;
      }

      .cls-66 {
        fill: #76daf8;
      }
    </style>
    <clipPath id="clippath-1">
      <path class="cls-1" d="m354.73,396.97c106.81,0,193.49-86.66,193.49-193.57S461.55,9.82,354.69,9.82s-193.61,86.62-193.61,193.57,86.62,193.57,193.65,193.57Z"/>
    </clipPath>
  </defs>
  <g id="Layer_1-2" data-name="Layer 1">
    <g>
      <g>
        <path class="cls-12" d="m557.75,203.28c0,112.28-91.06,203.28-203.14,203.28s-203.38-91-203.38-203.28S242.26,0,354.61,0s203.14,91.12,203.14,203.28Z"/>
        <path class="cls-9" d="m354.73,396.97c106.81,0,193.49-86.66,193.49-193.65S461.55,9.66,354.69,9.66s-193.61,86.71-193.61,193.65,86.62,193.65,193.65,193.65Z"/>
        <g class="cls-2">
          <g>
            <path class="cls-9" d="m356.43,296.74c85.19,0,158.04,23.79,189.4,57.44,10.34-23.95,16.11-50.59,16.11-78.32,0-111.16-92.05-201.09-205.51-201.09s-205.41,89.96-205.41,201.17c0,27.72,5.81,54.25,16.15,78.24,31.28-33.65,104.22-57.44,189.26-57.44Z"/>
            <path class="cls-5" d="m356.4,296.96c84.97,0,157.63,23.59,188.91,56.97,10.32-23.75,16.07-50.18,16.07-77.69,0-110.27-91.82-199.75-204.98-199.75s-204.89,89.52-204.89,199.82c0,27.5,5.8,53.82,16.12,77.61,31.2-33.38,103.96-56.97,188.77-56.97Z"/>
            <path class="cls-4" d="m356.37,297.18c84.75,0,157.23,23.4,188.42,56.51,10.3-23.56,16.04-49.78,16.04-77.06,0-109.37-91.58-198.41-204.46-198.41s-204.36,89.08-204.36,198.48c0,27.29,5.78,53.4,16.08,76.99,31.12-33.11,103.69-56.51,188.28-56.51Z"/>
            <path class="cls-8" d="m356.35,297.39c84.53,0,156.83,23.2,187.93,56.04,10.28-23.37,16-49.37,16-76.43,0-108.48-91.35-197.07-203.94-197.07s-203.84,88.63-203.84,197.14c0,27.07,5.77,52.97,16.04,76.37,31.04-32.84,103.42-56.04,187.79-56.04Z"/>
            <path class="cls-7" d="m356.32,297.61c84.32,0,156.42,23.01,187.44,55.58,10.26-23.17,15.97-48.96,15.97-75.81,0-107.58-91.11-195.73-203.41-195.73s-203.31,88.19-203.31,195.8c0,26.85,5.75,52.54,16.01,75.74,30.96-32.57,103.16-55.58,187.31-55.58Z"/>
            <path class="cls-38" d="m356.29,297.83c84.1,0,156.02,22.81,186.96,55.11,10.24-22.98,15.93-48.55,15.93-75.18,0-106.69-90.88-194.4-202.89-194.4s-202.79,87.74-202.79,194.46c0,26.63,5.74,52.12,15.97,75.12,30.87-32.3,102.89-55.11,186.82-55.11Z"/>
            <path class="cls-40" d="m356.27,298.04c83.88,0,155.62,22.62,186.47,54.65,10.22-22.78,15.9-48.14,15.9-74.55,0-105.79-90.64-193.06-202.36-193.06s-202.26,87.3-202.26,193.12c0,26.41,5.72,51.69,15.93,74.49,30.79-32.03,102.62-54.65,186.33-54.65Z"/>
            <path class="cls-39" d="m356.24,298.26c83.66,0,155.22,22.42,185.98,54.18,10.2-22.59,15.86-47.73,15.86-73.92,0-104.89-90.41-191.72-201.84-191.72s-201.74,86.86-201.74,191.77c0,26.2,5.71,51.26,15.9,73.87,30.71-31.76,102.36-54.18,185.84-54.18Z"/>
            <path class="cls-37" d="m356.22,298.48c83.44,0,154.81,22.22,185.49,53.72,10.18-22.4,15.83-47.33,15.83-73.3,0-104-90.17-190.38-201.32-190.38s-201.22,86.41-201.22,190.43c0,25.98,5.69,50.83,15.86,73.25,30.63-31.49,102.09-53.72,185.36-53.72Z"/>
            <path class="cls-36" d="m356.19,298.69c83.22,0,154.41,22.03,185,53.25,10.16-22.2,15.79-46.92,15.79-72.67,0-103.1-89.93-189.04-200.79-189.04s-200.69,85.97-200.69,189.09c0,25.76,5.68,50.41,15.82,72.62,30.55-31.22,101.82-53.25,184.87-53.25Z"/>
            <path class="cls-53" d="m356.16,298.91c83,0,154.01,21.83,184.52,52.79,10.14-22.01,15.76-46.51,15.76-72.04,0-102.21-89.7-187.71-200.27-187.71s-200.17,85.53-200.17,187.75c0,25.54,5.66,49.98,15.79,72,30.47-30.96,101.56-52.79,184.38-52.79Z"/>
            <path class="cls-52" d="m356.14,299.13c82.78,0,153.61,21.64,184.03,52.33,10.12-21.81,15.72-46.1,15.72-71.41,0-101.31-89.46-186.37-199.75-186.37s-199.64,85.08-199.64,186.41c0,25.32,5.65,49.55,15.75,71.38,30.39-30.69,101.29-52.33,183.89-52.33Z"/>
            <path class="cls-44" d="m356.11,299.34c82.56,0,153.2,21.44,183.54,51.86,10.1-21.62,15.68-45.69,15.68-70.79,0-100.42-89.23-185.03-199.22-185.03s-199.12,84.64-199.12,185.06c0,25.1,5.63,49.12,15.71,70.75,30.31-30.42,101.02-51.86,183.41-51.86Z"/>
            <path class="cls-43" d="m356.08,299.56c82.34,0,152.8,21.25,183.05,51.4,10.08-21.43,15.65-45.29,15.65-70.16,0-99.52-88.99-183.69-198.7-183.69s-198.59,84.19-198.59,183.72c0,24.89,5.62,48.7,15.68,70.13,30.23-30.15,100.75-51.4,182.92-51.4Z"/>
            <path class="cls-29" d="m356.06,299.78c82.12,0,152.4,21.05,182.56,50.93,10.06-21.23,15.61-44.88,15.61-69.53,0-98.63-88.76-182.35-198.18-182.35s-198.07,83.75-198.07,182.38c0,24.67,5.6,48.27,15.64,69.5,30.15-29.88,100.49-50.93,182.43-50.93Z"/>
            <path class="cls-28" d="m356.03,299.99c81.9,0,151.99,20.86,182.07,50.47,10.04-21.04,15.58-44.47,15.58-68.9,0-97.73-88.52-181.02-197.65-181.02s-197.55,83.31-197.55,181.04c0,24.45,5.59,47.84,15.6,68.88,30.07-29.61,100.22-50.47,181.94-50.47Z"/>
            <path class="cls-27" d="m356,300.21c81.68,0,151.59,20.66,181.59,50,10.02-20.84,15.54-44.06,15.54-68.28,0-96.84-88.29-179.68-197.13-179.68s-197.02,82.86-197.02,179.7c0,24.23,5.57,47.42,15.57,68.26,29.99-29.34,99.95-50,181.46-50Z"/>
            <path class="cls-26" d="m355.98,300.43c81.46,0,151.19,20.47,181.1,49.54,10-20.65,15.51-43.65,15.51-67.65,0-95.94-88.05-178.34-196.61-178.34s-196.5,82.42-196.5,178.35c0,24.01,5.56,46.99,15.53,67.63,29.9-29.07,99.69-49.54,180.97-49.54Z"/>
            <path class="cls-42" d="m355.95,300.65c81.24,0,150.79,20.27,180.61,49.07,9.98-20.46,15.47-43.25,15.47-67.02,0-95.04-87.81-177-196.08-177s-195.97,81.98-195.97,177.01c0,23.8,5.54,46.56,15.49,67.01,29.82-28.8,99.42-49.07,180.48-49.07Z"/>
            <path class="cls-41" d="m355.93,300.86c81.03,0,150.38,20.08,180.12,48.61,9.96-20.26,15.44-42.84,15.44-66.39,0-94.15-87.58-175.67-195.56-175.67s-195.45,81.53-195.45,175.67c0,23.58,5.53,46.13,15.46,66.39,29.74-28.53,99.15-48.61,179.99-48.61Z"/>
            <path class="cls-31" d="m355.9,301.08c80.81,0,149.98,19.88,179.63,48.14,9.94-20.07,15.4-42.43,15.4-65.77,0-93.25-87.34-174.33-195.04-174.33s-194.92,81.09-194.92,174.33c0,23.36,5.51,45.71,15.42,65.76,29.66-28.26,98.89-48.14,179.51-48.14Z"/>
            <path class="cls-30" d="m355.87,301.3c80.59,0,149.58,19.69,179.15,47.68,9.92-19.87,15.37-42.02,15.37-65.14,0-92.36-87.11-172.99-194.51-172.99s-194.4,80.64-194.4,172.99c0,23.14,5.5,45.28,15.38,65.14,29.58-27.99,98.62-47.68,179.02-47.68Z"/>
            <path class="cls-50" d="m355.85,301.51c80.37,0,149.18,19.49,178.66,47.21,9.9-19.68,15.33-41.61,15.33-64.51,0-91.46-86.87-171.65-193.99-171.65s-193.88,80.2-193.88,171.65c0,22.92,5.48,44.85,15.35,64.52,29.5-27.72,98.35-47.21,178.53-47.21Z"/>
            <path class="cls-48" d="m355.82,301.73c80.15,0,148.77,19.3,178.17,46.75,9.88-19.49,15.3-41.21,15.3-63.88,0-90.57-86.64-170.31-193.47-170.31s-193.35,79.76-193.35,170.3c0,22.71,5.47,44.42,15.31,63.89,29.42-27.45,98.09-46.75,178.04-46.75Z"/>
            <path class="cls-49" d="m355.79,301.95c79.93,0,148.37,19.1,177.68,46.29,9.86-19.29,15.26-40.8,15.26-63.25,0-89.67-86.4-168.98-192.94-168.98s-192.83,79.31-192.83,168.96c0,22.49,5.45,44,15.27,63.27,29.34-27.18,97.82-46.29,177.56-46.29Z"/>
            <path class="cls-47" d="m355.77,302.16c79.71,0,147.97,18.91,177.19,45.82,9.84-19.1,15.23-40.39,15.23-62.63,0-88.78-86.17-167.64-192.42-167.64s-192.3,78.87-192.3,167.62c0,22.27,5.44,43.57,15.24,62.64,29.26-26.91,97.55-45.82,177.07-45.82Z"/>
            <path class="cls-54" d="m355.74,302.38c79.49,0,147.56,18.71,176.71,45.36,9.82-18.91,15.19-39.98,15.19-62,0-87.88-85.93-166.3-191.9-166.3s-191.78,78.43-191.78,166.28c0,22.05,5.43,43.14,15.2,62.02,29.18-26.64,97.29-45.36,176.58-45.36Z"/>
            <path class="cls-45" d="m355.71,302.6c79.27,0,147.16,18.52,176.22,44.89,9.8-18.71,15.15-39.57,15.15-61.37,0-86.98-85.69-164.96-191.37-164.96s-191.25,77.98-191.25,164.94c0,21.83,5.41,42.72,15.16,61.4,29.1-26.37,97.02-44.89,176.09-44.89Z"/>
            <path class="cls-34" d="m355.69,302.81c79.05,0,146.76,18.32,175.73,44.43,9.78-18.52,15.12-39.17,15.12-60.74,0-86.09-85.46-163.62-190.85-163.62s-190.73,77.54-190.73,163.59c0,21.61,5.4,42.29,15.13,60.77,29.02-26.11,96.75-44.43,175.6-44.43Z"/>
            <path class="cls-33" d="m355.66,303.03c78.83,0,146.36,18.13,175.24,43.96,9.76-18.32,15.08-38.76,15.08-60.12,0-85.19-85.22-162.29-190.32-162.29s-190.21,77.09-190.21,162.25c0,21.4,5.38,41.86,15.09,60.15,28.94-25.84,96.48-43.96,175.12-43.96Z"/>
            <path class="cls-32" d="m355.64,303.25c78.61,0,145.95,17.93,174.75,43.5,9.74-18.13,15.05-38.35,15.05-59.49,0-84.3-84.99-160.95-189.8-160.95s-189.68,76.65-189.68,160.91c0,21.18,5.37,41.43,15.05,59.53,28.85-25.57,96.22-43.5,174.63-43.5Z"/>
            <path class="cls-35" d="m355.61,303.46c78.39,0,145.55,17.74,174.26,43.03,9.72-17.94,15.01-37.94,15.01-58.86,0-83.4-84.75-159.61-189.28-159.61s-189.16,76.21-189.16,159.57c0,20.96,5.35,41.01,15.02,58.9,28.77-25.3,95.95-43.03,174.14-43.03Z"/>
            <path class="cls-60" d="m355.61,303.96c78.29,0,145.36,17.62,174.03,42.75,9.71-17.82,14.99-37.69,14.99-58.48,0-82.86-84.64-158.63-189.02-158.63s-188.9,75.76-188.9,158.59c0,20.83,5.34,40.73,14.99,58.52,28.73-25.13,95.82-42.75,173.91-42.76Z"/>
            <path class="cls-61" d="m355.61,304.45c78.18,0,145.16,17.51,173.79,42.47,9.69-17.71,14.97-37.44,14.97-58.09,0-82.33-84.53-157.65-188.76-157.65s-188.64,75.32-188.64,157.61c0,20.69,5.34,40.46,14.97,58.13,28.69-24.97,95.69-42.47,173.67-42.48Z"/>
            <path class="cls-46" d="m355.61,304.94c78.07,0,144.97,17.4,173.55,42.19,9.67-17.59,14.95-37.19,14.95-57.71,0-81.79-84.41-156.67-188.51-156.67s-188.39,74.88-188.39,156.63c0,20.56,5.33,40.19,14.95,57.75,28.65-24.8,95.56-42.19,173.44-42.2Z"/>
            <path class="cls-51" d="m355.61,305.44c77.97,0,144.77,17.29,173.32,41.91,9.66-17.48,14.93-36.95,14.93-57.32,0-81.25-84.3-155.69-188.25-155.69s-188.13,74.44-188.13,155.65c0,20.42,5.32,39.92,14.93,57.37,28.6-24.63,95.44-41.91,173.21-41.92Z"/>
            <path class="cls-64" d="m355.61,305.93c77.86,0,144.58,17.17,173.08,41.64,9.64-17.36,14.91-36.7,14.91-56.94,0-80.71-84.19-154.71-187.99-154.71s-187.87,74-187.87,154.67c0,20.29,5.31,39.65,14.9,56.98,28.56-24.47,95.31-41.64,172.97-41.64Z"/>
            <path class="cls-62" d="m355.61,306.42c77.75,0,144.38,17.06,172.84,41.36,9.62-17.25,14.89-36.45,14.89-56.55,0-80.17-84.07-153.73-187.74-153.73s-187.62,73.56-187.62,153.69c0,20.15,5.31,39.37,14.88,56.6,28.52-24.3,95.18-41.36,172.74-41.36Z"/>
            <path class="cls-58" d="m355.61,306.91c77.65,0,144.19,16.95,172.61,41.08,9.6-17.14,14.87-36.2,14.87-56.17,0-79.63-83.96-152.75-187.48-152.75s-187.36,73.12-187.36,152.71c0,20.02,5.3,39.1,14.86,56.22,28.48-24.14,95.05-41.08,172.5-41.08Z"/>
            <path class="cls-59" d="m355.61,307.41c77.54,0,144,16.83,172.37,40.8,9.59-17.02,14.85-35.95,14.85-55.78,0-79.09-83.85-151.77-187.22-151.77s-187.1,72.67-187.1,151.73c0,19.88,5.29,38.83,14.83,55.83,28.44-23.97,94.92-40.8,172.27-40.81Z"/>
            <path class="cls-63" d="m355.61,307.9c77.44,0,143.8,16.72,172.13,40.52,9.57-16.91,14.83-35.7,14.83-55.4,0-78.55-83.73-150.79-186.96-150.79s-186.85,72.23-186.85,150.75c0,19.75,5.29,38.56,14.81,55.45,28.39-23.81,94.79-40.52,172.04-40.53Z"/>
            <path class="cls-10" d="m355.61,308.39c77.33,0,143.61,16.61,171.9,40.24,9.55-16.79,14.81-35.45,14.81-55.01,0-78.02-83.62-149.81-186.71-149.81s-186.59,71.79-186.59,149.77c0,19.61,5.28,38.29,14.79,55.07,28.35-23.64,94.66-40.24,171.8-40.25Z"/>
            <path class="cls-65" d="m355.61,308.88c77.22,0,143.41,16.49,171.66,39.96,9.54-16.68,14.79-35.2,14.79-54.63,0-77.48-83.51-148.83-186.45-148.83s-186.33,71.35-186.33,148.79c0,19.48,5.27,38.01,14.77,54.68,28.31-23.48,94.53-39.96,171.57-39.97Z"/>
            <path class="cls-66" d="m355.61,309.38c77.12,0,143.22,16.38,171.42,39.68,9.52-16.57,14.77-34.96,14.77-54.24,0-76.94-83.39-147.85-186.19-147.85s-186.08,70.91-186.08,147.81c0,19.34,5.26,37.74,14.74,54.3,28.27-23.31,94.41-39.68,171.33-39.69Z"/>
            <path class="cls-15" d="m355.61,309.87c77.01,0,143.02,16.27,171.19,39.4,9.5-16.45,14.75-34.71,14.75-53.86,0-76.4-83.28-146.87-185.94-146.87s-185.82,70.47-185.82,146.83c0,19.21,5.26,37.47,14.72,53.92,28.22-23.14,94.28-39.4,171.1-39.41Z"/>
            <path class="cls-16" d="m355.61,310.36c76.9,0,142.83,16.16,170.95,39.12,9.48-16.34,14.73-34.46,14.73-53.47,0-75.86-83.17-145.89-185.68-145.89s-185.56,70.03-185.56,145.85c0,19.07,5.25,37.2,14.7,53.53,28.18-22.98,94.15-39.12,170.87-39.14Z"/>
            <path class="cls-18" d="m355.61,310.86c76.8,0,142.63,16.04,170.71,38.84,9.47-16.22,14.71-34.21,14.71-53.09,0-75.32-83.05-144.91-185.42-144.91s-185.31,69.58-185.31,144.87c0,18.94,5.24,36.93,14.68,53.15,28.14-22.81,94.02-38.84,170.63-38.86Z"/>
            <path class="cls-56" d="m355.61,311.35c76.69,0,142.44,15.93,170.48,38.56,9.45-16.11,14.69-33.96,14.69-52.7,0-74.78-82.94-143.93-185.16-143.93s-185.05,69.14-185.05,143.89c0,18.81,5.23,36.66,14.65,52.77,28.1-22.65,93.89-38.56,170.4-38.58Z"/>
            <path class="cls-55" d="m355.61,311.84c76.58,0,142.25,15.82,170.24,38.28,9.43-15.99,14.67-33.71,14.67-52.32,0-74.25-82.83-142.95-184.91-142.95s-184.79,68.7-184.79,142.91c0,18.67,5.23,36.38,14.63,52.38,28.06-22.48,93.76-38.28,170.16-38.3Z"/>
            <path class="cls-57" d="m355.61,312.33c76.48,0,142.05,15.7,170,38,9.41-15.88,14.65-33.46,14.65-51.93,0-73.71-82.71-141.97-184.65-141.97s-184.54,68.26-184.54,141.93c0,18.54,5.22,36.11,14.61,52,28.01-22.32,93.63-38,169.93-38.02Z"/>
            <path class="cls-20" d="m355.61,312.83c76.37,0,141.86,15.59,169.77,37.72,9.4-15.77,14.63-33.21,14.63-51.55,0-73.17-82.6-140.99-184.39-140.99s-184.28,67.82-184.28,140.95c0,18.4,5.21,35.84,14.59,51.61,27.97-22.15,93.5-37.72,169.69-37.74Z"/>
            <path class="cls-22" d="m355.61,313.32c76.26,0,141.66,15.48,169.53,37.44,9.38-15.65,14.61-32.96,14.61-51.16,0-72.63-82.49-140.01-184.14-140.01s-184.02,67.38-184.02,139.97c0,18.27,5.21,35.57,14.56,51.23,27.93-21.99,93.37-37.44,169.46-37.47Z"/>
            <path class="cls-17" d="m355.61,313.81c76.16,0,141.47,15.37,169.29,37.16,9.36-15.54,14.59-32.72,14.59-50.78,0-72.09-82.37-139.03-183.88-139.03s-183.77,66.94-183.77,138.99c0,18.13,5.2,35.3,14.54,50.85,27.89-21.82,93.25-37.16,169.23-37.19Z"/>
            <path class="cls-21" d="m355.61,314.3c76.05,0,141.27,15.25,169.06,36.88,9.35-15.42,14.57-32.47,14.57-50.39,0-71.55-82.26-138.05-183.62-138.05s-183.51,66.5-183.51,138c0,18,5.19,35.02,14.52,50.46,27.84-21.65,93.12-36.88,168.99-36.91Z"/>
            <path class="cls-25" d="m355.61,314.8c75.94,0,141.08,15.14,168.82,36.6,9.33-15.31,14.55-32.22,14.55-50.01,0-71.01-82.15-137.07-183.36-137.07s-183.25,66.05-183.25,137.02c0,17.86,5.18,34.75,14.5,50.08,27.8-21.49,92.99-36.6,168.76-36.63Z"/>
            <path class="cls-19" d="m355.61,315.29c75.84,0,140.89,15.03,168.58,36.32,9.31-15.2,14.52-31.97,14.52-49.62,0-70.47-82.03-136.09-183.11-136.09s-183,65.61-183,136.04c0,17.73,5.18,34.48,14.47,49.7,27.76-21.32,92.86-36.32,168.52-36.35Z"/>
            <path class="cls-23" d="m355.61,315.78c75.73,0,140.69,14.91,168.35,36.04,9.29-15.08,14.5-31.72,14.5-49.24,0-69.94-81.92-135.11-182.85-135.11s-182.74,65.17-182.74,135.06c0,17.59,5.17,34.21,14.45,49.31,27.72-21.16,92.73-36.04,168.29-36.07Z"/>
            <path class="cls-24" d="m355.61,316.28c75.63,0,140.5,14.8,168.11,35.76,9.28-14.97,14.48-31.47,14.48-48.85,0-69.4-81.81-134.13-182.59-134.13s-182.48,64.73-182.48,134.08c0,17.46,5.16,33.94,14.43,48.93,27.68-20.99,92.6-35.76,168.06-35.79Z"/>
            <path class="cls-14" d="m355.61,316.77c75.52,0,140.3,14.69,167.87,35.48,9.26-14.85,14.46-31.22,14.46-48.47,0-68.86-81.69-133.15-182.34-133.15s-182.23,64.29-182.23,133.1c0,17.32,5.16,33.66,14.4,48.55,27.63-20.83,92.47-35.48,167.82-35.52Z"/>
            <path class="cls-11" d="m355.61,317.26c75.41,0,140.11,14.58,167.64,35.2,9.24-14.74,14.44-30.97,14.44-48.08,0-68.32-81.58-132.17-182.08-132.17s-181.97,63.85-181.97,132.12c0,17.19,5.15,33.39,14.38,48.16,27.59-20.66,92.34-35.2,167.59-35.24Z"/>
            <path class="cls-13" d="m355.61,317.75c75.31,0,139.91,14.46,167.4,34.92,9.23-14.62,14.42-30.73,14.42-47.7,0-67.78-81.47-131.19-181.82-131.19s-181.71,63.41-181.71,131.14c0,17.05,5.14,33.12,14.36,47.78,27.55-20.5,92.22-34.92,167.35-34.96Z"/>
            <path class="cls-3" d="m355.61,318.25c75.2,0,139.72,14.35,167.16,34.64,9.21-14.51,14.4-30.48,14.4-47.32,0-67.24-81.35-130.21-181.57-130.21s-181.46,62.96-181.46,130.16c0,16.92,5.13,32.85,14.34,47.4,27.51-20.33,92.09-34.64,167.12-34.68Z"/>
            <path class="cls-12" d="m355.61,318.74c75.09,0,139.52,14.24,166.93,34.36,9.19-14.4,14.38-30.23,14.38-46.93,0-66.7-81.24-129.23-181.31-129.23s-181.2,62.52-181.2,129.18c0,16.79,5.13,32.58,14.31,47.01,27.46-20.16,91.96-34.36,166.89-34.4Z"/>
          </g>
        </g>
        <path class="cls-9" d="m354.69,252.2c-65.7,0-126.66,11.18-176.95,30.07,30.23,67.62,98,114.7,176.99,114.7s146.52-47.13,176.83-114.7c-50.28-18.89-111.32-30.07-176.87-30.07Z"/>
      </g>
      <g>
        <polygon class="cls-6" points="0 616 70.83 616 70.83 677 98.53 677 98.53 616 169.36 616 169.36 598.75 0 598.75 0 616"/>
        <path class="cls-6" d="m41.44,569.97c5.51,4.24,12.02,7.63,19.36,10.09,7.34,2.44,15.37,3.69,23.87,3.69s16.33-1.25,23.66-3.69c7.36-2.46,13.87-5.87,19.39-10.09,5.52-4.4,9.96-9.55,13.19-15.31,3.23-5.8,4.88-12.1,4.88-18.74s-1.65-12.71-4.88-18.54c-3.24-5.76-7.68-10.91-13.22-15.31-5.5-4.22-12.02-7.65-19.35-10.18-7.32-2.53-15.3-3.81-23.67-3.81s-16.55,1.28-23.87,3.81c-7.35,2.53-13.86,5.96-19.38,10.2-5.53,4.38-9.94,9.52-13.11,15.31-3.17,5.8-4.79,12.03-4.79,18.52s1.63,12.93,4.79,18.74c3.17,5.76,7.58,10.91,13.12,15.31Zm9.81-34.05c0-4,.88-7.94,2.63-11.63,1.76-3.72,4.16-6.97,7.18-9.72,2.99-2.86,6.54-5.15,10.57-6.8,4.03-1.63,8.42-2.46,13.05-2.46s8.81.84,12.85,2.46c4.02,1.65,7.59,3.94,10.59,6.82,2.99,2.73,5.44,5.98,7.27,9.72,1.8,3.7,2.7,7.61,2.7,11.61s-.9,8.11-2.7,11.83c-1.83,3.72-4.27,6.97-7.28,9.72-3,2.88-6.55,5.12-10.57,6.69-8.17,3.19-18.02,3.1-25.92,0-4.01-1.56-7.57-3.8-10.59-6.69-3-2.75-5.41-6-7.16-9.72-1.75-3.7-2.63-7.68-2.63-11.83Z"/>
        <path class="cls-6" d="m319.95,491.34h-21.57l1.32,1.63c.53.68.85,1.39.97,2.24.64,2.62.94,6.77.94,12.34v85.92c0,5.37-3.14,8.97-9.58,11-2.13.66-5.52,1.12-10.02,1.39h-58.76c-3.13,0-4.12-.7-4.45-1.14-.64-.81-.96-2.13-.96-3.91v-34.26h50.75c3.05,0,5.1-.62,6.27-1.85,1.17-1.19,1.75-3.03,1.75-5.45v-55.13c0-2.42-.63-4.27-1.86-5.5-1.25-1.21-3.32-1.8-6.36-1.8h-79.24v17.24h59.74v35.25h-61.69l1.82,3.78c.74,2.18,1.11,4.86,1.11,7.98v49.44c0,3.1,1.09,5.81,3.2,8.01,2.9,3.03,7.61,4.57,13.97,4.57h69.31l10.96-.42c6.55-.68,11.2-1.87,14.05-3.63v55.93h27.7v-176.11c0-3.34-1.63-7.3-9.37-7.5Z"/>
        <path class="cls-6" d="m504.04,498.42c0-3.23-1.63-7.08-9.38-7.08h-21.26l1.81,3.72c.75,2.7,1.12,6.84,1.12,12.29v167.6h27.71v-107.83h26.07v-17.22h-26.07v-51.48Z"/>
        <path class="cls-6" d="m447.2,496.8h-84.29v17.02l61.51-.02c.5.11.92.31,1.23.5,0,0,.15.29-.09,1.47-.7,10.95-2.79,21.27-6.27,30.88h-55.42v17.24h47.3c-11.7,19.79-30.37,36.15-55.88,48.95l-1.01.51,7.65,11.96.75-.27c61.27-21.13,92.39-61.91,92.52-121.15,0-3.25-1.39-7.1-8.01-7.1Z"/>
        <path class="cls-6" d="m556.96,506.3c.99,2.55,1.48,5.52,1.48,8.75v63.23c0,3.63,1.34,6.88,3.97,9.63,3.43,3.56,8.58,5.37,15.33,5.37h109.38v-17.22h-95.76c-3.61,0-5.21-1.45-5.21-4.66v-52.3h100.01v-17.22h-132.04l1.21,1.63c.85,1.1,1.39,2.04,1.63,2.79Z"/>
        <rect class="cls-6" x="537.63" y="637.66" width="169.36" height="17.24"/>
      </g>
    </g>
  </g>
</svg>