<?xml version="1.0" encoding="UTF-8"?>
<svg id="Layer_2" data-name="Layer 2" xmlns="http://www.w3.org/2000/svg" viewBox="0 0 1018.54 350">
  <defs>
    <style>
      .cls-1 {
        fill: #d5352d;
      }
    </style>
  </defs>
  <g id="Layer_1-2" data-name="Layer 1">
    <g>
      <path class="cls-1" d="m709.62,315.58c-7.65,0-12.23-8.1-12.23-15.92v-34.86h321.15v34.86c0,7.82-4.57,15.92-12.23,15.92h-296.68Z"/>
      <path class="cls-1" d="m613.15,350h11.44c4.57-.01,6.7-.71,9.52-3.09.61-.57,17.51-17.42,23.97-23.87,3.77-3.77,4.8-6.09,4.8-10.83V12.23c0-7.65-8.09-12.23-15.92-12.23h-33.78l-.04,350Z"/>
      <g>
        <path class="cls-1" d="m104.96,192.6c-25.71,0-49.9-10.01-68.08-28.2-18.19-18.19-28.21-42.37-28.21-68.09C8.67,43.2,51.87,0,104.97,0c25.73,0,49.92,10.02,68.1,28.21,18.19,18.19,28.21,42.37,28.2,68.1,0,53.1-43.2,96.3-96.3,96.3h0Zm.01-142.12c-25.27,0-45.83,20.56-45.83,45.82,0,12.24,4.77,23.75,13.42,32.4,8.65,8.66,20.16,13.42,32.4,13.42,25.28,0,45.83-20.55,45.83-45.82,0-12.24-4.77-23.75-13.42-32.41-8.66-8.65-20.16-13.42-32.41-13.42Z"/>
        <path class="cls-1" d="m249.76,350h11.44c4.57-.01,6.7-.71,9.53-3.09.6-.57,17.51-17.42,23.97-23.87,3.77-3.77,4.8-6.09,4.8-10.83V12.23c0-7.65-8.1-12.23-15.92-12.23h-33.78l-.04,350Z"/>
        <path class="cls-1" d="m0,213.98v34.86c0,7.82,4.58,15.92,12.23,15.92h66.74v85.24s11.43,0,11.43,0c4.57-.01,6.7-.71,9.52-3.09.6-.57,17.51-17.42,23.97-23.87,3.77-3.77,4.8-6.09,4.8-10.83v-47.46h83.94c7.66,0,12.23-8.1,12.23-15.92v-34.86H0Z"/>
      </g>
      <path class="cls-1" d="m940.67,138.38c3.75-3.75,4.77-6.06,4.77-10.77V49.74h47c7.66,0,12.23-8.1,12.23-15.92V0h-293.43v33.82c0,7.82,4.57,15.92,12.23,15.92h85.75c-4.55.01-6.68.7-9.49,3.07-.6.56-17.42,17.34-23.85,23.75-3.75,3.75-4.77,6.06-4.77,10.77v77.87h-59.87v33.9c0,7.83,4.57,15.92,12.23,15.92h268.97c7.66,0,12.23-8.09,12.23-15.92v-33.9h-97.34c4.55-.01,6.68-.7,9.49-3.07.6-.57,17.43-17.34,23.85-23.75Zm-120.05,26.82V49.74h75.32v115.47h-75.32Z"/>
      <path class="cls-1" d="m572.37,0h-33.78v107.54h-37.3v-42.78c0-8.11-1.77-12.1-8.23-18.56-11.06-11.04-40.04-39.93-41.08-40.91-4.84-4.07-8.5-5.27-16.33-5.29h-87.8v200c0,8.11,1.77,12.1,8.23,18.56,11.06,11.04,40.04,39.93,41.08,40.91,4.84,4.08,8.5,5.27,16.33,5.3h87.8v-107.54h37.28l-.02,192.77h11.44c4.57-.01,6.7-.71,9.52-3.09.61-.57,17.52-17.42,23.97-23.87,3.77-3.77,4.8-6.09,4.8-10.83V12.23c0-7.65-8.09-12.23-15.92-12.23Zm-174.78,215.02V49.74h53.94l.03,165.29h-53.97Z"/>
    </g>
  </g>
</svg>