<?xml version="1.0" encoding="UTF-8"?>
<svg id="Layer_2" data-name="Layer 2" xmlns="http://www.w3.org/2000/svg" viewBox="0 0 474.2 700">
  <defs>
    <style>
      .cls-1 {
        fill: #0096d6;
      }

      .cls-2 {
        fill: #1d1160;
      }
    </style>
  </defs>
  <g id="Layer_1-2" data-name="Layer 1">
    <g>
      <g>
        <polygon class="cls-2" points="161.38 159.2 95.64 76.5 159 0 114.36 0 54.04 75.72 54.04 0 20.06 0 20.06 159.2 54.04 159.2 54.04 77.35 113.16 159.2 161.38 159.2"/>
        <path class="cls-2" d="m402.33,62.28c9.85,0,51.82,6.32,51.82,48.04,0,44.12-42.33,48.88-42.33,48.88h-98.99v-25.8l79.64.05c23.09,0,22.87-22.03,22.87-22.03,0-24.15-27.29-23.17-27.29-23.17h-30.5c-14,0-50.08-5.05-50.08-42.34C307.46,1.11,352.19,0,352.19,0h90.63v25.45l-74.4.07c-24.04,0-23.65,18.66-23.65,18.66,0,0,.21,18.19,21.04,18.19l36.53-.09Z"/>
        <path class="cls-2" d="m260.18,159.2c23.94,0,45.7-17.53,45.7-44.46,0-30.75-22.73-40.33-22.73-40.33,0,0,18.05-6.2,16.35-33.79C297.05.65,251.91,0,251.91,0h-87.55v159.12s75.66.07,95.82.07ZM196.53,25.84h43.83s23.82-1.07,23.82,18.71c0,17.03-14.98,18.14-19.83,18.48h-47.83V25.84Zm39.93,107.45h-39.93v-44.77l49.28.02s24.89.92,24.89,22.1-18.66,22.65-34.23,22.65Z"/>
      </g>
      <path class="cls-1" d="m473.95,454.98c-.3-9.1-1.17-18.35-2.64-27.66,0-.1-.03-.2-.04-.3-1.58-9.97-3.85-20-6.83-30.02-5.76-19.43-14.14-38.8-25.25-57.47-31.42-52.81-78.13-89.12-126.66-104l.03.02s-110.88-36.92-170.76,23.92c-1.08,1.15-2.13,2.33-3.16,3.54-38.66,13.7-71.86,36.81-95.83,66.13-18.52,22.63-31.55,48.97-37.37,77.47-.51,2.4-1.82,9.47-1.91,10.13C-.98,443.73.12,465.99.12,465.99h.03c0,.83-.03,1.64-.03,2.48.52,19.29,3.65,39.18,9.53,58.99,5.77,19.44,14.15,38.8,25.25,57.48,31.43,52.8,78.12,89.12,126.67,104l-.03-.03s110.87,36.92,170.76-23.92c1.09-1.15,2.12-2.34,3.16-3.54,38.67-13.7,71.87-36.81,95.84-66.11,11.08-13.56,20.2-28.42,26.97-44.28,14.86-33.6,16.76-70.55,15.67-96.07ZM124.44,284.36c19.26-8.98,40.81-16,64.65-20.63,36-7.23,70.87-8.36,103-4.11,70.82,9.38,128.39,44.9,155.62,99.03.23.45.46.9.68,1.36.24.65.05,1.12-.32,1.35-.44.3-1.2.11-1.76-.57-.27-.45-.54-.91-.83-1.34-22.24-34.91-57.8-61.41-101.39-76.78-43.97-15.51-96.12-19.69-150.98-9.72-27.62,4.84-52.19,12.91-73.72,23.55,1.4-4.14,3.08-8.2,5.04-12.13Zm-10.1,40.41c22.12-10.08,45.88-18.41,70.83-24.54,80.56-20,152.9-10.17,204.95,19.62,36.15,20.7,62.52,51.01,75.05,87.66.18.5.36.99.52,1.5,0,.05,0,.1.02.16.56,1.81-.12,2.5-.78,2.57-.33.04-.78-.16-1.04-.57-.17-.41-.34-.83-.49-1.24-11.38-27.43-30.74-50.87-56.19-68.87-53.09-37.55-132.75-51.36-222.24-28.04-24.57,6.72-48,15.43-69.84,25.75-.11-.92-.26-1.84-.36-2.75-.38-3.76-.49-7.51-.43-11.23Zm235.31,315.33c-19.25,8.98-40.79,16-64.64,20.62-36.01,7.23-70.87,8.37-103,4.12-70.83-9.36-128.39-44.88-155.61-99.02-.23-.45-.47-.91-.7-1.37-.24-.64-.04-1.12.31-1.34.46-.3,1.21-.11,1.75.57.28.44.55.91.83,1.35,22.24,34.9,57.81,61.4,101.39,76.78,43.98,15.51,96.11,19.7,150.98,9.71,27.63-4.83,52.19-12.9,73.73-23.53-1.4,4.13-3.09,8.19-5.05,12.12Zm10.11-40.41c-22.13,10.08-45.88,18.41-70.84,24.55-80.55,20-152.89,10.16-204.94-19.64-36.14-20.68-62.51-50.99-75.05-87.64-.16-.5-.35-1-.52-1.5,0-.05-.02-.1-.03-.16-.55-1.81.13-2.49.79-2.57.33-.04.76.17,1.04.57.17.41.33.84.5,1.25,11.39,27.43,30.73,50.87,56.17,68.87,53.08,37.54,132.76,51.35,222.25,28.03,24.56-6.71,47.99-15.43,69.83-25.75.13.92.26,1.84.36,2.75.37,3.77.51,7.51.43,11.23Zm110.84-139.88c-.35.04-.7-.26-.94-.73-.08-.38-.18-.75-.28-1.12-6.18-24.54-18.97-45.94-36.79-63.64-51.06-50.72-143.55-71.01-241.13-47.34-7.42,1.83-14.69,3.93-21.82,6.2-15.42,4.92-30.17,10.83-44.12,17.59,2.99,5.53,6.53,10.72,10.53,15.5,28.96-13.74,61.71-23.64,95.94-28.19,22.87-3.04,45.31-3.42,66.73-1.44,57.87,5.36,108.18,27.97,138.89,62.11,19.7,21.91,31.34,48.58,31.7,78.48,0,.82,0,1.65,0,2.48,0,.75-.02,1.47-.04,2.22-.13,1.07-.87,1.26-1.51,1.21-.4-.03-.89-.3-1-.69-.09-.73-.19-1.44-.28-2.18-3.24-23.76-12.84-45.07-27.5-63.2-19.33-23.9-47.48-42.25-81.51-53.38-40.52-13.25-89.38-16.26-141.62-6.13-24.06,4.51-47.07,11.45-68.32,20.33,5.65,4.83,11.87,9.05,18.52,12.58,24.02-10.64,51.37-18.07,80.95-21.08,58.81-5.98,113.97,6.39,153.45,31.06,15.24,9.52,28.14,20.88,38.01,33.73,13.53,17.62,21.37,38.02,21.71,60.33.2,12.47-1.91,24.66-6.05,36.32-.14.41-.32.81-.46,1.21-.32.47-.72.75-1.06.66-.4-.1-.62-.64-.62-1.3.1-.41.2-.82.29-1.23,2.06-9.35,2.73-18.94,1.93-28.72-1.47-18.07-7.89-34.72-18.17-49.42-2.2-3.15-4.59-6.2-7.13-9.16-37.96-44.16-113.25-67.32-192.39-52.55-14.97,2.41-29.29,5.89-42.82,10.29,12.35,2.71,25.48,3.36,38.82,1.61,0,0,21.56-2.85,30.48-4.74,1.78-.28,4.55-.71,5.8-.76l.63-.06c12.75-1.23,52.1-3.39,93.25,11.41,0,0,46.19,15.67,66.39,50.71,0,0,4.51,6.47-2.1,15.45-6.09,7.87-12.85,15.3-20.18,22.27-7.13,6.5-19.48,15.26-19.48,15.26h0c-11.21,7.55-23.2,14.5-35.84,20.78l-.08-.18c-.93.46-1.88.89-2.81,1.35.04.06.07.13.11.2.47.87.93,1.74,1.38,2.62,1.51,3.04,2.83,6.19,4.03,9.42-21.18,10.14-44.17,18.44-68.54,24.42-94.61,23.65-184.13,7.14-236.56-39.08-24.66-21.75-41.14-50.08-46.03-83.89-.09-.56-.16-1.12-.24-1.67-.02-.84.37-1.02.75-1.07.35-.04.69.28.92.74.1.38.21.74.29,1.11,6.19,24.56,18.99,45.94,36.8,63.64,51.07,50.73,143.54,71.01,241.13,47.35,7.41-1.84,14.67-3.93,21.8-6.2,15.42-4.93,30.18-10.83,44.13-17.58-3-5.54-6.54-10.72-10.55-15.51-28.96,13.74-61.7,23.65-95.93,28.19-22.87,3.04-45.31,3.42-66.72,1.44-57.87-5.35-108.18-27.96-138.88-62.11-19.71-21.91-31.36-48.57-31.72-78.48,0-.82,0-1.64.02-2.47,0-.75.02-1.48.04-2.22.13-1.08.89-1.27,1.5-1.22.41.03.91.3,1.01.69.1.74.2,1.45.29,2.18,3.22,23.77,12.83,45.07,27.49,63.19,19.33,23.9,47.49,42.26,81.52,53.38,40.52,13.25,89.37,16.26,141.6,6.13,24.06-4.52,47.08-11.45,68.33-20.32-5.66-4.83-11.87-9.05-18.53-12.59-24.02,10.64-51.38,18.07-80.94,21.07-58.81,5.98-113.97-6.37-153.44-31.04-15.25-9.53-28.15-20.9-38.02-33.74-13.53-17.6-21.37-38.01-21.71-60.33-.2-12.47,1.91-24.66,6.05-36.31.14-.42.31-.81.46-1.22.31-.46.7-.76,1.06-.66.39.1.62.64.6,1.31-.09.41-.2.82-.28,1.21-2.03,9.36-2.74,18.95-1.94,28.73,1.48,18.07,7.9,34.72,18.19,49.41,2.19,3.15,4.57,6.2,7.12,9.17,37.97,44.16,113.24,67.32,192.38,52.54,14.96-2.4,29.29-5.88,42.84-10.28-12.38-2.7-25.49-3.35-38.84-1.61,0,0-21.56,2.85-30.46,4.72-1.79.29-4.56.71-5.82.77l-.61.06c-12.75,1.22-52.1,3.4-93.25-11.41,0,0-46.17-15.65-66.39-50.72,0,0-4.52-6.46,2.07-15.45,6.11-7.87,12.88-15.3,20.21-22.27,7.12-6.49,19.47-15.26,19.47-15.26h0c11.23-7.55,23.21-14.51,35.85-20.78l.08.17c.93-.46,1.87-.9,2.82-1.34-.04-.06-.07-.14-.12-.2-.45-.87-.94-1.74-1.38-2.63-1.52-3.04-2.84-6.19-4.03-9.42,21.18-10.13,44.16-18.42,68.54-24.41,94.6-23.65,184.13-7.15,236.55,39.08,24.68,21.74,41.15,50.06,46.05,83.88.08.55.15,1.11.22,1.66.03.85-.36,1.02-.74,1.07Z"/>
    </g>
  </g>
</svg>