<?xml version="1.0" encoding="UTF-8"?>
<svg id="Layer_2" data-name="Layer 2" xmlns="http://www.w3.org/2000/svg" xmlns:xlink="http://www.w3.org/1999/xlink" viewBox="0 0 526.62 650">
  <defs>
    <style>
      .cls-1 {
        fill: #231916;
      }

      .cls-2 {
        fill: #1d2087;
      }

      .cls-2, .cls-3, .cls-4, .cls-5, .cls-6 {
        fill-rule: evenodd;
      }

      .cls-3 {
        fill: #fff;
      }

      .cls-4 {
        fill: #004097;
      }

      .cls-5 {
        fill: #009844;
      }

      .cls-6 {
        fill: url(#GradientFill_1);
      }
    </style>
    <linearGradient id="GradientFill_1" data-name="GradientFill 1" x1="343.49" y1="260.36" x2="185.62" y2="260.36" gradientUnits="userSpaceOnUse">
      <stop offset="0" stop-color="#fff"/>
      <stop offset=".5" stop-color="#e50013"/>
    </linearGradient>
  </defs>
  <g id="Layer_1-2" data-name="Layer 1">
    <g>
      <g>
        <path class="cls-3" d="m526.62,259.97c0,142.03-117.92,258.62-262.64,258.62S0,402.01,0,259.97,117.92,0,263.98,0s262.64,116.58,262.64,259.97Z"/>
        <path class="cls-4" d="m393.96,103.18v-1.33s0,1.33-1.34,1.33h1.34Z"/>
        <path class="cls-4" d="m397.98,101.84h-1.34v1.33s1.34,0,1.34-1.33Z"/>
        <path class="cls-4" d="m400.66,103.18v-1.33h-2.68s1.34,1.33,0,1.33h2.68Z"/>
        <path class="cls-4" d="m502.5,294.8c-1.33-1.34,0-1.34-1.33-1.34h1.33v1.34Z"/>
        <path class="cls-4" d="m88.44,418.08c-1.33,1.34,0,0-1.33,0h1.33Z"/>
        <path class="cls-4" d="m502.5,301.51c-1.33,0,0,0,0-1.35v1.35Z"/>
        <path class="cls-4" d="m93.8,418.08c-1.34,0-1.34-1.34-1.34-1.34,1.34,0,1.34,1.34,1.34,1.34Z"/>
        <path class="cls-4" d="m95.14,419.43s-1.34-1.34,0-1.34c0,0,1.35,1.34,0,1.34Z"/>
        <path class="cls-4" d="m501.17,302.84h1.33c0-1.33,0,0-1.33,0Z"/>
        <path class="cls-4" d="m91.12,420.77h-1.34v-1.34h2.68c0,1.34-1.34,1.34-1.34,1.34Z"/>
        <path class="cls-4" d="m91.12,422.11v-1.34h1.34l-1.34,1.34Z"/>
        <path class="cls-4" d="m502.5,278.72v-1.35h1.35-1.35c0,1.35,1.35,1.35,0,1.35Z"/>
        <path class="cls-4" d="m92.46,422.11c-1.34,1.34-1.34,0,0,0h-1.34s2.68,0,1.34,0Z"/>
        <path class="cls-4" d="m501.17,305.52v-1.33c1.33,0,0,1.33,0,1.33Z"/>
        <path class="cls-4" d="m99.16,420.77h-1.35v-1.34l1.35,1.34s1.33,0,0,0Z"/>
        <path class="cls-4" d="m101.84,420.77h-1.35s2.68-1.34,1.35,0Z"/>
        <path class="cls-4" d="m96.48,423.45l-1.35-1.34h-1.34,1.34c1.35-2.68-4.02,1.34,0-1.34v1.34c1.35,0,1.35,1.34,1.35,1.34Z"/>
        <path class="cls-4" d="m93.8,423.45c-1.34,1.35-1.34,0,0,0,0-1.34,1.34,0,0,0-1.34,1.35,1.34,0,0,0Z"/>
        <path class="cls-4" d="m99.16,424.79h-2.68v-1.35h0v1.35-2.69,1.34h2.68v1.35Z"/>
        <path class="cls-4" d="m109.89,422.11c-1.34,1.34,1.33,0,0,0,0,0,1.33,0,0,0Z"/>
        <path class="cls-4" d="m113.9,422.11s-1.34-1.34,0-1.34v1.34Z"/>
        <path class="cls-4" d="m108.54,424.79c-1.34,0-1.34-1.35-1.34-1.35l1.34,1.35Z"/>
        <path class="cls-4" d="m123.28,419.43c-1.34,1.34,1.34,0,0,0,0,0,1.34,0,0,0Z"/>
        <path class="cls-4" d="m107.21,424.79c-1.34,1.33,1.34,0,0,0,0,0,1.34,0,0,0Z"/>
        <path class="cls-4" d="m111.22,424.79c-1.33,0,1.34,0,0-1.35,0,0,1.34,0,0,1.35Z"/>
        <path class="cls-4" d="m119.26,426.13h-2.68l-1.35-1.33h-1.34v-1.35h-1.34,1.34c1.34,0,1.34,1.35,1.34,1.35h2.68v1.33-1.33,1.33h1.34Z"/>
        <path class="cls-4" d="m120.6,427.47c-1.34,0,1.34,0,0,0,0,0-1.34-1.35,0-1.35,0,0,1.34,1.35,0,1.35Z"/>
        <path class="cls-4" d="m117.92,430.15c-1.33,0,0,0-1.33-1.34,0,0,2.68,1.34,1.33,1.34Z"/>
        <path class="cls-4" d="m123.28,428.8c0-1.33,0,0,0,0v-1.33h-1.34s-1.34,0,0,0h2.68c-1.34,0,0,1.33-1.34,1.33Z"/>
        <path class="cls-4" d="m125.96,428.8h-1.34c-1.34-1.33,0-1.33,0-1.33,1.34,0,1.34,1.33,1.34,1.33Z"/>
        <path class="cls-4" d="m127.3,428.8c-4.02,0,4.03,1.34,0,0-1.34,0,0,0,0,0h-1.34,2.68-1.34Z"/>
        <path class="cls-4" d="m101.84,436.85s-1.35-1.35,0-1.35v1.35Z"/>
        <path class="cls-4" d="m128.64,430.15c-2.68,0,0-1.34,0-1.34,0,1.34,1.34,1.34,0,1.34Z"/>
        <path class="cls-4" d="m105.86,435.5h-1.34s0-1.33,0,0h1.34Z"/>
        <path class="cls-4" d="m105.86,436.85c-1.34,0,1.34-1.35,1.34-1.35q0,1.35-1.34,1.35Z"/>
        <path class="cls-4" d="m103.18,438.18s-1.34-1.33,0-1.33c0,0,1.34,1.33,0,1.33Z"/>
        <path class="cls-4" d="m120.6,434.17l-1.34-1.35c2.68-1.34-1.34,1.35,0,0h1.34s1.34,1.35,0,1.35Z"/>
        <path class="cls-4" d="m105.86,438.18h-1.34v-1.33h1.34c0,1.33,0,0,0,0v1.33Z"/>
        <path class="cls-4" d="m129.98,432.82v-1.34c0-1.34,1.35,0,0,0v1.34Z"/>
        <path class="cls-4" d="m125.96,435.5s-1.34-1.33,0-1.33c0,0,1.34,1.33,0,1.33Z"/>
        <path class="cls-4" d="m109.89,440.86c-1.34,0-1.34-1.33-1.34-1.33h-1.34v-1.35c-2.68,1.35-1.34,0,0,0v1.35l1.34-1.35s1.34,0,0,1.35h1.34s0,1.33,0,0v1.33Z"/>
        <path class="cls-4" d="m113.9,440.86c-1.34,0,0,0-1.34-1.33q1.34,0,1.34,1.33Z"/>
        <path class="cls-4" d="m115.24,440.86h-1.34l1.34-1.33v1.33Z"/>
        <path class="cls-4" d="m142.04,432.82h-1.34c-1.34,0-1.34-1.34,0-1.34,0,0,0,1.34,1.34,1.34Z"/>
        <path class="cls-4" d="m151.42,431.48c-1.34,0,0-1.34,0-1.34v1.34Z"/>
        <path class="cls-4" d="m152.76,431.48h-1.34s1.34,0,1.34-1.34v1.34Z"/>
        <path class="cls-4" d="m119.26,443.54c-2.68,0,0-1.33,0-1.33v1.33Z"/>
        <path class="cls-4" d="m148.75,435.5s-1.35,0-1.35-1.33v1.33-1.33h-2.68c-1.34,0-1.34-1.35-1.34-1.35h2.68v1.35l1.33-1.35v1.35h2.68l-1.34,1.33Z"/>
        <path class="cls-4" d="m150.08,434.17c0,1.33,0,0,0,0,0,0,2.68,0,0,0Z"/>
        <path class="cls-4" d="m154.11,435.5h-2.68v-1.33h1.34s2.68,1.33,1.35,1.33Z"/>
        <path class="cls-4" d="m156.78,435.5c-1.34,0,1.34,0,0,0,0,0,1.34-1.33,0,0Z"/>
        <path class="cls-4" d="m143.38,439.53v-1.35c1.34,0,0,1.35,0,1.35Z"/>
        <path class="cls-4" d="m162.14,434.17v-1.35l-1.34,1.35v-1.35h1.34s1.34,1.35,0,1.35Z"/>
        <path class="cls-4" d="m124.63,446.22h-1.34v-1.34,1.34c-1.34,0-1.34-1.34-1.34-1.34l-1.34,1.34,1.34-1.34v1.34h2.68Z"/>
        <path class="cls-4" d="m119.26,448.9s-1.34-1.34,0-1.34v1.34Z"/>
        <path class="cls-4" d="m146.06,439.53v-1.35h1.33v1.35h-1.33Z"/>
        <path class="cls-4" d="m152.76,438.18c0-1.33,1.35-1.33,1.35-1.33l-1.35,1.33Z"/>
        <path class="cls-4" d="m159.46,436.85h-1.34s-1.34-1.35,0-1.35c1.34,1.35,1.34,0,1.34,0v1.35Z"/>
        <path class="cls-4" d="m160.8,436.85v-1.35c1.34,0,0,1.35,0,1.35Z"/>
        <path class="cls-4" d="m113.9,451.59v-1.35c0,1.35,0,0,0,0,0,0,1.34,0,0,1.35Z"/>
        <path class="cls-4" d="m155.44,438.18s-1.33,0,0,0c-1.33,1.35,2.68-1.33,0,0Z"/>
        <path class="cls-4" d="m147.4,442.21v-1.35c1.35-1.33,1.35,0,0,1.35Z"/>
        <path class="cls-4" d="m121.94,450.24v-1.34q1.34,0,0,1.34Z"/>
        <path class="cls-4" d="m154.11,440.86h-1.35c1.35-1.33,1.35,0,1.35,0Z"/>
        <path class="cls-4" d="m164.82,438.18v-1.33c-1.34,0-1.34,1.33-1.34,1.33v-1.33h1.34v1.33Z"/>
        <path class="cls-4" d="m125.96,450.24v-1.34c1.34,0,1.34,1.34,0,1.34Z"/>
        <path class="cls-4" d="m160.8,439.53c-1.35,0,0,0,0,0v-1.35c0,1.35,1.34,1.35,0,1.35Z"/>
        <path class="cls-4" d="m164.82,438.18v-1.33,1.33c1.34-1.33,1.34,0,0,0Z"/>
        <path class="cls-4" d="m131.33,448.9v-1.34h-4.03v-1.34c-1.34,0-1.34,1.34,0,1.34h1.34v1.34l1.34-1.34,1.35,1.34v-1.34,1.34Z"/>
        <path class="cls-4" d="m166.16,438.18l1.34-1.33q0,1.33-1.34,1.33Z"/>
        <path class="cls-4" d="m117.92,452.92h-1.33v-1.33h1.33v1.33Z"/>
        <path class="cls-4" d="m124.63,451.59c-1.34,0-1.34-1.35-1.34-1.35,0,0,1.34,0,1.34-1.34v2.69Z"/>
        <path class="cls-4" d="m156.78,440.86c-1.34,1.35-1.34,0-1.34,0h1.34Z"/>
        <path class="cls-4" d="m120.6,454.27v-1.35c-1.34,1.35-1.34,0,0,0v1.35Z"/>
        <path class="cls-4" d="m121.94,454.27c-1.34,0-1.34-1.35,0-1.35,0,0,1.34,1.35,0,1.35Z"/>
        <path class="cls-4" d="m129.98,451.59h-2.68s-1.34,0,0,0v-1.35s-1.34,1.35,0,0l1.34,1.35v-1.35,1.35h1.34Z"/>
        <path class="cls-4" d="m168.84,439.53v-1.35h-1.34c-1.34,0,0,0,0,0h1.34v1.35h1.34-1.34c0,1.33,1.34,0,0,0Z"/>
        <path class="cls-4" d="m175.54,439.53s-1.35,0-1.35-1.35c0,1.35,0,0,1.35,0,6.7,0-8.04,1.35,0,0,0,1.35,1.33,1.35,0,1.35Z"/>
        <path class="cls-4" d="m123.28,455.6v-1.33c-1.34,1.33,0,0-1.34,0h1.34v1.33Z"/>
        <path class="cls-4" d="m158.12,444.88v-1.34c1.34,0,0,1.34,0,1.34Z"/>
        <path class="cls-4" d="m166.16,442.21l-1.34,1.33s-1.34-1.33,0-1.33h1.34Z"/>
        <path class="cls-4" d="m176.88,439.53s-1.33,0,0-1.35v1.35-1.35c0,1.35,1.35,1.35,0,1.35Z"/>
        <path class="cls-4" d="m135.34,452.92h-1.34s1.34,0,1.34-1.33v1.33Z"/>
        <path class="cls-4" d="m172.86,442.21c-1.35,0-1.35-1.35,0-1.35v1.35Z"/>
        <path class="cls-4" d="m184.92,438.18s-1.33-1.33,0-1.33c0,0,1.34,1.33,0,1.33Z"/>
        <path class="cls-4" d="m160.8,446.22v-1.34s1.34,1.34,0,1.34Z"/>
        <path class="cls-4" d="m187.6,438.18c-1.35,0,0,0-1.35-1.33q1.35,0,1.35,1.33Z"/>
        <path class="cls-4" d="m174.2,442.21c-1.33,0,0-1.35,0-1.35,0,1.35,1.35,1.35,0,1.35Z"/>
        <path class="cls-4" d="m148.75,450.24v-1.34c1.34,0,0,1.34,0,1.34Z"/>
        <path class="cls-4" d="m167.5,444.88c0-1.34-1.34-1.34,0-1.34v1.34Z"/>
        <path class="cls-4" d="m188.94,438.18c-1.33,0,0,0,0,0q0-1.33,0,0Z"/>
        <path class="cls-4" d="m162.14,446.22s-1.34-1.34,0-1.34c0,0,1.34,1.34,0,1.34Z"/>
        <path class="cls-4" d="m182.24,439.53c-1.34,1.33,1.35,0,0,0,0,0,1.35,0,0,0Z"/>
        <path class="cls-4" d="m175.54,442.21c-2.68,1.33,0,0,0,0,0,0,1.33,0,0,0Z"/>
        <path class="cls-4" d="m178.22,443.54c-1.35,0-1.35-1.33-1.35-1.33h1.35v1.33Z"/>
        <path class="cls-4" d="m144.72,454.27v-1.35c-1.34,0,0,0,0,1.35Z"/>
        <path class="cls-4" d="m131.33,456.95h-1.35v-1.35,1.35-1.35h-6.7l1.34-1.33v1.33h6.7c1.33,0,1.33,1.35,0,1.35Z"/>
        <path class="cls-4" d="m170.18,446.22c-1.34,0-1.34-1.34-1.34,0h1.34Z"/>
        <path class="cls-4" d="m179.56,443.54v-1.33c0,1.33,1.34,1.33,1.34,1.33h-1.34Z"/>
        <path class="cls-4" d="m191.62,439.53c-1.34,1.33,0,0-1.34,0h1.34Z"/>
        <path class="cls-4" d="m155.44,451.59q-1.33,0,0,0c0-1.35,0,0,0,0Z"/>
        <path class="cls-4" d="m191.62,440.86h-1.34,1.34c0-1.33,0,0,0,0-8.03,4.02,8.04-4.01,0,0Z"/>
        <path class="cls-4" d="m174.2,446.22c-1.33,1.34,1.35,0,0,0,0,0,1.35,0,0,0Z"/>
        <path class="cls-4" d="m192.96,440.86h-1.34c1.34,0,1.34-1.33,1.34-1.33v1.33s1.34,0,0,0Z"/>
        <path class="cls-4" d="m180.9,446.22h-1.34v-1.34h-1.34c0,1.34,0,0,0,0-1.35,0-1.35,1.34-1.35,1.34v-1.34h-4.01l-1.35-1.34h-1.34s0-1.33,1.34-1.33v1.33h1.35c1.33,1.34,1.33,0,1.33,0h1.35v1.34l1.33-1.34v1.34-1.34l1.35,1.34h2.68v1.34Z"/>
        <path class="cls-4" d="m172.86,448.9c-1.35,0,0-1.34,0-1.34v1.34Z"/>
        <path class="cls-4" d="m160.8,452.92c-2.68,0,0-1.33,0-1.33v1.33Z"/>
        <path class="cls-4" d="m187.6,444.88c-1.35,0-1.35-1.34-1.35-1.34v1.34c-1.34,0,0-1.34-1.34-1.34,0,1.34,1.34,1.34,0,1.34v-1.34l-1.33,1.34v-1.34l-1.35,1.34v-1.34l-1.34,1.34,1.34-1.34,1.35-1.33v1.33l1.33-1.33v1.33h1.34v-1.33h-1.34v-1.35,1.35c-1.33-1.35,0-1.35-1.33-1.35h-1.35c1.35,0,1.35-1.33,1.35-1.33l1.33,1.33s0-1.33,0,0c1.34,0,0,0,0,0h1.34l1.35,1.35v-1.35l1.33,1.35c-2.68,0,0-1.35-1.33,0h-1.35v1.33h1.35v1.34Z"/>
        <path class="cls-4" d="m199.66,442.21c-2.68,0,0-1.35-1.33-1.35v1.35-1.35c-1.35,1.35,0,0-1.35,0h4.02-1.34c-1.33,1.35,1.34,0,0,1.35Z"/>
        <path class="cls-4" d="m199.66,442.21l1.34-1.35s0,1.35-1.34,1.35Z"/>
        <path class="cls-4" d="m164.82,452.92h-2.68q0-1.33-1.34-1.33h2.68v1.33-1.33l1.34,1.33h1.34-1.34Z"/>
        <path class="cls-4" d="m175.54,450.24v-1.34s-1.35,0,0,0h1.33v1.34h-1.33Z"/>
        <path class="cls-4" d="m178.22,450.24c-2.68,0,0,0-1.35,0,0,0,1.35-1.34,1.35,0Z"/>
        <path class="cls-4" d="m206.36,442.21h-1.34v-1.35c-1.34,0,0,1.35-1.34,1.35h-1.34v-1.35c-1.34,0,0,0,0,0h2.68c0,1.35,1.34,0,1.34,0v1.35Z"/>
        <path class="cls-4" d="m209.04,442.21l-1.34-1.35c-1.34,1.35-1.34,0-1.34,0h4.03-1.35v1.35Z"/>
        <path class="cls-4" d="m336.35,404.69h0c1.33-1.35,1.33,0,0,0Z"/>
        <path class="cls-4" d="m171.52,454.27c-2.67,0,0-1.35,0-1.35v1.35Z"/>
        <path class="cls-4" d="m184.92,450.24c-2.68,0,0-1.34,0-1.34v1.34Z"/>
        <path class="cls-4" d="m146.06,459.63h-1.35v-1.35s-1.34,1.35,0,1.35h-1.34,1.34l1.35,1.33v-1.33Z"/>
        <path class="cls-4" d="m134.01,458.28v-1.33,1.33q1.34,0,0,0Z"/>
        <path class="cls-4" d="m172.86,454.27c-1.35,0,1.33-1.35,1.33-1.35-1.33,1.35,0,1.35-1.33,1.35Z"/>
        <path class="cls-4" d="m192.96,448.9l-1.34-1.34h1.34s-1.34,0,0,0c0,0,1.34,1.34,0,1.34Z"/>
        <path class="cls-4" d="m217.08,440.86h-1.34s0,1.35,1.34,0Z"/>
        <path class="cls-4" d="m231.82,436.85c-1.34,1.33,0,0-1.34,0h1.34Z"/>
        <path class="cls-4" d="m221.1,440.86h-1.33c-1.35,0,0,0,0,1.35l1.33-1.35Z"/>
        <path class="cls-4" d="m176.88,454.27c-1.33,1.33,0,0,0,0,0,0,1.35,0,0,0Z"/>
        <path class="cls-4" d="m227.81,439.53h-1.34c-2.68,0,1.34,0-1.34,0v-1.35l-1.35,1.35v-1.35l-1.33,1.35v-1.35h-1.35l1.35-1.33v1.33-1.33,1.33h2.68c1.34,0,1.34,1.35,1.34,1.35,0,0,1.34,0,1.34-1.35v1.35s1.34,0,0,0Z"/>
        <path class="cls-4" d="m178.22,455.6v-1.33s1.34,0,0,1.33Z"/>
        <path class="cls-4" d="m191.62,450.24q-1.34,0-1.34,1.35c-1.35,0-1.35-1.35-1.35-1.35,8.04-2.68-6.7,4.03,1.35,0v-1.34h1.34s1.34,1.34,0,1.34Z"/>
        <path class="cls-4" d="m190.28,451.59h-2.68l-1.35-1.35h-1.34q1.34,0,2.68-1.34,0,1.34-1.35,1.34h1.35v1.35-1.35l1.33,1.35h1.35s1.34,0,0,0Z"/>
        <path class="cls-4" d="m146.06,463.64c0,1.34,0,0,0,0q1.33,0,0,0Z"/>
        <path class="cls-4" d="m138.02,460.96v-1.33c0,1.33,1.34,1.33,0,1.33Z"/>
        <path class="cls-4" d="m191.62,451.59s-1.34,0,0,0v-1.35c1.34,0,0,0,0,0h1.34v1.35h-1.34s1.34,0,0,0Z"/>
        <path class="cls-4" d="m225.13,442.21h-1.35v-1.35s0,1.35-1.33,1.35v-1.35h0v1.35-1.35l-1.35,1.35v-1.35,1.35c-1.33,0,0,0,0,0h-10.71v-1.35h2.68c1.33-1.33,0,0,1.33,0h6.7c1.35,0,1.35-1.33,1.35-1.33v1.33s0-1.33,1.33-1.33v1.33l1.35-1.33s1.34,0,1.34,1.33q0-1.33,1.34-1.33c0,1.33-1.34,1.33-2.68,1.33h-1.35,1.35s1.34,1.35,0,1.35Z"/>
        <path class="cls-4" d="m226.46,440.86c-1.34,1.35,0,0,0,0,0,0,1.34,0,0,0Z"/>
        <path class="cls-4" d="m148.75,458.28s-2.68,5.36-1.35,5.36c0,0,2.68-5.36,1.35-5.36Z"/>
        <path class="cls-4" d="m227.81,442.21c-1.34,0,0-1.35,0-1.35v1.35Z"/>
        <path class="cls-4" d="m242.55,436.85c-1.35,1.33,1.33,0,0,0,0,0,1.33,0,0,0Z"/>
        <path class="cls-4" d="m199.66,450.24q-1.33,0-1.33,1.35v-1.35c-1.35,1.35-1.35,0,0,0h1.33Z"/>
        <path class="cls-4" d="m194.3,452.92v-1.33c-1.34,1.33,0,0,0,0,0,0,1.34,1.33,0,1.33Z"/>
        <path class="cls-4" d="m245.23,436.85c-1.35,1.33,1.33,0,0,0,0,0,1.33,0,0,0Z"/>
        <path class="cls-4" d="m198.33,451.59q-1.35,0-1.35,1.33v-1.33s-1.34,0-1.34,1.33v-1.33h-1.34c1.34,0,0-1.35,0-1.35,1.34,0-1.34,1.35,1.34,0v1.35-1.35c1.34,0,0,0,0,0h1.34v1.35h1.35c-1.35,0,0,0,0,0Z"/>
        <path class="cls-4" d="m246.56,438.18v-1.33h1.34l-1.34,1.33Z"/>
        <path class="cls-4" d="m140.7,463.64s-1.34-1.34,0-1.34v1.34Z"/>
        <path class="cls-4" d="m251.92,436.85c-4.03,1.33,2.68,0-1.34,0h-1.34c-1.35,1.33,0,0,0,0h2.68Z"/>
        <path class="cls-4" d="m201,454.27c-2.67,0,5.36-1.35,0-1.35v1.35-1.35l-1.34,1.35s1.34-1.35,0-1.35h2.68s0,1.35-1.34,1.35Z"/>
        <path class="cls-4" d="m144.72,464.98c-1.34,0-1.34-1.34-1.34,0h1.34Z"/>
        <path class="cls-4" d="m162.14,463.64c0-1.34-1.34-2.68,0-1.34,0,0,1.34,1.34,0,1.34Z"/>
        <path class="cls-4" d="m156.78,464.98c-1.34,0,1.34-1.34,1.34-1.34q0,1.34-1.34,1.34Z"/>
        <path class="cls-4" d="m163.48,463.64v-1.34c0,1.34,1.34,1.34,0,1.34Z"/>
        <path class="cls-4" d="m160.8,466.33h-1.35v-1.35l1.35,1.35Z"/>
        <path class="cls-4" d="m226.46,451.59c0,1.33,0,0,0,0l-1.34,1.33v-1.33c-1.35,0-1.35,1.33-1.35,1.33v-1.33c-1.33,0-1.33,1.33-1.33,1.33v-1.33l-1.35,1.33h-9.38s1.35,0,0,0h-1.33v-1.33l-1.35,1.33-1.34-1.33h-1.34,1.34c-1.34,1.33,0,0-1.34,0,0,0,0,1.33-1.34,1.33v-1.33h-1.34v1.33h-1.34s0-1.33,1.34-1.33h-2.68l-1.34,1.33s-1.33,0-1.33-1.33v1.33-1.33c1.33,0-1.35,0,0,0h1.33v-1.35h6.7v1.35q0-1.35,1.34-1.35v1.35h1.34l1.35-1.35h2.68v1.35-1.35,1.35l1.33-1.35c1.34,1.35,1.34,0,1.34,0v1.35l1.34-1.35v1.35s0-1.35,1.34-1.35v1.35-1.35,1.35l1.35-1.35,1.33,1.35,1.35-1.35v1.35h2.68s1.34-1.35,0-1.35h1.34v1.35c1.34,0,0,0,0,0Z"/>
        <path class="cls-4" d="m187.6,463.64v-1.34h-1.35l-1.34-1.34-1.33,1.34c-1.35,0-1.35-1.34-1.35-1.34h-1.34v1.34h4.02c0,1.34,0,0,1.34,0v1.34h1.35Z"/>
        <path class="cls-4" d="m156.78,471.69h-1.34c-1.33-1.35-1.33,0-1.33-1.35h-1.35l-1.34-1.33h2.68v1.33h1.33l1.34,1.35s1.34,0,0,0Z"/>
        <path class="cls-4" d="m170.18,470.34s-1.34-1.33,0-1.33v1.33q1.34,0,0,0Z"/>
        <path class="cls-4" d="m167.5,471.69s-1.34-1.35,0,0h1.34-1.34Z"/>
        <path class="cls-4" d="m179.56,469.01v-1.35h-1.34,1.34v1.35h1.34-1.34Z"/>
        <path class="cls-4" d="m172.86,471.69v-1.35q-1.35,0,0,0v1.35Z"/>
        <path class="cls-4" d="m179.56,470.34c-1.34,0,0,0-1.34-1.33q1.34,0,1.34,1.33Z"/>
        <path class="cls-4" d="m164.82,473.02h-1.34,1.34s1.34,1.35,0,0Z"/>
        <path class="cls-4" d="m170.18,473.02l-1.34-1.33q1.34,0,1.34,1.33Z"/>
        <path class="cls-4" d="m182.24,470.34v-1.33c-1.34,1.33,0,0,0,0,1.35,0,1.35,1.33,0,1.33Z"/>
        <path class="cls-4" d="m190.28,467.66c-2.68,1.35,0,0,0,0,0,0,1.34,0,0,0Z"/>
        <path class="cls-4" d="m191.62,469.01c-1.34,0,1.34,0,0-1.35,0,0,1.34,0,0,1.35Z"/>
        <path class="cls-4" d="m176.88,473.02h-1.33v-1.33h-1.35c-1.33,0,1.35,0,0,0h-1.33s1.33,0,0,0v-1.35l1.33,1.35h2.68v1.33Z"/>
        <path class="cls-4" d="m172.86,474.37s-1.35-1.35,0-1.35c0,0,1.33,1.35,0,1.35Z"/>
        <path class="cls-4" d="m167.5,474.37h-2.68s0-1.35,1.34-1.35v1.35h2.68c-1.34,0,0,1.33-1.34,0Z"/>
        <path class="cls-4" d="m178.22,473.02s-1.35-1.33,0-1.33v1.33Z"/>
        <path class="cls-4" d="m168.84,475.7s-1.34-1.33,0-1.33v1.33Z"/>
        <path class="cls-4" d="m174.2,474.37c-2.68,0,0-1.35,0-1.35v1.35Z"/>
        <path class="cls-4" d="m186.26,471.69v-1.35q-1.34,0,0,0h1.35c-1.35,1.35,0,1.35-1.35,1.35Z"/>
        <path class="cls-4" d="m172.86,475.7c-1.35,0,0-1.33,0-1.33v1.33Z"/>
        <path class="cls-4" d="m190.28,471.69h-1.35v-1.35,1.35h1.35s1.34,0,0,0Z"/>
        <path class="cls-4" d="m202.34,470.34v-1.33h-1.34,1.34v1.33Z"/>
        <path class="cls-4" d="m272.03,451.59h-12.06c-4.03,1.33,5.35,0,0,0v1.33c2.67,0-1.35,0,0,0h5.35v-1.33h1.35v1.33l1.34-1.33h4.03Z"/>
        <path class="cls-4" d="m182.24,474.37c-1.34,1.33,1.35,0,1.35,0h-1.35Z"/>
        <path class="cls-4" d="m190.28,473.02h-5.36v-1.33h-2.68v-1.35l-1.34,1.35v-1.35h1.34l1.35,1.35h2.67v1.33h4.03Z"/>
        <path class="cls-4" d="m174.2,477.04c-1.33,1.35,1.35,0,0,0,0,0,1.35,0,0,0Z"/>
        <path class="cls-4" d="m186.26,475.7h-1.34l-1.33-1.33v1.33-1.33h1.33v1.33l1.34-1.33v1.33s1.35,0,0,0Z"/>
        <path class="cls-4" d="m211.72,470.34v1.35c0-1.35-1.33-1.35-1.33-1.35h1.33Z"/>
        <path class="cls-4" d="m218.42,473.02v-1.33h-1.34,2.68v1.33h-1.35Z"/>
        <path class="cls-4" d="m174.2,482.4c-2.68,0,0-1.33,0-1.33v1.33Z"/>
        <path class="cls-4" d="m222.45,473.02q-1.35,0-1.35-1.33c-1.33,1.33,1.35,0,0,0h1.35v1.33Z"/>
        <path class="cls-4" d="m226.46,474.37c1.34-1.35-1.34-1.35-1.34-1.35h1.34v1.35Z"/>
        <path class="cls-4" d="m238.52,474.37c-1.34,0,1.34-1.35,0-1.35,0,0,1.34,0,0,1.35Z"/>
        <path class="cls-4" d="m202.34,482.4h1.34-1.34v1.35-1.35Z"/>
        <path class="cls-4" d="m383.24,466.33s-1.34,0,0,0v-1.35s1.34,0,0,1.35Z"/>
        <path class="cls-2" d="m321.61,489.11h1.34v-1.35h5.36v-1.33,1.33c1.34,0,1.34-1.33,1.34-1.33v1.33c0-1.33,1.34-1.33,1.34-1.33v1.33c1.34,0,1.34-1.33,1.34-1.33,1.35,0,2.68,0,4.03-1.35,1.33,0,0,1.35,0,0h1.33s1.34,0,1.34-1.33h1.35l1.34-1.35s0,1.35,0,0h2.68s1.35,0,2.69-1.33h4.02-1.35,1.35c1.34-1.35-1.35,0,0,0h1.34c0-1.35-1.34-1.35,0-1.35s-1.34,1.35,0,1.35v-1.35h1.34c1.34-1.33,1.34,0,1.34,0l1.34-1.33h2.68v-1.35h1.34c0-1.34,1.34,0,1.34-1.34,1.35-1.33,1.35,0,2.68,0v-1.33h1.34l1.33-1.35h1.34v-1.33h2.68v-1.35h2.68v1.35-1.35h2.68v-1.33h1.34q1.33-1.35,2.68-1.35v-1.33s1.34,0,1.34-1.35c1.34,0,2.68,0,4.01-1.34h1.35c0-1.34,1.34-1.34,1.34-1.34h1.34v-1.34h0v-1.33c1.34-1.35,1.34,0,2.68-1.35h1.34v-1.33c1.34,0,0,0,0,0h1.34l1.34-1.35h2.68l1.34-1.33v-1.35h1.34v-1.33h4.02v-1.35h1.34l-1.34-1.34h1.34s-1.34,0,0,0h1.33-1.33c1.33-1.34,1.33,0,1.33-1.34h2.69v-1.34h1.34q0-1.34,1.34-1.34h-1.34,1.34v-1.34h2.68l-1.34-1.33c4.02-2.68-2.68,2.67,1.34,0v-1.35h1.33l1.35-1.33h1.33v-1.35h1.35v-2.68h1.34v-1.33c1.34,0,1.34,1.33,1.34,0h1.34v-1.35h1.34q0-1.34,1.34-1.34v-1.34h2.68v-1.34h0v-1.33l1.34-1.35,1.34-1.33h1.34v-1.35c1.35-1.34,0-1.34,1.35-1.34l1.34-1.34,1.34-1.34v-1.34c1.33-1.34,1.33,0,1.33,0v-1.34h1.35s0-1.35,1.33-1.35v-1.33l1.34-1.33c1.34,0,1.34-1.35,1.34-1.35v-1.34h1.34v-1.34h1.35v-1.34h1.33v-1.35h1.34v-1.33h1.34v-1.35h1.35v-1.33h1.34v-1.34h1.34v-1.34l1.34-1.34,1.35-1.34h-1.35,1.35q0-1.34,1.33-2.68h1.34v-2.69q1.34,0,1.34-1.33h1.34v-1.35l1.35-1.33,1.34-1.35,1.34-1.33v-1.34c1.33-1.34,0-1.34,1.33-1.34v-1.34l1.35-1.34h0c1.33,0,0,0,0,0l1.33-1.34s1.34,0,1.34-1.35v-1.33h0v-2.68h1.34v-1.35h1.34v-2.68h1.35v-2.67h1.34v-2.68h1.34v-4.03h1.33v-4.01h1.35v-1.35h1.34v-4.02h1.34-1.34,1.34v-2.68l1.34-1.33h1.35l-1.35-1.35h1.35v-2.68c1.34,0,0,0,1.34-1.33v-1.35h1.33c0-1.33-1.33-1.33,0-1.33v-4.02h1.34v-1.35l1.34-1.33v-2.69h1.35v-8.04h1.34q0-1.33-1.34-1.33h1.34v-2.68l1.35-1.35h-1.35,1.35v-5.36h1.33v-6.7h0v-1.33h1.35v-10.73l1.33,1.35c-2.68,0,0,0-1.33,0h1.33c0-1.35,0,0,0,0v-1.35h-1.33v-4.01c0-1.35,1.33-5.37,1.33-4.03h-1.33v-1.34h1.33-1.33c0-1.35,1.33-1.35,1.33-1.35h-1.33,1.33c0-1.33-1.33-1.33-1.33-1.33h1.33c0-1.35-1.33-1.35-1.33-1.35h1.33-1.33v-5.35h1.33c-1.33,0,0-1.34,0-1.34v-2.68c1.35-1.34,0-1.34,0-2.68h-1.33c1.33,0,0-1.34,0-1.34h1.33v-1.35c0-1.33-1.33-2.67-1.33-4.01h1.33c-1.33-1.33-1.33-2.68-1.33-2.68v-2.68c0-1.34,0-2.69-1.35-4.02h1.35c0-1.35-1.35-2.68-1.35-4.01v-1.35h1.35c0-1.34-1.35-1.34-1.35-2.68h1.35l-1.35-1.34,1.35-1.35-1.35-1.33h1.35c0-1.35-1.35-2.68-1.35-5.36,0,1.33,0,0,0-1.34s0-2.68-1.33-4.02h0v-4.02c-1.35,0-1.35-1.35-1.35-1.35v-2.68h-1.34v-2.67q0-1.35-1.35-2.68v-1.34c-1.34,0-1.34-1.34-1.34-1.34v-1.34h-1.34v-5.37h-1.33v-2.68q-1.34,0-1.34-1.33v1.33-2.67h-1.35v-2.68h-1.34v-4.03c-1.34,0-1.34-1.33-1.34-1.33v-5.37h-1.34,1.34l-1.34-1.33v-4.03c-1.35,0-1.35-1.33-1.35-1.33q-1.33-1.35-1.33-2.68h-1.34v-1.35c-1.34,0-1.34-1.34-1.34-1.34v-1.34h-1.35v-1.34c1.35,0,0,0,1.35,1.34,0,0,1.34-1.34,0-1.34h-1.35v-1.33h-1.34v-1.35h-1.34v-1.33h0v-1.35c0-1.33,0,0,0,0v-1.33s1.34,0,0,0v-1.35h0v-1.33h-1.34v-1.35,1.35-1.35l-1.33-1.34v-1.34h-1.35c0-1.34-1.33,0-1.33-1.34,0,0,0-1.33-1.34-1.33,0-1.35-1.34,0-1.34,0v-2.68h-1.35v-1.35h-1.34s1.34,0,0,0h-5.36v-1.33h1.35-1.35s1.35,0,0,0v-12.06h-1.34v-2.68h-1.34c-1.34-1.35,0-1.35,0-1.35h-1.34v-2.68h-1.35v-1.34h-1.34l-1.34-1.34-1.33-1.34h-1.35v-1.33h-2.67s1.34,0,0-1.35h-2.68l-1.35-1.33h1.35-1.35v-1.35h-6.7,1.34l-1.34-1.33h-1.34v-1.35l-1.34,1.35v-1.35h-2.68v-1.34h-6.7v-1.34,1.34-1.34h-1.35v-1.34h-2.68v-1.34,1.34-1.34h-2.68v-1.34h-2.68v-1.34h-1.34v-1.34h-1.34v-1.34h-1.35v1.34s0-1.34-1.33,0v-1.34s1.33,0,0-1.34v-1.34h-1.34v-1.35l-1.34,1.35v-1.35h-2.68c0-1.33-1.34,0-1.34,0v-2.68h1.34-1.34v-1.33,1.33c-1.34,1.35,1.34-1.33-1.34,0,0,0,1.34,1.35,0,1.35v-1.35c0,1.35-1.34,1.35-2.68,1.35h-5.36v1.33h-1.34v-1.33l-1.34-1.35h-5.36v-1.33h-5.35c-2.68,0-6.71,0-9.39,1.33-8.03,1.35-16.07,4.03-22.77,5.37-2.68,1.34-5.36,2.68-9.38,2.68,0,0-1.34,0-2.68,1.34l-1.35,1.34h-1.34v1.34h-2.68v1.34h-1.34s0-1.34,0,0v-1.34s0,1.34-1.34,1.34v-1.34c0,1.34-1.35,1.34-1.35,1.34h-1.33c-1.34,0,0,0,0,0h-2.68c0,1.34-1.34,1.34-1.34,1.34q-1.35,0-1.35,1.34h-1.34c0,1.34-1.34,1.34-1.34,1.34h-1.33l1.33,1.35h-1.33v1.33h-1.34v1.35s0,1.33-1.34,1.33c0,0,0-1.33-1.34,0v1.35h-2.67l-1.35,1.33v1.34h0v1.34h-2.68v1.34c-1.33,0-1.33,1.35-1.33,1.35h-1.35v1.33h-1.34v2.68c-1.34,1.35-1.34,0-1.34,1.35h-1.34v1.33h-1.35v1.35l-1.34,1.33h-1.33v1.34l-1.34,1.34v2.69l-1.33,1.33v2.68h0v2.68l1.33-1.33v1.33h-1.33l1.33,1.35h-1.33l1.33,1.33h-1.33c0,1.34,1.33,2.68,1.33,4.02,1.34,2.68,1.34,5.36,1.34,8.04-1.34,0-2.68,1.35-2.68,1.35h-5.37v1.33c-1.34,0,0,0,0,0h-1.34v1.34c0,1.34-1.33,0-1.33,1.34v1.34s-1.35,0-1.35,1.35h-1.34v2.68h-1.34v4.01h-1.34v8.05h-1.34v8.04h1.34v2.67h1.34v1.35c0,1.33,0,2.68,1.34,2.68v1.33h1.34v2.69h1.35v1.34-1.34,1.34h1.33v1.34h1.34v1.34h1.34v1.33h1.35v1.35h2.68v1.34h0l1.33,1.33v1.35s1.34-1.35,1.34,0h1.33v1.33h1.34v1.35h1.35v1.34h2.68v1.34h2.68v1.34-1.34l1.33,1.34h2.68l1.35,1.34h1.34s0,1.34,1.34,1.34v1.34c1.34,0,1.34,1.34,1.34,1.34v1.33h1.34v1.35h1.34c0,1.33,0,0,0,0v2.68l5.36,1.33c1.34,0,1.34,1.35,1.34,1.35h1.34v1.34h1.34v1.34h1.33q1.35,1.34,1.35,2.69h1.34c1.34,1.33,0,1.33,1.34,1.33v1.33h1.34s1.34,0,1.34,1.35h1.34v1.33h2.68v1.35h4.01v1.34h1.35v1.34h1.34l1.34,1.34h1.33c33.51,16.08,34.84,50.93,34.84,50.93v2.67h1.35v1.34c1.34,0,0,0,0,0,0,0,0,1.34,1.34,1.34v2.68l1.34,1.35c-1.34,0,0,2.68,0,2.68v9.37h0v5.37c0,1.33,1.34,1.33,1.34,1.33h-1.34,1.34l-1.34,1.35s1.34,0,1.34,1.34h-1.34l1.34,1.33h-1.34v5.36h-1.34,1.34-1.34,1.34l-1.34,1.35v4.01c-1.34,1.35,0,1.35-1.34,2.69v1.33h-1.35l1.35,1.35h-1.35v1.33s0,1.35-1.33,1.35c1.33,0,1.33,1.33,1.33,1.33h-1.33,1.33-1.33v4.03h-1.34v2.68l-1.34,1.34v2.68h-1.35v2.68h-1.34s1.34,1.33,1.34,0c0,0,0,1.33,0,0v4.01q-1.34,1.35-2.68,1.35v1.34h-2.68v2.68h-1.34l-1.33,1.34-1.34,1.34c0,1.33,0,0-1.34,1.33v1.35h-1.35v1.33h-1.34c-1.34,1.35-1.34,0-1.34,1.35h-1.34v1.33h-1.35v1.35h-1.34s-1.34,0-1.34,1.34h-1.34v1.34h-1.34v1.34h-2.68v1.34h-1.34q0,1.34-1.34,1.34c0,1.34-1.35,1.34-2.68,1.34v1.34h-2.68q0,1.33-1.35,1.33h-1.34v1.35q1.34-1.35,2.68-1.35s1.34,0,1.34-1.33h1.34v-1.34h2.68l1.34-1.34v1.34h-1.34v1.34h-1.35v1.33h-2.68v1.35h1.34v-1.35h1.33v-1.33h2.69c1.34,0,0,0,0,0v1.33h1.34-1.34v1.35h-1.34l-1.35,1.33q-1.33,0-1.33,1.35h-1.34q0,1.34-1.34,1.34v1.34h-2.68,1.34-1.34v1.34h-1.33l-1.34,1.35h-1.34v1.33h-1.35l-1.34,1.33h-1.34v1.35h-2.68c0,1.34,0,0-1.34,1.34q-1.35,1.34-2.68,1.34t-2.68,1.34h-1.34c0,1.34-1.35,1.34-2.68,1.34h-1.34v1.34h-2.68s0,1.35-1.34,1.35h1.34-2.68v1.33h-2.67v1.35c-1.35,0,0-1.35-1.35-1.35v1.35h0q-1.33,0-2.68,1.33c-1.33,0-2.68,0-4.02,1.34h-4.03c-2.67,1.34-5.35,1.34-6.7,2.68-2.68,1.35-6.69,2.68-9.38,4.03v-1.35q-2.68,1.35-4.02,1.35h-5.36l-1.34,1.33v-1.33s0,1.33-1.34,1.33h-1.35q-1.33,0-2.68,1.35h-1.33v-1.35c-1.34,0-1.34,1.35-2.68,1.35h-26.8v1.33l1.34-1.33v1.33h1.35c1.33,0,0-1.33,1.33-1.33v1.33h1.35c1.34,0,1.34-1.33,2.68-1.33l1.34,1.33s0-1.33,1.35-1.33v1.33-1.33,1.33s1.33,0,1.33-1.33v1.33h-6.7s0,1.35-1.35,1.35v-1.35,1.35-1.35c-1.33,0-1.33,1.35-2.68,1.35h-10.71s1.33,0,0,0h-4.03l-1.34,1.33v-1.33l-1.34,1.33v-1.33h-1.34s0,1.33-1.33,1.33v-1.33,1.33-1.33c-1.35,0-1.35,1.33-1.35,1.33l-1.33-1.33s0,1.33-1.35,1.33v-1.33c-1.34,0-1.34,1.33-1.34,1.33h-1.34v-1.33h-5.36s-1.34,0-1.34,1.33v-1.33q-1.33,0-2.68,1.33h-2.68l1.34-1.33v1.33c1.34,0,1.34-1.33,1.34-1.33h-8.04c-1.33,0,0,1.33,1.35,1.33q-1.35,0-1.35,1.34h1.35v-1.34,1.34h2.68v-1.34h1.34c-2.68,1.34,2.68-1.33,0,0v1.34s1.34-1.34,0-1.34h1.34v1.34s0,1.34-1.34,1.34v-1.34s0,1.34-1.34,0l-1.34,1.34v-1.34h-2.68s0,1.34-1.33,1.34v-1.34h-6.7,1.34v1.34c1.35,0,1.35-1.34,2.68-1.34v1.34c1.34,0,1.34-1.34,1.34,0h1.35-1.35,1.35c0,1.34,1.33,0,1.33,0h1.35v1.34l1.34-1.34v1.34-1.34h2.68l1.34,1.34h4.02c0,1.34,0,0,0,0,1.34,0,0,1.34,1.34,0,0,0-1.34,0,0,0v1.34l1.34-1.34,1.34,1.34v-1.34c1.34,0,1.34,1.34,1.34,1.34l1.34-1.34,1.34,1.34s0-1.34,1.34-1.34v1.34-1.34,1.34c1.35,0,0-1.34,1.35-1.34h1.33v1.34c1.35,0,1.35-1.34,2.68-1.34v1.34s0-1.34,1.34-1.34v1.34-1.34,1.34l1.34-1.34v1.34c1.34,0,1.34-1.34,1.34-1.34v1.34h1.35c1.33-1.34,0,0,1.33,0s1.35-1.34,1.35-1.34v1.34h1.33s0-1.34,1.35-1.34v1.34h18.76v1.34h-16.08c-1.34,1.35,0,1.35,0,1.35h1.34c-1.34,0,0,0,0,0v1.33s0,1.35,1.34,1.35h8.04v1.33c-65.66,0-33.5,0-1.34,0,30.82-1.33,62.97-1.33,1.34-1.33-1.34,0-1.34,1.33-1.34,1.33v-1.33l-1.35,1.33v-1.33s0,1.33-1.33,1.33v-1.33,1.33h-1.35v-1.33c-1.34,0-1.34,1.33-1.34,1.33v-1.33c-1.34,0-1.34,1.33-2.68,1.33v-1.33,1.33-1.33c-1.34,0-1.34,1.33-2.68,1.33v-1.33l-1.34,1.33v-1.33,1.33-1.33c-1.35,0-1.35,1.33-1.35,1.33v-1.33,1.33c-1.33,0-1.33-1.33-1.33-1.33v1.33-1.33h0c-1.35,0-1.35,1.33-1.35,1.33v-1.33l-1.33,1.33v-1.33l-1.35,1.33v-1.33c-1.34,0-1.34,1.33-1.34,1.33v-1.33c-1.34,0-1.34,1.33-1.34,1.33v-1.33c-1.34,0-1.34,1.33-2.67,1.33l-1.35-1.33v1.33-1.33l-1.33,1.33v-1.33l-1.35,1.33v-1.33,1.33-1.33c-1.34,0-1.34,1.33-1.34,1.33h-1.34v-1.33l-1.34,1.33v-1.33s0,1.33-1.34,1.33v-1.33,1.33-1.33h-1.34l-1.34,1.33v-1.33l-1.34,1.33v-1.33s0,1.33-1.33,1.33v-1.33s0,1.33-1.35,1.33v-1.33h-14.74v-1.35,1.35h2.68s0,1.33,1.34,1.33v-1.33l1.35,1.33h1.33s1.35,0,0,0h-1.33v1.35l-1.35-1.35-1.34,1.35h-4.02s0,1.33-1.34,1.33v-1.33h-8.04v-1.35h-9.38l1.34-1.33h-2.68c0-1.35,0,0-1.35,0v-1.35h-1.34v1.35h-6.7v-1.35h1.34-1.34l-1.34-1.33h-4.02s1.33,0,0,0c0,1.33,0,0-1.35,1.33v-1.33h-1.34v-1.35l-1.34,1.35-1.34-1.35h-2.68v-1.34c-1.34,1.34-1.34,0-1.34,1.34v-1.34h-2.68v-1.34h-2.68v-1.34h-2.68s-1.34,0,0,0c0,0-1.34,0-1.34-1.34v1.34h-1.34c-1.34,0,0-1.34,0-1.34l-1.34,1.34v-1.34h-1.34v-1.34h-1.34c-1.34,0,0,1.34-1.34,1.34v-1.34h1.34-5.36v-1.33h1.33c1.34,0,0,0,0,0-1.33,0,0-1.35-1.33-1.35s0,1.35,0,1.35h-1.35c0-1.35,0,0-1.34,0v-1.35h-1.34v-1.33l-1.34,1.33v-1.33h-1.33v1.33h1.33v1.35h2.68l1.34,1.33c1.35,0,1.35,1.34,1.35,1.34h2.68c1.34,1.34,0,0,1.34,0v1.34h1.34l1.34,1.34h1.34v-1.34c0,1.34,0,0,0,0l1.34,1.34v1.34h4.02v1.34h2.68c0,1.35,0,0,1.35,0v1.35c4.02,0-4.03-1.35,0,0,1.34,0,0,0,0,0,1.34-1.35,0,0,1.34,0,0,0,0-1.35,0,0,2.68,0-1.34,0,1.34,0h2.68v1.33h1.34v1.35h5.36v1.33h8.04l1.33,1.35s0-1.35,1.34-1.35v1.35l1.34-1.35v1.35h2.68c0,1.33,1.34,0,1.34,0v1.33h6.7v1.35h5.35c1.35,0,0,1.33,1.35,1.33h5.36c0,1.34,0,0,0,0v1.34l1.34-1.34v1.34-1.34l1.35,1.34h4.02c1.33,0,1.33,1.34,1.33,1.34h2.68l1.34-1.34v1.34h9.38c1.34,0,0,0,1.34,1.34l1.34-2.68c0,1.34-1.34,1.34-1.34,1.34h-2.68s-1.34,0,1.34,0h-2.68v-1.34c-1.33,0-1.33,1.34-1.33,1.34v-1.34,1.34-1.34h-1.35c-1.34,1.34,0,0,0,0h-8.04v-1.34l-1.33,1.34-1.35,2.68v-4.02s-1.34,4.02-1.34,2.68c-1.33,1.34,0-2.68,0-2.68,0,0-2.68,4.02-2.68,2.68v1.34-1.34c-1.34,0-1.34,1.34-1.34,0h-4.03v-1.34l-1.33,1.34v-1.34h-5.36v-1.34l-1.34,1.34h2.67v1.34l1.35-1.34v1.34h2.68l2.68-2.68s-1.35,4.02,0,4.02c0-1.34-1.35-1.34,0-1.34,0,1.34,2.68-2.68,2.68-2.68l-1.34,1.34v-1.34c-1.34,0-1.34,1.34-1.34,0h-5.36c0-1.33-1.35,4.02-1.35,4.02v-1.34c-1.34,0-1.34,1.34-1.34,1.34v-1.34c-1.34,0-1.34,1.34-1.34,1.34l-1.34-1.34h-2.68l-1.34-1.34v1.34-1.34h-6.71v-1.34s0,1.34-1.34,0h-2.68l-1.34-1.33s0,1.33-1.34,1.33v-1.33h-2.68s0-1.35-1.33-1.35l-1.35-1.33v1.33s0-1.33-1.34-1.33h-2.68l-1.34-1.35h2.67v1.35c1.34,0,1.34-1.35,1.34-1.35v1.35l1.34-1.35v1.35h2.68v1.33c1.35,0,1.35-1.33,1.35-1.33v1.33h4.02l1.35,1.35v-1.35l1.33,1.35h2.68v1.33l1.34-1.33v1.33h4.03c0,1.34,0,0,0,0h1.34l1.34,1.34c1.34,0,0,0,1.34-1.34h-5.36v-1.33h-5.36v-1.35l-1.34,1.35v-1.35h-2.68l-1.34-1.33v1.33l-1.34-1.33h-4.02v-1.35h-6.7v-1.33h-2.68v-1.35h-1.34v1.35l-1.34-1.35h-1.35l-1.33-1.33h-1.35v1.33h1.35v1.35c0-1.35,1.33-1.35,1.33-1.35v1.35c1.35,0-1.33-1.35,0,0h2.68v1.33h4.02v1.35h1.34v1.33h1.34v1.35h-1.34v-1.35h-4.02v-1.33s-1.34,1.33-1.34,0v1.33h2.68c0,1.35,0,0,0,0h1.34v1.35h1.34s0,1.33,1.34,1.33l1.34-1.33v1.33h4.02l1.35,1.34h4.02v1.34-1.34l1.35,1.34h4.01v1.34l1.34-1.34,1.35-4.01h4.02v1.33h2.68v1.34l1.34-1.34s-1.34,0,0,0h2.67l-1.34,1.34s-1.34,0,0-1.34l-1.34,1.34h1.34c1.34,0,0,0,0,0h5.36s0,1.34,1.33,1.34c0,0,0-1.34,1.35-1.34v1.34h2.68v1.34-1.34,1.34h6.7v1.35l1.33-1.35v1.35h6.71v1.33c1.34,0,1.34-1.33,1.34-1.33h1.35v1.33s0-1.33,1.33-1.33v1.33h4.02v1.35l1.34-1.35v1.35l1.34-1.35v1.35l1.34-1.35v1.35c1.34,0,0,0,0,0h9.38l1.34,1.33v-1.33,1.33h6.71v1.35h5.35v1.33-1.33,1.33l1.34-1.33v1.33-1.33,1.33l1.34-1.33v1.33-1.33,1.33h1.35s1.33,0,1.33-1.33l1.35,1.33h1.34s0-1.33,1.34-1.33c0,0-1.34,1.33,0,1.33,2.68,2.68,0,0,1.34,0,0,0,1.35,0,0,0h1.35-1.35,10.72v1.35s0-1.35,1.34-1.35v1.35s0-1.35,1.34-1.35v1.35h1.34-24.12c-1.34,0-1.34,1.33-1.34,1.33v-1.33c-1.34,0-1.34,1.33-1.34,1.33v-1.33l-1.34,1.33v-1.33h-9.39v-1.35l-1.34,1.35v-1.35s-1.34,1.35-1.34,0h-8.04v-1.33l-1.34,1.33v-1.33h-5.36v-1.35,1.35l-1.34-1.35h-5.36v-1.33,1.33-1.33h-5.36v-1.35h-1.33q1.33,0,0,0h-2.68c-1.33-1.33-1.33,0-1.33,0v-1.33h-2.68v-1.35,1.35-1.35h-2.68l-1.35-1.34v1.34l-1.33-1.34h-1.35v-1.34l-1.33,1.34v-1.34h-1.35v1.34-1.34,1.34h2.68v1.34c0-1.34,0,0,0,0h4.03v1.35h2.68v1.33h2.68s-1.35,0-1.35,1.35l1.35-1.35v1.35h4.02v1.33h4.02v1.35l1.34-1.35v1.35s0-1.35,1.34,0h-1.34v1.33c0-1.33,0,0,0,0h1.34l-1.34,1.35h4.02v1.33h2.68v1.34h4.02c-1.34,0-1.34,1.35-1.34,1.35v-1.35h-9.38c-1.34-1.34-1.34,0-1.34,0l-1.34-1.34v1.34h-1.35v-1.34h-1.33c-1.35,0,0,0,0,0v1.34-1.34,1.34-1.34c-1.35,0-1.35,1.34-1.35,1.34v-1.34c-1.34,0-1.34,1.34-1.34,1.34l-1.33-1.34h-2.68c0-1.33,0,0-1.34,0v-1.33s0,1.33-1.34,1.33v-1.33h-1.35v1.33h2.68l1.34,1.34v1.35l1.34-1.35v1.35s0-1.35,1.35,0h2.67v1.33h2.68s0,1.35,0,0v1.35h-4.02l-1.33-1.35h-2.68v-1.33s0,1.33-1.34,1.33v-1.33h-2.68v-1.35l-1.33,1.35v-1.35,1.35h1.33v1.33c1.35,0,0-1.33,1.35-1.33v1.33-1.33,1.33h2.68v1.35s1.34-1.35,1.34,0h8.04l1.34,1.33h5.36l1.35,1.35h4.02v1.33c1.34,0,1.34-1.33,2.68-1.33v1.33c1.34,0,1.34-1.33,1.34,0h6.71v1.35h5.35v1.33h-2.68v-1.33s0,1.33-1.34,1.33v-1.33,1.33-1.33s0,1.33-1.33,1.33v-1.33h-4.03c-1.34,0,1.35,0,0,0h-2.68l-1.34-1.35s0,1.35-1.34,1.35v-1.35h-4.02l-1.33-1.33v1.33-1.33h-6.71v-1.35h-5.36v-1.33h-6.7v-1.35h-4.02c0-1.33,0,0,0,0v-1.33h-2.68v-1.35l-1.35,1.35v-1.35c1.35,0,1.35-1.34,1.35,0-1.35-1.34,0-1.34-1.35-1.34h-1.34,1.34v1.34h-1.34c1.34,0,0,0,0,0,0-1.34,0,0,0,0h-1.34v-1.34h-1.34l-1.34-1.33v1.33l-1.34-1.33h-1.34s0-1.35-1.34-1.35v1.35-1.35h-2.68v-1.33s0,1.33-1.34,1.33v-1.33s-1.34,1.33,0,1.33h1.34v1.35h1.35l1.34,1.33v-1.33l1.34,1.33h1.34v1.34h1.34l1.34,1.35v-1.35,1.35h1.34l1.34,1.33v-1.33l1.34,1.33,1.35,1.35v-1.35c1.33,0,0,1.35,1.33,1.35h2.68v1.33s1.35,0,1.35-1.33v1.33s0-1.33,1.34-1.33c-1.34,1.33,0,1.33,0,1.33l-1.34,1.35h2.68v1.33h4.02c0,1.35,0,0,1.34,0v1.35h2.68c1.35,0,1.35,1.33,1.35,1.33v-1.33l1.34,1.33h2.68-1.34v1.35h1.34v-1.35h2.68l1.35,1.35v-1.35,1.35h1.33s0-1.35,1.34-1.35v1.35h4.02v1.34c1.34,0,1.34-1.34,1.34-1.34v1.34h5.36c0,1.33,1.35,0,1.35,0v1.33l1.33-1.33v1.33-1.33,1.33h4.02c1.35,1.35,1.35,0,2.68,0v1.35h2.68v-1.35h2.68v1.35-1.35,1.35q1.34,0,1.34-1.35v1.35h1.34c1.34,0,0,0,0,0h2.68c1.34,0-1.34,0,1.34,0l1.35,1.33v-1.33,1.33h12.06l1.34,1.35,1.35-1.35h1.34v1.35l1.34-1.35v1.35h6.7c1.35,0,0,0,0,0h16.09v-1.35h13.39l1.35-1.33h2.68l1.33,1.33v-1.33c1.34,0-1.33,1.33,0,1.33,0-1.33,1.34-1.33,1.34-1.33h4.03c0-1.35,1.34,0,2.68-1.35h4.01c2.68-1.33,1.35,0,1.35,0v-1.33h1.34v1.33l1.34-1.33v1.33h2.68l1.34-1.33h4.01l1.35-1.34h2.68Z"/>
        <path class="cls-6" d="m297.48,348.41c49.59-18.77,73.7-72.36,53.61-121.94-17.42-48.24-72.36-73.7-121.95-53.6-49.58,18.76-75.03,72.37-54.94,121.94,18.77,48.24,73.7,72.36,123.28,53.6Z"/>
        <path class="cls-5" d="m448.91,108.54c-52.27-62.98-150.08-76.38-219.77-26.8-69.68,49.58-84.42,143.38-32.16,207.71,25.47,33.5,18.76,79.05-16.08,104.52-36.19,24.12-84.42,17.42-111.22-14.74C-8.04,282.74,13.4,144.72,119.26,69.68,223.78-5.36,371.18,12.06,448.91,108.54Z"/>
      </g>
      <g>
        <path class="cls-1" d="m77.92,591.17v-4.9h-45.4v-14.2h109.64v14.2h-45.52v4.9h-18.72Zm23.19-43.15c2.32,1.89,6.88,3.27,13.67,4.13,5.16.69,13.07,1.16,23.73,1.42v14.19c-12.9-.26-22.53-.77-28.89-1.54-11.01-1.37-18.41-3.91-22.2-7.61-3.79,3.7-11.28,6.24-22.45,7.61-6.45.77-15.99,1.24-28.63,1.42v.13-14.06c10.75-.26,18.61-.69,23.6-1.29,6.7-.86,11.22-2.32,13.54-4.39h-37.14v-13.19h40.88v-10.19h20.54v10.19h40.75v13.19h-37.4Zm9.84,48.62c7.31,6.01,10.97,13.53,10.97,22.56s-3.66,16.41-10.97,22.43c-6.8,5.59-14.66,8.38-23.61,8.38s-17.38-2.79-24.25-8.38c-7.23-5.93-10.84-13.41-10.84-22.43s3.61-16.63,10.84-22.56c6.88-5.5,14.96-8.25,24.25-8.25s16.81,2.75,23.61,8.25Zm-35.64,11.31c-3.36,3.02-5.04,6.76-5.04,11.24s1.68,8.09,5.04,11.11c3.28,2.93,7.15,4.39,11.63,4.39s8.1-1.46,11.38-4.39c3.45-3.02,5.17-6.72,5.17-11.11s-1.72-8.23-5.17-11.24c-3.28-2.84-7.07-4.26-11.38-4.26s-8.36,1.42-11.63,4.26Z"/>
        <path class="cls-1" d="m254.25,643.07v-34.95h-45.65v-16.11h109.66v16.11h-45.78v34.95h-18.22Zm20.5-94.54c.26,4.99,4.17,8.94,11.73,11.86,7.05,2.75,16.38,4.3,27.98,4.65v16.25c-10.83-.34-20.33-1.5-28.5-3.48-11.26-2.67-18.79-6.58-22.57-11.73-3.87,5.16-11.52,9.07-22.96,11.73-8.25,1.89-17.62,3.05-28.11,3.48v-16.12c11.69-.34,21.02-1.85,27.98-4.51,7.56-2.92,11.43-6.96,11.6-12.12h-39.59v-16.11h102.14v16.11h-39.72Z"/>
        <path class="cls-1" d="m430.38,532.46c0,24.33,2.28,41.95,6.83,52.88,4.04,9.63,10.62,15.26,19.73,16.89v18.05c-8.51-1.03-15.82-3.82-21.92-8.38-6.18-4.73-10.86-11-14.03-18.83-3.26,7.74-8.28,14.01-15.07,18.83-6.19,4.47-13.15,7.27-20.89,8.38v-17.92c9.03-1.72,15.6-7.44,19.73-17.15,4.73-10.92,7.09-28.5,7.09-52.74h18.52Zm41.98,0h18.22v111.29h-18.22v-111.29Z"/>
      </g>
    </g>
  </g>
</svg>