<?xml version="1.0" encoding="UTF-8"?>
<svg id="Layer_2" data-name="Layer 2" xmlns="http://www.w3.org/2000/svg" viewBox="0 0 710.1 650">
  <defs>
    <style>
      .cls-1 {
        fill: #008837;
      }

      .cls-2 {
        fill: #231815;
      }
    </style>
  </defs>
  <g id="Layer_1-2" data-name="Layer 1">
    <g>
      <path class="cls-1" d="m75.71,327.13L250.35,52.04l24.54,42.23-139.83,218.59s-50.22,9.7-59.35,14.27Z"/>
      <path class="cls-1" d="m341.09,17.23l-186.05,292.21s31.96-2.86,37.67-2.28L358.22,49.76l-17.12-32.53Z"/>
      <path class="cls-1" d="m411.56,0l-195.75,311.04s154.67-6.85,233.99,6.85c0,0,161.51,22.83,118.71,72.48,0,0-18.26,19.97-82.19,34.24,0,0,116.43-5.7,132.98-61.05,0,0,6.84-17.12-2.86-31.97L411.56,0Z"/>
      <path class="cls-1" d="m127.15,357.42h14.05c6.25,0,16.1,1.75,16.1,23.53,0,12.12-4,24.76-15.91,24.76h-14.25v-48.29Zm-14.35,61.03h30.36c23.13,0,29.08-22.81,29.08-38.63,0-13.98-4.88-35.13-28.5-35.13h-30.94v73.76Z"/>
      <path class="cls-1" d="m207.1,361.32h.19l8.69,29.17h-17.86l8.98-29.17Zm-12.88,41.91h25.87l4.48,15.21h15.91l-24.69-73.76h-16.88l-24.98,73.76h15.42l4.88-15.21Z"/>
      <path class="cls-1" d="m301.37,357.73h-37.18v15.51h34.16v13.05h-34.16v19.1h38.84v13.05h-53.19v-73.76h51.53v13.05Z"/>
      <path class="cls-1" d="m347.82,378.69h29.28v39.76h-9.76l-1.46-9.25c-3.71,4.52-9.08,11.2-21.87,11.2-16.88,0-32.2-12.74-32.2-38.63,0-20.14,10.64-39.14,34.25-39.04,21.48,0,29.96,14.69,30.74,24.86h-14.64c0-2.88-4.97-12.12-15.32-12.12s-20.1,7.6-20.1,26.51c0,20.14,10.44,25.38,20.39,25.38,3.23,0,13.95-1.34,16.99-16.23h-16.3v-12.43Z"/>
      <path class="cls-1" d="m446.98,392.66c0,19.41-11.13,27.73-28.79,27.73-6.45,0-16.01-1.65-22.26-8.94-3.8-4.52-5.28-10.48-5.47-17.88v-48.9h14.93v47.87c0,10.27,5.66,14.8,12.5,14.8,10.05,0,14.15-5.14,14.15-14.08v-48.59h14.93v47.98Z"/>
      <g>
        <path class="cls-2" d="m562,482.31l-19.26-.06v15.74l-24.43-.02c-8.04-6.91-20.33-11.33-34.12-11.33-24.24,0-43.88,13.66-43.88,30.51s19.64,30.51,43.88,30.51c14.14,0,26.71-4.65,34.73-11.87h23.82v17.78h-92.74s0,15.36,0,15.36l92.66.06v28.74h19.42l-.07-115.41Zm-77.81,49.81c-12.91,0-23.38-6.69-23.38-14.96s10.47-14.96,23.38-14.96,23.39,6.7,23.39,14.96-10.47,14.96-23.39,14.96Zm43.62-11.64c.17-1.09.27-2.19.27-3.32,0-1.25-.13-2.48-.34-3.69h15v6.99l-14.93.02Z"/>
        <path class="cls-2" d="m682.06,482.25c0,.18-.02,42.27-.04,76.03-16.06-.2-28.12-2.52-33.54-8.17-13.38-14-15.49-24.77-17.29-36.56-.57-3.72-.54-10.63-.54-10.63v-17.94s-19.44-.02-19.44-.02l-.03,17.96s.03,6.91-.53,10.63c-1.8,11.78-.93,24.84-15.72,37.91-7.27,6.42-16.04,10.7-22.03,12.84l13.62,13.1c13.76-6.44,21.45-13.34,26.51-20.28,2.59-3.56,5.11-7.06,7.97-14.78,2.86,7.72,5.29,11.38,8.38,14.42,15.2,14.95,30.1,18.56,52.62,18.07l.05,22.89h19.36v-115.45l-19.37-.02Z"/>
        <path class="cls-2" d="m10.74,574.85c-4.39,0-7.41-3.79-7.41-8.39v-78.02s55.09-.06,55.09-.06v15.48H22.66v55.53l49.38.04v-77.15l19.4-.1v44.36h11.99l-.03-44.37,19.34.03-.03,115.52h-19.25v-55.77h-12.02v55.77h-19.4v-22.85l-61.3-.02Z"/>
        <path class="cls-2" d="m260.72,485.63l-111.68-.02.03,15.42,100.07.06v37.42l-103.3.02v15.37h52.09v43.86l19.25.02v-43.87h55.9v-15.39h-4.59v-47.31h-.01c.02.25,0-.26,0,0-.35-4.21-3.88-5.53-7.76-5.57Z"/>
        <path class="cls-2" d="m425.36,505.36h-10.26v-23.05l-19.38-.06.03,45.1-13.98.02v-30.33c0-4.6-4.39-8.03-8.53-8.03h-77.22s-.04,15.45-.04,15.45h66.35s0,22.92,0,22.92h-26.62v-15.84h-19.28s0,15.83,0,15.83h-23.55s0,15.36,0,15.36h102.87s0,11.97,0,11.97c-10.29-4.32-23.66-6.96-38.62-6.96-32.01,0-57.98,12.08-57.98,26.97s25.97,26.98,57.98,26.98,57.5-11.91,57.85-26.66h0l.11-54.26h10.23l.03-15.44Zm-68.22,80.2c-18.06,0-32.7-4.84-32.7-10.82s14.64-10.81,32.7-10.81,32.7,4.84,32.7,10.81-14.64,10.82-32.7,10.82Z"/>
      </g>
      <g>
        <path class="cls-2" d="m7.35,623.13h7.2c3.19,0,8.25.75,8.25,10.04,0,5.17-2.05,10.57-8.15,10.57h-7.3v-20.61Zm-7.35,26.04h15.55c11.85,0,14.9-9.74,14.9-16.48,0-5.96-2.5-14.99-14.6-14.99H0v31.47Z"/>
        <path class="cls-2" d="m48.3,624.79h.1l4.45,12.45h-9.15l4.6-12.45Zm-6.6,17.89h13.25l2.29,6.49h8.15l-12.64-31.47h-8.65l-12.8,31.47h7.9l2.5-6.49Z"/>
        <path class="cls-2" d="m96.59,623.26h-19.05v6.62h17.49v5.56h-17.49v8.16h19.9v5.57h-27.24v-31.47h26.4v5.56Z"/>
        <path class="cls-2" d="m120.38,632.2h14.99v16.97h-5l-.75-3.95c-1.9,1.93-4.65,4.78-11.19,4.78-8.65,0-16.5-5.43-16.5-16.48,0-8.59,5.45-16.7,17.55-16.66,11,0,15.34,6.27,15.75,10.61h-7.51c0-1.23-2.56-5.18-7.84-5.18s-10.3,3.24-10.3,11.31c0,8.59,5.35,10.82,10.45,10.82,1.65,0,7.15-.57,8.7-6.93h-8.34v-5.31Z"/>
        <path class="cls-2" d="m171.16,638.17c0,8.28-5.69,11.83-14.74,11.83-3.3,0-8.2-.7-11.4-3.81-1.95-1.93-2.7-4.47-2.8-7.63v-20.87h7.65v20.43c0,4.38,2.9,6.31,6.4,6.31,5.15,0,7.25-2.19,7.25-6v-20.73h7.64v20.47Z"/>
        <path class="cls-2" d="m226.85,649.17h-7v-26.3h-.1l-6.7,26.3h-7.35l-6.55-26.3h-.1v26.3h-6.99v-31.47h10.95l6.49,24.81h.1l6.39-24.81h10.85v31.47Z"/>
        <path class="cls-2" d="m260.45,623.26h-19.05v6.62h17.49v5.56h-17.49v8.16h19.9v5.57h-27.24v-31.47h26.39v5.56Z"/>
        <path class="cls-2" d="m282.64,649.17h-7.5v-25.91h-10.85v-5.56h29.19v5.56h-10.84v25.91Z"/>
        <path class="cls-2" d="m305.28,631.55v-8.42h9.35c4.4,0,5.25,2.46,5.25,4.12,0,3.12-1.9,4.3-5.8,4.3h-8.8Zm-7.35,17.62h7.35v-12.32h7.75c5.55,0,5.85,1.67,5.85,5.96,0,3.24.3,4.87.8,6.36h8.29v-.84c-1.6-.53-1.6-1.67-1.6-6.26,0-5.88-1.6-6.84-4.55-7.98,3.56-1.05,5.56-4.03,5.56-7.5,0-2.72-1.74-8.9-11.3-8.9h-18.14v31.47Z"/>
        <path class="cls-2" d="m338.93,633.43c0-8.81,5.7-11,9.75-11s9.75,2.19,9.75,11-5.7,11-9.75,11-9.75-2.19-9.75-11Zm-7.5,0c0,14.78,12.5,16.57,17.24,16.57s17.24-1.79,17.24-16.57-12.49-16.57-17.24-16.57-17.24,1.8-17.24,16.57Z"/>
        <path class="cls-2" d="m379.42,632.38v-9.25h5.95c4.65,0,6.59,1.27,6.59,4.34,0,1.4,0,4.91-5.6,4.91h-6.95Zm0,5.43h8.6c9.64,0,11.44-7.19,11.44-10.04,0-6.18-4.2-10.08-11.15-10.08h-16.39v31.47h7.5v-11.36Z"/>
        <path class="cls-2" d="m411.17,633.43c0-8.81,5.69-11,9.75-11s9.75,2.19,9.75,11-5.7,11-9.75,11-9.75-2.19-9.75-11Zm-7.5,0c0,14.78,12.49,16.57,17.24,16.57s17.25-1.79,17.25-16.57-12.5-16.57-17.25-16.57-17.24,1.8-17.24,16.57Z"/>
        <path class="cls-2" d="m451.65,643.47h17.85v5.7h-25.34v-31.47h7.49v25.77Z"/>
        <path class="cls-2" d="m481.6,649.17h-7.5v-31.47h7.5v31.47Z"/>
        <path class="cls-2" d="m503.84,649.17h-7.49v-25.91h-10.85v-5.56h29.19v5.56h-10.84v25.91Z"/>
        <path class="cls-2" d="m528.84,624.79h.09l4.44,12.45h-9.14l4.61-12.45Zm-6.6,17.89h13.25l2.3,6.49h8.14l-12.65-31.47h-8.64l-12.8,31.47h7.9l2.49-6.49Z"/>
        <path class="cls-2" d="m572.63,617.7h7v31.47h-7.5l-14.64-22.45h-.1v22.45h-7v-31.47h7.89l14.25,21.92h.1v-21.92Z"/>
        <path class="cls-2" d="m623.62,627.99c-.61-1.89-1.75-5.44-7.95-5.44-3.6,0-8.9,2.1-8.9,11.01,0,5.65,2.55,10.74,8.9,10.74,4.14,0,7.04-2.06,7.95-5.92h7.49c-1.49,6.84-6.6,11.62-15.59,11.62-9.55,0-16.39-5.66-16.39-16.53s7.25-16.61,16.5-16.61c10.74,0,15.09,6.49,15.49,11.13h-7.49Z"/>
        <path class="cls-2" d="m643.71,649.17h-7.5v-31.47h7.5v31.47Z"/>
        <path class="cls-2" d="m665.95,649.17h-7.49v-25.91h-10.85v-5.56h29.2v5.56h-10.85v25.91Z"/>
        <path class="cls-2" d="m698.1,649.17h-7.5v-11.89l-12.4-19.59h8.85l7.45,13.68,7.1-13.68h8.5l-12,19.68v11.8Z"/>
      </g>
    </g>
  </g>
</svg>