<?xml version="1.0" encoding="UTF-8"?>
<svg id="Layer_2" data-name="Layer 2" xmlns="http://www.w3.org/2000/svg" viewBox="0 0 1071.92 650">
  <defs>
    <style>
      .cls-1 {
        fill: #00adee;
      }

      .cls-2 {
        fill: #f26f21;
      }

      .cls-3 {
        fill: #72be44;
      }

      .cls-4 {
        fill: #6d6b6f;
        stroke: #6d6b6f;
        stroke-width: 1.01px;
      }
    </style>
  </defs>
  <g id="Layer_1-2" data-name="Layer 1">
    <g>
      <g>
        <path class="cls-1" d="m481.51,386.28c-1.12-23.07,1.28-41.99-9.16-61.19-6.92-15.08-29.84-24.3-43.96-31.64-21.54-11.2-50.43-29.5-66.15-44.81-38.37,73.66-29.43,147.89-29.43,147.89,0,0,65.47,32.8,145.41,36.32,2.36-16.78,3.82-33.17,3.3-46.57Z"/>
        <path class="cls-3" d="m385.29,234.07c35.25,21.5,79.91,41.89,137.81,37.42,51.75-3.99,148.08-35.88,216.7-58.37,7.19-2.37,22.18-10.2,22.2-27.89,2.8-55.35-5.66-133.14-62.79-185.23,0,0-28.44,79.76-167.76,120.52-71.82,19.7-117.99,55.05-147.61,94.01-9.44,10.65-2.18,17.33,1.46,19.55Zm264.13-84.79c-1.63-1.78-2.62-2.87-2.3-3.66.88-2.15,3.31-1.45,3.31-1.45,10.24,1.45,21.51.99,21.51.99,3.88-16.83-15.27-42.63-15.27-42.63-8.07-11.42.9-8.56.9-8.56,13.65,1.96,24.1,13.25,29.49,20.81,2.86,4.03,9.1,15.99,9.1,15.99,7.59-14.32,21.59-5.54,21.59-5.54-4.52,2.79-9.5,15.71-9.5,15.71-11.05,29.4-27.8,30.62-41.42,42.13-13.64,11.53-12.45,5.15-5.29-6.07,6.45-10.14,8.26-15.73,8.26-15.73-4.12,2.56-16,2.36-16,2.36-10.77-.64-1.75-3.02-5.85-5.43-7.65-4.54,5.06-5.02,1.49-8.91Zm-156.25,51.74c6.46-17.82,23.31-24.2,23.31-24.2,38.97-9.96,48.67,25.89,79.14,33.24-8.8,7.61-53.99,51.83-82.32,46-26.14-4.33-28.11-33.08-20.13-55.05Z"/>
        <path class="cls-2" d="m554.27,323.9c-18.02,28.51-4.66,66.02.91,93.02.4,2,.96,5.14,1.72,9.06,71.97-15.54,154.08-59.56,195.64-173.99,0,0,1.05-3.9,2.47-10.85-63.06,20.85-186.54,60.27-200.75,82.76Z"/>
      </g>
      <g>
        <g>
          <path class="cls-2" d="m838.18,517.07c.89-.53,1.36-1.1,1.38-1.67-.17-7.27-.94-14.57-2.32-21.91-1.38-7.32-3.29-13.5-5.76-18.57-1.62-3.7-3.61-6.64-5.96-8.83-2.34-2.2-5.05-3.35-8.14-3.47-.88-.03-2.25.83-4.07,2.58-1.84,1.74-3.3,2.59-4.41,2.55-.89-.03-2.3-.38-4.27-1.03-1.96-.64-3.49-.99-4.59-1.03-.89-.04-2.22.3-4.01,1-1.8.7-3.28,1.88-4.44,3.56,4.16.92,7.39,2.72,9.73,5.39,2.33,2.67,3.97,5.93,4.93,9.8,1.54,5.8,2.34,12.58,2.37,20.31.04,7.76-.65,15.82-2.08,24.17-.38,4.39-.61,8.78-.66,13.18-.06,4.4-.04,8.52.04,12.34,2.35,1.99,4.83,3.68,7.43,5.01,2.6,1.34,5.34,2.06,8.19,2.18,2.87.1,6.39-3.97,10.57-12.23,4.17-8.25,6.4-16.2,6.69-23.85.03-.57-.51-1.16-1.59-1.78-1.08-.61-.49-1.64,1.78-3.09-.21-.57-.53-.68-.98-.31-.45.36-.87-.51-1.23-2.64.02-.57.49-1.13,1.39-1.66Z"/>
          <path class="cls-2" d="m778.74,477.52c-.2-.57-3.09-1.5-8.67-2.76-5.58-1.27-8.93-1.91-10.03-1.95-5.95-.23-8.41.83-7.39,3.16,1.02,2.33-.08,4.97-3.28,7.91-1.59,1.08-6.36,6.16-14.32,15.24-7.96,9.07-12.49,13.59-13.59,13.55-.88-.03-1.96.69-3.23,2.18-1.27,1.47-2.59,2.95-3.96,4.44-.87-.42-1.58-.68-2.13-.8-.55-.11-.93-.27-1.14-.47.09-2.5.16-5.65.18-9.47.04-3.82,1.27-8.64,3.69-14.5,1.66-8.92-1.58-15.17-9.72-18.73-8.14-3.55-15.85-5.46-23.13-5.73-7.27-.28-12.89.56-16.82,2.51-3.94,1.97-7.46,3.07-10.55,3.34-.23.19-.41.66-.55,1.41-.14.77-.76,1.12-1.86,1.08-.88-.04-2.77.13-5.66.51-2.88.36-4.87.53-5.97.49-.89-.04-1.93-.32-3.12-.83-1.2-.52-2.24-.8-3.11-.83-2.2-.09-4.07.9-5.57,2.95-1.53,2.05-2.32,4.12-2.4,6.22-.03.77.29,2.74.94,5.92.65,3.18,1.41,5.26,2.24,6.25,1.67,2.55,4.17,5.09,7.5,7.6,3.32,2.52,5.75,3.8,7.3,3.86,9.04.34,15.7-2.27,20-7.85,4.29-5.58,8.96-8.27,14.04-8.08,1.1.04,1.87.27,2.29.66.42.4.74.8.95,1.19l-4.45,21.35c-.06,1.53-.62,3.42-1.7,5.67-1.08,2.27-1.01,4.76.22,7.48-.24.37-1.53,2.1-3.84,5.16-2.32,3.07-3.52,5.46-3.58,7.17,0,.2,1.29,3.55,3.93,10.06,2.62,6.5,5.37,9.82,8.23,9.92,1.11.04,3.47.23,7.1.55,3.63.33,6.88.36,9.77.09,1.18-2.06,2.14-4.18,2.88-6.35.75-2.17,1.37-4.11,1.88-5.82.49-1.13,1.04-4.5,1.7-10.11.66-5.62,3.18-8.35,7.6-8.18,3.75.14,8.02,2.22,12.84,6.22,4.82,4.01,9.09,6.08,12.85,6.22,1.98.07,4.23-.85,6.72-2.75,2.5-1.92,3.8-3.92,3.87-6.03.08-2.1-.94-4.39-3.06-6.85-2.12-2.48-4.36-4.42-6.73-5.86,3.72-5.01,7.54-9.66,11.45-13.92,3.92-4.25,5.95-5.61,6.11-4.07.18,7.09.21,16.37.11,27.84-.1,11.48.69,18.3,2.37,20.47,5.15-1.91,10.17-4.69,15.05-8.32,4.89-3.65,7.37-6.8,7.48-9.48.26-7.06.35-17.97.24-32.71-.11-14.73-.78-23.46-2-26.19Z"/>
          <path class="cls-2" d="m1071.51,599.9c-1.12.72-11.47,4.36-31.02,10.89-19.57,6.53-32.76,9.67-39.59,9.41-1.33-.05-1.53-.64-.6-1.74.91-1.12,1.16-1.87.75-2.27,1.36-6.83,7.26-17.14,17.71-30.89,10.45-13.76,15.87-25.61,16.25-35.54.27-7.27-2.39-15.97-7.96-26.13-5.58-10.16-8.04-23.64-7.41-40.46.23-6.3.96-13.97,2.18-23.02,1.22-9.03,2.42-14.49,3.6-16.36,1.16-1.48,2.65-2.87,4.46-4.14,1.81-1.26,2.74-2.37,2.78-3.34.08-2.1-1.61-4.08-5.07-5.92-3.46-1.86-6.3-2.82-8.49-2.91-.89-.03-3.07.75-6.55,2.34-3.49,1.58-6.45,2.63-8.89,3.1-4.98,3.45-7.65,9.71-8,18.78-.34,9.08-2.12,15.27-5.33,18.6-.47.74-6.82,6.33-19.02,16.78-12.2,10.44-22.25,18.01-30.15,22.69-1.14.72-2.37,1.3-3.7,1.72-1.34.43-2.57.81-3.69,1.15-1.31-.43-2.57-.76-3.77-1-1.21-.24-2.03-.37-2.47-.38-1.31-.24-1.68-1.02-1.08-2.34.61-1.31.69-2.08.26-2.29.85-4.94,4.58-10.15,11.18-15.64,6.61-5.49,9.02-10.85,7.23-16.09-.6-1.56-1.79-3.8-3.56-6.73-1.77-2.94-3.18-5.01-4.23-6.19-4.84-.56-7.79-1.34-8.85-2.34-1.07-1-2.59-1.63-4.57-1.9-.68.36-1.41.66-2.19.92-.78.27-1.39.38-1.83.37-.87-.41-2.97-.36-6.3.2-3.34.54-5.21.61-5.63.21-1.12.15-2.45.53-4.02,1.14-1.57.61-2.9.89-4.01.85-1.31-.24-3.03-.21-5.14.09-2.1.31-4.27.32-6.45.04.95-1.68,1.03-2.43.26-2.29-.78.17-1.26-.52-1.42-2.06.45-.16,1.58-.98,3.41-2.44,1.82-1.47,2.84-2.29,3.08-2.48.48-1.12,2.1-3.26,4.87-6.41,2.77-3.15,4.58-4.62,5.46-4.39,1.11.04,2.53.23,4.28.59,1.75.34,3.17.64,4.27.88,1.99.08,5.71-.69,11.18-2.31,5.46-1.61,8.46-3.37,8.98-5.26.25-.95-.2-2.49-1.32-4.64-1.14-2.15-2.22-4.01-3.27-5.58.46-.36.86-.54,1.18-.53.33.01.71-.07,1.17-.24l-36.6-12.85c-.89.16-1.73.31-2.51.48-.78.17-1.71.22-2.82.18-1.1-.23-1.91-.55-2.44-.96-.54-.4-1.36-.62-2.46-.66-1.1-.23-2.54-.19-4.31.11-1.78.32-3.44.36-4.97.1,2.48,4.69,4.38,8.16,5.74,10.4,1.34,2.26,2.44,3.78,3.3,4.58,3.37,3.95,6.5,5.98,9.37,6.09,2.85.1,5.01,1.53,6.46,4.26-.91.55-1.16,1.54-.78,2.99.39,1.44.37,2.17-.08,2.15-.68.55-1.65,1.19-2.89,1.9-1.24.72-2.09,1.26-2.54,1.63-2.74,2.58-6.08,4.79-10.02,6.66-3.93,1.86-6.26,3.83-7,5.9-1.11.35-4.82,1.79-11.09,4.33-6.27,2.53-9.55,4.56-9.82,6.08-.28,1.33,1.45,5.13,5.19,11.39,3.73,6.26,8.58,9.7,14.51,10.31,1.09.23,6.69-.33,16.78-1.66,10.09-1.34,15.69-1.99,16.79-1.95,1.09.24,1.91.45,2.45.66.54.22.92.61,1.12,1.19-1.64,2.42-3.66,4.84-6.06,7.23-2.41,2.4-5.21,4.78-8.38,7.15.93,4.25.38,5.71-1.67,4.38-2.04-1.31-3.9-.38-5.56,2.81-.49,1.13-.75,2.32-.79,3.56-.05,1.23-.31,2.23-.78,2.98-.93,1.3-3.25,4.32-6.96,9.06-3.72,4.74-5.84,8.44-6.38,11.09-.01.39-.86,2.55-2.56,6.51-1.7,3.96.43,6.23,6.36,6.84,2.41.85,4.53,1.65,6.37,2.4,1.85.73,4.54,1.36,8.04,1.88,1.32.04,3.73-.9,7.24-2.88,3.49-1.97,5.81-3.61,6.96-4.91,1.85-2.03,2.8-5.53,2.89-10.51.06-4.97,2.9-8.4,8.5-10.29,2.2.09,5.54.78,10.02,2.1,4.47,1.31,7.14,2.18,8.01,2.59,2.82,1.26,4.37,4.04,4.65,8.36.28,4.31,2.89,8.2,7.83,11.62,1.33.05,1.99.04,2-.06,0-.09.67-.11,1.99-.06,1.09.23,1.52.49,1.3.76-.24.29-.04.91.59,1.88,2.41.28,5.23.3,8.43.04,3.21-.26,4.97-1.34,5.27-3.25-.1-3.25.24-6.49,1.01-9.72.8-3.22.45-6-1-8.36-1.24-2.15-2.67-3.96-4.27-5.48-1.59-1.48-3.37-2.84-5.31-4.07,6.36-4.73,12.76-10.28,19.18-16.64,6.41-6.36,11.91-11.55,16.48-15.59,1.59,10.39,2.54,18.7,2.86,24.93.31,6.23,3.06,14.22,8.21,23.97,1.01,2.16,2.62,5.03,4.8,8.65,2.18,3.62,3.19,7.63,3.03,12.02-.41,10.89-7.16,24.23-20.22,39.99-13.08,15.77-19.7,26.33-19.9,31.67-.1,2.68.72,5.66,2.48,8.99,1.75,3.32,4.27,5.04,7.58,5.17,5.51.21,12.34-.97,20.5-3.52,8.15-2.57,13.69-4.75,16.64-6.56,1.8-.89,10.32-4.53,25.57-10.94,15.26-6.41,22.92-10.56,22.99-12.48.05-1.15.5-3.18,1.38-6.12.88-2.93,1-4.6.35-5.01Z"/>
        </g>
        <path class="cls-4" d="m222.88,469.16l6.78,5.04c1.35,1.05,2.84,1.74,4.39,2.03l5.91.47h11.36c1.12,0,2.18-.37,3.13-1.1,1.03-.8,1.53-1.87,1.53-3.3,0-1.11-.43-2.13-1.25-2.98-.86-.86-2.14-1.28-3.77-1.28-4.51,0-8.89-.47-12.98-1.38-4.1-.91-7.87-2.3-11.04-4.07,0,0-2.6-.42-2.6-.43-.97.04-1.75.51-2.35,1.4-.51.82-.78,1.63-.78,2.43,0,.24.03.47.08.71.19,1.05.73,1.9,1.58,2.47Zm-66.02,46.13l4.12-4.84.23,1.7c.14,1.01.44,1.74.92,2.25.67.73,1.48,1.13,2.32,1.13h28.59v5.52c.08.01.06,21.94.06,21.94,0,.18.14.33.34.33h2.48c2.14,0,3.91-1,5.29-2.98,1.35-1.98,2.01-4.99,2.01-9.25l.15-32.31v-36.28c0-1.21-.29-2.34-.91-3.38l-.7-1.09c-1-1.22-2.24-1.82-3.93-1.71l-4.26-.03c-.23.04-.51.17-.51.6v21.18h-28.33c-.96,0-1.75.36-2.46,1.11-.41.43-.69,1.03-.86,1.9l-.37,1.51-4.16-5.07c-2.38-2.3-5.24-4.17-8.51-5.56-3.28-1.4-6.87-2.11-10.69-2.11s-7.69.71-11.01,2.13c-3.3,1.38-6.15,3.25-8.44,5.55-2.38,2.38-4.25,5.22-5.58,8.45-1.31,3.24-1.98,6.73-1.98,10.36s.66,7.25,1.98,10.43c1.33,3.19,3.2,5.98,5.6,8.27,2.35,2.38,5.23,4.25,8.55,5.56,3.31,1.33,6.98,1.95,10.91,1.87,3.8.09,7.38-.53,10.64-1.8,3.28-1.3,6.15-3.11,8.52-5.39Zm6.26-27.89l-.34-1.16,1.8.2h28.46v20.7h-28.46l-2.17.31.47-1.22c1.18-3.1,1.78-6.42,1.78-9.89,0-3.03-.51-6.05-1.54-8.95Zm-25.46,27.19c-4.66,0-8.51-1.7-11.76-5.21-3.22-3.45-4.84-7.85-4.84-13.04s1.62-9.55,4.84-12.97c3.25-3.45,7.09-5.14,11.76-5.14s8.54,1.7,11.82,5.21c3.3,3.51,4.89,7.72,4.89,12.9s-1.59,9.54-4.89,13.04c-3.29,3.51-7.16,5.21-11.82,5.21Zm-35.47-15.02h-17.48v-37.06c0-1.62-.53-3.07-1.58-4.29-1.06-1.24-2.39-1.88-3.97-1.88l-4.25-.03c-.24.04-.52.17-.52.6v113.22c0,.27.21.48.48.48h2.41c2.18,0,3.99-1.03,5.39-3.05,1.36-2,2.03-5.05,2.03-9.3v-50.43h17.61c.86,0,1.66-.37,2.39-1.11.74-.73,1.1-1.71,1.1-2.9,0-1.34-.36-2.4-1.1-3.12-.75-.76-1.58-1.11-2.52-1.11Zm239.41,5.04h0c2.4,2.31,5.32,4.19,8.69,5.56,3.38,1.36,7.29,2.05,11.62,2.05,4.1,0,7.85-.67,11.16-2,3.33-1.31,6.23-3.11,8.61-5.33,2.33-2.31,4.18-5.01,5.51-8.01,1.31-2.98,1.98-6.23,1.98-9.66,0-3.11-.67-6.19-1.98-9.19-1.33-2.97-3.21-5.69-5.62-8.1-2.37-2.38-5.27-4.33-8.59-5.78-3.36-1.47-7.08-2.2-11.08-2.2-4.24,0-8.11.73-11.49,2.2-3.4,1.45-6.33,3.41-8.69,5.78-2.41,2.41-4.24,5.15-5.48,8.12-1.24,3-1.86,6.12-1.86,9.28s.62,6.31,1.86,9.3c1.24,2.98,3.05,5.68,5.35,7.97Zm3.95-23.48c.73-1.97,1.84-3.78,3.29-5.32,1.49-1.65,3.28-2.94,5.5-3.94,2.14-.97,4.7-1.48,7.59-1.48,2.68.1,5.12.63,7.23,1.61,2.12.97,3.94,2.29,5.38,3.91,1.49,1.54,2.63,3.37,3.42,5.38.77,2.04,1.16,3.98,1.16,5.95s-.39,4.07-1.16,6.06c-.78,2.01-1.92,3.8-3.37,5.34-1.5,1.65-3.33,2.97-5.42,3.88-2.14.94-4.59,1.43-7.26,1.43s-5.13-.5-7.33-1.5c-2.15-.97-4.01-2.25-5.48-3.81-1.53-1.61-2.71-3.44-3.5-5.39-.78-2-1.16-3.98-1.16-6.01s.37-4.09,1.11-6.1h0Zm166.17,61.47h-44.24v-25.07h19.73c1.43,0,2.48-.43,3.22-1.31.72-.86,1.06-1.84,1.06-2.97,0-.96-.38-1.88-1.13-2.77-.75-.9-1.89-1.37-3.27-1.37h-39.93s-1.62-.68-1.63-.7l-.66-1.87v-30.77l12.61.06h27.71c.91,0,1.72-.4,2.5-1.23.76-.81,1.13-1.8,1.13-2.91,0-1.05-.44-2.08-1.32-3.05-.91-1-1.85-1.48-2.82-1.48l-45.41-.12-4.24-.04c-.2.04-.51.17-.51.6l.02,14.23v27.12c0,3.65,1.12,6.02,3.32,7.09,2.06,1,4.04,1.5,5.89,1.5h13.68v25.07h-44.5c-1.4,0-2.54.5-3.3,1.44-.76.95-1.12,1.84-1.12,2.7,0,1.11.37,2.17,1.12,3.08.77.96,1.9,1.45,3.3,1.45h98.8c1.41,0,2.5-.47,3.28-1.38.75-.88,1.13-1.89,1.13-3.01,0-.88-.36-1.78-1.12-2.78-.77-1-1.85-1.5-3.29-1.5Zm-307.09,25.36c-.82-.87-1.92-1.31-3.28-1.31h-42.72c-.89,0-1.5-.19-1.81-.57l-.32-.49v-24.62c0-1.64-.53-3.08-1.55-4.31-1.07-1.22-2.41-1.87-3.99-1.87l-4.26-.04c-.24.06-.51.18-.51.6,0,0-.04,28.8-.04,28.96,0,4.14,1.07,6.99,3.19,8.46,2.15,1.52,5.46,2.29,9.79,2.29h42.35c1.38,0,2.45-.49,3.25-1.47.76-.93,1.13-1.91,1.13-2.91,0-.94-.41-1.85-1.22-2.69v-.02Zm394.52-109.75c-1.06-1.24-2.39-1.88-3.97-1.88l-4.26-.03c-.24.04-.51.17-.51.6v113.22c0,.27.21.48.48.48h2.41c2.18,0,3.98-1.03,5.38-3.05,1.38-2,2.05-5.05,2.05-9.3v-95.75c0-1.62-.53-3.07-1.58-4.29Zm-29.35,63.8s-26.31-23.92-26.31-23.92l3.69-9.39c1.01-3.17,1.66-6.23,1.92-9.13l.05-1.18c0-1.93-.35-3.73-1.03-5.38-.89-2.13-2.98-3.21-6.19-3.21h-4.19c-.42,0-.63.1-.68.17-.09.13-.04.48.09.84.87,5.13.13,8.5.11,8.7-.33,3.63-1.28,7.75-2.87,12.23-1.58,4.51-3.57,9.02-5.92,13.45-2.33,4.43-4.91,8.65-7.68,12.53-2.75,3.88-5.44,7.06-8.02,9.49-.85.74-1.32,1.55-1.41,2.44-.04.32-.31,2.9,2.47,3.55.85.19,1.79-.09,2.82-.84,4.27-3.17,8.45-7.13,12.43-11.84,3.5-4.15,6.78-8.77,9.71-13.71l.52-.89.7.74s22.78,24.1,22.85,24.18c.63.9,1.45,1.51,2.33,1.78.36.11,3.54,1.07,5.67-1.66.92-1.18,1.16-2.61,1.16-3.75s-.24-2.03-.26-2.05c-.23-1.03-.89-2.1-1.98-3.15Zm-272.85-64.86l-4.27-.03c-.19.03-.51.16-.51.6v117.07c0,.26.21.49.49.49h2.4c2.18,0,3.99-1.04,5.39-3.07,1.36-1.98,2.03-5.04,2.03-9.32v-99.57c0-1.63-.51-3.08-1.55-4.29-1.07-1.24-2.4-1.88-3.97-1.88Zm-22.81,72.42s-22.57-17.7-22.57-17.7l.5-.61c2.67-3.28,4.75-6.21,6.37-8.93,2.01-3.38,3.6-6.88,4.73-10.4l.25-1.74c0-.96-.22-1.93-.66-2.91-.76-1.7-2.22-2.57-4.35-2.57h-37.92c-1.88,0-2.86.8-3.36,1.47-.69.94-1.05,1.88-1.05,2.82,0,1.1.33,2.11.98,2.99.47.63,1.4,1.4,3.18,1.4h29.79l-.48,1.09c-1.26,2.88-2.83,5.72-4.77,8.64-2.54,3.85-5.48,7.7-8.75,11.46-3.23,3.72-6.75,7.26-10.44,10.5-3.62,3.19-7.18,5.73-10.48,7.56-.04.01-3.73,2.47-2.32,4.88.46.87,1.1,1.41,2.05,1.71.92.29,2,.14,3.2-.4,4.31-1.94,8.99-4.74,13.9-8.3,4.41-3.21,8.83-7.05,13.15-11.44l.53-.53s21.29,19.55,21.34,19.62c.67.76,1.5,1.28,2.45,1.51.13.04,3.01.8,5.41-1.77,1.03-.83,1.25-2.38,1.25-3.61,0-.95-.14-1.71-.15-1.74-.19-1.09-.81-2.1-1.8-3Zm140.18-.33c.77-.87,1.13-1.83,1.13-2.98,0-.96-.37-1.91-1.11-2.83-.77-.94-1.91-1.45-3.29-1.45h-98.82c-1.39,0-2.52.47-3.27,1.37-.76.9-1.13,1.84-1.13,2.78,0,1.11.36,2.14,1.13,3.04.75.9,1.88,1.37,3.27,1.37h25.94v44.13c0,.26.22.49.46.49h2.54c1.93,0,3.62-1.03,5.01-3.07,1.38-1.98,2.05-5.06,2.05-9.43v-32.11h26.84v44.13c0,.26.21.49.49.49h2.53c1.91,0,3.61-1.03,5.05-3.04,1.43-2.01,2.12-5.11,2.12-9.46v-32.11h25.8c1.4,0,2.5-.43,3.27-1.3Zm-353.09-3.42c-.11-.09-23.24-19.09-23.24-19.09l.43-.58c2.85-3.94,5.14-7.65,7.05-11.34,2.2-4.27,3.83-8.66,4.83-13.04l.12-1.09-.7-3.21c-.68-1.78-2.09-2.68-4.17-2.68H7.9c-1.8,0-2.77.81-3.24,1.45-.67.95-1.01,1.89-1.01,2.81,0,.97.31,1.91.95,2.77.66.91,1.65,1.37,3.05,1.37h30.3l-.31,1c-1.25,4.11-3.07,8.23-5.4,12.26-2.75,4.77-5.9,9.37-9.31,13.74-3.47,4.37-7.06,8.42-10.73,12.03-3.69,3.65-7.08,6.5-10.04,8.47-.95.68-1.48,1.41-1.63,2.27l-.04.66s.4,1.58.45,1.67c.24.59.78,1.07,1.52,1.38.77.34,1.67.23,2.7-.34,3.94-2.01,8.44-5.05,13.36-9.06,4.49-3.64,9.04-8.02,13.47-13.03l.54-.61.58.57s20.67,20.31,20.72,20.37c.76.93,1.7,1.49,2.75,1.63l-.06.04c.52-.09,1.32-.16,2.87-.27,1.08-.26,2.04-.93,2.75-1.95.71-1.01,1.07-2.17,1.08-3.28l-.4-2.3c-.28-.94-.81-1.81-1.58-2.61Z"/>
      </g>
      <g>
        <path class="cls-1" d="m168.5,602.29c.79,0,1.43.23,1.9.68.48.46.72,1.15.72,2.06v17.33h20.64v-20.07h6.88v47.03h-6.88v-22.26h-20.64v22.26h-6.88v-41.1c0-1.33-.21-2.49-.62-3.5-.42-1-1.15-1.82-2.19-2.44h7.07Z"/>
        <path class="cls-1" d="m236.27,602.29v4.87h-16.89c-.71,0-1.29.02-1.75.06-.46.04-.82.15-1.07.31-.25.17-.43.42-.53.75-.11.34-.16.79-.16,1.38v12.7h18.39v4.69h-18.39v14.76c0,1.25.24,2.02.72,2.31.48.29,1.41.44,2.78.44h18.01v4.69h-28.33v-41.22c0-1.17-.19-2.25-.59-3.25-.39-1-1.14-1.83-2.22-2.49h30.02Z"/>
        <path class="cls-1" d="m255.31,606.55c0-.79-.12-1.55-.35-2.28-.23-.73-.76-1.38-1.59-1.97h5.94c1.12,0,1.98.26,2.56.78.59.52,1.11,1.28,1.56,2.28l16.7,43.91h-7.31c-.92-2.42-1.82-4.84-2.7-7.25-.87-2.42-1.77-4.86-2.68-7.32h-16.51l-5.44,14.64h-5.69c2.42-6.46,4.83-12.89,7.23-19.29,2.4-6.4,4.8-12.83,7.22-19.3.29-.79.54-1.58.76-2.35.21-.77.31-1.38.31-1.84Zm10.32,23.26c-1.08-2.96-2.15-5.9-3.22-8.81-1.06-2.92-2.14-5.88-3.23-8.88-1.08,3-2.15,5.97-3.19,8.88-1.04,2.92-2.1,5.85-3.19,8.81h12.82Z"/>
        <path class="cls-1" d="m289.87,602.29c.79,0,1.42.23,1.88.68.46.46.69,1.15.69,2.06v36.28c0,1.42.24,2.31.71,2.69.49.37,1.45.56,2.91.56h18.01v4.69h-28.58v-41.22c0-1.17-.19-2.25-.59-3.25-.39-1-1.13-1.83-2.22-2.49h7.19Z"/>
        <path class="cls-1" d="m328.65,649.26h-6.94v-41.03c0-1.33-.2-2.49-.6-3.5-.39-1-1.11-1.82-2.16-2.44h7.13c.79,0,1.42.23,1.88.68.46.46.69,1.15.69,2.06v44.22Z"/>
        <path class="cls-1" d="m345.45,649.26h-5.56v-41.03c0-1.33-.21-2.49-.63-3.5-.41-1-1.15-1.82-2.19-2.44h6.7c.83,0,1.68.25,2.53.75.85.5,1.55,1.16,2.09,2,3.54,5.76,7.09,11.49,10.64,17.2,3.54,5.72,7.1,11.47,10.69,17.26v-37.15h5.82v46.91h-7.76l-22.33-36.58v36.58Z"/>
        <path class="cls-1" d="m419.23,646.99c-.84.34-1.86.67-3.1,1-1.23.33-2.57.64-4,.91-1.44.27-2.94.5-4.5.68-1.57.18-3.06.28-4.47.28-3.75,0-6.93-.61-9.54-1.82-2.61-1.21-4.72-2.9-6.35-5.07-1.63-2.17-2.8-4.76-3.54-7.79-.73-3.02-1.09-6.35-1.09-9.97,0-3.38.38-6.5,1.16-9.35.77-2.85,1.97-5.33,3.59-7.41,1.63-2.08,3.71-3.71,6.26-4.88,2.54-1.16,5.59-1.75,9.13-1.75,2.67,0,4.97.29,6.88.87,1.91.59,3.5,1.39,4.75,2.41,1.25,1.02,2.22,2.22,2.91,3.59.68,1.38,1.14,2.84,1.34,4.38-.96-.04-1.92-.04-2.87,0-.96.04-1.92.06-2.87.06-.54,0-.98-.16-1.32-.5-.33-.33-.66-.75-.96-1.25-.31-.5-.66-1.05-1.03-1.65-.38-.61-.88-1.16-1.5-1.66-.62-.5-1.43-.91-2.4-1.25-.98-.33-2.21-.5-3.66-.5-1.96,0-3.68.52-5.16,1.56-1.48,1.04-2.71,2.44-3.69,4.19-.98,1.75-1.72,3.76-2.22,6.04-.5,2.27-.75,4.63-.75,7.1s.23,4.83.68,7.22c.46,2.4,1.24,4.55,2.35,6.44,1.11,1.9,2.58,3.44,4.44,4.63,1.85,1.18,4.19,1.78,7.03,1.78.59,0,1.23-.04,1.94-.12.71-.09,1.43-.21,2.15-.38.73-.16,1.41-.38,2.03-.62.63-.26,1.17-.53,1.63-.81v-12.26c0-1.04-.22-2.04-.66-3-.43-.95-1.16-1.86-2.15-2.69h7c.84,0,1.47.28,1.91.85.43.56.66,1.24.66,2.03v18.7Z"/>
        <path class="cls-1" d="m478.87,612.91c-.88.04-1.78.1-2.69.18-.91.09-1.81.12-2.69.12-.54,0-1.11-.15-1.69-.46-.59-.32-.98-.91-1.18-1.78-.17-.54-.43-1.1-.79-1.69-.36-.59-.85-1.11-1.5-1.56-.65-.46-1.45-.84-2.41-1.13s-2.1-.44-3.44-.44c-2.25,0-4.15.6-5.69,1.79-1.54,1.19-2.8,2.68-3.75,4.47-.96,1.8-1.66,3.73-2.1,5.82-.43,2.08-.66,4.02-.66,5.81,0,1.3.06,2.73.19,4.29.13,1.56.38,3.14.76,4.72.37,1.58.9,3.13,1.59,4.63.69,1.5,1.58,2.82,2.69,3.96,1.11,1.15,2.45,2.07,4.04,2.75,1.58.69,3.46,1.04,5.63,1.04s4.29-.39,6.63-1.16c2.34-.77,4.42-1.7,6.26-2.79.09.92.16,1.83.25,2.73.09.9.17,1.81.25,2.72-.95.42-2.08.81-3.37,1.16-1.3.35-2.64.66-4.04.93-1.4.27-2.8.48-4.22.63-1.41.14-2.71.22-3.87.22-3.42,0-6.39-.56-8.92-1.66-2.52-1.11-4.61-2.7-6.28-4.79-1.67-2.08-2.92-4.64-3.75-7.66-.83-3.02-1.25-6.47-1.25-10.35,0-3.21.35-6.24,1.06-9.1.71-2.86,1.85-5.37,3.44-7.51,1.58-2.15,3.65-3.84,6.19-5.09,2.54-1.26,5.65-1.88,9.32-1.88,2.71,0,5.01.28,6.88.84,1.88.56,3.44,1.34,4.69,2.35,1.26,1,2.23,2.18,2.91,3.53.69,1.36,1.2,2.8,1.53,4.35Z"/>
        <path class="cls-1" d="m493.46,649.26h-6.94v-41.03c0-1.33-.2-2.49-.6-3.5-.39-1-1.11-1.82-2.16-2.44h7.13c.79,0,1.42.23,1.88.68.47.46.69,1.15.69,2.06v44.22Z"/>
        <path class="cls-1" d="m522.49,607.17v42.09h-7.26v-42.09h-14.26v-4.87h36.03v4.87h-14.51Z"/>
        <path class="cls-1" d="m543.37,607.54c-.79-1.21-1.61-2.22-2.47-3.07-.85-.83-1.93-1.56-3.22-2.18h7.38c1.13,0,2.05.21,2.78.62.73.42,1.32,1.02,1.78,1.82l10.38,17.19,12.33-19.63h6.44l-16.2,25.58v21.38h-6.94v-21.38l-12.26-20.33Z"/>
        <path class="cls-1" d="m612.23,608.23c0-1.33-.2-2.49-.6-3.5-.39-1-1.11-1.82-2.15-2.44h7.07c.79,0,1.43.23,1.91.68.48.46.72,1.15.72,2.06v29.08c0,2.13-.17,4.15-.5,6.07-.33,1.92-.99,3.6-1.98,5.04-.98,1.43-2.35,2.57-4.12,3.41-1.77.83-4.08,1.25-6.91,1.25-1.83,0-3.39-.25-4.66-.75-1.28-.51-2.32-1.16-3.13-1.98-.81-.81-1.43-1.75-1.84-2.84-.42-1.08-.71-2.21-.88-3.38l6.82-.56c.04.54.13,1.12.28,1.72.14.61.38,1.17.72,1.69.33.52.78.95,1.34,1.28.56.34,1.31.5,2.23.5,1.08,0,1.99-.2,2.72-.59.73-.4,1.31-1.04,1.75-1.94.44-.9.76-2.08.94-3.54.19-1.45.29-3.26.29-5.43v-25.84Z"/>
        <path class="cls-1" d="m656.15,602.29v4.87h-16.88c-.71,0-1.3.02-1.76.06-.45.04-.81.15-1.06.31-.25.17-.43.42-.54.75-.1.34-.15.79-.15,1.38v12.7h18.38v4.69h-18.38v14.76c0,1.25.23,2.02.71,2.31.48.29,1.41.44,2.79.44h18.01v4.69h-28.33v-41.22c0-1.17-.2-2.25-.59-3.25-.4-1-1.14-1.83-2.22-2.49h30.02Z"/>
        <path class="cls-1" d="m697.64,612.91c-.88.04-1.77.1-2.69.18-.91.09-1.81.12-2.69.12-.54,0-1.11-.15-1.69-.46-.59-.32-.98-.91-1.18-1.78-.17-.54-.43-1.1-.78-1.69-.35-.59-.86-1.11-1.5-1.56-.65-.46-1.45-.84-2.41-1.13-.95-.29-2.1-.44-3.44-.44-2.25,0-4.15.6-5.69,1.79-1.54,1.19-2.8,2.68-3.75,4.47-.97,1.8-1.66,3.73-2.1,5.82-.44,2.08-.66,4.02-.66,5.81,0,1.3.06,2.73.19,4.29.12,1.56.37,3.14.75,4.72.37,1.58.91,3.13,1.59,4.63.69,1.5,1.59,2.82,2.69,3.96,1.11,1.15,2.46,2.07,4.04,2.75,1.58.69,3.46,1.04,5.63,1.04s4.29-.39,6.63-1.16c2.34-.77,4.42-1.7,6.26-2.79.09.92.17,1.83.25,2.73.09.9.17,1.81.25,2.72-.95.42-2.08.81-3.37,1.16-1.29.35-2.64.66-4.03.93-1.4.27-2.8.48-4.22.63-1.42.14-2.71.22-3.87.22-3.42,0-6.39-.56-8.92-1.66-2.52-1.11-4.62-2.7-6.28-4.79-1.67-2.08-2.92-4.64-3.75-7.66-.84-3.02-1.25-6.47-1.25-10.35,0-3.21.35-6.24,1.06-9.1.71-2.86,1.86-5.37,3.44-7.51,1.59-2.15,3.65-3.84,6.19-5.09,2.55-1.26,5.65-1.88,9.33-1.88,2.71,0,5,.28,6.88.84,1.87.56,3.43,1.34,4.69,2.35,1.25,1,2.22,2.18,2.9,3.53.69,1.36,1.2,2.8,1.54,4.35Z"/>
        <path class="cls-1" d="m708.69,602.29c.79,0,1.43.23,1.9.68.48.46.72,1.15.72,2.06v17.33h20.64v-20.07h6.88v47.03h-6.88v-22.26h-20.64v22.26h-6.88v-41.1c0-1.33-.21-2.49-.62-3.5-.42-1-1.15-1.82-2.19-2.44h7.07Z"/>
        <path class="cls-1" d="m776.46,602.29v4.87h-16.88c-.71,0-1.29.02-1.75.06-.46.04-.82.15-1.07.31-.25.17-.43.42-.53.75-.11.34-.16.79-.16,1.38v12.7h18.39v4.69h-18.39v14.76c0,1.25.24,2.02.72,2.31.48.29,1.41.44,2.78.44h18.01v4.69h-28.33v-41.22c0-1.17-.19-2.25-.59-3.25-.39-1-1.14-1.83-2.22-2.49h30.02Z"/>
        <path class="cls-1" d="m820.67,625.99c0,3.67-.38,6.98-1.13,9.94-.75,2.96-1.91,5.48-3.47,7.57-1.57,2.08-3.59,3.69-6.07,4.82-2.48,1.13-5.43,1.68-8.85,1.68s-6.43-.55-8.91-1.68c-2.48-1.13-4.52-2.73-6.1-4.79-1.58-2.06-2.74-4.57-3.47-7.54-.73-2.95-1.09-6.29-1.09-10s.34-7.06,1.04-10.05c.68-2.98,1.8-5.52,3.35-7.63,1.54-2.1,3.54-3.73,6-4.87,2.46-1.15,5.48-1.72,9.07-1.72s6.37.56,8.85,1.68c2.48,1.13,4.51,2.75,6.09,4.85,1.58,2.1,2.77,4.66,3.54,7.66.77,3.01,1.16,6.37,1.16,10.07Zm-7.26,0c0-2.25-.18-4.55-.54-6.88-.35-2.33-1-4.44-1.93-6.31-.94-1.88-2.21-3.42-3.79-4.63-1.58-1.21-3.62-1.82-6.13-1.82s-4.67.59-6.26,1.75c-1.58,1.17-2.82,2.69-3.69,4.57-.88,1.87-1.47,3.98-1.79,6.32-.31,2.33-.47,4.67-.47,7,0,2.17.16,4.39.5,6.69.33,2.29.96,4.38,1.87,6.25.92,1.88,2.18,3.41,3.79,4.6,1.6,1.19,3.66,1.78,6.16,1.78s4.62-.59,6.22-1.78c1.61-1.19,2.86-2.71,3.75-4.56.89-1.86,1.5-3.93,1.81-6.23.32-2.29.47-4.54.47-6.75Z"/>
        <path class="cls-1" d="m833.44,649.26h-5.56v-41.03c0-1.33-.21-2.49-.63-3.5-.42-1-1.15-1.82-2.19-2.44h6.69c.83,0,1.67.25,2.53.75.85.5,1.55,1.16,2.1,2,3.54,5.76,7.09,11.49,10.63,17.2,3.54,5.72,7.11,11.47,10.69,17.26v-37.15h5.81v46.91h-7.75l-22.33-36.58v36.58Z"/>
      </g>
    </g>
  </g>
</svg>