<?xml version="1.0" encoding="UTF-8"?>
<svg id="Layer_2" data-name="Layer 2" xmlns="http://www.w3.org/2000/svg" viewBox="0 0 623.11 650">
  <defs>
    <style>
      .cls-1 {
        fill: #003964;
      }

      .cls-2 {
        fill: #ed1a3b;
      }

      .cls-3 {
        fill: #575756;
      }
    </style>
  </defs>
  <g id="Layer_1-2" data-name="Layer 1">
    <g>
      <g>
        <path class="cls-1" d="m418.43,198.47c-36.13-24.55-82.39-14.54-106.67,22.39-20.29,30.83-50.9,34.67-62.76,34.67-38.64,0-65.08-27.17-72.92-55.3h-.02c-.07-.28-.14-.51-.2-.79-.08-.31-.18-.62-.25-.96-3.08-11.73-3.84-17.34-3.84-29.81,0-67.26,69.01-142.14,168.39-142.14s160.02,77.48,175.02,120.54c-.26-.76-.5-1.51-.77-2.29C485.54,60.56,405.68,0,311.65,0,193.31,0,97.34,95.94,97.34,214.31c0,105.79,76.31,196.37,182.16,196.37,84.42,0,141.15-47.34,167.18-112.57,14.29-35.67,4.17-77.61-28.24-99.64Z"/>
        <path class="cls-2" d="m516.52,151.24c-12.51-42-71.18-124.71-176.35-124.71-99.39,0-168.39,74.88-168.39,142.14,0,12.47.76,18.08,3.84,29.81-1.29-5.13-1.97-10.27-1.97-15.28,0-70.04,70.13-118.59,142.23-118.59,97.6,0,176.71,79.12,176.71,176.7,0,76.5-44.02,142.71-107.99,174.52l.02.05c82.46-29.86,141.34-108.82,141.34-201.57,0-21.95-2.95-41.3-9.43-63.07Z"/>
      </g>
      <g>
        <path class="cls-3" d="m72.36,576.13c0,4.79-.97,9.25-2.9,13.39-1.93,4.14-4.55,7.83-7.87,11.05-3.31,3.14-7.14,5.62-11.46,7.46-4.33,1.84-8.98,2.76-13.95,2.76s-9.64-.92-14.02-2.76c-4.37-1.84-8.17-4.32-11.38-7.46-3.32-3.22-5.94-6.9-7.87-11.05-1.93-4.14-2.9-8.6-2.9-13.39s.97-9.25,2.9-13.4c1.94-4.14,4.56-7.82,7.87-11.05,3.22-3.13,7.01-5.61,11.38-7.45,4.38-1.83,9.05-2.76,14.02-2.76s9.61.93,13.95,2.76c4.32,1.84,8.15,4.32,11.46,7.45,3.32,3.23,5.94,6.9,7.87,11.05,1.94,4.14,2.9,8.61,2.9,13.4Zm-15.05,0c0-2.85-.58-5.57-1.73-8.15-1.15-2.58-2.69-4.83-4.62-6.76-1.85-1.84-4.05-3.33-6.63-4.49-2.58-1.15-5.3-1.73-8.15-1.73s-5.57.57-8.15,1.73c-2.58,1.15-4.83,2.65-6.76,4.49-1.85,1.93-3.34,4.18-4.5,6.76-1.14,2.58-1.72,5.3-1.72,8.15s.57,5.57,1.72,8.15c1.16,2.58,2.65,4.83,4.5,6.76,1.94,1.84,4.19,3.33,6.76,4.49,2.58,1.15,5.29,1.73,8.15,1.73s5.57-.58,8.15-1.73c2.57-1.15,4.78-2.65,6.63-4.49,1.94-1.93,3.48-4.18,4.62-6.76,1.15-2.58,1.73-5.29,1.73-8.15Zm38.52-53.31h15.33v123.17h-15.33v-40.87h-19.19v-13.12h19.19v-31.76h-19.19v-13.12h19.19v-24.31Z"/>
        <path class="cls-3" d="m187.56,583.72l-24.86-37.14-25.13,38.11-12.43-8.15,37.56-55.23,37.01,53.86-12.15,8.56Zm38.52,36.04c0,4.14-.86,8.03-2.55,11.67-1.7,3.64-3.98,6.83-6.83,9.59-2.85,2.77-6.24,4.95-10.15,6.56-3.91,1.61-8.03,2.42-12.36,2.42s-8.61-.8-12.56-2.42c-3.96-1.61-7.37-3.79-10.22-6.56-2.85-2.76-5.14-5.95-6.83-9.59-1.7-3.64-2.55-7.53-2.55-11.67s.86-8.03,2.55-11.67c1.7-3.64,3.98-6.84,6.83-9.6,2.85-2.76,6.27-4.95,10.22-6.56,3.96-1.61,8.14-2.42,12.56-2.42s8.45.81,12.36,2.42c3.91,1.61,7.3,3.8,10.15,6.56,2.85,2.76,5.13,5.96,6.83,9.6,1.7,3.64,2.55,7.53,2.55,11.67Zm-15.05-.14c0-4.6-1.69-8.56-5.04-11.87-3.36-3.32-7.34-4.97-11.94-4.97s-8.7,1.65-12.01,4.97c-3.31,3.32-4.97,7.27-4.97,11.87s1.66,8.68,4.97,11.94c3.31,3.27,7.32,4.91,12.01,4.91s8.59-1.64,11.94-4.91c3.35-3.26,5.04-7.25,5.04-11.94Zm9.52-62.97h-24.99v-13.53h24.99v-20.3h15.33v63.11h-15.33v-29.28Z"/>
        <path class="cls-3" d="m312.45,629.84h-15.19v-85.62h-45.98v-13.81h61.17v99.42Zm40.74,16.15h-15.19v-123.17h15.19v47.78h17.67v15.33h-17.67v60.06Z"/>
        <path class="cls-3" d="m495.55,577.64v13.81h-113.23v-13.81h48.88v-17.53h15.33v17.53h49.02Zm-105.22-40.32v-12.7h97.08v12.7h-41.43l42.94,21.82-6.76,11.05-43.36-22.78-43.22,22.78-7.04-11.05,43.08-21.82h-41.29Zm-1.79,65.31h97.9v43.63h-15.33v-30.51h-82.57v-13.12Z"/>
        <path class="cls-3" d="m509.88,600.62h113.23v13.53h-49.02v31.76h-15.33v-31.76h-48.88v-13.53Zm24.17-60.21h64.76v-15.6h15.19v59.24h-95v-59.24h15.05v15.6Zm64.76,13.26h-64.76v16.99h64.76v-16.99Z"/>
      </g>
    </g>
  </g>
</svg>