<?xml version="1.0" encoding="UTF-8"?>
<svg id="Layer_2" data-name="Layer 2" xmlns="http://www.w3.org/2000/svg" viewBox="0 0 1014.35 389.85">
  <defs>
    <style>
      .cls-1 {
        fill: #d13245;
      }

      .cls-2 {
        fill: #58595b;
      }
    </style>
  </defs>
  <g id="Layer_1-2" data-name="Layer 1">
    <g>
      <g>
        <path class="cls-2" d="m22.63,353.97c0-4.9,1.03-9.33,3.05-13.33,2.02-3.99,4.67-7.47,7.99-10.41,3.32-2.96,7.14-5.36,11.42-7.18,4.3-1.86,8.77-3.13,13.45-3.89v-14.34H0v-14.93h136.04v14.93h-58.74v14.34c4.66.63,9.22,1.78,13.63,3.42,4.43,1.67,8.41,3.91,11.97,6.72,3.42,2.82,6.23,6.33,8.36,10.5,2.14,4.17,3.34,9.01,3.61,14.53,0,6.01-1.33,11.23-3.97,15.66-2.64,4.41-6.1,8.08-10.4,11.04-4.4,2.92-9.39,5.14-14.91,6.63-5.53,1.45-11.19,2.18-16.93,2.18s-11.02-.67-16.49-2.01c-5.46-1.36-10.34-3.5-14.63-6.46-4.3-2.91-7.83-6.67-10.58-11.23-2.76-4.54-4.21-9.94-4.33-16.18m-9.93-84.51c2.95-1.71,6.32-3.91,10.12-6.62,3.8-2.7,7.61-5.63,11.41-8.83,3.8-3.06,7.36-6.29,10.68-9.66,3.31-3.37,5.89-6.61,7.72-9.66H13.8v-14.36h109.18v14.36h-38.47l39.21,36.08-11.97,12.14-43.45-39.4c-5.38,6.5-10.85,12.2-16.37,17.13-5.52,4.91-10.51,9.04-14.92,12.34-4.54,3.3-8.22,5.83-11.03,7.54-2.83,1.71-4.3,2.66-4.43,2.77l-8.83-13.83Zm83.94,84.88c0-3.7-.8-6.82-2.38-9.48-1.6-2.64-3.69-4.8-6.26-6.55-2.72-1.58-5.74-2.77-9.12-3.59-3.39-.78-6.78-1.18-10.22-1.18-3.2,0-6.44.37-9.76,1.1-3.32.73-6.31,1.9-9.03,3.5-2.68,1.73-4.89,3.89-6.62,6.54-1.73,2.62-2.59,5.85-2.59,9.66,0,3.56.85,6.66,2.51,9.31,1.65,2.63,3.82,4.79,6.52,6.5,2.59,1.75,5.55,3.01,8.93,3.81,3.38.79,6.73,1.18,10.04,1.18s6.43-.37,9.74-1.1c3.33-.73,6.33-1.9,9.03-3.5,2.7-1.73,4.91-3.89,6.62-6.55,1.72-2.62,2.59-5.85,2.59-9.66"/>
        <path class="cls-2" d="m224.03,345.13h59.07v14.73h-136.02v-14.73h58.52v-41.44h18.43v41.44Zm-70.14-52.65c10.31-7.84,18.84-15.86,25.58-24.03,6.74-8.16,12.08-15.55,16.02-22.18,4.67-7.74,8.3-15.21,10.87-22.47h17.49l52.65,70.14-13.44,10.87c-8.46-10.94-15.55-20.18-21.27-27.81-5.71-7.61-10.34-13.85-13.88-18.77-4.17-5.77-7.56-10.44-10.16-13.99-5.13,9.2-10.71,17.5-16.74,24.86-6.01,7.35-11.58,13.68-16.75,18.95-6.03,6.16-12.03,11.6-18.04,16.4l-12.34-11.97Z"/>
        <path class="cls-2" d="m302.84,332.55c4.89-8.96,9.37-18.4,13.44-28.37,1.7-4.17,3.43-8.68,5.14-13.52,1.71-4.84,3.31-9.9,4.79-15.19,1.35-5.16,2.55-10.43,3.59-15.84,1.05-5.4,1.76-10.86,2.13-16.38h-54.68v-15.28h73.81c-.24,10.31-1.46,21.48-3.68,33.49-1.97,10.33-5.16,22.23-9.58,35.73-4.42,13.51-10.85,27.74-19.33,42.69l-15.64-7.35Zm76.95-115.43h18.4v157.4h-18.4v-157.4Z"/>
        <path class="cls-2" d="m531.47,217.33h18.4v89.26h-18.4v-39.57h-29.28c-.5,5.42-1.86,10.32-4.14,14.73-2.29,4.41-5.26,8.17-8.93,11.23-3.69,3.2-7.98,5.66-12.9,7.45-4.88,1.8-10.24,2.68-16.01,2.68s-11.2-.93-16.29-2.79c-5.1-1.82-9.52-4.51-13.34-8.1-3.92-3.43-7.03-7.67-9.28-12.68-2.28-5.04-3.42-10.74-3.42-17.14,0-5.87,1.08-11.27,3.24-16.18,2.14-4.94,5.12-9.16,8.92-12.72,3.67-3.57,8.09-6.31,13.24-8.27,5.17-1.97,10.79-2.93,16.94-2.93,9.81,0,18.45,2.61,25.86,7.82,7.42,5.22,12.37,12.42,14.84,21.63h30.55v-34.41Zm-95.37,45.45c0,3.45.54,6.72,1.67,9.86,1.1,3.13,2.68,5.87,4.78,8.19,1.95,2.35,4.44,4.21,7.45,5.62,3.01,1.42,6.41,2.11,10.21,2.11,3.59,0,6.82-.66,9.76-2.01,2.94-1.36,5.47-3.22,7.54-5.53,2.09-2.2,3.71-4.88,4.89-8.02,1.16-3.1,1.74-6.54,1.74-10.22,0-7.23-2.09-13.24-6.26-18.04-4.16-4.78-10.07-7.3-17.67-7.54-7.37,0-13.22,2.35-17.57,7.08-4.35,4.72-6.55,10.89-6.55,18.49m96.46,54.5h17.31v66.46h-94.8v-66.46h17.11v18.95h60.38v-18.95Zm0,33.68h-60.38v18.04h60.38v-18.04Z"/>
        <path class="cls-2" d="m598.76,353.97c0-4.9,1.04-9.33,3.05-13.33,2.04-3.99,4.69-7.47,8.01-10.41,3.32-2.96,7.13-5.36,11.43-7.18,4.28-1.86,8.77-3.13,13.43-3.89v-14.34h-58.53v-14.93h136.03v14.93h-58.74v14.34c4.67.63,9.22,1.78,13.63,3.42,4.43,1.67,8.4,3.91,11.96,6.72,3.43,2.82,6.23,6.33,8.38,10.5,2.14,4.17,3.34,9.01,3.59,14.53,0,6.01-1.33,11.23-3.98,15.66-2.61,4.41-6.09,8.08-10.41,11.04-4.39,2.92-9.38,5.14-14.9,6.63-5.52,1.45-11.17,2.18-16.92,2.18s-11.02-.67-16.48-2.01c-5.47-1.36-10.35-3.5-14.63-6.46-4.3-2.91-7.82-6.67-10.58-11.23-2.77-4.54-4.22-9.94-4.35-16.18m-9.94-84.51c2.95-1.71,6.33-3.91,10.13-6.62,3.81-2.7,7.61-5.63,11.41-8.83,3.82-3.06,7.38-6.29,10.7-9.66,3.29-3.37,5.9-6.61,7.72-9.66h-38.83v-14.36h109.14v14.36h-38.46l39.19,36.08-11.96,12.14-43.42-39.4c-5.41,6.5-10.87,12.2-16.39,17.13-5.53,4.91-10.52,9.04-14.92,12.34-4.55,3.3-8.23,5.83-11.07,7.54-2.81,1.71-4.27,2.66-4.39,2.77l-8.85-13.83Zm83.95,84.88c0-3.7-.8-6.82-2.39-9.48-1.6-2.64-3.67-4.8-6.26-6.55-2.69-1.58-5.74-2.77-9.1-3.59-3.38-.78-6.79-1.18-10.22-1.18-3.19,0-6.44.37-9.77,1.1-3.3.73-6.31,1.9-9,3.5-2.71,1.73-4.92,3.89-6.65,6.54-1.7,2.62-2.56,5.85-2.56,9.66,0,3.56.83,6.66,2.49,9.31,1.67,2.63,3.83,4.79,6.54,6.5,2.56,1.75,5.55,3.01,8.93,3.81,3.37.79,6.72,1.18,10.03,1.18s6.43-.37,9.76-1.1c3.3-.73,6.31-1.9,9.01-3.5,2.7-1.73,4.9-3.89,6.63-6.55,1.73-2.62,2.57-5.85,2.57-9.66"/>
        <path class="cls-2" d="m764.76,303.16c-5.78,0-11.2-.93-16.29-2.75-5.1-1.86-9.53-4.56-13.35-8.1-3.94-3.46-7.02-7.67-9.29-12.7-2.27-5.06-3.42-10.74-3.42-17.13,0-5.88,1.05-11.32,3.13-16.29,2.1-5,5.06-9.23,8.84-12.79,3.82-3.58,8.3-6.33,13.45-8.29,5.14-1.94,10.78-2.94,16.92-2.94,5.77,0,11.19.98,16.3,2.83,5.09,1.92,9.6,4.6,13.54,8.02,3.8,3.59,6.8,7.87,9.02,12.9,2.21,5.03,3.3,10.69,3.3,16.93,0,5.9-1.05,11.3-3.15,16.2-2.08,4.9-4.94,9.14-8.63,12.68-3.81,3.7-8.29,6.53-13.44,8.47-5.16,1.99-10.8,2.96-16.95,2.96m-24.11-40.49c0,3.43.56,6.7,1.66,9.85,1.1,3.11,2.69,5.86,4.79,8.17,1.95,2.35,4.43,4.21,7.44,5.62,3.02,1.42,6.41,2.14,10.21,2.14,3.56,0,6.82-.69,9.76-2.06,2.93-1.34,5.47-3.17,7.55-5.5,2.09-2.2,3.71-4.88,4.88-7.99,1.18-3.14,1.75-6.55,1.75-10.22,0-7.24-2.08-13.24-6.25-17.96-4.19-4.73-10.07-7.28-17.69-7.65-7.37,0-13.22,2.36-17.57,7.09-4.37,4.73-6.54,10.89-6.54,18.51m107.86,89.46c0,6.13-1.29,11.53-3.85,16.21-2.58,4.64-6.03,8.57-10.32,11.77-4.4,3.05-9.38,5.4-14.91,7-5.52,1.58-11.23,2.4-17.11,2.4-5.53,0-11.06-.74-16.57-2.23-5.51-1.46-10.5-3.73-14.9-6.8-4.43-3.2-8-7.11-10.69-11.8-2.68-4.65-4.04-10.24-4.04-16.74s1.32-11.67,3.94-16.29c2.65-4.6,6.19-8.42,10.58-11.49,4.31-3.07,9.21-5.38,14.73-6.91,5.52-1.54,11.24-2.35,17.14-2.48,5.5,0,10.97.73,16.46,2.2,5.44,1.47,10.39,3.74,14.82,6.8,4.28,3.1,7.82,7,10.6,11.72,2.73,4.73,4.11,10.26,4.11,16.66m-46.19,23c3.54,0,6.97-.45,10.21-1.38,3.25-.9,6.17-2.31,8.74-4.15,2.59-1.94,4.62-4.37,6.18-7.25,1.54-2.9,2.41-6.29,2.67-10.22-.27-3.81-1.14-7.13-2.67-9.94-1.55-2.83-3.52-5.23-5.98-7.2-2.57-1.83-5.53-3.24-8.84-4.23-3.3-.97-6.79-1.51-10.48-1.64-3.31,0-6.65.46-9.95,1.38-3.3.9-6.24,2.35-8.85,4.32-2.67,1.97-4.85,4.38-6.42,7.25-1.59,2.9-2.4,6.24-2.4,10.05s.77,7.14,2.31,10.02c1.51,2.9,3.59,5.32,6.16,7.28,2.57,1.84,5.5,3.24,8.83,4.25,3.32.95,6.81,1.45,10.5,1.45m45.64-117.43h24.48v15.28h-24.48v35.9h-18.02v-91.69h18.02v40.51Z"/>
        <path class="cls-2" d="m973.86,277.06c0,4.79-.77,9.18-2.29,13.15-1.54,4-3.65,7.52-6.36,10.59-2.81,3.07-6.14,5.62-9.93,7.62-3.8,2.06-7.93,3.48-12.33,4.35v21.91h45.28v15.47h-106.03v-15.47h42.34v-21.54c-9.2-1.36-16.83-5.01-22.85-11.04-6-6.03-9.13-14.43-9.38-25.23,0-5.9,1.05-11.04,3.12-15.47,2.1-4.41,5.11-8.58,9.03-12.49h-21v-14.19h40.14v-19.87h18.6v19.87h40.12v14.35h-20.42c2.06,1.12,3.89,2.85,5.42,5.16,1.53,2.35,2.78,4.77,3.77,7.37.98,2.7,1.67,5.43,2.13,8.19.43,2.77.62,5.21.62,7.28m-63.88,0c.37,6.5,2.63,11.86,6.75,16.1,4.08,4.23,9.59,6.34,16.46,6.34,6.5,0,11.97-2.01,16.38-6.07,4.43-4.04,6.62-9.57,6.62-16.57s-1.99-12.38-6.05-16.94c-4.05-4.54-9.7-6.81-16.94-6.81s-12.81,2.19-16.74,6.53c-3.94,4.36-6.1,10.18-6.47,17.41m104.38,97.19h-18.4v-157.21h18.4v157.21Z"/>
      </g>
      <path class="cls-1" d="m254.65,80.94v-.47c16.95-4.23,27.78-15.34,27.78-36.25,0-29.89-26.14-39.05-55.06-39.05h-56v63.79h-34.43v26.05h34.43v66.88h55.29c35.78,0,62.13-11.53,62.13-43.33,0-22.57-15.79-34.8-34.13-37.61m-45.88-47.04h14.34c14.63,0,22.14,5.16,22.14,16.91s-7.05,17.87-23.05,17.87h-13.43v-34.78Zm16.01,99.26h-16.01v-37.87h17.4c16.48,0,24.25,6.12,24.25,19.28s-9.41,18.59-25.64,18.59m91.77,28.73h38.36V5.16h-38.36v156.73ZM141.8,16.8L113.99,0l-58.42,70.81V5.16H17.44v156.73h38.13v-72.02l49.19,72.02h44.46l-58.11-84.48,50.69-60.6Zm282.84,114.26l67.73-101.9V5.16h-110.81v30.83h64.68l-67.29,101.41,18.32,24.49h97v-30.83h-69.63Z"/>
    </g>
  </g>
</svg>