<?xml version="1.0" encoding="UTF-8"?>
<svg id="Layer_2" data-name="Layer 2" xmlns="http://www.w3.org/2000/svg" viewBox="0 0 1039.87 450">
  <defs>
    <style>
      .cls-1 {
        fill: none;
      }

      .cls-2 {
        fill: #f8aa9e;
      }

      .cls-3 {
        fill: #007dc5;
      }

      .cls-4 {
        fill: #ffe293;
      }

      .cls-5 {
        fill: #ef405b;
      }

      .cls-6 {
        fill: #fdb913;
      }

      .cls-7 {
        fill: #72bf44;
      }

      .cls-8 {
        fill: #9283be;
      }

      .cls-9 {
        fill: #66676d;
      }

      .cls-10 {
        fill: #b7da9b;
      }

      .cls-11 {
        fill: #b0acd5;
      }

      .cls-12 {
        fill: #53b7e8;
      }
    </style>
  </defs>
  <g id="Layer_1-2" data-name="Layer 1">
    <g>
      <g>
        <polygon class="cls-9" points="457.71 301.63 452.29 291.16 447.51 291.16 455.5 305.94 449.87 316.64 454.58 316.64 467.45 291.16 462.79 291.16 457.71 301.63"/>
        <path class="cls-9" d="m481.48,306.16c-2.62,0-4.4-1.9-4.61-4.88h12.74v-1.11c0-5.77-3.26-9.48-8.37-9.48s-8.69,3.76-8.69,9.73c0,5.65,3.56,9.51,8.76,9.51,3.77,0,6.32-1.61,8.46-5.32l-3.47-1.99c-1.65,2.73-2.75,3.54-4.83,3.54Zm-.24-11.67c2.11,0,3.6,1.22,4.14,3.37h-8.27c.52-2.08,2.13-3.37,4.13-3.37Z"/>
        <path class="cls-9" d="m562.62,293.25c-1.44-1.66-3.39-2.57-5.59-2.57-4.83,0-8.34,4.12-8.34,9.76s3.51,9.48,8.29,9.48c2.25,0,3.95-.78,5.64-2.58v2.53c0,3.82-1.48,5.68-4.53,5.68-1.67,0-3.26-.83-3.99-2.12-.42-.74-.55-1.42-.67-3h-4.03c.06,5.45,3.34,8.85,8.63,8.85,3.05,0,5.67-1.24,7.17-3.49,1.18-1.73,1.52-3.33,1.52-6.88v-17.76h-4.11v2.08Zm-4.79,12.91c-3,0-4.96-2.3-4.96-5.82s1.96-5.9,4.9-5.9,5.02,2.39,5.02,5.8-1.99,5.92-4.96,5.92Z"/>
        <path class="cls-9" d="m591.46,298.46h7.03c-.37,4.05-4.19,7.34-8.43,7.34-5.59,0-10.24-4.91-10.24-10.78s4.59-10.96,10.46-10.96c3.51,0,6.11,1.44,8.56,4.76l3.06-2.98c-3.52-4.1-6.99-5.89-11.5-5.89-8.36,0-14.88,6.62-14.88,15.07s6.49,14.89,14.4,14.89c4.26,0,8.28-2.03,10.73-5.46,1.73-2.4,2.51-4.99,2.51-8.76v-1.34h-11.7v4.1Z"/>
        <path class="cls-9" d="m429.78,298.46h7.02c-.37,4.05-4.18,7.34-8.43,7.34-5.59,0-10.24-4.91-10.24-10.78s4.59-10.96,10.46-10.96c3.51,0,6.11,1.44,8.55,4.76l3.06-2.98c-3.52-4.1-6.99-5.89-11.5-5.89-8.34,0-14.87,6.62-14.87,15.07s6.48,14.89,14.4,14.89c4.26,0,8.27-2.03,10.72-5.46,1.74-2.4,2.51-4.99,2.51-8.76v-1.34h-11.69v4.1Z"/>
        <path class="cls-9" d="m639.51,294.89c0,8.46,6.46,15.03,14.73,15.03,2.6,0,5.07-.7,7.56-2.16v-5.25c-2.7,2.36-4.87,3.29-7.49,3.29-5.97,0-10.51-4.66-10.51-10.78s4.57-10.96,10.33-10.96c2.83,0,5.01.92,7.67,3.17v-5.15c-2.62-1.55-4.57-2.13-7.56-2.13-7.98,0-14.73,6.85-14.73,14.93Z"/>
        <rect class="cls-9" x="791.13" y="279.16" width="4.11" height="30.2"/>
        <rect class="cls-9" x="693.95" y="279.16" width="4.11" height="30.2"/>
        <polygon class="cls-9" points="974.17 283.88 970.06 283.88 970.06 291.16 967.94 291.16 967.94 295.08 970.06 295.08 970.06 309.36 974.17 309.36 974.17 295.08 977.75 295.08 977.75 291.16 974.17 291.16 974.17 283.88"/>
        <polygon class="cls-9" points="712.2 283.88 708.09 283.88 708.09 291.16 705.98 291.16 705.98 295.08 708.09 295.08 708.09 309.36 712.2 309.36 712.2 295.08 715.79 295.08 715.79 291.16 712.2 291.16 712.2 283.88"/>
        <path class="cls-9" d="m751.11,292.81v-1.64h-4.13v18.2h4.13v-9.43c0-3.59,1.06-5.22,3.34-5.22.85,0,1.37.2,2.29.9l1.89-3.85c-1.39-.87-2.15-1.13-3.42-1.13-1.61,0-2.58.53-4.1,2.17Z"/>
        <polygon class="cls-9" points="819.59 309.36 823.87 309.36 823.87 295.56 833.36 295.56 833.36 291.45 823.87 291.45 823.87 284.35 833.69 284.35 833.69 280.24 819.59 280.24 819.59 309.36"/>
        <path class="cls-9" d="m877.79,301.63c0,3.11-1.1,4.53-3.51,4.53s-3.46-1.42-3.46-4.53v-10.46h-4.13v10.55c0,2.86.52,4.41,1.87,5.91,1.43,1.52,3.38,2.3,5.72,2.3s4.32-.78,5.76-2.3c1.35-1.5,1.87-3.05,1.87-5.91v-10.55h-4.11v10.46Z"/>
        <path class="cls-9" d="m733.73,301.63c0,3.11-1.11,4.53-3.52,4.53s-3.47-1.42-3.47-4.53v-10.46h-4.13v10.55c0,2.86.52,4.41,1.87,5.91,1.43,1.52,3.39,2.3,5.72,2.3s4.31-.78,5.75-2.3c1.34-1.5,1.87-3.05,1.87-5.91v-10.55h-4.11v10.46Z"/>
        <path class="cls-9" d="m680.66,301.63c0,3.11-1.1,4.53-3.51,4.53s-3.47-1.42-3.47-4.53v-10.46h-4.12v10.55c0,2.86.51,4.41,1.85,5.91,1.44,1.52,3.4,2.3,5.73,2.3s4.32-.78,5.76-2.3c1.35-1.5,1.87-3.05,1.87-5.91v-10.55h-4.11v10.46Z"/>
        <path class="cls-9" d="m929.24,293.28c-1.74-1.85-3.36-2.6-5.55-2.6-4.79,0-8.41,4.07-8.41,9.48s3.54,9.76,8.47,9.76c2.14,0,3.75-.75,5.5-2.46v1.9h4.11v-30.2h-4.11v14.12Zm-4.84,12.88c-2.88,0-4.96-2.46-4.96-5.88s2.08-5.83,4.96-5.83,5.1,2.39,5.1,5.83-2.09,5.88-5.1,5.88Z"/>
        <path class="cls-9" d="m955.7,293.28c-1.8-1.85-3.31-2.6-5.55-2.6-4.79,0-8.43,4.07-8.43,9.48,0,5.69,3.56,9.76,8.51,9.76,2.16,0,3.56-.65,5.47-2.46v1.9h4.09v-18.2h-4.09v2.11Zm-4.84,12.88c-2.87,0-4.94-2.46-4.94-5.88s2.12-5.83,4.94-5.83c3.01,0,5.09,2.43,5.09,5.83s-2.08,5.88-5.09,5.88Z"/>
        <path class="cls-9" d="m777.58,293.28c-1.79-1.85-3.31-2.6-5.55-2.6-4.79,0-8.43,4.07-8.43,9.48,0,5.69,3.55,9.76,8.5,9.76,2.16,0,3.56-.65,5.47-2.46v1.9h4.1v-18.2h-4.1v2.11Zm-4.84,12.88c-2.87,0-4.94-2.46-4.94-5.88s2.11-5.83,4.94-5.83c3.02,0,5.1,2.43,5.1,5.83s-2.08,5.88-5.1,5.88Z"/>
        <path class="cls-9" d="m987.19,281.15c-1.53,0-2.71,1.22-2.71,2.74s1.22,2.75,2.66,2.75,2.71-1.23,2.71-2.75-1.17-2.74-2.66-2.74Z"/>
        <rect class="cls-9" x="985.12" y="291.16" width="4.09" height="18.2"/>
        <path class="cls-9" d="m614.04,281.15c-1.53,0-2.71,1.22-2.71,2.74s1.22,2.75,2.65,2.75,2.72-1.23,2.72-2.75-1.18-2.74-2.66-2.74Z"/>
        <rect class="cls-9" x="611.97" y="291.16" width="4.1" height="18.2"/>
        <path class="cls-9" d="m1006.76,290.68c-5.38,0-9.53,4.21-9.53,9.66s4.2,9.58,9.53,9.58,9.49-4.23,9.49-9.58-4.15-9.66-9.49-9.66Zm-.03,15.48c-3.19,0-5.29-2.35-5.29-5.82s2.11-5.9,5.29-5.9,5.32,2.33,5.32,5.9-2.1,5.82-5.32,5.82Z"/>
        <path class="cls-9" d="m848.93,290.68c-5.38,0-9.53,4.21-9.53,9.66s4.2,9.58,9.53,9.58,9.49-4.23,9.49-9.58-4.14-9.66-9.49-9.66Zm-.02,15.48c-3.2,0-5.3-2.35-5.3-5.82s2.11-5.9,5.3-5.9,5.31,2.33,5.31,5.9-2.1,5.82-5.31,5.82Z"/>
        <path class="cls-9" d="m507.2,290.68c-5.39,0-9.53,4.21-9.53,9.66s4.2,9.58,9.53,9.58,9.49-4.23,9.49-9.58-4.15-9.66-9.49-9.66Zm-.03,15.48c-3.19,0-5.3-2.35-5.3-5.82s2.11-5.9,5.3-5.9,5.32,2.33,5.32,5.9-2.1,5.82-5.32,5.82Z"/>
        <path class="cls-9" d="m1033.43,290.68c-1.95,0-3.18.55-4.8,2.16v-1.68h-4.09v18.2h4.09v-8.77c0-4.49,1.03-6.15,3.77-6.15,2.57,0,3.36,1.17,3.36,4.75v10.17h4.1v-11.16c0-5.11-2.08-7.52-6.44-7.52Z"/>
        <path class="cls-9" d="m533.87,290.68c-1.95,0-3.18.55-4.8,2.16v-1.68h-4.1v18.2h4.1v-8.77c0-4.49,1.03-6.15,3.77-6.15,2.56,0,3.36,1.17,3.36,4.75v10.17h4.11v-11.16c0-5.11-2.08-7.52-6.44-7.52Z"/>
        <path class="cls-9" d="m900.23,290.68c-1.94,0-3.18.55-4.79,2.16v-1.68h-4.1v18.2h4.1v-8.77c0-4.49,1.02-6.15,3.77-6.15,2.56,0,3.36,1.17,3.36,4.75v10.17h4.1v-11.16c0-5.11-2.07-7.52-6.44-7.52Z"/>
      </g>
      <rect class="cls-6" width="207.97" height="207.97"/>
      <rect class="cls-8" x="415.95" width="207.97" height="207.97"/>
      <rect class="cls-3" x="623.92" width="207.97" height="207.97"/>
      <rect class="cls-7" x="831.89" width="207.98" height="207.97"/>
      <g>
        <path class="cls-10" d="m967.34,18.29s-3.53,29.64-32.31,33.61c-28.81,3.98-31.85,28.3-33.89,51.3-2.62,29.12-5.15,50.25-18.18,66.47,0,0,5.19,9.36,12.93-1.5,0,0,18.04-33.59,30.27-46.14,0,0-1.43-9.76-38.21,44.8-.28.41-.42.62-.42.62.14-.21.28-.42.42-.62,2.62-3.99,16.84-27.13,21.07-65.31,0,0,1.05-35.79,28.1-45.23,27.05-9.44,31.81-19.21,36.17-38.61,0,0-6.37-11.61,1.07-17.68h-7.68c-1.78,3.24-3.38,9.25.65,18.29Z"/>
        <path class="cls-10" d="m930.16,86.13c3.42-5.71,8.82-16.1,18.34-17.64,0,0,1.98-.02,1.7-1.83-.32-2.01-2.56-5.12-6.99-3.77,0,0-15.21,3.46-19.3,19.7-.28,1.09-.6,2.59.04,3.37,0,0,2.76,5.9,6.21.18Z"/>
        <path class="cls-10" d="m977.96,78.85c-3.29-.69-3.33,2.68-3.33,2.68,0,0,3.44,21.83-25.29,40.37,0,0-2.34,1.6-.97,3.65,1.64,2.46,4.58,1.07,7.42-.7,2.83-1.76,21.71-15.52,23.84-40.41,0,0,.43-5.14-1.66-5.59Z"/>
        <path class="cls-10" d="m1011.3,33.51c-1.05-10.1-9.93-18.68-13.45-20.37-5.27-2.55-5.52-2.91-7.48,0-2.05,3.11,3.66,6.14,3.66,6.14,10.5,4.48,11.49,17.91,11.49,17.91l-11.2,19.53c-7.72,11.03-6.94,24.64-6.94,24.64,0,0,6.26,50.56-54.45,64.72,0,0-17.15,6.37-29.42,22.69l41.72-62.17h.01l.02-.03c.24-.36,2.62-3.63,10.99-8.37,0,0,14.65-10.72,4.13-18.75-10.52-8.03-15.49,2.63-17.5,9.88-2,7.26,3.47,3.96,3.47,3.96-2.32-7.56,4.39-15.27,9.98-9.73,4.94,4.94-.26,9.27-1.51,10.19-.05.04-5.61,3.61-12.2,11.5-7.61,7.62-22.04,25.46-47.37,67.17l1.23,7.73s14.39-19.54,32.06-26.7c17.02-6.9,66.78-3.45,66.84-71.84.91-24.28,12.42-29.75,15.44-41.56,3.85,1.64,12.95,1.29,29.05-21.96v-9.29c-4.69,6.64-22.2,30.43-28.57,24.74Z"/>
        <path class="cls-10" d="m967.56,60.05s4.15,6.77,10.61-4.29c6.44-11.03,18.3-23.2,18.3-23.2,0,0,.89-4.07-2.25-1.6-3.14,2.45-15.57,17.16-18.01,21.41-2.42,4.28-5.33,6.75-5.21,3.94.09-2.82,5.92-10.55,5.92-10.55,0,0,1.21-6.6-2.99-2.39-4.21,4.22-10.1,13.48-6.36,16.66Z"/>
        <path class="cls-10" d="m831.89,173.63v13.45c6.87-6.37,24.84-24.71,67.48,15.39,2.21,2.07,4.62,3.91,7.21,5.5h16.62c-4.73-2.31-9.34-5.16-13.76-8.66-44.73-35.44-72.06-27.8-77.55-25.68Z"/>
        <path class="cls-10" d="m1039.87,132.04v-19.04c-.44,4.56-1.79,14.57-5.96,26.85-20.97,55.29-66.02,41.89-66.02,41.89,16.07,15.62,13.51,22.88,8.25,26.25h14.56c6.08-1.18,30.06-10,49.17-75.94Z"/>
        <path class="cls-10" d="m889.86,30.89c17.82-23.41,53.88,9.14,53.88,9.14,2.96,2.74,6.13,3.32,8.04-.05.99-1.75-1.3-4.27-1.3-4.27-47.74-36.25-63.03-10.59-63.03-10.59-14.26,24.32-54.66,56.06-55.55,56.76v6.74c33.44-17.8,57.97-57.73,57.97-57.73Z"/>
        <path class="cls-10" d="m1002.72,66.23s-1.85-1.44-2.97,1.58c-1.1,3.03,1.25,4.94,1.25,4.94,0,0,21.94,17.79,38.88,20.69v-3.55l-.48.06c-20.12-6.28-36.67-23.72-36.67-23.72Z"/>
      </g>
      <g>
        <path class="cls-4" d="m41.85,43.06c7.48,1.78,15.25-9.72,4.34-24.07-10.93-14.35-22.28,10.79-22.28,10.79-1.78,9.4,10.48,11.48,17.95,13.28Z"/>
        <path class="cls-4" d="m7.21,77.76s.69,23.89,8.26,3.79c5.22-13.89-7.28-18.89-15.47-20.64v8.87c7.67,1.58,7.21,7.98,7.21,7.98Z"/>
        <path class="cls-4" d="m110.25,188.17c5.7-21.23,19.64-34.59,35.28-42.99.11,5.11,2.57,36.37,45.09,62.8h17.35v-7.97c-11.39-4.35-56.57-23.74-56.5-57.76,9.88-4.46,20.09-7.16,29.06-8.79,2.36,5.21,3.85,10.85,4.03,16.9,0,0,.66,11.93,5.61,15.77,0,0,10.98-14.85,4.82-34.6,7.89-.67,12.98-.5,12.98-.5v-11.41c-6.44-.05-12.48.23-18.15.81-6.18-9.89-17.2-20.44-35.92-30.67-2.16-2.07-5.82-5.23-5.82-5.23-5.84-3.45-9.95-4.63-9.95-4.63l-.34-.9-10.58-7.17c-3.08-8.94-9.98-25.06-22.27-35.26l-.51-1.3-3.19-2.99-5.85-1.75c-2.86-1.29-5.77-2.03-5.77-2.03-1.03-.38-.44-.59-.44-.59l-.81-.88s0-.74-3.56-2.62l-3.57-2.58c-3.8-6.12-6.64-10.35-6.64-10.35-.52-1.44-1.19-2.86-1.19-2.86-1.25-1.35-2.71-2.79-2.71-2.79-1.01-1.33-2.54-3.47-2.54-3.47-.61-.81-1.22-1.6-1.83-2.38h-10.05c9.14,11.96,24.4,35.43,15.58,48.93C61.22,65.24,39,103.01,0,95.15v7.68c8.62,2,26.21,3.95,45.69-6.11,4.32-2.23,8.4-4.73,12.21-7.37,0,0,5.34-3.6,9.71-7.45l1-1.02,1.9-1.5s5.46-4.98,8.72-8.58l1.4-2.21,1.73-1.95,1.74-1.43s5.97-7.3,7.22-11c1.92-5.77,27.32,8.29,21.58,32.77v-.04s-3.49,7.46-4.65,14.38c-.75,2.1-1.55,4.29-2.38,6.58l-.08.21s-2.73,2.45-3.18,3.73c-.62,1.76.15,1.45-2.35,7.67l-2.98,14.67c-6.86,24.95-9.88,53.28,6.8,73.79h27.47c-5.56-2.85-15.6-9.16-21.33-19.81Zm4.94-46.65l2.18-5.25.65-3.35s.2-1.62,2.93-4.53c2.82-2.99,3.55-3.02,4.23-4.16l2.96-5.92c.01-.15.15-1.64.78-3.13.8-1.91,1.46-2.77,1.46-2.77l.45-.82.39-1.28.72-1.65.76-2.72s-.19-1.59.72-3.09c.44-.74.36-1.35.25-1.62-.12-.29-.09-2.06,0-2.53.14-.76.16-5.25.17-6.57-.28-.44-.5-.59-.5-.59,0,0,25.94,11.27,40.91,31.4-43.56,9.78-60.11,39.14-66.39,59.78-3.52-10.3-2.89-23.84,7.33-41.2Z"/>
      </g>
      <rect class="cls-5" x="207.97" width="207.97" height="207.97"/>
      <g>
        <path class="cls-2" d="m349.2,179.49c.07.14,4.63,6.71,8.28,12.15,0,0,5.36,8.66,7.14,16.34h13.03c-3.18-5.32-7.95-11.55-14.64-18.82-2.53-2.74-16.29-14.08-13.81-9.67Z"/>
        <path class="cls-2" d="m395.52,82.36c-10.47.95-23.56,5.52-31.92,9.63-17.21,8.48-32.75,24.01-43.73,43.75-2.05,3.67-3.95,7.71-5.7,11.97l-.2.64-.6,1.62s-14.83-1.13-21.6-2.57c-6.68-1.39-13.32-3.03-20.23-2.92-13.31.08-24.85,4.47-32.5,12.32-7.24,7.5-13.72,18.6-10.02,27.33,2.05,4.89,6.83,7.4,11.94,9.72,13.2,5.98,30.94,4.44,42.2-3.66,4.34-3.07,7.43-7.3,10.64-11.73l1.21-1.67.93-1.11c4.6-5.59,4.56-7.11,4.15-7.52-.42-.41-1.89-.18-6.3,3.27l-1.09.83c-9.69,6.98-21.97,12.58-33.93,12.67-4.43.01-11.93-1.01-14.96-4.4-1.47-1.64-2.15-6.03-1.76-8.81.97-6.43,9.01-13.29,15.92-15.68,17.46-6.03,25.85-2.06,52.6,2.08l-1.94,6.77c-1.78,6.89-3.31,14.09-4.58,21.98-.48,3.03-.74,6.13-.75,9.16-.02,4.08.39,8.08,1.22,11.93h13.39c-1.35-2.37-2.5-4.84-3.36-7.39-1.49-4.45-2.21-9.15-2.21-14.37.03-5.46.9-11.51,2.75-18.98l3.74-8.79,12.1,2.55c58.83,12.64,75.66-3.35,84.99-14.04v-62.95c-7.06-1.67-14.67-2.16-20.43-1.64Zm15.43,27.85c-2.55,8.27-15.33,45.69-61.52,42.19l-17.52-.96-10.08-1.26,1.33-1.94c8.93-38.63,51.43-51.26,70.22-53.18,12.56-1.27,12.99,4.11,16.4,8.33,1.53,1.93,1.92,4.31,1.16,6.81Z"/>
        <path class="cls-2" d="m328.69,73.34c-5.59-42.81-27.6-32.91-28.44-30.16-.2.64-.29.85.14,1.1,18.63,11.07,25.26,47.7,22.39,66.33.16,5.77,8.96-14,5.9-37.27Z"/>
        <path class="cls-2" d="m337.53,95.18s-2,3.51,2.17-.43c10.24-9.71,37.55-32.91,76.25-33.89v-14.52s-45.85.88-78.42,48.85Z"/>
        <path class="cls-2" d="m319.53.81c-6.11,12.44-1.24,31.75,13.13,46.07,1.43,1.42,3.08,2.65,4.88,3.69.11.06.23.11.23.11.23.07.88.37.88.37.7.44,1.95,1.02,2.45,1.25.16.06.32.12.48.19,1.02.3,2.7.22,2.7.22,1.27.25,2.49.31,2.49.31,1.08-.01,1.95-.17,1.95-.17.72.33,1.42.46,1.42.46,1.17.22,4.65.55,4.65.55.54.06,3.13-.04,3.13-.04.2,0,1.14-.14,1.14-.14,1.84-.33,6.99-1.62,6.99-1.62,7.11-2.32,9.68-4.36,9.99-4.63,4.32-3.89,7.04-9.33,6.88-16.34-.59-25.08-42.25-24.09-41.81-5.6.38,16.05,12.66,14.01,21.21,11.31,8.2-2.57,11.16-15.32-1.59-16.83-12.75-1.52-9.94,9.63-9.49,8.32.46-1.31,4.96-11.53,12.01-3.2,6.25,7.38-7.46,12.97-14.59,8.9-5.54-3.17-6.54-10.96,1.72-16.05,8.26-5.09,31.69,3.65,24.67,20.27-7.05,16.63-34.98,15.76-48.08-4.24-10.79-16.48-5.52-29.81-3.34-33.98h-3.32l-.74.81Z"/>
        <path class="cls-2" d="m295.84,141.54l2.91,1.24,2.28,1.08c1.88.97,7.39,3.76,9.23,3.27h.01s-.01,0-.01,0c.14-.04.26-.1.36-.17l.03-.06c.32-.36.46-.86.41-1.54-.07-1.4-.38-1.22-1.65-3.12l-1.55-1.08.92-2.23c.95-2.37,1.58-5.18,1.9-6.71l.06-.22c1.49-6.81,2.02-14.11,1.58-21.66-.59-10.11-2.98-20.78-6.88-30.87-7.48-19.25-25.25-35.92-43.32-34.05-2.15.71-4.94,1.5-4.94,1.5-1.33.41-3.19.69-3.31.71-.02,0-.03.01-.05.03-.04.02-.08.04-.12.06-.1.04-.19.09-.28.13-1.36.68-2.78,1.59-2.78,1.59-2.69,2.49-7.2,11.55-7.2,11.55-2.33,5-2.83,8.54-2.94,9.84-.56,9.79,1.78,19.84,3.37,24.96,7.38,23.86,30.63,35.11,51.97,45.76Zm-32.67-81.77c.46-.5,5.63-4.76,10.34-1.54,4.13,2.82,7.13,2.48,9.37,4.89,38.48,41.39,21.64,76.61,21.64,76.61,0,0-81.77-37.2-41.34-79.96Z"/>
      </g>
      <g>
        <path class="cls-11" d="m594.2,157.01c16.62-22.27,23.4-51.52,9.8-67.18-16.36-18.85-35.99-24.09-52.24-18.93-5.82-9.85-10.18-19.09-13.45-27.54,7.99-10.52,14.94-22.63,18.61-43.36h-16.24c-.84,5.82-2.94,14.52-7.95,26.09-2.83-11.03-3.7-19.92-3.86-26.09h-13.25c.17,8.8,1.96,23.1,9.45,41.61-2.48,4.49-5.33,9.27-8.6,14.35-27.75,42.97-47.89,94.86,6,124.87,23.15,12.89,47.18,2.85,64.38-15.13,2.38,19.66-.24,34.94-2.01,42.27h14.64c.27-8.52.09-27.69-5.28-50.96Zm-47.84,8.45c-24.28,1.96-58.61-21.92-39.75-72.96,6.74-18.27,15.37-29.06,23.71-39.19,3.35,6.8,7.45,14.06,12.45,21.72-7.33,4.51-13.5,11.45-17.69,20.41-11.77,25.18.97,57.92,33.9,51.83,0,0,13.89-3.29,3.26-15.11,0,0-3.74-3.51-10.65,2.21-12.23,10.11-31.14-19.94-11.78-43.51,2.7-3.29,5.51-5.89,8.37-7.89,2.34,3.28,4.83,6.63,7.49,10.03,14.27,18.22,22.54,36.14,27.1,52.34-10.23,11.04-23.95,19.12-36.41,20.11Zm17.55-76.11c-2.61-3.58-5.02-7.09-7.25-10.54,20.5-6.23,40.92,13.71,41.77,30.61.48,9.54-3.35,19.58-9.62,28.49-5.34-15.8-13.23-32.54-24.9-48.56Z"/>
        <path class="cls-11" d="m456.91,174.07c-2.38-3.36-7.05-8.3-8.94-12.98-3.26-8.05-6.96-16.3-.5-19.92,6.39-3.55,12.38,5.89,12.38,5.89,0,0-8.4,4.2-1.22,10.69,7.19,6.46,23.79-2.11,10.22-16.84-14.6-15.87-55.86-11.47-26.88,33.81l26.22,33.27h26.61c-10.15-4.07-23.13-13.53-37.89-33.91Z"/>
      </g>
      <g>
        <path class="cls-12" d="m799.81,127.04c1.78,0,5.87.52,5.87.52l11.22,2.33-1.98-1.19-2.49-1.5s-5.31-2.11-8.54-2.69c-1.97-.36-6.28-1.35-11.22-1.35s-9.88-1.73-9.88,4.94v1.35c0,.91-17.63,33.42-17.63,33.42l14.85,1.22,4.55-15.82-.41-13.03s.45-3.11,2.69-4.45c2.25-1.35,2.7-1.8,5.39-3.15,2.7-1.35,5.79-.59,7.59-.59Z"/>
        <path class="cls-12" d="m820.95,146.05l-1.34-2.25s-.9-2.25-1.78-3.58c-.93-1.36-3.16-3.6-3.16-3.6,0,0-2.7-2.69-4.49-3.59-1.79-.9-1.79-.45-3.14-1.35-1.36-.89-5.84,0-7.65,0s-5.36,1.35-5.36,1.35l-4.5,2.25s2.24,4.04,3.14,5.37c.91,1.36,3.59,3.6,3.59,3.6l1.81.9c1.79.9,7.17,2.24,9.43,2.24h4.03c2.25,0,0,0,6.73.45,6.73.45,2.69-1.79,2.69-1.79Z"/>
        <path class="cls-12" d="m751.69,125.84c1.41,1.19,5.48,3.22,7.06,3.61l1.61.39s2.85.05,4.1-.32c1.29-.37,4.84-1.69,4.84-1.69,5.41-14.83-14.41-21.13-14.41-21.13,8.22,4.24,10.75,9.86,10.77,14.26-.2-.24-.4-.45-.58-.62-1.13-.95-3.42-3.88-4.74-4.05-1.31-.15-1.07-.43-2.67-.83-1.59-.39-4.7-.15-4.7-.15,0,0-2.58.19-3.86.57-1.28.36-3.02,1.27-3.02,1.27l-2.02.69s-3.7-.75.7,2.54c4.42,3.3,3.04,2.12,4.42,3.3,1.41,1.2,1.13.95,2.51,2.15Z"/>
        <path class="cls-12" d="m781.1,181.56c-3.24-2.89-2.6-2.14-4.55-4.19-1.57-1.65-6.72-2.95-7.8-3.3-1.09-.36-3.74-1.88-13.85-4.76-10.08-2.89-8.96-1.66-8.96-1.66,0,0,.71,3.61,2.15,5.77,1.45,2.16.73,1.8,2.16,3.95,1.44,2.17,1.44,1.81,7.93,5.05,6.49,3.24,5.77,1.44,9.01,1.79,3.24.37,2.52,0,7.57-.35,5.03-.36,2.87,0,3.95,0h4.68s.96.57-2.29-2.3Z"/>
        <path class="cls-12" d="m686.24,89.87l-7.25-.4-8.11,1.6-9.13,5.4-3.98-.1.35,5.41s13.6-4.68,13.16-3.59c-.43,1.09-2.61,4.25-2.61,4.25,0,0,2.29,5.91,3.36,6.72,1.05.8,5.46.04,6.58-.2,1.14-.25,5.25-1.97,5.25-1.97l1.11-5.41-5.22.56-7.33,1.41-.25-5.84,4.53-1.53,4.51-1.48,4.18-.2,6.35-2.77-2.11-2.57-3.39.71Z"/>
        <path class="cls-12" d="m793.05,207.97h17.44c7.56-5.35,14.82-12.28,21.4-20.96v-23.86c-11.15,24.39-23.06,38.04-38.84,44.82Z"/>
        <path class="cls-12" d="m623.92,192.17c57.73,27.83,88.92-16.14,96.96-38.34-.84,21.2.89,41.64,9.08,54.14h11.01c-28.59-19.16-10.32-88.45-5.86-109.68,5.1-24.38,14.85-24.96,18.23-25.56,2.34-.48,6.41.21,9.18.84l.3.08s7.01,1.4,18.04,4.84c6.09,1.64,12.25,3.22,17.79,4.3,11.21,2.19,27.08,9.85,33.23,17.33v-21.01c-6.96-2.89-13.85-4.8-17.56-5.04-5.32-.33-16.93-2.67-31.2-6.26-5.02-1.49-9.91-2.82-14.57-3.84-20.65-5.69-29,.49-29,.49-6.04,3.08-10.01,9.16-11,19.65-.75,7.84-2.59,19.55-4.31,32.87-8.41,5.77-13,19.41-13,19.41,0,0-10.17,31.06-47.18,19.61-20.36-6.3-29.62-24.8-29.97-35.24,12.44,11.11,35.41,16.54,63.08,5.57,20.93-8.31,17.51-57.74,13.28-87.81,6.67-16.71,23.73-7.02,23.73-7.02,62.55,34.01,87.05-31.52,87.05-31.52h-15.57c-19.22,48.73-54.75,35.12-69.63,27.28-19.73-10.41-26.83,1.31-26.83,1.31l-.13.81c-.57-3.49-1.1-6.48-1.55-8.8-5.43-28.52-47.85-14.8-78.92.06-1.7.81-3.27,1.62-4.7,2.43v10.61c6.17-12.42,63.22-18.64,63.22-18.64,0,0,13.83-2.18,18.51,17.69,4.22,17.87,7.47,78.62-16.8,86.97-8.95,3.11-44.53,13.91-64.94-37.63v52.15c40.88,59.28,82.41,21.58,90.7,6.5,4.52-8.22,6.66-8.24,7.67-6.7-.21,2.1-.4,4.21-.57,6.33-42.37,85.83-97.8,33.13-97.8,33.13v18.67Z"/>
        <path class="cls-12" d="m633.17,65.42c1.03.38,5.44.61,5.44.61l7.42-.89,8.47-3.19,6.38-10.01-1.55,8.69-.1,4.94.99,7.5s.04,5.55-.02,6.66c-.08,1.11.33,3.02.33,3.02l5.31.76s.99,0,2.85.44l1.19.06.78-.03s1.24-.64,2.41-2.35l.81-1.06c.8-1.06,1.29-2.67,1.29-2.67l-3.74-1.87-1.43-5.29s-1.73-3.4-2.08-5.94c-.17-1.1-4.95-15.52-4.95-15.52l2.21-.11,3.85,3.47s4.13,1.12,5.14,1.85l1.67.37,2.2.73,1.1.07c1.1.07,2.58.16,3.69.23,1.11.07,4.45-.09,4.45-.09,0,0,3.44-1.64,6.44-2.19,3.01-.56,4.03-3.75,4.03-3.75,0,0,1.01-.84,1.08-3.22,0-.79.35-4.1.35-4.1,0,0-4.35-1.07-7.13-.9,0,0-8.82.43-12.85,1.03,0,0-6.63,1.41-10.19,2.7-1.87.62-4.18,2.67-4.18,2.67l-4.57,1.06-4.08-.58-2.21.37s-11.06,2.44-14.58,3.61c-3.31,1.1-5.44,2.2-5.44,2.2l-2.76,1.55-3.87,3.76s3.78,4.62,5.86,5.39Z"/>
      </g>
      <g>
        <polygon class="cls-9" points="74.35 389.95 91.51 389.95 91.51 332.76 74.35 332.76 74.35 339.62 58.77 339.62 58.77 354.78 74.35 354.78 74.35 364.5 58.77 364.5 58.77 379.66 74.35 379.66 74.35 389.95"/>
        <polygon class="cls-9" points="106.09 348.66 137.26 348.66 137.26 388.8 154.42 388.8 154.42 333.22 106.09 333.22 106.09 348.66"/>
        <rect class="cls-9" x="177.3" y="332.76" width="17.15" height="57.19"/>
        <polygon class="cls-9" points="48.33 388.8 48.33 333.22 0 333.22 0 348.66 31.17 348.66 31.17 388.8 48.33 388.8"/>
        <polygon class="cls-9" points="622.83 397.38 606.25 397.38 606.25 441.42 658.86 441.42 658.86 425.98 622.83 425.98 622.83 397.38"/>
        <polygon class="cls-9" points="247.36 397.38 230.78 397.38 230.78 441.42 286.96 441.42 286.96 425.98 247.36 425.98 247.36 397.38"/>
        <polygon class="cls-9" points="211.61 372.79 251.65 372.79 251.65 393.39 268.81 393.39 268.81 372.79 303.12 372.79 303.12 357.18 211.61 357.18 211.61 372.79"/>
        <path class="cls-9" d="m285.39,293.58h-56.05v49.47h56.05v-49.47Zm-16.59,34.17h-22.88v-18.87h22.88v18.87Z"/>
        <polygon class="cls-9" points="414.65 332.76 397.49 332.76 397.49 389.95 414.65 389.95 414.65 367.07 431.81 367.07 431.81 351.92 414.65 351.92 414.65 332.76"/>
        <polygon class="cls-9" points="657.71 351.92 657.71 332.76 640.55 332.76 640.55 389.95 657.71 389.95 657.71 367.07 674.87 367.07 674.87 351.92 657.71 351.92"/>
        <polygon class="cls-9" points="538.75 351.55 526.17 351.55 526.17 332.76 510.16 332.76 510.16 389.95 526.17 389.95 526.17 367.11 538.75 367.11 538.75 389.95 554.77 389.95 554.77 332.76 538.75 332.76 538.75 351.55"/>
        <polygon class="cls-9" points="497.58 349.06 497.58 333.9 446.1 333.9 446.1 349.06 461.32 349.06 441.97 381.21 456.36 389.95 471.84 362.54 487.32 389.95 501.71 381.21 482.37 349.06 497.58 349.06"/>
        <polygon class="cls-9" points="626.83 371.65 594.8 371.65 594.8 349.34 625.68 349.34 625.68 333.9 577.65 333.9 577.65 387.09 626.83 387.09 626.83 371.65"/>
        <path class="cls-9" d="m363.17,347.52c9.99-3.36,17.16-12.41,17.16-23.05,0-4.69-1.39-8.86-3.8-12.29h10.09v-15.16h-23.45v-12.86h-17.16v12.86h-23.44v15.16h10.08c-2.41,3.44-3.8,7.61-3.8,12.29,0,10.64,7.17,19.7,17.16,23.05v9.66h-24.88v15.61h66.92v-15.61h-24.88v-9.66Zm-8.58-32.63c5.37,0,9.72,4.29,9.72,9.58s-4.36,9.58-9.72,9.58-9.72-4.29-9.72-9.58,4.35-9.58,9.72-9.58Z"/>
        <path class="cls-9" d="m65.49,395.67c-15.32,0-27.74,12.16-27.74,27.16s12.42,27.16,27.74,27.16,27.74-12.16,27.74-27.16-12.42-27.16-27.74-27.16Zm0,39.17c-6.32,0-11.44-5.38-11.44-12.01s5.12-12.01,11.44-12.01,11.44,5.38,11.44,12.01-5.12,12.01-11.44,12.01Z"/>
      </g>
      <rect class="cls-1" x="0" width="1039.87" height="449.93"/>
    </g>
  </g>
</svg>