<?xml version="1.0" encoding="UTF-8"?>
<svg xmlns="http://www.w3.org/2000/svg" viewBox="0 0 506 622.79">
  <defs>
    <style>
      .cls-1 {
        fill: none;
        isolation: isolate;
      }

      .cls-2 {
        fill: #58595b;
      }

      .cls-3 {
        fill: #7ac143;
      }

      .cls-3, .cls-4, .cls-5, .cls-6, .cls-7, .cls-8, .cls-9 {
        mix-blend-mode: multiply;
      }

      .cls-4 {
        fill: #56a0d3;
      }

      .cls-5 {
        fill: #c77eb5;
      }

      .cls-6 {
        fill: #7e81be;
      }

      .cls-7 {
        fill: #ffc425;
      }

      .cls-8 {
        fill: #f06477;
      }

      .cls-9 {
        fill: #f68a33;
      }
    </style>
  </defs>
  <g class="cls-1">
    <g id="Layer_2" data-name="Layer 2">
      <g id="Layer_1-2" data-name="Layer 1">
        <g>
          <g>
            <polygon class="cls-5" points="31.61 284.62 284.61 31.64 252.99 0 0 253.01 31.61 284.62"/>
            <rect class="cls-8" x="184.79" y="341.33" width="357.78" height="44.71" transform="translate(-150.65 363.66) rotate(-45)"/>
            <polygon class="cls-9" points="417.45 164.47 205.56 458.56 237.19 490.18 449.07 196.08 417.45 164.47"/>
            <polygon class="cls-7" points="360.52 107.54 189.75 442.76 221.37 474.36 392.14 139.16 360.52 107.54"/>
            <polygon class="cls-6" points="88.54 341.54 300.43 47.44 268.81 15.82 56.92 309.92 88.54 341.54"/>
            <polygon class="cls-4" points="145.47 398.46 316.23 63.26 284.63 31.64 113.85 366.85 145.47 398.46"/>
            <polygon class="cls-3" points="300.43 47.45 173.94 426.94 205.56 458.56 332.05 79.07 300.43 47.45"/>
          </g>
          <g>
            <path class="cls-2" d="m491.66,583.49v-14.75h-6.67v29.27h6.67v-7.85h6.95v-6.67h-6.95Zm-12.96,5.41h-21.63v-14.71h17.5v-5.51h-24.18v25.72h28.3v-5.51Zm6.29,12.78c-1.13-1.13-2.44-2.01-3.92-2.65-1.51-.66-3.12-.98-4.83-.98s-3.34.33-4.84.98c-1.5.64-2.81,1.52-3.92,2.65-1.13,1.13-2.01,2.43-2.64,3.93-.65,1.51-.97,3.11-.97,4.8s.32,3.31.97,4.8c.63,1.51,1.51,2.82,2.64,3.94,1.11,1.13,2.43,2.01,3.92,2.66,1.5.66,3.12.97,4.84.97s3.32-.31,4.83-.97c1.48-.65,2.8-1.53,3.92-2.66,1.11-1.12,1.99-2.43,2.64-3.94.65-1.5.96-3.1.96-4.8s-.31-3.3-.96-4.8c-.65-1.5-1.53-2.8-2.64-3.93Zm-2.69,11.42c-.36.86-.82,1.59-1.42,2.2-.59.61-1.3,1.1-2.1,1.46-.8.37-1.65.54-2.55.54s-1.75-.17-2.57-.54c-.79-.36-1.5-.85-2.1-1.46-.6-.61-1.07-1.34-1.41-2.2-.34-.84-.51-1.74-.51-2.69s.17-1.84.51-2.69c.34-.85.8-1.58,1.41-2.19.6-.61,1.31-1.1,2.1-1.46.82-.36,1.67-.55,2.57-.55s1.75.19,2.55.55c.8.36,1.51.85,2.1,1.46.6.62,1.07,1.34,1.42,2.19.34.85.51,1.75.51,2.69s-.17,1.85-.51,2.69Z"/>
            <path class="cls-2" d="m414.96,603.49h-6.98v18.29h32.67v-5.5h-25.69v-12.79Zm19.7-34.76v14.75h-6.95v6.67h6.95v7.85h6.67v-29.27h-6.67Zm-22.38,16.37s1.19,2.43,2.15,3.71c.93,1.28,1.99,2.53,3.15,3.74,1.16,1.23,2.35,2.33,3.58,3.34,1.24,1,2.38,1.74,3.4,2.21l2.95-4.12c-1.51-1.07-2.94-2.26-4.31-3.6-1.38-1.33-2.6-2.8-3.66-4.38-1.05-1.61-1.9-3.32-2.53-5.17-.62-1.85-.94-3.83-.94-5.95v-.55h9.36v-5.51h-26.26v5.51h9.36v.55c0,2.12-.32,4.1-.96,5.95-.62,1.85-1.47,3.56-2.53,5.17-1.05,1.58-2.27,3.05-3.66,4.38-1.36,1.34-2.8,2.53-4.29,3.6l2.95,4.12c1.02-.47,2.15-1.21,3.38-2.21,1.24-1,2.44-2.11,3.6-3.34,1.14-1.21,2.21-2.46,3.15-3.74.94-1.28,2.12-3.71,2.12-3.71Z"/>
            <path class="cls-2" d="m296.21,587.32c1.67-.72,3.29-1.58,4.87-2.55,1.58-.99,3.03-2.07,4.36-3.27,1.34-1.2,2.39-2.45,3.17-3.73.79,1.28,1.85,2.53,3.18,3.73,1.33,1.2,2.78,2.28,4.36,3.27,1.58.97,3.2,1.83,4.87,2.55,1.67.7,3.23,1.22,4.68,1.58l1.71-4.76c-1.48-.48-3.1-1.21-4.84-2.17-1.73-.95-3.32-2.08-4.8-3.39-1.47-1.29-2.72-2.7-3.71-4.22-1-1.5-1.53-3.07-1.58-4.68v-.94h-7.74v.94c-.05,1.61-.57,3.18-1.58,4.68-.99,1.51-2.24,2.93-3.71,4.22-1.48,1.31-3.07,2.44-4.8,3.39-1.73.97-3.34,1.69-4.84,2.17l1.71,4.76c1.44-.36,3.01-.88,4.68-1.58Zm36.81,10.58v-5.27h-48.89v5.27h20.75v3.03h-13.73v5.27h28.32v2.72h-28.36v12.87h35.08v-5.27h-28.42v-2.72h28.36v-12.87h-13.78v-3.03h20.68Z"/>
            <path class="cls-2" d="m79.67,603.49h-6.97v18.29h32.67v-5.5h-25.69v-12.79Zm25.74-19.91v-14.85h-6.66v36.55h6.66v-15.04h6.96v-6.67h-6.96Zm-27.91,1.53s1.2,2.43,2.15,3.71c.94,1.28,1.99,2.53,3.15,3.74,1.16,1.23,2.36,2.33,3.6,3.34,1.23,1,2.36,1.74,3.38,2.21l2.95-4.12c-1.49-1.07-2.92-2.26-4.3-3.6-1.38-1.33-2.6-2.8-3.66-4.38-1.06-1.61-1.9-3.32-2.54-5.17-.62-1.85-.94-3.83-.94-5.95v-6.23h-7.55v6.23c0,2.12-.31,4.1-.94,5.95-.63,1.85-1.47,3.56-2.53,5.17-1.07,1.58-2.29,3.05-3.66,4.38-1.38,1.34-2.81,2.53-4.29,3.6l2.94,4.12c1.02-.47,2.15-1.21,3.39-2.21,1.23-1,2.43-2.11,3.59-3.34,1.17-1.21,2.21-2.46,3.16-3.74.95-1.28,2.11-3.71,2.11-3.71Z"/>
            <path class="cls-2" d="m49.74,583.58v-14.85h-6.67v36.55h6.67v-15.04h6.96v-6.67h-6.96Zm-25.75,19.91h-6.98v18.29h32.73v-5.5h-25.75v-12.79Zm3.71-6.52c1.78-.71,3.35-1.73,4.67-3.03,1.31-1.3,2.36-2.85,3.14-4.63.77-1.79,1.17-3.77,1.17-5.92s-.39-4.12-1.17-5.92c-.78-1.79-1.83-3.34-3.14-4.64-1.32-1.29-2.89-2.3-4.67-3.01-1.79-.72-3.68-1.07-5.68-1.07s-3.94.36-5.7,1.07c-1.77.71-3.32,1.72-4.64,3.01-1.31,1.31-2.36,2.85-3.14,4.64-.78,1.8-1.15,3.76-1.15,5.92s.37,4.13,1.15,5.92c.78,1.78,1.83,3.34,3.14,4.63,1.32,1.3,2.87,2.32,4.64,3.03,1.76.7,3.67,1.07,5.7,1.07s3.89-.37,5.68-1.07Zm-11.36-7.27c-.73-.8-1.31-1.71-1.74-2.77-.43-1.07-.64-2.24-.64-3.55s.21-2.43.64-3.5c.43-1.09,1.01-2.02,1.74-2.81.75-.79,1.59-1.41,2.57-1.84.98-.42,2.02-.64,3.12-.64s2.14.22,3.12.64c.97.43,1.83,1.05,2.56,1.84.73.79,1.31,1.72,1.75,2.81.42,1.07.63,2.24.63,3.5s-.21,2.48-.63,3.55c-.44,1.06-1.02,1.97-1.75,2.77-.73.79-1.59,1.4-2.56,1.83-.98.42-2.02.64-3.12.64s-2.14-.22-3.12-.64c-.97-.43-1.82-1.04-2.57-1.83Z"/>
            <path class="cls-2" d="m118.17,595.17v5.5h21.33v9.66h7.53v-9.66h20.11v-5.5h-48.97Zm13.97,10.98h-6.98v15.63h35.02v-5.5h-28.04v-10.13Zm27.54-37.48h-33.9v21.56h33.9v-21.56Zm-6.67,16.05h-20.55v-10.54h20.55v10.54Z"/>
            <path class="cls-2" d="m216.46,583.55v-14.81h-6.68v37.46h-16.28v-4.9c.49-.16.99-.31,1.47-.51,1.5-.65,2.81-1.54,3.92-2.66,1.11-1.12,2-2.43,2.64-3.94.65-1.49.97-3.1.97-4.81s-.32-3.29-.97-4.8c-.64-1.48-1.53-2.8-2.64-3.92-1.08-1.1-2.36-1.96-3.81-2.6h10.17v-5.19h-11.45v-4.12h-7.83v4.12h-11.37v5.19h10.58c-1.45.64-2.73,1.5-3.81,2.6-1.12,1.13-2,2.44-2.65,3.92-.65,1.51-.97,3.11-.97,4.8s.32,3.32.97,4.81c.65,1.51,1.53,2.82,2.65,3.94,1.12,1.13,2.43,2.02,3.92,2.66.36.14.7.26,1.06.39v5.02h-13.85v5.51h37.27v10.08h6.68v-31.56h6.96v-6.67h-6.96Zm-26.33,12.72c-.89,0-1.75-.18-2.55-.55-.81-.36-1.51-.84-2.1-1.45-.59-.62-1.07-1.34-1.41-2.19-.34-.85-.52-1.75-.52-2.7s.18-1.82.52-2.68c.35-.85.82-1.58,1.41-2.2.59-.6,1.29-1.09,2.1-1.45.8-.36,1.66-.55,2.55-.55s1.75.19,2.55.55c.81.36,1.51.85,2.11,1.45.59.62,1.07,1.35,1.41,2.2.34.86.52,1.75.52,2.68s-.18,1.85-.52,2.7c-.34.85-.82,1.58-1.41,2.19-.59.61-1.3,1.1-2.11,1.45-.79.37-1.65.55-2.55.55Z"/>
            <g>
              <path class="cls-2" d="m260.81,568.78v12.42h-5.47c-.45-.63-.93-1.23-1.47-1.78-1.28-1.29-2.78-2.3-4.5-3.04-1.73-.74-3.57-1.11-5.53-1.11s-3.8.37-5.53,1.11c-1.71.74-3.21,1.75-4.49,3.04-1.27,1.28-2.29,2.79-3.04,4.5-.73,1.71-1.1,3.54-1.1,5.5s.38,3.78,1.1,5.49c.75,1.72,1.76,3.22,3.04,4.5,1.27,1.3,2.77,2.32,4.49,3.06,1.73.74,3.57,1.11,5.53,1.11s3.8-.37,5.53-1.11c1.71-.74,3.21-1.76,4.5-3.06.45-.44.85-.94,1.24-1.45h5.7v23.74h6.35v-52.92h-6.35Zm-9.44,23.98c-.43,1.04-1.02,1.95-1.75,2.72-.74.75-1.62,1.37-2.61,1.82-1,.44-2.05.66-3.17.66s-2.18-.22-3.17-.66c-.99-.45-1.85-1.07-2.61-1.82-.73-.76-1.31-1.68-1.75-2.72-.42-1.05-.63-2.16-.63-3.34s.22-2.29.63-3.34c.43-1.04,1.02-1.95,1.75-2.71.76-.76,1.62-1.38,2.61-1.82.99-.44,2.05-.67,3.17-.67s2.16.23,3.17.67c.99.45,1.87,1.07,2.61,1.82.73.76,1.31,1.67,1.75,2.71.42,1.05.63,2.16.63,3.34s-.22,2.29-.63,3.34Zm9.44-.51h-3.07c.17-.91.26-1.85.26-2.83,0-.89-.08-1.75-.23-2.59h3.04v5.41Z"/>
              <rect class="cls-2" x="270.49" y="568.74" width="6.36" height="53.05"/>
            </g>
            <path class="cls-2" d="m379.77,568.74v36.23h-38.43v5.5h38.43v11.32h6.67v-53.05h-6.67Zm-30.52,24.78c1.27,1.28,2.77,2.3,4.49,3.04,1.71.74,3.55,1.11,5.52,1.11s3.8-.37,5.53-1.11c1.71-.74,3.21-1.76,4.5-3.04,1.27-1.28,2.29-2.78,3.01-4.5.74-1.71,1.11-3.55,1.11-5.5s-.37-3.78-1.11-5.49c-.73-1.72-1.75-3.23-3.01-4.51-1.28-1.28-2.78-2.3-4.5-3.04-1.73-.73-3.57-1.1-5.53-1.1s-3.8.37-5.52,1.1c-1.73.74-3.23,1.76-4.49,3.04-1.28,1.28-2.3,2.79-3.04,4.51-.73,1.71-1.1,3.54-1.1,5.49s.37,3.79,1.1,5.5c.74,1.72,1.76,3.22,3.04,4.5Zm2.49-13.33c.43-1.05,1.02-1.96,1.76-2.72.73-.76,1.61-1.37,2.6-1.82,1-.45,2.07-.66,3.17-.66s2.16.22,3.17.66c1,.46,1.87,1.06,2.6,1.82.76.76,1.33,1.67,1.75,2.72.45,1.05.65,2.16.65,3.33s-.2,2.28-.65,3.34c-.42,1.05-.99,1.97-1.75,2.71-.73.77-1.59,1.37-2.6,1.82-1,.45-2.05.67-3.17.67s-2.16-.22-3.17-.67c-.99-.46-1.87-1.05-2.6-1.82-.74-.74-1.33-1.66-1.76-2.71-.42-1.06-.63-2.16-.63-3.34s.22-2.28.63-3.33Z"/>
          </g>
        </g>
      </g>
    </g>
  </g>
</svg>