<?xml version="1.0" encoding="UTF-8"?>
<svg id="Layer_2" data-name="Layer 2" xmlns="http://www.w3.org/2000/svg" viewBox="0 0 706.93 600">
  <defs>
    <style>
      .cls-1 {
        fill: none;
      }

      .cls-2 {
        fill: #f8a770;
      }

      .cls-3 {
        fill: #ec1a3b;
      }

      .cls-4 {
        fill: #fff;
      }

      .cls-5 {
        fill: #ffdaaa;
      }

      .cls-6 {
        fill: #5b74b7;
      }
    </style>
  </defs>
  <g id="Layer_1-2" data-name="Layer 1">
    <g>
      <g>
        <path class="cls-6" d="m195.13,542.28c-18.11,0-32.83,12.95-32.83,28.84s14.71,28.89,32.83,28.89,32.83-12.96,32.83-28.89-14.73-28.84-32.83-28.84Zm.04,49.65c-11.38,0-20.59-9.32-20.59-20.81s9.21-20.82,20.59-20.82,20.51,9.35,20.51,20.82-9.19,20.81-20.51,20.81Z"/>
        <path class="cls-6" d="m284.5,471.2c-16.72,0-30.29,13.01-30.29,29s13.56,29.06,30.29,29.06,30.33-13.03,30.33-29.06-13.6-29-30.33-29Zm.02,50.43c-10.48,0-19-9.6-19-21.43s8.52-21.41,19-21.41,18.96,9.6,18.96,21.41-8.5,21.43-18.96,21.43Z"/>
        <path class="cls-6" d="m83.94,473.14v19.34h-45v-19.34h-11.47v36.63c0,5.62,0,20.54,26.5,20.54h14.91c26.52,0,26.52-14.92,26.52-20.54v-36.63h-11.47Zm0,42.56c0,1.86-.69,6.16-6.91,6.16h-31.19c-6.23,0-6.89-4.29-6.89-6.16v-14.74h45v14.74Z"/>
        <path class="cls-6" d="m335.89,471.05v124.12h11.47v-88.56c0-2.4,1.43-4.78,6.87-4.78h20.88v-8.49h-13c-7.03,0-11.87,1.19-14.75,3.19v-25.48h-11.47Z"/>
        <path class="cls-6" d="m218.25,471.05v8.16c0,1.83-1.73,4.26-6.91,4.26h-17.43v8.47h6.97c10.2,0,13.64-1.13,17.37-3.16v16.84c0,1.86-1.73,4.26-6.91,4.26h-17.43v8.46h6.97c10.2,0,13.64-1.12,17.37-3.15v23.07h11.44v-67.21h-11.44Z"/>
        <path class="cls-6" d="m1.79,547.3v8.48h53.92v39.93h11.49v-39.93h53.92v-8.48H1.79Z"/>
        <path class="cls-6" d="m413.59,518.98c-6.23,0-6.91-4.31-6.91-6.19v-11.48c2.94,1.93,7.68,3.06,14.57,3.06h34.84v-8.47h-42.7c-4.55,0-6.25-1.67-6.71-3.61v-10.46h53.16v-8.69h-64.6v33.77c0,5.61,0,20.56,26.5,20.56h38.47v-8.49h-46.61Z"/>
        <path class="cls-6" d="m705.15,471.05v124.12h-11.47v-88.46c0-2.41-1.47-4.8-6.91-4.8h-16.12v-8.47h8.26c7.03,0,11.87,1.19,14.77,3.16v-25.55h11.47Z"/>
        <path class="cls-6" d="m629.34,522.17c-6.25,0-6.89-4.31-6.89-6.16v-13.09c2.92,1.91,7.66,3.04,14.53,3.04h28.37v-8.47h-36.23c-4.45,0-6.17-1.61-6.67-3.49v-12.17h46.51v-8.69h-57.99v36.96c0,5.6,0,20.55,26.5,20.55h34.68v-8.47h-42.8Z"/>
        <path class="cls-6" d="m591.27,586.55h-55.07c-6.23,0-6.91-4.3-6.91-6.17v-30.2h-11.47v25.59c0,5.62,0,19.25,26.52,19.25h46.93v-8.47Z"/>
        <polygon class="cls-6" points="483.39 562.49 483.39 554.02 482.24 554.02 373.85 554.02 373.85 562.49 483.39 562.49"/>
        <path class="cls-6" d="m189.57,481.74v-8.02h-60.78v8.02h10.4v37.51h-10.36v8.13h60.69v-8.13h-9.67v-37.51h9.71Zm-38.87,37.51v-37.51h17.65v37.51h-17.65Z"/>
        <path class="cls-6" d="m555.77,486.54c0,1.85-1.73,4.26-6.91,4.26h-13.58v8.46h1.53c10.2,0,15.27-1.11,18.96-3.16v51.71h11.45v-76.77h-11.45v15.5Z"/>
        <rect class="cls-6" x="575.11" y="471.05" width="11.45" height="76.77"/>
        <path class="cls-6" d="m515.21,508.32c8.18,11.08,20.59,17.83,30.04,19.24l1.15.19v-8.27l-.42-.16c-16.68-6.03-24.54-16.21-24.54-33.66v-12.64h-12.63v12.64c0,17.45-7.84,27.64-24.5,33.66l-.44.16v8.27l1.15-.19c9.45-1.41,21.9-8.16,30.07-19.24"/>
      </g>
      <g>
        <path class="cls-2" d="m575.95,387.01c0,17.95-14.56,32.51-32.52,32.51H51.11c-17.96,0-32.5-14.56-32.5-32.51V46.83c0-17.95,14.54-32.5,32.5-32.5h492.32c17.96,0,32.52,14.55,32.52,32.5v340.18Z"/>
        <path class="cls-4" d="m491.99,73.81C505.47,15.69,457.42-2.53,400.76.27c-24.75,1.23-52.28,7.37-78,15.7l98.65-1.7,1.06,1.1c19.44,21.89,1.52,103.91-127.39,184.75,0,0,55.47,31.58,33.31,88.95,16.06-7.53,47.74-19.42,67.54-29.24-4.65-31.78-29.08-49.87-29.08-49.87,85.72-57.78,115.49-98.99,125.15-136.15Z"/>
        <path class="cls-5" d="m97.66,416.39c-18.64,11.94-27.26,7.2-30.49-2.5l-.15-1.23c27.28-16.97,93.87-84.97,112.87-181.54C199.15,133.3,122.01,38.38,85.83,13.77h100.07c36.73,30.14,74.01,111.05,56.93,197.8-20.48,104.1-115.37,186.73-145.16,204.81Z"/>
        <path class="cls-3" d="m67.78,412.92c-3.11-6.77-4.44-14.32-4.76-20.46-3.15-53.63,43.89-144.91,101.08-208.8C277.38,57.13,380.45,22.11,421.38,14.28c-11.26-10.66-37.09-11.54-65.47-6.52-44.61,8.01-127.92,36.98-200.36,99.04C67.27,182.32,10.17,267.17.56,356.61c-2.11,19.72,1.65,45.89,13.59,61.13,15.3,18.85,44.06,27.45,84.49-1.85-16.53,9.56-25.89,5.97-30.85-2.97h0Z"/>
        <g>
          <path class="cls-1" d="m202.59,419.53h15c31.97-15.6,77.64-54.93,105.31-96.43-51.04,30.58-94.78,66.22-120.31,96.43Z"/>
          <path class="cls-4" d="m398.31,284.38c-7.99,3.52-15.79,7.04-23.12,10.53-17.96,8.59-35.48,18.13-52.28,28.18-27.66,41.51-73.33,80.83-105.31,96.43h75.72c38.53-20.11,95.54-67.54,104.99-135.14Z"/>
          <path class="cls-6" d="m322.9,323.1c16.8-10.05,34.32-19.59,52.28-28.18,7.33-3.49,15.13-7.01,23.12-10.53,81.09-35.74,194.36-71.71,308.63-90.38v-75.59c-260.57,57.8-438.73,168.66-514.64,254.49-17.1,19.28-25.61,33.23-30.43,46.62h40.72c25.53-30.21,69.27-65.85,120.31-96.43Z"/>
        </g>
      </g>
    </g>
  </g>
</svg>