<?xml version="1.0" encoding="UTF-8"?>
<svg id="Layer_2" data-name="Layer 2" xmlns="http://www.w3.org/2000/svg" viewBox="0 0 1500 247.19">
  <defs>
    <style>
      .cls-1 {
        fill: #00b1b0;
      }

      .cls-2 {
        fill: #0079c1;
      }

      .cls-3 {
        fill: #5f6062;
      }
    </style>
  </defs>
  <g id="Layer_1-2" data-name="Layer 1">
    <g>
      <g>
        <path class="cls-2" d="m110.72,183.45c29.6,19.95,75.99,26.89,119.25,3.06-26.66,45.09-80.31,69.86-134.06,57.5C29.38,228.71-12.12,162.4,3.17,95.88,17.95,31.59,80.41-9.34,144.63,1.83c0,0,25.2,4.37,38.15,26.66,4.87,8.03,8.76,17.37,11.29,27.9l.05.25c3.03,14.08,3.09,29.05-.35,44.01-5.31,23.12-18.35,44.75-35.32,56.33l-.1.1c5.88-6.08,10.24-13.82,12.29-22.68,5.97-25.97-10.25-51.87-36.22-57.85-26.01-5.97-51.88,10.24-57.87,36.23-1.73,7.51-1.96,14.98-.53,21.99,0,0,4.56,29.32,34.7,48.68h0Z"/>
        <path class="cls-1" d="m100.16,166.54c11.11,6.22,24.46,9,24.46,9,30.28,6.99,60.69-.61,83.76-17.91l.14-.13c10.29-7.29,19.41-16.6,26.71-27.8,4.68-7.17,8.34-14.69,11.03-22.45,3.4,30.84-3.08,48.27-3.08,48.27-8.53,10.17-17.46,16.34-17.46,16.34-22.98,16.99-52.69,23.68-82.71,16.76,0,0-25.96-5.43-42.86-22.09h0Z"/>
        <path class="cls-1" d="m130.48,171.93c47.36,3.82,91.8-30.54,102.82-73.8,0,0,3.31-13.64,3.43-23.73,0,0-9.86-25.84-36.67-47.44,10.39,20.45,13.94,44.53,8.39,68.62-8.39,36.56-35.58,63.89-68.99,74.19-2.82.86-5.95,1.64-9.01,2.11l.04.06h0Z"/>
      </g>
      <g>
        <path class="cls-3" d="m322.63,57.46c0-19.25,13.18-32.82,32.43-32.82s32.82,13.58,32.82,32.82-13.31,32.95-32.82,32.95-32.43-13.71-32.43-32.95Zm25.05,87.26c-6.33,0-10.94-4.48-10.94-10.68v-32.82h14.63v27.81c0,2.5.92,3.3,3.16,3.3h68.55v12.39h-75.4Zm25.57-87.26c0-12.39-6.85-20.56-18.19-20.56s-17.8,8.17-17.8,20.56,6.72,20.7,17.8,20.7,18.19-8.17,18.19-20.7Zm32.82,54.7V20.94h14.63v91.22h-14.63Z"/>
        <path class="cls-3" d="m441.39,101.88v-16.08c16.21-8.17,28.21-23.07,30.98-35.33h-30.58v-12.65h26.63v-14.63h14.24v14.63h26.5v12.65h-30.45c2.77,12.26,14.37,26.76,30.98,34.4v15.55c-16.08-6.06-29.53-19.11-34.27-28.21-4.88,9.1-17.27,22.01-34.01,29.66Zm100.84,30.45v12.39h-75.4c-6.33,0-10.81-4.48-10.81-10.55v-28.87h14.63v24.12c0,2.11.79,2.9,2.9,2.9h68.68Zm-38.23-73.29h20.7V20.94h14.63v91.22h-14.63v-40.86h-20.7v-12.26Z"/>
        <path class="cls-3" d="m617.63,80.79h47.72v12.13h-109.41v-12.13h47.19v-15.69h14.5v15.69Zm-52.99-7.91v-12.92c22.01-3.16,37.7-12.79,41.79-22.15h-40.86v-11.86h89.24v11.86h-40.86c4.22,9.49,19.9,18.98,41.92,22.15v12.92c-20.43-2.64-37.83-11.47-45.61-20.17-7.51,8.7-25.05,17.4-45.61,20.17Zm56.81,29.13c21.22,0,33.22,8.04,33.22,22.15s-12,22.15-33.22,22.15h-22.41c-21.22,0-33.22-8.04-33.22-22.15s12-22.15,33.22-22.15h22.41Zm.13,32.03c12.39,0,18.45-3.43,18.45-9.89s-6.06-9.89-18.45-9.89h-22.67c-12.39,0-18.45,3.43-18.45,9.89s6.06,9.89,18.45,9.89h22.67Z"/>
        <path class="cls-3" d="m709.64,89.23c-15.16,0-27.81-9.75-27.81-25.97,0-6.2,1.85-11.34,5.01-15.29h-14.37v-11.86h29.66v-15.16h14.5v15.16h29.26v11.86h-13.31c3.03,3.95,4.88,9.1,4.88,15.29,0,16.21-12.65,25.97-27.81,25.97Zm46.8,20.04v-12.92h14.63v49.04h-69.21c-6.59,0-11.07-4.35-11.07-10.94v-38.1h14.5v12.92h51.15Zm-46.8-32.03c7.78,0,14.1-5.4,14.1-14.1s-6.33-14.24-14.1-14.24-14.1,5.54-14.1,14.24,6.33,14.1,14.1,14.1Zm46.8,56.29v-12.52h-51.15v9.49c0,2.37.92,3.03,3.03,3.03h48.11Zm31.77-84.1v12.52h-17.14v26.1h-14.63V20.94h14.63v28.47h17.14Z"/>
        <path class="cls-3" d="m793.21,84.09h109.41v12.39h-46.4v22.54h-14.5v-22.54h-48.51v-12.39Zm25.97,47.32c0,1.45.92,2.37,2.37,2.37h70.79v12.52h-77.38c-6.06,0-10.41-4.22-10.41-10.15v-30.19h14.63v25.44Zm-1.85-59.19c-6.99,0-11.6-4.48-11.6-11.34V25.29h84.36v46.93h-72.76Zm2.9-34.54v18.59c0,2.11,1.45,3.56,3.56,3.56h51.67v-22.15h-55.23Z"/>
        <path class="cls-3" d="m984.6,34.26v12h-74.21v-12h29.92v-13.97h14.63v13.97h29.66Zm40.86,35.72v12.39h-17.14v63.93h-14.63v-24.39c-2.37,2.11-6.85,3.16-12.52,3.16h-70.26v-12.26h29.79v-13.05c-13.18-2.77-21.62-12.39-21.62-23.99,0-13.45,11.73-24.52,29-24.52s28.87,11.07,28.87,24.52c0,11.6-8.57,21.35-21.62,23.99v13.05h26.5c5.4,0,9.36-1.05,11.86-3.56V21.08h14.63v48.9h17.14Zm-77.25,18.32c8.57,0,14.5-5.8,14.5-12.65s-5.93-12.39-14.5-12.39-14.76,5.4-14.76,12.39,5.93,12.65,14.76,12.65Z"/>
        <path class="cls-3" d="m1097.57,46.91v-24.91h13.97v123.38h-13.97v-45.74h-14.63c-1.32,16.48-10.81,25.7-25.57,25.7-16.08,0-25.84-10.81-25.84-29.79v-40.34c0-18.85,9.75-29.66,25.84-29.66,13.45,0,22.41,7.65,25.05,21.35h15.16Zm-28.61,8.57c0-11.6-4.22-17.53-11.6-17.53s-11.86,5.93-11.86,17.53v39.81c0,11.73,4.35,17.53,11.86,17.53s11.6-5.8,11.6-17.53v-39.81Zm14.1,31.5h14.5v-27.42h-14.5v27.42Zm38.1-66.04h13.97v125.23h-13.97V20.94Z"/>
        <path class="cls-3" d="m1258.52,84.22h-47.72v10.68h35.46v30.58h-71.45v6.59c0,1.58.53,2.37,2.5,2.37h71.31v11.86h-77.11c-6.72,0-11.34-3.95-11.34-10.28v-21.22h71.45v-8.04h-71.45v-11.86h36.12v-10.68h-47.19v-11.73h109.41v11.73Zm-100.18-18.85v-13.84c19.51-3.3,36.78-16.08,42.58-31.37h4.75c5.8,15.16,22.94,27.81,42.58,31.11v13.84c-17-3.3-34.8-12.39-44.95-24.65-10.02,12.65-27.81,21.75-44.95,24.91Z"/>
        <path class="cls-3" d="m1356.19,20.94h14.63v125.23h-14.63v-22.81c-2.24,2.24-6.99,3.56-13.05,3.56h-73.55v-12.13h32.3v-14.1c-13.05-2.77-21.49-12.52-21.49-24.25,0-13.84,11.86-25.05,29.13-25.05s28.87,11.2,28.87,25.05c0,11.86-8.57,21.75-21.88,24.39v13.97h27.29c5.93,0,10.02-1.19,12.39-4.09V20.94Zm-10.15,13.31v12h-74.35v-12h30.06v-14.24h14.63v14.24h29.66Zm-36.38,55.1c8.57,0,14.76-5.93,14.76-13.05s-6.2-12.92-14.76-12.92-14.9,5.67-14.9,12.92,6.06,13.05,14.9,13.05Z"/>
        <path class="cls-3" d="m1483,57.72h17v12.39h-17v42.97h-14.63v-20.7c-2.5,1.85-6.85,2.9-12.39,2.9h-70.79v-11.73h22.41v-26.76h14.63v26.76h34.4c5.27,0,9.36-.92,11.73-3.3V20.94h14.63v36.78Zm-44.16,15.95v-35.99h-47.85v-11.86h61.95v41.13l-7.91,6.72h-6.2Zm-25.84,55.76c0,2.11.79,2.9,2.77,2.9h69.47v12.39h-76.06c-6.33,0-10.81-4.48-10.81-10.55v-28.6h14.63v23.86Z"/>
      </g>
      <g>
        <path class="cls-3" d="m332.07,221.66v-50.34h6.71v50.34h-6.71Z"/>
        <path class="cls-3" d="m359.5,221.66v-37.2h6.48v3.47c1.74-2.49,4.98-4.28,9.2-4.28,7.64,0,12.27,4.98,12.27,13.13v24.88h-6.54v-24.19c0-5.15-2.84-8.27-7.46-8.27s-7.46,3.12-7.46,8.27v24.19h-6.48Z"/>
        <path class="cls-3" d="m406.76,206.84v-7.64c0-9.66,5.67-15.56,14.93-15.56,3.7,0,7,.87,9.2,2.43v5.55c-2.43-1.62-5.27-2.43-8.45-2.43-5.79,0-9.2,3.65-9.2,9.78v8.1c0,6.13,3.41,9.78,9.2,9.78,3.18,0,6.08-.93,8.68-2.84v5.67c-2.43,1.74-5.79,2.72-9.43,2.72-9.26,0-14.93-5.9-14.93-15.56Z"/>
        <path class="cls-3" d="m450.21,221.66v-52.42h6.48v18.69c1.91-2.72,5.38-4.4,9.2-4.4,7.64,0,12.27,4.98,12.27,13.13v25h-6.54v-24.3c0-5.15-2.84-8.27-7.46-8.27s-7.46,3.12-7.46,8.27v24.3h-6.48Z"/>
        <path class="cls-3" d="m497.48,207.77v-9.49c0-8.79,5.5-14.64,13.83-14.64s13.89,5.61,13.89,14.35v7.75h-21.23v2.55c0,5.44,3.47,8.56,9.55,8.56,3.7,0,6.88-.93,10.07-3.01v5.5c-2.66,1.97-6.48,3.07-10.94,3.07-9.26,0-15.16-5.73-15.16-14.64Zm6.48-7.06h14.75v-3.01c0-5.21-2.78-8.51-7.41-8.51s-7.35,3.3-7.35,8.51v3.01Z"/>
        <path class="cls-3" d="m544.29,208.12v-10.18c0-8.85,5.44-14.29,14.06-14.29s14.12,5.44,14.12,14.29v10.18c0,8.85-5.44,14.35-14.12,14.35s-14.06-5.5-14.06-14.35Zm21.64,0v-10.18c0-5.5-2.89-8.79-7.58-8.79s-7.58,3.36-7.58,8.79v10.18c0,5.44,2.89,8.79,7.58,8.79s7.58-3.36,7.58-8.79Z"/>
        <path class="cls-3" d="m592.08,221.66v-37.2h6.48v3.47c1.74-2.49,4.98-4.28,9.2-4.28,7.64,0,12.27,4.98,12.27,13.13v24.88h-6.54v-24.19c0-5.15-2.84-8.27-7.46-8.27s-7.46,3.12-7.46,8.27v24.19h-6.48Z"/>
        <path class="cls-3" d="m668.16,201.12v-9.14c0-13.83,6.71-21.23,19.27-21.23,4.69,0,9.03,1.22,11.75,3.24v5.96c-3.36-2.2-7.06-3.3-11.22-3.3-8.51,0-13.08,5.15-13.08,14.81v10.18c0,9.66,4.63,14.93,13.08,14.93,4.4,0,8.22-1.27,11.46-3.82v5.96c-2.72,2.37-7,3.76-11.98,3.76-12.5,0-19.27-7.52-19.27-21.35Z"/>
        <path class="cls-3" d="m718.72,209.27v-24.82h6.48v24.01c0,5.5,2.6,8.45,7.46,8.45,4.4,0,7.46-3.41,7.46-8.45v-24.01h6.54v37.2h-6.54v-3.82c-1.97,2.95-5.38,4.57-9.43,4.57-7.41,0-11.98-4.98-11.98-13.13Z"/>
        <path class="cls-3" d="m766.86,221.66v-52.42h6.48v52.42h-6.48Z"/>
        <path class="cls-3" d="m797.7,210.78v-19.33h-6.13v-5.84h6.13v-11.63h6.48v11.63h10.94v5.84h-10.94v18.8c0,4.4,2.08,6.6,6.19,6.6,1.79,0,3.76-.58,5.38-1.56v5.55c-1.56.98-4.05,1.62-6.77,1.62-7.35,0-11.28-4.05-11.28-11.69Z"/>
        <path class="cls-3" d="m833.74,209.27v-24.82h6.48v24.01c0,5.5,2.6,8.45,7.46,8.45,4.4,0,7.46-3.41,7.46-8.45v-24.01h6.54v37.2h-6.54v-3.82c-1.97,2.95-5.38,4.57-9.43,4.57-7.41,0-11.98-4.98-11.98-13.13Z"/>
        <path class="cls-3" d="m881.88,221.54v-37.09h6.48v3.88c1.91-3.01,5.26-4.86,9.6-4.86,1.27,0,2.31.12,3.12.35v6.19c-1.16-.35-2.49-.58-3.88-.58-5.38,0-8.85,3.7-8.85,9.37v22.74h-6.48Z"/>
        <path class="cls-3" d="m916.53,207.77v-9.49c0-8.79,5.5-14.64,13.83-14.64s13.89,5.61,13.89,14.35v7.75h-21.23v2.55c0,5.44,3.47,8.56,9.55,8.56,3.7,0,6.89-.93,10.07-3.01v5.5c-2.66,1.97-6.48,3.07-10.94,3.07-9.26,0-15.16-5.73-15.16-14.64Zm6.48-7.06h14.75v-3.01c0-5.21-2.78-8.51-7.41-8.51s-7.35,3.3-7.35,8.51v3.01Z"/>
        <path class="cls-3" d="m993.19,209.85c0-5.61,3.3-10.42,10.99-15.8-3.24-4.92-4.57-8.33-4.57-11.8,0-7.12,4.86-11.92,12.04-11.92s11.51,4.34,11.51,10.76c0,4.98-2.84,8.79-10.65,14.41l9.84,14.29c3.12-3.01,5.27-5.79,7.23-9.03v8.56c-1.22,1.68-2.43,3.12-4.11,4.86l5.32,7.64h-7.29l-2.49-3.59c-3.82,3.07-7.75,4.4-12.96,4.4-9.32,0-14.87-4.86-14.87-12.79Zm24.59,3.93l-10.24-14.87c-5.26,3.93-7.46,7.12-7.46,10.88,0,4.34,3.53,7.23,8.74,7.23,3.3,0,5.84-.93,8.97-3.24Zm-1.1-32.46c0-3.18-2.08-5.44-5.15-5.44s-5.5,2.6-5.5,6.13c0,2.78.75,4.86,3.18,8.62,5.38-3.76,7.46-6.36,7.46-9.32Z"/>
        <path class="cls-3" d="m1078.36,221.66l16.84-50.34h6.77l17.13,50.34h-7.23l-4.11-12.79h-18.23l-3.99,12.79h-7.17Zm12.96-18.63h14.64l-7.41-22.85-7.23,22.85Z"/>
        <path class="cls-3" d="m1137.02,221.54v-37.09h6.48v3.88c1.91-3.01,5.26-4.86,9.6-4.86,1.27,0,2.31.12,3.12.35v6.19c-1.16-.35-2.49-.58-3.88-.58-5.38,0-8.85,3.7-8.85,9.37v22.74h-6.48Z"/>
        <path class="cls-3" d="m1178.5,210.78v-19.33h-6.13v-5.84h6.13v-11.63h6.48v11.63h10.94v5.84h-10.94v18.8c0,4.4,2.08,6.6,6.19,6.6,1.79,0,3.76-.58,5.38-1.56v5.55c-1.56.98-4.05,1.62-6.77,1.62-7.35,0-11.28-4.05-11.28-11.69Z"/>
        <path class="cls-3" d="m1243.01,201.12v-9.14c0-13.83,6.71-21.23,19.27-21.23,4.69,0,9.03,1.22,11.75,3.24v5.96c-3.36-2.2-7.06-3.3-11.22-3.3-8.51,0-13.08,5.15-13.08,14.81v10.18c0,9.66,4.63,14.93,13.08,14.93,4.4,0,8.22-1.27,11.46-3.82v5.96c-2.72,2.37-7,3.76-11.98,3.76-12.5,0-19.27-7.52-19.27-21.35Z"/>
        <path class="cls-3" d="m1293.23,207.77v-9.49c0-8.79,5.5-14.64,13.83-14.64s13.89,5.61,13.89,14.35v7.75h-21.23v2.55c0,5.44,3.47,8.56,9.55,8.56,3.7,0,6.89-.93,10.07-3.01v5.5c-2.66,1.97-6.48,3.07-10.94,3.07-9.26,0-15.16-5.73-15.16-14.64Zm6.48-7.06h14.75v-3.01c0-5.21-2.78-8.51-7.41-8.51s-7.35,3.3-7.35,8.51v3.01Z"/>
        <path class="cls-3" d="m1340.62,221.66v-37.2h6.48v3.47c1.74-2.49,4.98-4.28,9.2-4.28,7.64,0,12.27,4.98,12.27,13.13v24.88h-6.54v-24.19c0-5.15-2.84-8.27-7.46-8.27s-7.46,3.12-7.46,8.27v24.19h-6.48Z"/>
        <path class="cls-3" d="m1392.4,210.78v-19.33h-6.13v-5.84h6.13v-11.63h6.48v11.63h10.94v5.84h-10.94v18.8c0,4.4,2.08,6.6,6.19,6.6,1.79,0,3.76-.58,5.38-1.56v5.55c-1.56.98-4.05,1.62-6.77,1.62-7.35,0-11.28-4.05-11.28-11.69Z"/>
        <path class="cls-3" d="m1427.75,207.77v-9.49c0-8.79,5.5-14.64,13.83-14.64s13.89,5.61,13.89,14.35v7.75h-21.23v2.55c0,5.44,3.47,8.56,9.55,8.56,3.7,0,6.89-.93,10.07-3.01v5.5c-2.66,1.97-6.48,3.07-10.94,3.07-9.26,0-15.16-5.73-15.16-14.64Zm6.48-7.06h14.75v-3.01c0-5.21-2.78-8.51-7.41-8.51s-7.35,3.3-7.35,8.51v3.01Z"/>
        <path class="cls-3" d="m1475.13,221.54v-37.09h6.48v3.88c1.91-3.01,5.26-4.86,9.6-4.86,1.27,0,2.31.12,3.12.35v6.19c-1.16-.35-2.49-.58-3.88-.58-5.38,0-8.85,3.7-8.85,9.37v22.74h-6.48Z"/>
      </g>
    </g>
  </g>
</svg>