<?xml version="1.0" encoding="UTF-8"?>
<svg id="Layer_2" data-name="Layer 2" xmlns="http://www.w3.org/2000/svg" viewBox="0 0 1500 461.26">
  <defs>
    <style>
      .cls-1 {
        fill: #9db53a;
      }

      .cls-2 {
        fill: #9e9e9f;
      }

      .cls-3 {
        fill: #231916;
      }
    </style>
  </defs>
  <g id="Layer_1-2" data-name="Layer 1">
    <g>
      <g>
        <path class="cls-2" d="m408.15,188.97v-51.49h10.37v22.89l21.1-22.89h14l-19.46,20.02,20.44,31.47h-13.44l-14.19-24.22-8.45,8.64v15.58h-10.37Z"/>
        <path class="cls-2" d="m457.64,169.79c0-3.28.79-6.44,2.4-9.51,1.61-3.05,3.89-5.4,6.84-7.02,2.96-1.61,6.25-2.42,9.89-2.42,5.61,0,10.23,1.81,13.82,5.49,3.6,3.65,5.4,8.28,5.4,13.88s-1.81,10.31-5.44,14.02c-3.64,3.7-8.2,5.56-13.69,5.56-3.41,0-6.67-.77-9.75-2.31-3.09-1.55-5.44-3.81-7.06-6.79-1.61-2.98-2.4-6.61-2.4-10.89Zm10.06.53c0,3.69.88,6.5,2.64,8.47,1.74,1.96,3.88,2.94,6.45,2.94s4.71-.98,6.43-2.94c1.74-1.97,2.61-4.81,2.61-8.55s-.87-6.43-2.61-8.4c-1.72-1.98-3.88-2.95-6.43-2.95s-4.71.98-6.45,2.95c-1.75,1.97-2.64,4.78-2.64,8.47Z"/>
        <path class="cls-2" d="m513.15,188.97h-9.85v-37.31h9.18v5.3c1.57-2.5,2.96-4.15,4.25-4.94,1.24-.78,2.67-1.18,4.25-1.18,2.25,0,4.4.62,6.5,1.83l-3.02,8.59c-1.67-1.08-3.23-1.62-4.67-1.62s-2.56.39-3.54,1.15c-.95.76-1.72,2.12-2.28,4.13-.54,1.98-.82,6.16-.82,12.52v11.53Z"/>
        <path class="cls-2" d="m553.28,177.1l9.85,1.64c-1.27,3.6-3.27,6.34-5.99,8.23-2.73,1.88-6.12,2.81-10.22,2.81-6.47,0-11.27-2.12-14.37-6.35-2.45-3.39-3.69-7.68-3.69-12.84,0-6.18,1.61-11.01,4.85-14.51,3.23-3.5,7.3-5.24,12.23-5.24,5.54,0,9.91,1.81,13.1,5.49,3.19,3.65,4.73,9.26,4.59,16.82h-24.7c.08,2.92.87,5.19,2.39,6.81,1.52,1.62,3.41,2.44,5.69,2.44,1.53,0,2.82-.43,3.88-1.26,1.04-.83,1.84-2.19,2.39-4.05Zm.57-10.01c-.05-2.84-.79-5.01-2.19-6.49-1.41-1.48-3.12-2.23-5.13-2.23-2.17,0-3.94.79-5.33,2.36-1.41,1.57-2.11,3.69-2.09,6.36h14.75Z"/>
        <path class="cls-2" d="m578.97,163.07l-8.87-1.63c1.01-3.61,2.73-6.28,5.19-8.01,2.48-1.73,6.12-2.59,10.99-2.59,4.42,0,7.69.52,9.85,1.57,2.17,1.03,3.69,2.36,4.56,3.96.88,1.61,1.33,4.54,1.33,8.82l-.16,11.52c0,3.29.17,5.7.47,7.26.33,1.54.92,3.22,1.78,5h-9.77c-.28-.66-.59-1.64-.96-2.92-.17-.59-.28-.97-.36-1.16-1.69,1.64-3.49,2.85-5.43,3.67-1.92.81-3.97,1.22-6.16,1.22-3.83,0-6.87-1.03-9.09-3.11-2.22-2.09-3.32-4.72-3.32-7.91,0-2.09.51-3.96,1.5-5.62,1.02-1.65,2.45-2.91,4.25-3.79,1.83-.87,4.47-1.64,7.89-2.3,4.64-.86,7.85-1.67,9.64-2.42v-.99c0-1.9-.5-3.26-1.43-4.07-.95-.81-2.74-1.22-5.38-1.22-1.77,0-3.15.34-4.16,1.05-.99.69-1.78,1.92-2.4,3.65Zm13.37,7.99c-1.29.43-3.32.93-6.06,1.51-2.78.58-4.57,1.16-5.43,1.73-1.3.91-1.95,2.07-1.95,3.46s.51,2.58,1.57,3.58c1.02,1.01,2.36,1.51,3.97,1.51,1.78,0,3.5-.58,5.13-1.76,1.19-.88,1.98-1.97,2.37-3.26.28-.84.4-2.45.4-4.8v-1.98Z"/>
        <path class="cls-2" d="m675.31,188.97h-11.27l-4.42-11.72h-20.58l-4.26,11.72h-11.02l20.03-51.49h11.02l20.5,51.49Zm-19.07-20.45l-7.07-19.03-6.93,19.03h14Z"/>
        <path class="cls-2" d="m690.18,188.97h-9.85v-37.31h9.18v5.3c1.57-2.5,2.98-4.15,4.23-4.94,1.24-.78,2.67-1.18,4.26-1.18,2.26,0,4.4.62,6.48,1.83l-3.01,8.59c-1.66-1.08-3.22-1.62-4.67-1.62s-2.57.39-3.52,1.15c-.98.76-1.74,2.12-2.3,4.13-.54,1.98-.82,6.16-.82,12.52v11.53Z"/>
        <path class="cls-2" d="m725.83,151.66v7.85h-6.73v15.02c0,3.05.08,4.82.2,5.32.12.52.42.92.87,1.24.47.34,1.01.5,1.68.5.9,0,2.22-.32,3.94-.95l.85,7.68c-2.28.99-4.87,1.48-7.75,1.48-1.78,0-3.38-.3-4.79-.89-1.43-.59-2.46-1.38-3.13-2.32-.67-.95-1.13-2.23-1.38-3.85-.22-1.15-.31-3.47-.31-6.96v-16.26h-4.56v-7.85h4.56v-7.39l9.83-5.81v13.2h6.73Z"/>
        <path class="cls-2" d="m729.22,178.38l9.92-1.5c.42,1.89,1.26,3.35,2.56,4.33,1.27.99,3.05,1.49,5.35,1.49,2.54,0,4.45-.47,5.72-1.4.87-.66,1.3-1.54,1.3-2.64,0-.75-.23-1.36-.71-1.86-.48-.46-1.6-.9-3.27-1.3-7.95-1.74-12.98-3.36-15.1-4.8-2.96-2.02-4.42-4.81-4.42-8.39,0-3.24,1.27-5.96,3.83-8.16,2.54-2.19,6.48-3.29,11.83-3.29s8.9.83,11.38,2.49c2.47,1.66,4.17,4.12,5.12,7.36l-9.33,1.71c-.39-1.45-1.13-2.55-2.25-3.31-1.1-.78-2.68-1.17-4.73-1.17-2.57,0-4.45.36-5.57,1.09-.73.52-1.1,1.19-1.1,2.01,0,.71.33,1.29.98,1.79.88.65,3.95,1.58,9.19,2.77,5.26,1.19,8.92,2.67,10.99,4.4,2.05,1.74,3.09,4.19,3.09,7.33,0,3.41-1.43,6.34-4.28,8.78-2.85,2.46-7.07,3.69-12.65,3.69-5.07,0-9.07-1.02-12.05-3.06-2.95-2.05-4.88-4.84-5.8-8.34Z"/>
        <path class="cls-2" d="m792.48,188.97v-51.49h15.57l9.33,35.11,9.19-35.11h15.6v51.49h-9.61l-.05-40.53-10.22,40.53h-9.97l-10.19-40.53-.03,40.53h-9.63Z"/>
        <path class="cls-2" d="m859.73,163.07l-8.88-1.63c.99-3.61,2.73-6.28,5.21-8.01,2.45-1.73,6.12-2.59,10.96-2.59,4.43,0,7.72.52,9.86,1.57,2.17,1.03,3.69,2.36,4.57,3.96.88,1.61,1.32,4.54,1.32,8.82l-.16,11.52c0,3.29.17,5.7.48,7.26.31,1.54.88,3.22,1.77,5h-9.77c-.28-.66-.59-1.64-.96-2.92-.17-.59-.28-.97-.36-1.16-1.69,1.64-3.49,2.85-5.43,3.67-1.91.81-3.95,1.22-6.14,1.22-3.85,0-6.87-1.03-9.1-3.11-2.2-2.09-3.32-4.72-3.32-7.91,0-2.09.5-3.96,1.52-5.62,1.01-1.65,2.43-2.91,4.25-3.79,1.83-.87,4.45-1.64,7.89-2.3,4.62-.86,7.81-1.67,9.61-2.42v-.99c0-1.9-.47-3.26-1.41-4.07-.96-.81-2.73-1.22-5.36-1.22-1.78,0-3.18.34-4.16,1.05-1.01.69-1.81,1.92-2.4,3.65Zm13.33,7.99c-1.27.43-3.29.93-6.06,1.51-2.74.58-4.57,1.16-5.41,1.73-1.29.91-1.94,2.07-1.94,3.46s.51,2.58,1.55,3.58c1.04,1.01,2.36,1.51,3.97,1.51,1.78,0,3.5-.58,5.13-1.76,1.21-.88,2-1.97,2.37-3.26.26-.84.39-2.45.39-4.8v-1.98Z"/>
        <path class="cls-2" d="m926.16,188.97h-9.85v-19.04c0-4.02-.22-6.62-.64-7.81-.42-1.19-1.1-2.1-2.05-2.75-.93-.66-2.08-.99-3.4-.99-1.69,0-3.22.47-4.57,1.4-1.35.94-2.28,2.18-2.79,3.73-.5,1.54-.73,4.41-.73,8.57v16.89h-9.86v-37.31h9.18v5.49c3.24-4.2,7.3-6.3,12.23-6.3,2.17,0,4.14.4,5.94,1.16,1.78.79,3.15,1.8,4.05,3.02.95,1.2,1.58,2.61,1.94,4.14.36,1.54.54,3.74.54,6.64v23.17Z"/>
        <path class="cls-2" d="m943.55,163.07l-8.88-1.63c1.01-3.61,2.76-6.28,5.21-8.01,2.47-1.73,6.12-2.59,10.99-2.59,4.4,0,7.69.52,9.86,1.57,2.14,1.03,3.66,2.36,4.54,3.96.88,1.61,1.33,4.54,1.33,8.82l-.15,11.52c0,3.29.15,5.7.47,7.26.33,1.54.91,3.22,1.78,5h-9.78c-.26-.66-.57-1.64-.95-2.92-.17-.59-.29-.97-.36-1.16-1.69,1.64-3.49,2.85-5.41,3.67-1.94.81-3.99,1.22-6.16,1.22-3.86,0-6.88-1.03-9.1-3.11-2.22-2.09-3.32-4.72-3.32-7.91,0-2.09.5-3.96,1.5-5.62,1.01-1.65,2.43-2.91,4.25-3.79,1.83-.87,4.47-1.64,7.89-2.3,4.64-.86,7.85-1.67,9.63-2.42v-.99c0-1.9-.48-3.26-1.43-4.07-.95-.81-2.73-1.22-5.35-1.22-1.78,0-3.16.34-4.16,1.05-1.01.69-1.81,1.92-2.42,3.65Zm13.35,7.99c-1.27.43-3.3.93-6.06,1.51-2.76.58-4.57,1.16-5.41,1.73-1.3.91-1.95,2.07-1.95,3.46s.53,2.58,1.55,3.58c1.05,1.01,2.37,1.51,3.98,1.51,1.78,0,3.5-.58,5.13-1.76,1.19-.88,1.98-1.97,2.37-3.26.26-.84.39-2.45.39-4.8v-1.98Z"/>
        <path class="cls-2" d="m975.22,191.5l11.27,1.35c.17,1.32.6,2.24,1.3,2.74.93.71,2.4,1.06,4.42,1.06,2.57,0,4.51-.4,5.81-1.18.87-.52,1.5-1.38,1.95-2.53.31-.85.47-2.37.47-4.61l.05-5.52c-3.01,4.09-6.74,6.16-11.24,6.16-4.99,0-8.95-2.12-11.86-6.35-2.29-3.36-3.44-7.53-3.44-12.5,0-6.26,1.5-11.02,4.5-14.34,3.01-3.29,6.74-4.95,11.2-4.95s8.4,2.02,11.4,6.06v-5.25h9.26v33.54c0,4.4-.37,7.7-1.09,9.88-.73,2.18-1.75,3.88-3.05,5.13-1.32,1.25-3.07,2.21-5.26,2.92-2.19.71-4.95,1.05-8.3,1.05-6.33,0-10.81-1.08-13.44-3.25-2.65-2.17-3.97-4.91-3.97-8.23,0-.34.02-.74.03-1.21Zm8.81-21.96c0,3.95.76,6.85,2.29,8.68,1.54,1.84,3.43,2.76,5.68,2.76,2.4,0,4.43-.95,6.11-2.82,1.66-1.88,2.5-4.68,2.5-8.39s-.81-6.72-2.4-8.59c-1.58-1.88-3.6-2.81-6.03-2.81s-4.31.91-5.85,2.78c-1.53,1.81-2.29,4.63-2.29,8.4Z"/>
        <path class="cls-2" d="m1041.63,177.1l9.85,1.64c-1.26,3.6-3.26,6.34-5.97,8.23-2.71,1.88-6.12,2.81-10.23,2.81-6.47,0-11.26-2.12-14.36-6.35-2.45-3.39-3.69-7.68-3.69-12.84,0-6.18,1.63-11.01,4.85-14.51,3.23-3.5,7.3-5.24,12.23-5.24,5.54,0,9.91,1.81,13.1,5.49,3.19,3.65,4.73,9.26,4.59,16.82h-24.7c.08,2.92.87,5.19,2.39,6.81,1.5,1.62,3.41,2.44,5.68,2.44,1.52,0,2.84-.43,3.88-1.26,1.07-.83,1.85-2.19,2.39-4.05Zm.59-10.01c-.06-2.84-.79-5.01-2.2-6.49-1.4-1.48-3.13-2.23-5.12-2.23-2.16,0-3.94.79-5.35,2.36-1.39,1.57-2.08,3.69-2.06,6.36h14.73Z"/>
        <path class="cls-2" d="m1059.27,151.66h9.1v5.09c3.26-3.93,7.12-5.9,11.61-5.9,2.39,0,4.45.5,6.2,1.46,1.75.99,3.19,2.47,4.31,4.44,1.63-1.97,3.4-3.46,5.29-4.44,1.89-.97,3.91-1.46,6.05-1.46,2.74,0,5.05.56,6.96,1.67,1.86,1.1,3.29,2.74,4.22,4.9.68,1.59,1.02,4.17,1.02,7.71v23.85h-9.85v-21.33c0-3.7-.34-6.08-1.01-7.16-.91-1.4-2.33-2.11-4.2-2.11-1.38,0-2.68.42-3.89,1.27-1.21.84-2.09,2.08-2.64,3.71-.54,1.61-.79,4.19-.79,7.7v17.92h-9.86v-20.45c0-3.63-.17-5.97-.53-7.02-.34-1.05-.9-1.83-1.64-2.34-.71-.52-1.72-.78-2.99-.78-1.52,0-2.88.41-4.11,1.24-1.22.81-2.09,1.99-2.62,3.54-.53,1.55-.79,4.12-.79,7.69v18.13h-9.85v-37.31Z"/>
        <path class="cls-2" d="m1145.45,177.1l9.85,1.64c-1.26,3.6-3.26,6.34-5.97,8.23-2.73,1.88-6.12,2.81-10.22,2.81-6.47,0-11.27-2.12-14.37-6.35-2.45-3.39-3.69-7.68-3.69-12.84,0-6.18,1.61-11.01,4.84-14.51,3.24-3.5,7.32-5.24,12.23-5.24,5.54,0,9.92,1.81,13.1,5.49,3.21,3.65,4.75,9.26,4.61,16.82h-24.7c.08,2.92.87,5.19,2.39,6.81,1.5,1.62,3.41,2.44,5.68,2.44,1.53,0,2.82-.43,3.89-1.26,1.04-.83,1.84-2.19,2.37-4.05Zm.59-10.01c-.06-2.84-.79-5.01-2.2-6.49-1.41-1.48-3.12-2.23-5.13-2.23-2.15,0-3.92.79-5.32,2.36-1.41,1.57-2.11,3.69-2.08,6.36h14.73Z"/>
        <path class="cls-2" d="m1197.64,188.97h-9.85v-19.04c0-4.02-.22-6.62-.64-7.81-.42-1.19-1.1-2.1-2.03-2.75-.95-.66-2.09-.99-3.41-.99-1.71,0-3.22.47-4.57,1.4-1.35.94-2.28,2.18-2.78,3.73-.5,1.54-.76,4.41-.76,8.57v16.89h-9.85v-37.31h9.18v5.49c3.24-4.2,7.3-6.3,12.23-6.3,2.17,0,4.14.4,5.92,1.16,1.81.79,3.15,1.8,4.08,3.02.92,1.2,1.57,2.61,1.92,4.14.36,1.54.54,3.74.54,6.64v23.17Z"/>
        <path class="cls-2" d="m1224.81,151.66v7.85h-6.71v15.02c0,3.05.05,4.82.19,5.32.12.52.42.92.88,1.24.45.34,1.01.5,1.66.5.91,0,2.22-.32,3.94-.95l.87,7.68c-2.28.99-4.87,1.48-7.77,1.48-1.77,0-3.36-.3-4.79-.89-1.41-.59-2.46-1.38-3.13-2.32-.67-.95-1.13-2.23-1.38-3.85-.22-1.15-.31-3.47-.31-6.96v-16.26h-4.56v-7.85h4.56v-7.39l9.85-5.81v13.2h6.71Z"/>
        <path class="cls-2" d="m1255.23,185.42c3.47,3.02,8.47,4.51,14.96,4.51,4.47,0,8.19-.62,11.18-1.88,3.01-1.25,5.3-3.16,6.95-5.73,1.63-2.58,2.45-5.34,2.45-8.3,0-3.26-.67-5.99-2.03-8.2-1.38-2.22-3.26-3.96-5.68-5.24-2.42-1.26-6.14-2.5-11.16-3.71-5.02-1.19-8.2-2.33-9.51-3.43-1.04-.88-1.53-1.91-1.53-3.13,0-1.33.54-2.41,1.63-3.19,1.71-1.25,4.03-1.87,7.04-1.87s5.09.57,6.54,1.74c1.44,1.15,2.4,3.06,2.84,5.71l10.36-.38c-.14-4.75-1.86-8.54-5.1-11.38-3.26-2.85-8.09-4.27-14.53-4.27-3.94,0-7.3.59-10.08,1.78-2.79,1.19-4.93,2.93-6.42,5.21-1.47,2.29-2.22,4.74-2.22,7.36,0,4.07,1.58,7.54,4.73,10.36,2.23,2.02,6.12,3.71,11.68,5.09,4.31,1.09,7.07,1.82,8.3,2.25,1.77.63,3.01,1.37,3.71,2.23.71.85,1.07,1.88,1.07,3.12,0,1.88-.85,3.53-2.54,4.95s-4.22,2.12-7.57,2.12c-3.15,0-5.66-.78-7.52-2.38-1.86-1.59-3.1-4.07-3.71-7.47l-10.06.97c.67,5.77,2.74,10.16,6.23,13.17Z"/>
        <path class="cls-2" d="m1321.07,177.1l9.85,1.64c-1.26,3.6-3.24,6.34-5.95,8.23-2.73,1.88-6.14,2.81-10.23,2.81-6.47,0-11.26-2.12-14.37-6.35-2.45-3.39-3.67-7.68-3.67-12.84,0-6.18,1.61-11.01,4.84-14.51,3.22-3.5,7.3-5.24,12.23-5.24,5.53,0,9.91,1.81,13.12,5.49,3.19,3.65,4.71,9.26,4.57,16.82h-24.7c.08,2.92.87,5.19,2.4,6.81,1.52,1.62,3.4,2.44,5.66,2.44,1.53,0,2.84-.43,3.89-1.26,1.05-.83,1.84-2.19,2.37-4.05Zm.6-10.01c-.06-2.84-.81-5.01-2.22-6.49-1.4-1.48-3.12-2.23-5.12-2.23-2.16,0-3.94.79-5.33,2.36-1.41,1.57-2.09,3.69-2.08,6.36h14.75Z"/>
        <path class="cls-2" d="m1348.87,188.97h-9.85v-37.31h9.16v5.3c1.58-2.5,2.98-4.15,4.25-4.94,1.24-.78,2.67-1.18,4.26-1.18,2.23,0,4.4.62,6.5,1.83l-3.02,8.59c-1.67-1.08-3.24-1.62-4.67-1.62s-2.56.39-3.54,1.15c-.95.76-1.72,2.12-2.26,4.13-.56,1.98-.84,6.16-.84,12.52v11.53Z"/>
        <path class="cls-2" d="m1377.58,188.97l-15.02-37.31h10.37l7.01,19.03,2.03,6.36c.54-1.61.88-2.67,1.02-3.19.33-1.05.67-2.1,1.05-3.16l7.1-19.03h10.14l-14.81,37.31h-8.9Z"/>
        <path class="cls-2" d="m1407.29,146.59v-9.1h9.85v9.1h-9.85Zm0,42.38v-37.31h9.85v37.31h-9.85Z"/>
        <path class="cls-2" d="m1459.86,162.63l-9.69,1.79c-.34-1.94-1.09-3.38-2.25-4.35-1.16-.98-2.7-1.47-4.54-1.47-2.48,0-4.45.85-5.92,2.55-1.47,1.69-2.2,4.53-2.2,8.5,0,4.42.74,7.54,2.23,9.34,1.49,1.83,3.49,2.74,6.02,2.74,1.89,0,3.43-.54,4.65-1.59,1.19-1.07,2.05-2.91,2.54-5.5l9.69,1.64c-1.01,4.45-2.95,7.81-5.8,10.09-2.87,2.28-6.68,3.41-11.49,3.41-5.46,0-9.81-1.71-13.06-5.15-3.24-3.45-4.87-8.21-4.87-14.29s1.63-10.94,4.87-14.37c3.26-3.43,7.68-5.14,13.21-5.14,4.54,0,8.16.97,10.84,2.9,2.68,1.94,4.59,4.91,5.77,8.88Z"/>
        <path class="cls-2" d="m1488.84,177.1l9.85,1.64c-1.26,3.6-3.24,6.34-5.97,8.23-2.73,1.88-6.12,2.81-10.22,2.81-6.47,0-11.26-2.12-14.37-6.35-2.45-3.39-3.67-7.68-3.67-12.84,0-6.18,1.61-11.01,4.84-14.51,3.22-3.5,7.3-5.24,12.23-5.24,5.53,0,9.91,1.81,13.1,5.49,3.21,3.65,4.73,9.26,4.59,16.82h-24.68c.06,2.92.85,5.19,2.37,6.81,1.52,1.62,3.41,2.44,5.68,2.44,1.54,0,2.84-.43,3.89-1.26,1.04-.83,1.84-2.19,2.37-4.05Zm.6-10.01c-.08-2.84-.81-5.01-2.22-6.49-1.4-1.48-3.12-2.23-5.12-2.23-2.17,0-3.94.79-5.35,2.36-1.4,1.57-2.09,3.69-2.06,6.36h14.75Z"/>
      </g>
      <path class="cls-3" d="m687.47,275.49h-34.93v-25.24h34.93v-16.15h26.62v107.27h-26.62v-25.75h-34.93v-23.86h34.93v-16.29Z"/>
      <path class="cls-3" d="m664.41,358.69c28.48,0,52.81,22.94,52.81,50.95s-24.33,50.51-52.81,50.51-52.8-22.96-52.8-50.51,24.34-50.95,52.8-50.95Zm0,77.12c15.16,0,26.65-11.03,26.65-26.17s-11.49-26.63-26.65-26.63-27.07,11.46-27.07,26.63,11.92,26.17,27.07,26.17Z"/>
      <path class="cls-1" d="m795.2,279.45l-34.42,53.71-21.62-14.2,39.04-60.16h-34.45v-24.35h101.95v24.35h-33.99l38.59,59.24-21.58,14.22-33.52-52.8Z"/>
      <path class="cls-1" d="m912.42,341.24h-26.61v-106.59h26.61v106.59Z"/>
      <path class="cls-3" d="m206.67,341.24h-26.64v-106.59h26.64v106.59Z"/>
      <g>
        <path class="cls-1" d="m986.88,228.17c27.55,0,50.95,22.51,50.95,49.14s-22.95,49.59-50.95,49.59-50.95-22.98-50.95-49.59,22.96-49.14,50.95-49.14Zm0,74.38c13.3,0,25.27-11.93,25.27-25.24s-11.97-24.8-25.27-24.8-24.81,11.48-24.81,24.8,11.47,25.24,24.81,25.24Z"/>
        <path class="cls-1" d="m973.01,340.06h-41.77v-24.77h110.65v24.77h-42.24v42.28h-26.64v-42.28Z"/>
        <path class="cls-1" d="m1107.76,454.17h-96.43v-70.88h26.65v46.56h69.78v24.32Zm-28.47-90.51h-27.63v-23.89h27.63v-81.3h27.07v139.27h-27.07v-34.08Z"/>
      </g>
      <path class="cls-1" d="m1175.25,283.96l-35.8,51.89-20.23-14.25,56.49-82.19,54.64,81.27-19.3,13.79-35.79-50.52Zm79.59,16.98h-27.99v-24.79h27.99v-41.79h26.17v106.87h-26.17v-40.3Zm78.78,155.16h-96.44v-76.71h26.64v52.35h69.81v24.35Zm-.7-114.86h-26.64v-106.87h26.64v106.87Z"/>
      <path class="cls-1" d="m1354.26,351.93v-117.53h78.98v24.79h-52.35v16.99h52.35v24.79h-52.35v25.72h52.35v25.26h-78.98Z"/>
      <path class="cls-1" d="m1472.87,302.22h-31.52v-24.8h31.52v-43.04h27.13v106.86h-27.13v-39.02Z"/>
      <path class="cls-3" d="m139.49,276.67h-28.93v-25.27h28.93v-16.81h25.72v106.45h-25.72v-24.22h-28.93v-23.87h28.93v-16.29Z"/>
      <path class="cls-3" d="m52.81,233.03c28.47,0,52.81,23.42,52.81,50.97s-24.34,51.44-52.81,51.44S0,312,0,284s24.34-50.97,52.81-50.97Zm0,77.61c14.7,0,27.07-11.49,27.07-26.64s-12.37-26.63-27.07-26.63-26.17,11.94-26.17,26.63,11.02,26.64,26.17,26.64Z"/>
      <path class="cls-3" d="m594.99,233.03c28.48,0,52.83,23.42,52.83,50.97s-24.34,51.44-52.83,51.44-52.8-23.44-52.8-51.44,24.33-50.97,52.8-50.97Zm0,77.61c14.7,0,27.09-11.49,27.09-26.64s-12.39-26.63-27.09-26.63-26.17,11.94-26.17,26.63,11.02,26.64,26.17,26.64Z"/>
      <g>
        <path class="cls-3" d="m267.42,189.71h-75.78v-24.81h178.65v24.81h-75.78v31.66h-27.1v-31.66Zm13.32-92.75l-45,50.5-18.84-17.44,63.84-70.72,63.82,70.72-18.81,17.44-45.01-50.5Zm-47.29,137.55h96.89v63.56h-69.81v19.63h69.81v24.79h-96.43v-68.29h69.81v-14.44h-70.27v-25.26Z"/>
        <path class="cls-1" d="m280.77,37.65l-45.03,50.5-18.84-17.44L280.77,0l63.8,70.7-18.82,17.44-44.98-50.5Z"/>
      </g>
      <path class="cls-3" d="m350.53,234.6h89.08v106.64h-26.65v-81.38h-62.43v-25.26Zm118.45,125.18c28.51,0,52.8,22.97,52.8,50.97s-24.28,50.51-52.8,50.51-52.8-22.96-52.8-50.51,24.33-50.97,52.8-50.97Zm0,77.15c15.15,0,26.65-11.02,26.65-26.18s-11.5-26.64-26.65-26.64-27.09,11.49-27.09,26.64,11.97,26.18,27.09,26.18Zm21.12-160.23h-34.89v-25.27h34.89v-16.84h26.65v106.64h-26.65v-16.1h-34.89v-23.87h34.89v-24.57Z"/>
    </g>
  </g>
</svg>