<?xml version="1.0" encoding="UTF-8"?>
<svg id="Layer_2" data-name="Layer 2" xmlns="http://www.w3.org/2000/svg" viewBox="0 0 664.67 482.35">
  <g id="Layer_1-2" data-name="Layer 1">
    <g>
      <polygon points="38.06 0 137.52 0 137.52 21.41 99.99 21.41 99.99 144.91 75.77 144.91 75.77 21.41 38.06 21.41 38.06 0"/>
      <path d="m143.84,0h24.09v58.9h49.06v-19.89c0-10.22-.07-26.01-.07-39.02h23.94v144.9h-23.87v-64.4h-49.06v64.4h-24.04L143.84,0Z"/>
      <polygon points="249.5 0 333.8 0 333.8 21.41 273.96 21.41 273.96 58.33 330.96 58.33 330.96 79.55 273.96 79.55 273.96 123.51 336.84 123.51 336.84 144.91 249.71 144.91 249.5 0"/>
      <polygon points="38.06 171.48 137.52 171.48 137.52 192.88 99.99 192.88 99.99 316.38 75.77 316.38 75.77 192.88 38.06 192.88 38.06 171.48"/>
      <path d="m144.83,171.47h44.6c28.03,0,49.44,9.84,49.63,39.21.18,15.35-5.88,25.95-15.74,32.59,10.43,6.62,14.01,17.05,14.79,26.51,1.51,16.87.37,29.55,10.22,46.6h-25.94c-4.36-8.9-5.88-25.76-6.44-35.61-.96-14.4-4.73-24.63-17.43-29.18-3.03.38-6.06.38-9.09.38h-20.46v64.4h-24.07l-.08-144.91Zm24.14,21.41v37.88h19.3c16.3,0,26.35-5.49,26.35-20.08s-10.06-17.8-26.35-17.8h-19.3Z"/>
      <polygon points="258.48 171.48 282.83 171.48 282.83 316.19 258.58 316.19 258.48 171.48"/>
      <path d="m295.53,171.48h26.17l48.87,104.55v-65.53c0-8.16-.11-21.67-.11-39.02h23.96v144.9h-27.07l-47.94-103.23v103.23h-23.86l-.03-144.9Z"/>
      <polygon points="406.27 171.48 430.46 171.48 430.46 316.19 406.23 316.19 406.27 171.48"/>
      <polygon points="439.96 171.48 539.42 171.48 539.42 192.88 501.91 192.88 501.91 316.38 477.67 316.38 477.67 192.88 439.96 192.88 439.96 171.48"/>
      <path d="m560.57,194.02c-2.83-5.87-8.52-16.1-12.3-22.54h30.5c2.09,6.06,5.11,14.39,7.37,19.5l21.23,45.1,20.26-44.33c2.65-5.87,5.68-14.39,7.59-20.27h29.34c-3.96,6.44-9.08,16.1-11.92,21.59l-34.09,65.53v57.77h-24.26v-57.95l-33.71-64.4Z"/>
      <path d="m96.04,420.7h36.83v49.31c-9.36,7.97-22.32,12.34-36.83,12.34-32.77,0-49.8-25.6-49.8-58.53s17.34-62.28,50.73-62.43c11.39,0,23.57,3.28,32.63,11.7l-6.1,7.95c-7.64-6.86-14.83-10.29-26.37-10.29-26.23,0-39.81,24.19-39.81,51.04,0,28.4,11.72,51.35,40.59,51.35,10.93,0,18.58-2.66,24.03-7.03v-36.05h-25.9v-9.36Z"/>
      <path d="m226.69,480.94c-1.41-4.05-3.75-11.86-5.49-17.01l-5.3-15.78h-49.47l-4.99,15.61c-1.89,5.78-3.91,12.65-5,17.17h-14.21c2.51-5.47,4.54-9.83,6.56-15.61l35.58-101.93h14.83l34.8,101.93c1.26,3.58,3.91,10.92,6.72,15.61h-14.04Zm-34.97-108.47l-21.85,66.34h43.38l-21.54-66.34Z"/>
      <path d="m251.97,392.91c0-7.18-.15-18.9-1.08-29.35h12.31v107.08h54.49v9.51h-65.73v-87.24Z"/>
      <path d="m332.05,392.91c0-7.18-.17-18.9-1.09-29.35h12.32v107.08h54.47v9.51h-65.7v-87.24Z"/>
      <path d="m412.13,392.91c0-7.18-.17-18.9-1.1-29.35h64.77v9.37h-52.43v41.21h50.1v9.36h-50.1v47.29h55.24v9.36h-66.48v-87.24Z"/>
      <path d="m494.54,392.91c0-7.17-.16-18.89-1.09-29.33h35.13c21.68,0,38.38,7.65,38.38,29.66,0,13.73-6.39,22.62-16.54,27.46,10,4.06,14.68,13.57,15.61,23.87,1.58,18.73,1.41,27.63,5.94,35.58h-12.48c-2.51-7.34-2.98-22.48-3.59-30.44-1.42-15.59-6.41-23.56-18.42-25.43-2.83.31-5.93.47-8.89.47h-23.1v55.4h-10.94v-87.25Zm33.09,22.49c17.34,0,27.94-6.87,27.94-22.16s-10.6-20.31-27.94-20.31h-22.15v42.46h22.15Z"/>
      <path d="m582.89,376.37c-1.72-3.12-5.62-9.51-7.49-12.79h14.36c1.73,4.83,4.22,9.99,6.72,14.51l24.19,44.33,23.41-43.71c2.65-4.99,5.14-10.6,7.02-15.13h13.57c-2.32,3.12-5.92,9.37-7.32,12.01l-31.85,58.06v46.53h-11.39v-46.68l-31.22-57.12Z"/>
      <rect width="10.33" height="314.91"/>
    </g>
  </g>
</svg>