<?xml version="1.0" encoding="UTF-8"?>
<svg id="Layer_2" data-name="Layer 2" xmlns="http://www.w3.org/2000/svg" viewBox="0 0 1318.2 300">
  <defs>
    <style>
      .cls-1 {
        fill: #1b3f94;
      }

      .cls-2 {
        fill: #bcbec0;
        fill-rule: evenodd;
      }
    </style>
  </defs>
  <g id="Layer_1-2" data-name="Layer 1">
    <g>
      <path class="cls-2" d="m155.35,253.27c0-6.38,7.16-7.57,7.16-7.57h55.64v-105.84c-2.38-1.18-6.34-5.98-6.34-5.98v105.05h-51.29c-8.75,0-12.37,7.15-12.37,7.15h-3.3s-3.58-7.15-12.33-7.15h-52.89v-105.05s-3.98,4.8-6.41,5.98v105.84h57.29s7.14,1.19,7.14,7.57h17.71Z"/>
      <path class="cls-2" d="m120.36,125.91l19.86-18.74,11.97,11.95v-54.9h-22.28v-9.6h33.4v15.54h9.94v10.36h-10.34v6.02h10.34v10.68h-10.34v36.57h-10.72l-12.34-11.83-12.32,11.45-7.17-7.5Zm-9.76-83.44l-.18,80.59s4.6,33.42,36.44,33.42,37.15-32.84,37.15-32.84V42.55l-73.42-.08Z"/>
      <path class="cls-2" d="m184.81,131.9h9.57l31.42-28.33-22.66-23.05-16.73,18.3v23.14s.4,4.79-1.61,9.94"/>
      <path class="cls-2" d="m207.66,70.74l-4.79,5.62,26.97,27.84,5.79-5.38-27.96-28.08Z"/>
      <path class="cls-2" d="m211.83,71.38l23.14,23.42,26.61-24.21-25.02-26.27-24.72,27.07Z"/>
      <path class="cls-2" d="m237.75,41.89l26.19,27.57,9.17-.46-9.17-9.59s15.97,9.18,25.11-3.59c9.14-12.75-2-26.62-3.96-29-1.99-2.39-8.66-9.13-19.11-10.34-8.38-1.02-23.46-6.81-29.06-15.17-.37,8.78,5.6,17.53,5.6,17.53,0,0-2.77,0-4.37-2.36,3.95,10.34,14.29,15.46,14.29,15.46,0,0,8.55-6.93,16.69-1.99,7.31,4.52,6.75,11.5,5.19,15.95-1.62-.27-2-.45-2-.45,0,0,2.96-7.63-2.76-12.53-4.95-4.12-12.16-2.13-15.13,1.02-2.97,3.16-2.77,10.61-.6,15.17-3.98-3.75-15.9-16.58-15.9-16.58l-.19,9.34Z"/>
      <path class="cls-2" d="m214.61,65.21l6.6-7.62s-18.69-3.77-28.42,2.46c8.54,6.68,21.83,5.15,21.83,5.15"/>
      <path class="cls-2" d="m222.03,56.82l4.97-5.15s-4.62-17.72-18.33-24.84c-.78,11.68,9.94,27.79,13.36,30"/>
      <path class="cls-2" d="m186.8,56.48s14.31.73,24.06-7.22c-.18-11.54-14.53-28.23-26.05-31.45,1.2,9.75,12.48,24.65,19.13,28.28-7.35-.73-17.14,1.41-17.14,1.41v8.97Z"/>
      <path class="cls-2" d="m13.74,21.63l34.22,34.19s4.38-11.11,6.77-13.54c-4.41-5.16-11.57-12.32-11.57-12.32,0,0-17.54-17.86-29.41-8.33"/>
      <path class="cls-2" d="m11.74,23.61l28.51,28.23s-16.16,6.4-30.9-1.97c-5.97-13.89,2.39-26.26,2.39-26.26"/>
      <path class="cls-2" d="m11.33,54.23s15.51,6.02,25.88,1.59c-5.97,10.78-6.54,21.23-6.54,21.23,0,0-16.14-12.84-19.35-22.82"/>
      <path class="cls-2" d="m47.36,77.53s-.12,3.74-2.22,5.47c3.18-2.02,8.89-3.21,8.89-3.21,0,0-5.57-.31-6.67-2.26"/>
      <path class="cls-2" d="m71.41,82.15s-3.86,4.53-5.99,5.67c3.99.38,10.22-1.48,10.22-1.48l-4.23-4.2Z"/>
      <path class="cls-2" d="m81.38,88.2s3.27-7.03,2.63-16.03c-5.34,5.01-11.56,6.23-12.84,6.04,1.54,1.64,10.21,10,10.21,10"/>
      <path class="cls-2" d="m58.72,92.6l1.28.25s.64,2.23-2.33,6.64c4.08,4.49,27.26,3.55,31.93.21-3.97-3.69-11.93-11.5-11.93-11.5,0,0-8.41,3.22-16.5,2.65-1.17,1.28-2.46,1.75-2.46,1.75"/>
      <path class="cls-2" d="m108.12,114.83v-16.57l-21.57-23.18s.4,10.21-3.08,15.25c3.32,3.27,24.65,24.5,24.65,24.5"/>
      <path class="cls-2" d="m63.88,105.15l18,15.37s12.88,1.46,24.24-4.5c-4.91-4.73-9.79-9.49-14.65-14.27,0,0-4.41,4.76-27.59,3.4"/>
      <path class="cls-2" d="m85.5,123.44l8.73,7.57h15.76s-2.23-4.88-1.87-13c-5.92,3.58-17.74,5.75-22.62,5.43"/>
      <path class="cls-2" d="m16.9,279.8s-3.16,4.24-.61,6.77c2.6,2.66,5.59,1.68,7.56,0,2.02-1.53,22.31-19.93,22.31-19.93,0,0-6.65-3.47-7.37-6.53,1.42-1.55,5.97-3,7.59-2.77-2.65-.4-5.81-2.37-5.81-2.37l-23.67,24.84Z"/>
      <path class="cls-2" d="m118.18,263.52s5.73,15.54,21.46,21.64c-15.73.81-29.65,11.58-31.41,14.59,16.73,1.02,29.23-5.96,35.42-12.39h5.96s14.71,14.77,34.59,12.39c-10.95-12-25.26-13.95-29.82-14.59,8.93-3.93,19.27-13.71,20.66-21.23-6.56.4-22.05,11.93-25.27,19.08-2.76-.19-6.11,0-6.11,0,0,0-9.76-16.1-25.47-19.49"/>
      <path class="cls-2" d="m284.26,285.41h-12.09l-50.96-44.41v-12.08h10.05l53,56.49Z"/>
      <path class="cls-2" d="m231.05,225.61l4.96,5s.45-4.27-1.88-8.47c-2.01,1.2-3.08,3.46-3.08,3.46"/>
      <path class="cls-2" d="m26.95,115.42s-13.37-18.75-1.6-43.22c8.74,19.68,5.95,30.06,4.83,36.19,8.13-9.07,22.66-13.31,26.66-12.93-6.59,12.76-20.11,18.48-29.89,19.96"/>
      <path class="cls-2" d="m36.24,95.78s-9.5-19.63,5.55-42.17c5.93,20.7.6,29.81-1.44,35.74,9.36-7.91,24.34-9.99,28.24-9.03-8.29,11.61-22.52,15.46-32.34,15.46"/>
      <path class="cls-2" d="m49.03,76.61s-4.74-20.69,14.4-39.94c1.79,21.46-5.16,29.38-8.25,34.83,10.66-5.95,25.72-5.18,29.33-3.54-10.33,9.9-25.8,10.49-35.48,8.66"/>
      <path class="cls-2" d="m65.39,62.12s-1.82-21.64,20.24-37.42c-1.84,21.49-10.09,28.12-14.07,32.9,11.57-4.06,26.28-.67,29.59,1.56-11.93,7.95-26.56,6.52-35.77,2.96"/>
      <path class="cls-2" d="m107.6,56.18c-9.51.03-18.28-3.73-24.1-7.86,0,0,3.52-21.46,28.84-31.31-7.11,20.42-16.64,24.78-21.75,28.45,5.81-.53,11.95.76,17.01,2.65v8.07Z"/>
      <path class="cls-2" d="m122.9,40.05c-4.1-1.69-6.87-1.65-11.43-1.84,5.55-2.98,15.6-6.08,25.28-25.32-26.37,6.48-32.68,27.19-32.68,27.19l18.83-.03Z"/>
      <path class="cls-2" d="m174.62,39.97c2.93-.98,7.32-1.62,10.41-1.76-5.48-2.98-15.55-6.08-25.22-25.32,26.32,6.47,32.48,27.05,32.48,27.05l-17.67.03Z"/>
      <path class="cls-2" d="m21.17,136.14s-14.66-16.13-6.67-42.06c11.54,18.17,9.12,28.42,8.81,34.63,6.69-10.25,20.43-16.49,24.48-16.76-4.63,13.62-17.18,21.32-26.62,24.18"/>
      <path class="cls-2" d="m19.58,158.1s-17.4-13.14-14.35-40.08c14.72,15.71,14.17,26.23,15.04,32.43,4.72-11.31,17.09-20.08,20.94-20.95-2.03,14.14-12.92,24.04-21.63,28.61"/>
      <path class="cls-2" d="m21.44,180.51S1.93,170.77,0,143.73c17.36,12.75,18.72,23.21,20.75,29.1,2.56-11.95,13.12-22.85,16.75-24.43.64,14.29-8.29,25.98-16.06,32.12"/>
      <path class="cls-2" d="m27.21,201.66S6.4,195.15.21,168.72c19.18,9.84,22.2,19.91,25.13,25.49.63-12.27,9.27-24.61,12.65-26.81,2.86,14.03-4.11,27.02-10.79,34.26"/>
      <path class="cls-2" d="m36.2,222.22s-21.57-2.92-32.08-27.97c20.59,6.55,25.18,15.93,28.97,20.99-1.38-12.21,5.13-25.83,8.06-28.49,5.15,13.33.47,27.31-4.95,35.46"/>
      <path class="cls-2" d="m49.65,240.82s-21.76,1.06-36.62-21.59c21.31,2.64,27.64,11.06,32.32,15.25-3.62-11.71.3-26.3,2.66-29.47,7.52,12.16,5.5,26.71,1.63,35.81"/>
      <path class="cls-2" d="m62.92,256.57s-21.31,4.26-39.41-15.89c21.55-.6,28.98,6.81,34.23,10.28-5.32-11.06-3.63-26.07-1.7-29.6,9.18,10.98,9.35,25.64,6.88,35.21"/>
      <path class="cls-2" d="m80.16,249.16c2.99,6.64,4.27,13.93,3.7,21.19,0,0-20.29,7.89-41.59-8.99,21.17-4.25,29.8,1.84,35.53,4.38-5.87-6.07-7.84-11.07-8.84-16.57h11.21Z"/>
      <path class="cls-2" d="m103.22,278.5s-18.49,11.64-42.57-.76c19.93-8.24,29.58-3.96,35.69-2.58-8.88-8.45-12.66-23.04-12.18-27.02,12.53,6.89,17.91,20.59,19.06,30.36"/>
      <path class="cls-2" d="m125.48,284.19s-16.1,14.63-42.02,6.64c18.21-11.64,28.43-9.04,34.72-8.78-10.26-6.78-16.48-20.56-16.72-24.5,13.56,4.63,21.22,17.2,24.02,26.64"/>
      <path class="cls-2" d="m264.78,115.67s12.11-18.15.41-42.54c-8.79,19.66-4.77,29.37-3.62,35.61-8.14-9.19-22.63-13.31-26.6-12.96,6.51,12.78,20.08,18.53,29.81,19.89"/>
      <path class="cls-2" d="m270.54,137.18s14.75-16.08,6.74-42.03c-11.59,18.2-9.11,28.48-8.87,34.68-6.68-10.25-20.37-16.55-24.4-16.74,4.58,13.54,17.12,21.2,26.53,24.09"/>
      <path class="cls-2" d="m272.17,159.13s17.38-13.1,14.39-40.01c-14.73,15.68-14.21,26.22-15.07,32.44-4.76-11.38-17.05-20.05-20.95-21.01,2,14.26,12.93,24.09,21.63,28.58"/>
      <path class="cls-2" d="m270.32,181.61s19.49-9.7,21.4-36.77c-17.36,12.72-18.69,23.15-20.7,29.08-2.58-11.94-13.07-22.78-16.73-24.41-.6,14.31,8.27,26,16.04,32.1"/>
      <path class="cls-2" d="m264.54,202.72s20.76-6.47,26.96-32.93c-19.14,9.87-22.15,19.93-25.09,25.49-.65-12.28-9.3-24.6-12.63-26.72-2.88,13.94,4.03,26.94,10.77,34.16"/>
      <path class="cls-2" d="m254.96,223.16s21.64-2.27,32.95-26.94c-20.77,5.91-25.69,15.16-29.66,20.03,1.79-12.13-4.3-25.97-7.11-28.83-5.58,13.23-1.37,27.36,3.82,35.74"/>
      <path class="cls-2" d="m247.61,241.5c7.44-1.22,20.83-5.6,31.14-21.16-21.38,2.66-27.71,11.03-32.34,15.27,3.66-11.69-.26-26.34-2.68-29.47-5.36,8.69-5.87,18.76-4.29,27.12l8.17,8.25Z"/>
      <path class="cls-2" d="m225.15,248.09c.15,3.6.44,7.14,1.18,10.19,0,0,4.53.71,10.67,0l-11.85-10.19Z"/>
      <path class="cls-2" d="m256.27,251.44c4.47-2.6,8.51-5.87,11.98-9.71-8.61-.17-14.16.67-19.02,2.2l7.04,7.5Z"/>
      <path class="cls-2" d="m244.83,265.73c-19.45,12.5-36.95,5.72-36.95,5.72-.56-6.38.38-14.75,4.17-22.39h8.54c-.84,5.74-2.88,12.44-6.63,17.71,4.8-2.01,11.51-6.56,25.08-5.7l5.8,4.66Z"/>
      <path class="cls-2" d="m187.91,279.41s18.06,12.15,42.58.48c-19.69-8.83-29.42-4.83-35.6-3.64,9.16-8.13,13.31-22.68,12.96-26.65-12.75,6.54-18.49,20.1-19.93,29.81"/>
      <path class="cls-2" d="m166.26,285.31s16.13,14.63,42.01,6.59c-18.19-11.54-28.36-9.04-34.7-8.77,10.25-6.75,16.49-20.47,16.69-24.47-13.58,4.69-21.22,17.2-24.01,26.65"/>
      <path class="cls-2" d="m231.63,153.36h-10.5v12.72h10.5v-12.72Zm-160.9.43h-10.54v12.69h10.54v-12.69Zm-.18,59.25h-10.49v12.76h10.49v-12.76Zm161.08,0h-10.5v12.76h10.5v-12.76Z"/>
      <path class="cls-2" d="m66.91,252.91c-2.28,0-4.12,1.85-4.12,4.13-.08,2.27,1.7,4.18,3.98,4.26,2.27.08,4.18-1.7,4.26-3.98,0-.09,0-.19,0-.28,0-2.27-1.87-4.13-4.11-4.13"/>
      <path class="cls-2" d="m39.74,220.17c-2.25,0-4.07,1.83-4.07,4.08,0,.01,0,.03,0,.04,0,2.25,1.82,4.07,4.07,4.08,2.31,0,4.1-1.83,4.1-4.08.04-2.24-1.75-4.08-3.99-4.12-.04,0-.08,0-.11,0"/>
      <path class="cls-2" d="m23.37,179.53c-2.27.04-4.08,1.89-4.07,4.16,0,2.24,1.82,4.05,4.07,4.05s4.16-1.81,4.16-4.05-1.9-4.16-4.16-4.16"/>
      <path class="cls-2" d="m22.36,135.77c-2.29,0-4.08,1.92-4.08,4.2s1.79,4.07,4.08,4.07,4.13-1.85,4.13-4.07c-.02-2.28-1.85-4.14-4.13-4.2"/>
      <path class="cls-2" d="m35.22,94.93c-2.28.03-4.11,1.88-4.12,4.15,0,2.28,1.84,4.13,4.12,4.13s4.14-1.85,4.14-4.14-1.85-4.14-4.14-4.14"/>
      <path class="cls-2" d="m62.94,60.35c-2.25.02-4.06,1.84-4.06,4.09,0,2.25,1.79,4.15,4.06,4.15s4.1-1.9,4.1-4.15c-.02-2.25-1.85-4.08-4.1-4.09"/>
      <path class="cls-2" d="m100.88,38.21c-2.26-.02-4.1,1.79-4.13,4.04,0,0,0,.01,0,.02,0,2.28,1.89,4.14,4.13,4.14s4.1-1.86,4.1-4.14c.02-2.23-1.78-4.05-4-4.06-.03,0-.06,0-.1,0"/>
      <path class="cls-2" d="m147.49,28.66c-2.26,0-4.09,1.83-4.09,4.09s1.83,4.09,4.09,4.09,4.08-1.81,4.08-4.1-1.81-4.07-4.08-4.07"/>
      <path class="cls-2" d="m194.7,38.4c-2.24,0-4.07,1.8-4.1,4.04,0,2.27,1.81,4.18,4.1,4.18s4.09-1.91,4.09-4.18c-.03-2.24-1.85-4.04-4.09-4.04"/>
      <path class="cls-2" d="m256.46,95.59c-2.26,0-4.1,1.83-4.11,4.09,0,0,0,.01,0,.02,0,2.26,1.82,4.08,4.11,4.08,2.26.08,4.16-1.69,4.23-3.95.08-2.26-1.69-4.16-3.95-4.23-.09,0-.19,0-.28,0"/>
      <path class="cls-2" d="m269.48,136.88c-2.27,0-4.12,1.82-4.14,4.09,0,2.24,1.92,4.08,4.14,4.08s4.13-1.84,4.13-4.08-1.85-4.09-4.13-4.09"/>
      <path class="cls-2" d="m268.26,180.99c-2.24-.02-4.08,1.78-4.1,4.02,0,.03,0,.05,0,.08,0,2.27,1.83,4.12,4.1,4.13,2.24,0,4.06-1.89,4.06-4.13.03-2.24-1.77-4.07-4-4.1-.02,0-.04,0-.06,0"/>
      <path class="cls-2" d="m251.87,221.67c-2.25-.02-4.09,1.79-4.11,4.04,0,0,0,0,0,.01,0,2.24,1.87,4.07,4.11,4.07s4.08-1.83,4.08-4.07c.02-2.22-1.76-4.03-3.98-4.05-.03,0-.07,0-.1,0"/>
      <path class="cls-2" d="m222.43,254.58c-2.27.02-4.11,1.85-4.13,4.12,0,2.28,1.89,4.09,4.13,4.09s4.16-1.81,4.16-4.09c-.02-2.28-1.88-4.12-4.16-4.12"/>
      <path class="cls-2" d="m120.36,36.67s6.61-11.12,20.69-4.12c0,0-5.77,8.47-20.69,4.12"/>
      <path class="cls-2" d="m174.62,37.09s-6.64-11.18-20.74-4.16c0,0,5.82,8.5,20.74,4.16"/>
      <path class="cls-2" d="m255.99,96.57s-11.55-.58-15.72-2.86l6.36-5.64s3.18,0,3.97.65c0,0-1.22-2.96-.79-3.54l7.64-6.87s1.46,6.67-1.47,18.27"/>
      <path class="cls-2" d="m64.03,228.21h6.62v17.49h-2.82s0-11.9-3.8-17.49"/>
      <path class="cls-2" d="m192.29,205.54h4.48l-2.23-9.18-2.25,9.18Z"/>
      <path class="cls-2" d="m198.76,213.66l-1.53-4.93-5.71.09-1.14,4.7h-3.58l5.77-23.13h3.85l5.92,23.27h-3.58Zm-13.64-20.17h-6.64v6.36h5.73v3.11h-5.77v7.68h6.49v3.16l-9.9-.15v-23.38h10.09v3.22Zm-15.64,20.17l-1.72-12.83-4.91,12.06-5.09-12.49-2.22,13.12h-3.47l3.62-23.31h2.28l4.88,13.4,4.91-13.48h2.47l2.46,23.54h-3.21Zm-15-53.77h3.07v20.22h7.85v3.16h-10.92v-23.37Zm17.48,0v16.98s.15,2.65,3.07,2.65,3-2.48,3-2.48v-17.05h3.91v16.87s.1,6.81-6.64,6.81-6.82-6.81-6.82-6.81l-.04-16.98h3.52Zm14.35,0h3.95l3.06,6.66,3.5-6.55h3.77l-5.15,10.62,5.98,12.72h-4.34l-3.93-8.28-4.23,8.52h-3.98l6.58-12.91-5.21-10.78Zm-3.34-26.42c-11.17,27.4-35.18,25.94-35.18,25.94v82.56c4.55-7.31,13.57-5.81,13.57-5.81h48.02v-102.68h-26.41Z"/>
      <path class="cls-2" d="m111.9,205.54h4.52l-2.19-9.18-2.33,9.18Z"/>
      <path class="cls-2" d="m136.22,212.29c-4.11,1.95-11.14.49-11.14.49v-3.56s3.42.32,6.62.41c3.18.12,4.1-2.11,4.1-3.45s.29-2.95-5.68-4.38c-7.43-1.84-5.99-9.82-2.42-11.56,5.2-2.36,11.28.29,11.28.29v3.72c-1.54-1.05-4.24-1.05-5.13-1.45-.96-.4-5.08-.14-5.08,2.48s2.43,3.15,6.4,4.42c7.13,2.65,5.12,10.58,1.05,12.59m-12.39-29.64h-3.44v-23.53h7.42s5.38,1.22,5.38,6.75-3.97,6.42-3.97,6.42l4.36,10.35h-4.27l-3.76-10.12h-1.72v10.12Zm-5.47,31l-1.49-4.93-5.74.09-1.13,4.69h-3.53l5.76-23.13h3.9l5.82,23.27h-3.59Zm-12.79-20.57h-4.81v20.12h-3.64v-20.12h-5.03v-3.38l13.48.12v3.26Zm-9.99-34.42l2.82,13.91,3.22-13.75h3.67l-5.32,23.83h-3.42l-4.76-23.83,3.79-.16Zm11.57.41h10.19v3.23h-6.97v6.34h6.22v2.86h-6.22v7.87h7.12v3.28h-10.34v-23.58Zm29.53.51h3.17v23.14h-3.17v-23.14Zm-26.07-26.12h-28.62v102.68h49.72s8.98-1.5,13.54,5.81v-82.56s-23.46.37-34.63-25.94"/>
      <path class="cls-2" d="m129.54,166.3c0-3.4-2.77-3.52-2.77-3.52h-2.77v6.59l3.25.1s2.29.21,2.29-3.16"/>
      <path class="cls-1" d="m400.91,266.58v-25.13h-8.39v-4.72h8.39v-12.22h4.84v42.06h-4.84Zm-13.85-25.31c.43,1.75,1.06,3.37,1.83,4.84.95,1.73,2.11,3.28,3.45,4.62,1.36,1.38,2.91,2.62,4.6,3.72-.7.58-1.37,1.18-2.03,1.8-.56.51-1.09,1.05-1.6,1.62-.77-.51-1.62-1.21-2.49-2-.92-.83-1.79-1.72-2.61-2.65-1.77-2-3.22-4.25-4.29-6.69-.35,1.18-.86,2.31-1.51,3.36-.7,1.19-1.48,2.33-2.34,3.41-.87,1.11-1.82,2.16-2.84,3.14-1,.95-1.93,1.76-2.8,2.38-.59-.58-1.2-1.13-1.84-1.65-.79-.64-1.52-1.19-2.24-1.71,1.85-1.18,3.5-2.53,4.92-4.04,1.42-1.5,2.6-3.16,3.55-4.99.83-1.63,1.45-3.39,1.87-5.25.42-1.87.61-3.85.61-5.97v-8.98h5.06v9.27c0,2.11.23,4.04.69,5.77"/>
      <path class="cls-1" d="m468.1,234.09c1.69.65,3.98.93,6.87.93s5.11-.29,6.85-.92c1.73-.61,2.59-1.43,2.59-2.51s-.89-2.02-2.64-2.67c-1.77-.67-4.03-1-6.8-1s-5.07.34-6.8.96c-1.74.67-2.61,1.53-2.61,2.63s.86,1.96,2.53,2.59m-3.93,2.66c-2.63-1.29-3.91-3.04-3.91-5.25,0-2.06,1.29-3.79,3.91-5.18,2.61-1.39,6.21-2.08,10.81-2.08s8.24.69,10.84,2.08c2.6,1.39,3.92,3.1,3.92,5.13,0,2.26-1.32,4.01-3.92,5.34-2.6,1.28-6.24,1.91-10.84,1.91s-8.2-.64-10.81-1.95m13.23,8.35v3.32h11.58v10.73h-22.45v3.21h23.31v3.95h-28.82v-10.84h22.46v-3.05h-22.46v-4h11.36v-3.32h-16.02v-3.99h37.32v3.99h-16.29Z"/>
      <path class="cls-1" d="m571.52,266.55v-22.85h-4.33v20.91h-4.59v-39.36h4.59v13.37h4.33v-14.14h4.61v42.06h-4.61Zm-10.64-11.18c-.86.24-2.32.45-4.37.66-1.82.18-3.65.3-5.48.36-.57,0-1.79.04-3.67.04h-2.84l-.03-29.15h14.1v4.32h-9.39v20.3l3.93-.05c1.32-.03,2.79-.14,4.39-.38,1.61-.21,2.74-.4,3.36-.5v4.4Z"/>
      <path class="cls-1" d="m659.67,240.22v11.35h-4.79v-27.06h4.79v11.04h5.26v4.67h-5.26Zm-23.94,5.58c1.05.53,2.33.82,3.86.82s2.85-.31,3.83-.87c1.01-.55,1.49-1.33,1.49-2.35s-.48-1.81-1.49-2.36c-.98-.52-2.25-.8-3.83-.8s-2.78.28-3.82.83c-1.07.56-1.6,1.33-1.6,2.33s.51,1.85,1.56,2.4m-2.46-21.47h12.39v3.91h-12.39v-3.91Zm21.42,42.44v-9.15h-22.41v-4.28h27.39v13.42h-4.97Zm-22.65-28.23c2-1.31,4.51-1.96,7.58-1.96s5.72.66,7.59,1.96c1.85,1.31,2.77,2.92,2.77,4.86s-.94,3.62-2.85,4.95c-1.91,1.33-4.45,1.98-7.61,1.98-2.88,0-5.36-.67-7.38-2-2.03-1.34-3.04-2.95-3.04-4.88s.99-3.61,2.93-4.91m-4.23-7.75h23.47v4.01h-23.47v-4.01Z"/>
      <path class="cls-1" d="m744.72,226.84c-.12,4.23-.37,8.45-.73,12.67-.33,4.17-.87,8.31-1.6,12.43h-4.79c.56-3.33,1.02-6.87,1.36-10.6.35-3.72.55-7.1.61-10.11h-24.26v-4.38h29.4Zm-33.38,35.1v-4.44h8.24v-14.92h4.82v14.92h4.76v-14.92h4.87v14.92h14.72v4.44h-37.41Z"/>
      <path class="cls-1" d="m887.55,224.48v16.02h5.65v4.59h-5.65v21.48h-4.79v-42.09h4.79Zm-17.08,16.35c.39,1.76,1.01,3.47,1.82,5.08.86,1.68,1.97,3.22,3.34,4.62,1.4,1.45,3.01,2.69,4.77,3.69-.65.57-1.28,1.17-1.88,1.8-.56.57-1.11,1.14-1.65,1.72-.92-.6-1.79-1.27-2.61-1.99-.91-.81-1.77-1.68-2.58-2.58-.92-1.06-1.76-2.18-2.52-3.35-.72-1.09-1.33-2.24-1.82-3.44-.38,1.22-.9,2.39-1.54,3.5-.69,1.16-1.44,2.28-2.25,3.35-.89,1.11-1.86,2.17-2.89,3.15-.9.85-1.85,1.65-2.84,2.39-.53-.51-1.15-1.04-1.83-1.63-.67-.57-1.45-1.15-2.34-1.77,1.81-1.09,3.42-2.36,4.8-3.75,1.42-1.42,2.59-2.98,3.53-4.73.95-1.65,1.64-3.48,2.13-5.47.46-1.99.7-4.17.7-6.52v-3.44h-8.2v-4.33h21.71v4.33h-8.43v3.68c0,2,.2,3.91.6,5.71"/>
      <path class="cls-1" d="m969.01,233.39h-6.87c.07.41.14.87.2,1.39.05.51.09,1,.09,1.42,0,.39-.02.79-.06,1.2-.04.38-.11.75-.2,1.12h6.83v-5.13Zm-22.35,32.39v-14.16h4.86v9.74h23.23v4.42h-28.09Zm.71-24.73c1.05,1.4,2.48,2.1,4.29,2.1s3.34-.7,4.37-2.1c1.02-1.38,1.54-2.99,1.54-4.86s-.52-3.44-1.54-4.82c-1.03-1.35-2.49-2.03-4.37-2.03s-3.24.68-4.29,2.03c-1.05,1.39-1.6,3.08-1.56,4.82,0,1.86.51,3.48,1.56,4.86m21.64,14.32v-12.42h-8.63c-.95,1.36-2.2,2.49-3.67,3.27-1.54.87-3.29,1.31-5.06,1.29-3.16,0-5.75-1.13-7.76-3.37-1.99-2.16-3.07-5.01-3.02-7.95,0-3.06,1-5.71,3.02-7.94,2-2.24,4.6-3.34,7.76-3.34,3.25-.03,6.33,1.46,8.32,4.04h9.03v-4.44h4.76v30.85h-4.76Z"/>
      <path class="cls-1" d="m1057.51,224.48v17h5.45v4.62h-5.45v20.47h-4.74v-42.09h4.74Zm-9.58,2.44c-.02,3.82-.17,7.64-.47,11.45-.27,3.52-.68,7.02-1.22,10.5h-4.92c.33-2.32.64-5.13.97-8.44.33-3.33.51-6.36.55-9.14h-15.89v-4.37h20.97Zm3.32,29.95c-2.91.34-5.83.61-8.75.81-4.21.29-8.42.43-12.64.42h-4.97v-4.47h7.13v-13.41h4.78v13.41c1.58-.03,3.99-.15,7.24-.38,3.25-.2,5.66-.45,7.21-.71v4.33Z"/>
      <path class="cls-1" d="m1142.89,240.22v11.35h-4.78v-27.06h4.78v11.04h5.28v4.67h-5.28Zm-23.93,5.58c1.03.53,2.31.82,3.84.82s2.85-.31,3.85-.87c.98-.55,1.48-1.33,1.48-2.35s-.5-1.81-1.48-2.36c-1-.52-2.28-.8-3.85-.8s-2.77.28-3.81.83c-1.08.56-1.61,1.33-1.61,2.33s.52,1.85,1.58,2.4m-2.48-21.47h12.4v3.91h-12.4v-3.91Zm21.44,42.44v-9.15h-22.41v-4.28h27.38v13.42h-4.97Zm-22.64-28.23c1.98-1.31,4.5-1.96,7.56-1.96s5.71.66,7.59,1.96c1.87,1.31,2.79,2.92,2.79,4.86s-.95,3.62-2.86,4.95c-1.91,1.33-4.45,1.98-7.62,1.98-2.89,0-5.34-.67-7.38-2-2.03-1.34-3.05-2.95-3.05-4.88s1-3.61,2.96-4.91m-4.24-7.75h23.49v4.01h-23.49v-4.01Z"/>
      <path class="cls-1" d="m1224.78,266.55v-22.85h-4.35v20.91h-4.61v-39.36h4.61v13.37h4.35v-14.14h4.61v42.06h-4.61Zm-10.65-11.18c-.87.24-2.32.45-4.36.66-1.83.18-3.66.3-5.49.36-.57,0-1.78.04-3.66.04h-2.84l-.02-29.15h14.09v4.32h-9.4v20.3l3.95-.05c1.29-.03,2.76-.14,4.39-.38,1.6-.21,2.73-.4,3.35-.5v4.4Z"/>
      <path class="cls-1" d="m1312.92,240.22v11.35h-4.79v-27.06h4.79v11.04h5.28v4.67h-5.28Zm-23.93,5.58c1.04.53,2.31.82,3.82.82,1.6,0,2.88-.31,3.85-.87.99-.55,1.48-1.33,1.48-2.35s-.48-1.81-1.48-2.36c-.97-.52-2.25-.8-3.85-.8-1.48,0-2.76.28-3.82.83-1.05.56-1.58,1.33-1.58,2.33s.51,1.85,1.57,2.4m-2.46-21.47h12.38v3.91h-12.38v-3.91Zm21.41,42.44v-9.15h-22.4v-4.28h27.38v13.42h-4.98Zm-22.62-28.23c1.97-1.31,4.47-1.96,7.55-1.96s5.7.66,7.59,1.96c1.86,1.31,2.79,2.92,2.79,4.86s-.95,3.62-2.87,4.95c-1.9,1.33-4.44,1.98-7.6,1.98-2.88,0-5.35-.67-7.37-2-2.03-1.34-3.05-2.95-3.05-4.88s.98-3.61,2.96-4.91m-4.24-7.75h23.48v4.01h-23.48v-4.01Z"/>
      <path class="cls-1" d="m810.9,245.6c0,3.47-2.79,6.26-6.25,6.26s-6.25-2.79-6.25-6.26,2.78-6.23,6.25-6.23,6.25,2.79,6.25,6.23"/>
      <path class="cls-1" d="m560.96,187.96c-22.67,0-42.06-15.76-50.21-38.05v-.16l-.04.03c-7.73-25.53.02-46.72.02-46.72,8.12-22.34,27.51-38.08,50.23-38.08h69.48s11.15-.13,11.15,10.83c-.03,5.9-4.83,10.67-10.73,10.66h-63.53c-14.92,0-27.01,9.38-32.21,23.61-1.14,2.69-6.22,16.69.62,33.26,0,0,10.77,23.15,32.01,23.15h63.67s10.3.75,10.3,10.78c0,5.44-4.69,10.69-10.72,10.69h-70.04Z"/>
      <path class="cls-1" d="m1088.59,187.96c-22.68,0-42.06-15.76-50.22-38.05v-.16l-.04.03c-7.74-25.53.02-46.72.02-46.72,8.12-22.34,27.52-38.08,50.24-38.08h69.48s11.14-.13,11.14,10.83c-.03,5.9-4.83,10.67-10.73,10.66h-63.52c-14.93,0-27,9.38-32.22,23.61-1.15,2.69-6.21,16.69.62,33.26,0,0,10.77,23.15,32.01,23.15h63.68s10.3.75,10.3,10.78c0,5.44-4.69,10.69-10.72,10.69h-70.03Z"/>
      <path class="cls-1" d="m675.97,65.58c-6.8,0-12.31,5.52-12.31,12.32,0,0,0,0,0,0v98.74c0,6.8,5.52,12.32,12.32,12.32s12.32-5.52,12.32-12.32v-98.74c0-6.81-5.52-12.33-12.33-12.33"/>
      <path class="cls-1" d="m452.35,116.09c-2.23,0-38.66-.17-40.22-.31-5.78,0-19.7-1.79-19.7-15.3,0-1.45-.15-14.88,19.81-14.88,12.62,0,78.06-.05,78.06-.05h.1c4.87-.65,7.96-5.9,7.91-10.72-.02-4.74-2.77-9.33-7.91-10.16h-81.48s-40.62-1.68-40.62,35.81,38.5,36.01,45.69,36.03l39.38-.04c21.38,0,20.5,13.43,20.51,15.63.04,14.96-20.18,14.96-20.18,14.96h-77.67l-.1.02c-5.17.81-7.79,5.55-7.81,10.31-.04,4.81,2.93,9.88,7.79,10.56h76.21s46.06,2.54,46.06-36c0-5.95-2.19-35.38-45.84-35.86"/>
      <path class="cls-1" d="m759.38,187.88c-22.68,0-42.06-15.68-50.23-37.96v-.16l-.04.03c-7.73-25.53.03-46.72.03-46.72,8.12-22.34,27.51-38.08,50.24-38.08h79.04s9.44-.14,9.44,10.83c-.03,5.9-4.84,10.67-10.74,10.66h-71.38c-16.64,0-29.05,11.81-33.18,28.82h100.91c6.82,0,12.34,5.01,12.34,11.19s-5.52,11.18-12.34,11.18h-100.89c4.5,16.69,15.73,28.83,31.99,28.83h76.52l67.67-96.59c3.87-5.54,11.5-6.89,17.04-3.01.94.66,1.78,1.44,2.5,2.33l60.12,74.22V24.48h-24.94c-6.76,0-12.25-5.47-12.26-12.23h0C951.21,5.48,956.7,0,963.47,0h37.2c3.21,0,6.38,1.31,8.66,3.59,2.29,2.3,3.57,5.41,3.58,8.66v19.15h17.33c5.88.01,10.64,4.78,10.63,10.66,0,5.87-4.75,10.63-10.61,10.63,0,0-.01,0-.02,0h-17.33v8.87h17.31c5.88,0,10.65,4.76,10.65,10.64h0c.01,5.89-4.75,10.67-10.63,10.68,0,0-.01,0-.02,0h-17.31v95.12c0,5.18-3.26,9.81-8.14,11.55,0,0-7.58,2.78-13.61-3.84l-71.66-88.45-59.95,85.55h0s-2.85,5.08-10.69,5.08h-89.48Z"/>
      <path class="cls-1" d="m1229.55,187.96c-22.67,0-42.06-15.76-50.22-38.05v-.16s-.02.03-.02.03c-7.74-25.53,0-46.72,0-46.72,8.13-22.34,27.54-38.08,50.24-38.08h77.34s11.15-.13,11.15,10.83c-.03,5.9-4.83,10.67-10.73,10.66h-71.37c-16.66,0-29.06,11.81-33.2,28.81h100.92c6.81,0,12.32,5.01,12.32,11.2s-5.51,11.17-12.32,11.17h-100.91c4.48,16.7,15.73,28.83,31.97,28.83h73.14s10.31.75,10.31,10.78c0,5.44-4.7,10.69-10.73,10.69h-77.89Z"/>
    </g>
  </g>
</svg>