<?xml version="1.0" encoding="UTF-8"?>
<svg id="Layer_1" data-name="Layer 1" xmlns="http://www.w3.org/2000/svg" viewBox="0 0 90.1 22.2">
  <defs>
    <style>
      .cls-1 {
        fill: #fdb82f;
      }

      .cls-2 {
        fill: #a6bdac;
      }
    </style>
  </defs>
  <polygon class="cls-2" points="0 .5 0 21.6 5.7 21.6 5.7 12.7 8.8 12.7 8.8 8.6 5.4 8.6 5.4 4.8 9.4 4.8 9.4 .5 0 .5"/>
  <rect class="cls-2" x="10.8" y=".5" width="5.3" height="21.1"/>
  <path class="cls-2" d="m75.4,4c0-1.7-2.4-3.4-4.6-3.4h-8.1v21.1h9c1.6,0,3.7-2,3.7-3.9V4Zm-7.5,13.7l.1-13.7h.9c.7,0,1,.7,1,1.1v11.5c0,.7-.5,1.1-1,1.1h-1Z"/>
  <path class="cls-2" d="m55.1,17.7V.5h5.3v17.2c0,1.7-.7,4.2-6.2,4.2s-6.2-2.9-6.2-4.2V.5h5.3v17.2c0,.3.6.6,1,.6.3,0,.8-.2.8-.6Z"/>
  <polygon class="cls-2" points="27.1 21.6 18.6 21.6 18.6 .5 23.9 .5 23.9 17.3 27.1 17.3 27.1 21.6"/>
  <path class="cls-2" d="m84.8,21.6h5.3l-3-21.1h-7.8l-3,21.1h5.3l.3-3.9h2.5l.4,3.9Zm-2.5-7.5l.9-9.2,1,9.2h-1.9Z"/>
  <polygon class="cls-1" points="41.9 .3 40.7 .3 38.5 .3 37.2 9.9 35.9 .3 33.7 .3 32.4 .3 28.4 .3 28.4 21.9 33.7 21.9 33.7 10 35.3 21.9 35.6 21.9 38.8 21.9 39.1 21.9 40.7 9.5 40.7 21.9 46 21.9 46 .3 41.9 .3"/>
</svg>