<?xml version="1.0" encoding="UTF-8"?>
<svg id="Layer_2" data-name="Layer 2" xmlns="http://www.w3.org/2000/svg" viewBox="0 0 90.1 21.6">
  <defs>
    <style>
      .cls-1 {
        fill: #fdb82f;
      }

      .cls-2 {
        fill: #a6bdac;
      }
    </style>
  </defs>
  <g id="Layer_1-2" data-name="Layer 1">
    <g>
      <polygon class="cls-2" points="0 .2 0 21.3 5.7 21.3 5.7 12.4 8.8 12.4 8.8 8.3 5.4 8.3 5.4 4.5 9.4 4.5 9.4 .2 0 .2"/>
      <rect class="cls-2" x="10.8" y=".2" width="5.3" height="21.1"/>
      <path class="cls-2" d="m75.4,3.7c0-1.7-2.4-3.4-4.6-3.4h-8.1v21.1h9c1.6,0,3.7-2,3.7-3.9V3.7Zm-7.5,13.7l.1-13.7h.9c.7,0,1,.7,1,1.1v11.5c0,.7-.5,1.1-1,1.1h-1Z"/>
      <path class="cls-2" d="m55.1,17.4V.2h5.3v17.2c0,1.7-.7,4.2-6.2,4.2s-6.2-2.9-6.2-4.2V.2h5.3v17.2c0,.3.6.6,1,.6.3,0,.8-.2.8-.6Z"/>
      <polygon class="cls-2" points="27.1 21.3 18.6 21.3 18.6 .2 23.9 .2 23.9 17 27.1 17 27.1 21.3"/>
      <path class="cls-2" d="m84.8,21.3h5.3L87.1.2h-7.8l-3,21.1h5.3l.3-3.9h2.5l.4,3.9Zm-2.5-7.5l.9-9.2,1,9.2h-1.9Z"/>
      <polygon class="cls-1" points="41.9 0 40.7 0 38.5 0 37.2 9.6 35.9 0 33.7 0 32.4 0 28.4 0 28.4 21.6 33.7 21.6 33.7 9.7 35.3 21.6 35.6 21.6 38.8 21.6 39.1 21.6 40.7 9.2 40.7 21.6 46 21.6 46 0 41.9 0"/>
    </g>
  </g>
</svg>