<?xml version="1.0" encoding="utf-8"?>
<!-- Generator: Adobe Illustrator 27.6.1, SVG Export Plug-In . SVG Version: 6.00 Build 0)  -->
<svg version="1.1" id="Layer_1" xmlns="http://www.w3.org/2000/svg" xmlns:xlink="http://www.w3.org/1999/xlink" x="0px" y="0px"
	 viewBox="0 0 90.1 22.2" style="enable-background:new 0 0 90.1 22.2;" xml:space="preserve">
<style type="text/css">
	.st0{display:none;}
	.st1{display:inline;fill:#55565B;}
	.st2{fill:#55565B;}
</style>
<g class="st0">
	<path class="st1" d="M-10.6,21.8V0.4h9.1c2.3,0,4,0.2,5,0.6C4.6,1.3,5.4,2,6,3s0.9,2.1,0.9,3.4c0,1.6-0.5,2.9-1.4,4
		c-0.9,1.1-2.4,1.7-4.2,2c0.9,0.5,1.7,1.1,2.3,1.8S5,16,6.1,17.7l2.6,4.2H3.5l-3.1-4.7c-1.1-1.7-1.9-2.7-2.3-3.2
		c-0.4-0.4-0.8-0.7-1.3-0.9c-0.5-0.2-1.2-0.2-2.2-0.2h-0.9v9C-6.3,21.8-10.6,21.8-10.6,21.8z M-6.3,9.4h3.2c2.1,0,3.4-0.1,3.9-0.3
		S1.7,8.7,2,8.3c0.3-0.4,0.4-1,0.4-1.6c0-0.7-0.2-1.3-0.6-1.8S1,4.2,0.3,4.1C-0.1,4-1.1,4-2.9,4h-3.4V9.4z M10.2,11.2
		c0-2.2,0.3-4,1-5.5c0.5-1.1,1.2-2.1,2-2.9c0.8-0.9,1.8-1.5,2.8-1.9C17.3,0.3,18.8,0,20.5,0c3.2,0,5.7,1,7.6,2.9S31,7.6,31,11.1
		c0,3.5-0.9,6.2-2.8,8.1s-4.4,2.9-7.6,2.9c-3.2,0-5.7-1-7.6-2.9C11.1,17.3,10.2,14.7,10.2,11.2z M14.6,11.1c0,2.4,0.6,4.3,1.7,5.5
		c1.1,1.3,2.5,1.9,4.3,1.9c1.7,0,3.1-0.6,4.3-1.9c1.1-1.2,1.7-3.1,1.7-5.6c0-2.5-0.5-4.3-1.6-5.5s-2.5-1.8-4.3-1.8
		c-1.8,0-3.2,0.6-4.3,1.8C15.2,6.8,14.6,8.6,14.6,11.1z M32.2,21.8l7.3-11.2L32.9,0.4h5.1l4.3,6.9l4.2-6.9h5l-6.7,10.4l7.3,11h-5.2
		l-4.8-7.4l-4.8,7.4C37.4,21.8,32.2,21.8,32.2,21.8z M54.2,21.8V0.4h4.3v21.5C58.6,21.8,54.2,21.8,54.2,21.8z M62.8,21.8V0.4H67
		l8.8,14.3V0.4h4v21.5h-4.4l-8.7-14v14C66.8,21.8,62.8,21.8,62.8,21.8z M84.4,21.8V0.4h15.9V4H88.7v4.8h10.8v3.6H88.7v5.8h12v3.6
		H84.4z"/>
</g>
<g>
	<polygon class="st2" points="0,0.5 0,21.6 5.7,21.6 5.7,12.7 8.8,12.7 8.8,8.6 5.4,8.6 5.4,4.8 9.4,4.8 9.4,0.5 	"/>
	<rect x="10.8" y="0.5" class="st2" width="5.3" height="21.1"/>
	<path class="st2" d="M75.4,4c0-1.7-2.4-3.4-4.6-3.4s-8.1,0-8.1,0v21.1c0,0,7.4,0,9,0s3.7-2,3.7-3.9S75.4,5.7,75.4,4z M67.9,17.7
		L68,4c0,0,0.2,0,0.9,0c0.7,0,1,0.7,1,1.1c0,0.5,0,10.8,0,11.5s-0.5,1.1-1,1.1C68.5,17.7,67.9,17.7,67.9,17.7z"/>
	<path class="st2" d="M55.1,17.7c0-0.4,0-17.2,0-17.2h5.3c0,0,0,15.4,0,17.2c0,1.7-0.7,4.2-6.2,4.2S48,19,48,17.7
		c0-1.3,0-17.2,0-17.2h5.3c0,0,0,16.8,0,17.2c0,0.3,0.6,0.6,1,0.6C54.6,18.3,55.1,18.1,55.1,17.7z"/>
	<polygon class="st2" points="27.1,21.6 18.6,21.6 18.6,0.5 23.9,0.5 23.9,17.3 27.1,17.3 	"/>
	<path class="st2" d="M84.8,21.6h5.3l-3-21.1h-3.7h-0.6h-3.5l-3,21.1h5.3l0.3-3.9h2.5L84.8,21.6z M82.3,14.1l0.9-9.2l1,9.2H82.3z"/>
	<polygon class="st2" points="41.9,0.3 40.7,0.3 38.5,0.3 37.2,9.9 35.9,0.3 33.7,0.3 32.4,0.3 28.4,0.3 28.4,21.9 33.7,21.9 
		33.7,10 35.3,21.9 35.6,21.9 38.8,21.9 39.1,21.9 40.7,9.5 40.7,21.9 46,21.9 46,0.3 	"/>
</g>
</svg>
